<?xml version='1.0' encoding='UTF-8' standalone='no'?>
<!-- Created with Fritzing (http://www.fritzing.org/) -->
<svg xmlns="http://www.w3.org/2000/svg" xmlns:svg="http://www.w3.org/2000/svg" version="1.2" x="0in" viewBox="0 0 344.693 305.008"  y="0in" baseProfile="tiny" height="4.23622in" width="4.7874in">
 <g partID="869259110">
  <g transform="translate(344.693,0)">
   <g transform="matrix(0,1,-1,0,0,0)">
    <g  id="board">
     <rect fill="none" x="0.288" stroke-width="0.5" stroke="black"  y="0.288" fill-opacity="0.5" height="344.117" id="boardoutline" width="304.432"/>
    </g>
   </g>
  </g>
 </g>
 <g partID="869603701">
  <g transform="translate(323.944,74.5592)">
   <g  id="copper1">
    <g fill="none" stroke-width="0.850392" stroke="black"  r="0.992124" id="0" cx="3.01733" cy="3.01733"/>
   </g>
  </g>
 </g>
 <g partID="869346380">
  <g transform="translate(6.13643,65.9735)">
   <g transform="matrix(1, 0, 0, 1, -3.03042, -6.18447)">
    <g id="copper1">
     <g gorn="0.4.0.0.0">
      <circle connectorname="1" fill="none" stroke-width="1.224" stroke="black" gorn="0.4.0.0.0.0" id="1" r="2.052" cy="9.57147" cx="6.45337"/>
      <circle connectorname="2" fill="none" stroke-width="1.224" stroke="black" gorn="0.4.0.0.0.1" id="2" r="2.052" cy="16.7715" cx="6.45337"/>
      <circle connectorname="3" fill="none" stroke-width="1.224" stroke="black" gorn="0.4.0.0.0.2" id="3" r="2.052" cy="23.9715" cx="6.45337"/>
      <g gorn="0.4.0.0.0.3" id="g17464">
       <circle connectorname="1" fill="none" stroke-width="1.224" stroke="black" gorn="0.4.0.0.0.3.0" id="4" r="2.052" cy="9.57147" cx="6.45337"/>
       <circle connectorname="2" fill="none" stroke-width="1.224" stroke="black" gorn="0.4.0.0.0.3.1" id="5" r="2.052" cy="16.7715" cx="6.45337"/>
       <circle connectorname="3" fill="none" stroke-width="1.224" stroke="black" gorn="0.4.0.0.0.3.2" id="6" r="2.052" cy="23.9715" cx="6.45337"/>
      </g>
     </g>
    </g>
   </g>
  </g>
 </g>
 <g partID="869335941">
  <g transform="translate(6.68923,286.732)">
   <g transform="matrix(0,-1,1,0,0,0)">
    <g gorn="0.3" id="copper1">
     <g transform="matrix(1, 0, 0, -1, 0, 56.8742)">
      <g>
       <g>
        <g gorn="0.3.0.0.0" id="copper0">
         <g transform="matrix(1, 0, 0, -1, 0, 56.8742)">
          <g>
           <g>
            <g style="display:none;stroke-dasharray:none" connectorname="3" fill="none" stroke-width="1.22457" stroke="black" gorn="0.3.0.0.0.0.0.0" id="7" r="2.052" cy="47.5291" cx="74.7575"/>
           </g>
          </g>
         </g>
         <g transform="scale(1,-1)">
          <g>
           <g>
            <g x="66.2283" fill="black" stroke-width="1.3056" stroke="black" gorn="0.3.0.0.0.1.0.0" y="-17.6234" height="16.5567" id="8" width="17.0584"/>
           </g>
          </g>
         </g>
         <g transform="scale(1,-1)">
          <g>
           <g>
            <g x="66.2278" fill="black" stroke-width="1.3056" stroke="black" gorn="0.3.0.0.0.2.0.0" y="-55.8075" height="16.5567" id="9" width="17.0584"/>
           </g>
          </g>
         </g>
         <g transform="matrix(1, 0, 0, -1, 0, 56.8742)">
          <g>
           <g>
            <g style="display:none" connectorname="3" fill="none" stroke-width="1.224" stroke="black" gorn="0.3.0.0.0.3.0.0" id="10" r="2.052" cy="9.345" cx="74.757"/>
           </g>
          </g>
         </g>
        </g>
       </g>
      </g>
     </g>
    </g>
   </g>
  </g>
 </g>
 <g partID="869272771">
  <g transform="translate(17.758,1.26376)">
   <g  gorn="0.3" id="copper1">
    <g  gorn="0.3.0" id="copper0">
     <circle connectorname="P$1" fill="none" stroke-width="1.44" stroke="black"  gorn="0.3.0.0" r="4.26331" id="11" cx="295.728" cy="108.817"/>
     <circle connectorname="P$1" fill="none" stroke-width="1.44" stroke="black"  gorn="0.3.0.1" r="4.26331" id="12" cx="11.0951" cy="108.604"/>
     <circle connectorname="P$1" fill="none" stroke-width="1.44" stroke="black"  gorn="0.3.0.2" r="4.26331" id="13" cx="295.728" cy="11.0951"/>
     <circle connectorname="P$1" fill="none" stroke-width="1.44" stroke="black"  gorn="0.3.0.3" r="4.26331" id="14" cx="11.0951" cy="10.8817"/>
    </g>
   </g>
  </g>
 </g>
 <g partID="869355011">
  <g transform="translate(172.546,292.36)">
   <g transform="matrix(-1,0,0,-1,0,0)">
    <g transform="matrix(1, 0, 0, 1, 274.752, 286.299)">
     <g id="copper1">
      <g gorn="0.1.0.0.5">
       <g gorn="0.1.0.0.5.0" id="15"/>
      </g>
     </g>
    </g>
   </g>
  </g>
 </g>
 <g partID="869274281">
  <g transform="translate(172.142,216.061)">
   <g transform="matrix(0,-1,1,0,0,0)">
    <g transform="matrix(0.352778, 0, 0, 0.352778, 2.24504, 71.4288)">
     <g id="copper1">
      <g gorn="0.3.0.0">
       <g gorn="0.3.0.0.0" id="copper0">
        <g fill="none" stroke-width="3.06142" stroke="black" gorn="0.3.0.0.0.0" id="16" r="5.6126" cx="157.153" cy="13.2661"/>
        <g fill="none" stroke-width="3.06142" stroke="black" gorn="0.3.0.0.0.1" id="17" r="5.6126" cx="136.743" cy="13.2661"/>
        <g fill="none" stroke-width="3.06142" stroke="black" gorn="0.3.0.0.0.2" id="18" r="5.6126" cx="116.334" cy="13.2661"/>
        <g fill="none" stroke-width="3.06142" stroke="black" gorn="0.3.0.0.0.3" id="19" r="5.6126" cx="95.9244" cy="13.2661"/>
        <g fill="none" stroke-width="3.06142" stroke="black" gorn="0.3.0.0.0.4" id="20" r="5.6126" cx="75.515" cy="13.2661"/>
        <g fill="none" stroke-width="3.06142" stroke="black" gorn="0.3.0.0.0.5" id="21" r="5.6126" cx="55.1055" cy="13.2661"/>
       </g>
      </g>
     </g>
    </g>
   </g>
  </g>
 </g>
 <g partID="869289061">
  <g transform="translate(317.447,150.056)">
   <g transform="matrix(0,1,-1,0,0,0)">
    <g stroke-width="0"  gorn="0.3" id="copper1">
     <g stroke-width="0"  gorn="0.3.0" id="copper0">
      <g connectorname="RX2_LV" fill="none" stroke-width="0.864" stroke="black"  gorn="0.3.0.0" id="22" r="1.872" cy="32.4" cx="32.4"/>
      <g connectorname="GND" fill="none" stroke-width="0.864" stroke="black"  gorn="0.3.0.1" id="23" r="1.872" cy="32.4" cx="25.2"/>
      <g connectorname="LV" fill="none" stroke-width="0.864" stroke="black"  gorn="0.3.0.2" id="24" r="1.872" cy="32.4" cx="18"/>
      <g connectorname="RX_LV" fill="none" stroke-width="0.864" stroke="black"  gorn="0.3.0.3" id="25" r="1.872" cy="32.4" cx="10.8"/>
      <g connectorname="TX_LV" fill="none" stroke-width="0.864" stroke="black"  gorn="0.3.0.4" id="26" r="1.872" cy="32.4" cx="3.6"/>
      <g connectorname="TX_HV" fill="none" stroke-width="0.864" stroke="black"  gorn="0.3.0.5" id="27" r="1.872" cy="3.6" cx="3.6"/>
      <g connectorname="RX_HV" fill="none" stroke-width="0.864" stroke="black"  gorn="0.3.0.6" id="28" r="1.872" cy="3.6" cx="10.8"/>
      <g connectorname="HV" fill="none" stroke-width="0.864" stroke="black"  gorn="0.3.0.7" id="29" r="1.872" cy="3.6" cx="18"/>
      <g connectorname="GND" fill="none" stroke-width="0.864" stroke="black"  gorn="0.3.0.8" id="30" r="1.872" cy="3.6" cx="25.2"/>
      <g connectorname="RX2_HV" fill="none" stroke-width="0.864" stroke="black"  gorn="0.3.0.9" id="31" r="1.872" cy="3.6" cx="32.4"/>
      <g connectorname="TX2_HV" fill="none" stroke-width="0.864" stroke="black"  gorn="0.3.0.10" id="32" r="1.872" cy="3.6" cx="39.6"/>
      <g connectorname="TX2_LV" fill="none" stroke-width="0.864" stroke="black"  gorn="0.3.0.11" id="33" r="1.872" cy="32.4" cx="39.6"/>
     </g>
    </g>
   </g>
  </g>
 </g>
 <g partID="869603191">
  <g transform="translate(340.668,265.787)">
   <g transform="matrix(-1,0,0,-1,0,0)">
    <g  id="copper1">
     <g connectorname="1" fill="none" stroke-width="1.224" stroke="black"  id="34" r="2.052" cx="6.45336" cy="9.57146"/>
     <g connectorname="2" fill="none" stroke-width="1.224" stroke="black"  id="35" r="2.052" cx="6.45336" cy="16.7715"/>
     <g connectorname="3" fill="none" stroke-width="1.224" stroke="black"  id="36" r="2.052" cx="6.45336" cy="23.9715"/>
     <g  id="copper0">
      <g connectorname="1" fill="none" stroke-width="1.224" stroke="black"  id="37" r="2.052" cx="6.45336" cy="9.57146"/>
      <g connectorname="2" fill="none" stroke-width="1.224" stroke="black"  id="38" r="2.052" cx="6.45336" cy="16.7715"/>
      <g connectorname="3" fill="none" stroke-width="1.224" stroke="black"  id="39" r="2.052" cx="6.45336" cy="23.9715"/>
     </g>
    </g>
   </g>
  </g>
 </g>
 <g partID="869266851">
  <g transform="translate(329.387,121.648)">
   <g  id="copper1">
    <g  id="copper0">
     <g fill="none" stroke-width="1.44" stroke="black"  id="40" r="2.088" cx="5.04" cy="5.04"/>
     <g fill="none" stroke-width="1.44" stroke="black"  id="41" r="2.088" cx="5.04" cy="12.24"/>
    </g>
   </g>
  </g>
 </g>
 <g partID="869327661">
  <g transform="translate(284.853,142.4)">
   <g transform="matrix(0,-1,1,0,0,0)">
    <g  id="copper1">
     <g  id="copper0">
      <g fill="none" stroke-width="1.44" stroke="black"  id="42" r="2.088" cx="5.04" cy="5.04"/>
      <g fill="none" stroke-width="1.44" stroke="black"  id="43" r="2.088" cx="5.04" cy="12.24"/>
      <g fill="none" stroke-width="1.44" stroke="black"  id="44" r="2.088" cx="5.04" cy="19.44"/>
     </g>
    </g>
   </g>
  </g>
 </g>
 <g partID="869340251">
  <g transform="translate(232.089,122.697)">
   <g transform="matrix(0,1,-1,0,0,0)">
    <g  id="copper1">
     <g  id="copper0">
      <g fill="none" stroke-width="1.44" stroke="black"  id="45" r="2.088" cx="5.04" cy="5.04"/>
      <g fill="none" stroke-width="1.44" stroke="black"  id="46" r="2.088" cx="5.04" cy="12.24"/>
     </g>
    </g>
   </g>
  </g>
 </g>
 <g partID="869327621">
  <g transform="translate(329.303,192.92)">
   <g  id="copper1">
    <g  id="copper0">
     <g fill="none" stroke-width="1.44" stroke="black"  id="47" r="2.088" cx="5.04" cy="5.04"/>
     <g fill="none" stroke-width="1.44" stroke="black"  id="48" r="2.088" cx="5.04" cy="12.24"/>
    </g>
   </g>
  </g>
 </g>
 <g partID="869337121">
  <g transform="translate(274.928,206.848)">
   <g  id="copper1">
    <g  id="copper0">
     <g fill="none" stroke-width="1.44" stroke="black"  id="49" r="2.088" cx="5.04" cy="5.04"/>
     <g fill="none" stroke-width="1.44" stroke="black"  id="50" r="2.088" cx="5.04" cy="12.24"/>
     <g fill="none" stroke-width="1.44" stroke="black"  id="51" r="2.088" cx="5.04" cy="19.44"/>
     <g fill="none" stroke-width="1.44" stroke="black"  id="52" r="2.088" cx="5.04" cy="26.64"/>
    </g>
   </g>
  </g>
 </g>
 <g partID="869327601">
  <g transform="translate(329.317,164.184)">
   <g  id="copper1">
    <g  id="copper0">
     <g fill="none" stroke-width="1.44" stroke="black"  id="53" r="2.088" cx="5.04" cy="5.04"/>
     <g fill="none" stroke-width="1.44" stroke="black"  id="54" r="2.088" cx="5.04" cy="12.24"/>
     <g fill="none" stroke-width="1.44" stroke="black"  id="55" r="2.088" cx="5.04" cy="19.44"/>
    </g>
   </g>
  </g>
 </g>
 <g partID="869266861">
  <g transform="translate(329.301,142.668)">
   <g  id="copper1">
    <g  id="copper0">
     <g fill="none" stroke-width="1.44" stroke="black"  id="56" r="2.088" cx="5.04" cy="5.04"/>
     <g fill="none" stroke-width="1.44" stroke="black"  id="57" r="2.088" cx="5.04" cy="12.24"/>
    </g>
   </g>
  </g>
 </g>
 <g partID="869266871">
  <g transform="translate(329.361,100.581)">
   <g  id="copper1">
    <g  id="copper0">
     <g fill="none" stroke-width="1.44" stroke="black"  id="58" r="2.088" cx="5.04" cy="5.04"/>
     <g fill="none" stroke-width="1.44" stroke="black"  id="59" r="2.088" cx="5.04" cy="12.24"/>
    </g>
   </g>
  </g>
 </g>
 <g partID="869266881">
  <g transform="translate(329.386,72.6986)">
   <g  id="copper1">
    <g  id="copper0">
     <g fill="none" x="2.952" stroke-width="1.44" stroke="black"  y="2.952" height="4.176" id="60" width="4.176"/>
     <g fill="none" stroke-width="1.44" stroke="black"  id="61" r="2.088" cx="5.04" cy="5.04"/>
     <g fill="none" stroke-width="1.44" stroke="black"  id="62" r="2.088" cx="5.04" cy="12.24"/>
     <g fill="none" stroke-width="1.44" stroke="black"  id="63" r="2.088" cx="5.04" cy="19.44"/>
    </g>
   </g>
  </g>
 </g>
 <g partID="869327721">
  <g transform="translate(264.493,190.16)">
   <g transform="matrix(0,-1,1,0,0,0)">
    <g  id="copper1">
     <g style="stroke-linecap:round;stroke-linejoin:round;stroke-miterlimit:4;stroke-dasharray:none;stroke-dashoffset:0;display:inline" stroke-opacity="1" fill="none" stroke-width="1.44" d="m9,3.6a1.8,1.8,0,0,1,-3.6,0,1.8,1.8,0,1,1,3.6,0z" stroke="black"  id="64"/>
     <g style="stroke-linecap:round;stroke-linejoin:round;stroke-miterlimit:4;stroke-dasharray:none;stroke-dashoffset:0;display:inline" stroke-opacity="1" fill="none" stroke-width="1.44" d="m16.2,3.6a1.8,1.8,0,0,1,-3.6,0,1.8,1.8,0,1,1,3.6,0z" stroke="black"  id="65"/>
     <g style="stroke-linecap:round;stroke-linejoin:round;stroke-miterlimit:4;stroke-dasharray:none;stroke-dashoffset:0;display:inline" stroke-opacity="1" fill="none" stroke-width="1.44" d="m23.4,3.6a1.8,1.8,0,0,1,-3.6,0,1.8,1.8,0,1,1,3.6,0z" stroke="black"  id="66"/>
    </g>
   </g>
  </g>
 </g>
 <g partID="869327701">
  <g transform="translate(264.893,155.36)">
   <g transform="matrix(0,-1,1,0,0,0)">
    <g  id="copper1">
     <g style="stroke-linecap:round;stroke-linejoin:round;stroke-miterlimit:4;stroke-dasharray:none;stroke-dashoffset:0;display:inline" stroke-opacity="1" fill="none" stroke-width="1.44" d="m9,3.6a1.8,1.8,0,0,1,-3.6,0,1.8,1.8,0,1,1,3.6,0z" stroke="black"  id="67"/>
     <g style="stroke-linecap:round;stroke-linejoin:round;stroke-miterlimit:4;stroke-dasharray:none;stroke-dashoffset:0;display:inline" stroke-opacity="1" fill="none" stroke-width="1.44" d="m16.2,3.6a1.8,1.8,0,0,1,-3.6,0,1.8,1.8,0,1,1,3.6,0z" stroke="black"  id="68"/>
     <g style="stroke-linecap:round;stroke-linejoin:round;stroke-miterlimit:4;stroke-dasharray:none;stroke-dashoffset:0;display:inline" stroke-opacity="1" fill="none" stroke-width="1.44" d="m23.4,3.6a1.8,1.8,0,0,1,-3.6,0,1.8,1.8,0,1,1,3.6,0z" stroke="black"  id="69"/>
    </g>
   </g>
  </g>
 </g>
</svg>
