; NON-PLATED HOLES START AT T1
; THROUGH (PLATED) HOLES START AT T100
M48
INCH
T1C0.393700
T2C0.086614
T3C0.984252
T100C0.039992
T101C0.040000
T102C0.098425
T103C0.015748
T104C0.086614
T105C0.038000
T106C0.030000
%
T1
X037232Y003744
X041215Y004135
X036135Y004686
X035192Y003747
X034147Y004686
X012401Y016273
X021788Y016273
X033270Y004219
X037212Y004683
X003170Y023157
X040242Y003747
X040221Y004686
X013757Y016273
X039217Y003747
X034168Y003747
X041177Y003744
X036155Y003747
X038217Y003747
X041156Y004683
X011566Y016273
X035172Y004686
X003170Y016273
X039196Y004686
X010784Y016273
X033308Y003749
X013151Y016279
X033287Y004688
X038196Y004686
X021841Y023157
T2
X019383Y000863
X015161Y000863
X016494Y000863
X015716Y000863
X018022Y000863
X016744Y000863
X018563Y000863
X015966Y000863
X014619Y000863
X021480Y000863
X016994Y000863
X017272Y000863
X013633Y000863
X019869Y000863
X017772Y000863
X020438Y000863
X020674Y000863
X021188Y000863
X014911Y000863
X017543Y000868
X013883Y000863
X020938Y000863
X014119Y000863
X018286Y000863
X014424Y000849
X018827Y000863
X020133Y000863
X019077Y000863
X015467Y000868
X016216Y000863
X019619Y000863
T3
X014178Y019756
X015299Y019756
X006925Y019756
X018200Y019756
X016947Y019756
X018707Y019736
X011079Y019756
X012596Y019756
X008573Y019756
X006266Y019736
X009365Y019756
T100
X007530Y012921
T101
X034479Y017365
X043589Y021021
X034479Y020365
X046418Y008776
X043589Y019021
X039589Y016021
X039589Y020021
X039589Y017021
X034479Y016365
X001327Y032728
X039589Y021021
X043589Y017021
X039589Y019021
X043589Y020021
X034479Y019365
X002226Y012921
X034479Y015365
X046418Y006776
X001327Y031728
X043589Y018021
X046418Y007776
X001327Y030728
X034479Y018365
X043589Y016021
X039589Y018021
T102
X043539Y027073
X043539Y040645
X004007Y027102
X004007Y040675
T103
X045411Y031587
T104
X047019Y000861
X022909Y035827
X047024Y000856
X000859Y000859
X047018Y035826
X000858Y041501
X047018Y000856
X047019Y041500
X022907Y000855
T105
X038884Y010933
X046438Y018858
X041262Y023284
X046448Y030565
X046448Y023766
X046436Y020847
X046448Y029565
X046448Y024766
X038884Y009933
X046448Y031565
X046444Y027692
X046438Y016858
X030534Y024620
X046436Y021847
X040262Y023284
X038884Y012933
X031534Y024620
X046438Y017858
X046436Y013867
X038884Y011933
X046444Y026692
X042262Y023284
X046436Y014867
T106
X037235Y016951
X037290Y023784
X037235Y017951
X037290Y022784
X037290Y021784
X037235Y018951
T00
M30
