G04 MADE WITH FRITZING*
G04 WWW.FRITZING.ORG*
G04 DOUBLE SIDED*
G04 HOLES PLATED*
G04 CONTOUR ON CENTER OF CONTOUR VECTOR*
%ASAXBY*%
%FSLAX23Y23*%
%MOIN*%
%OFA0B0*%
%SFA1.0B1.0*%
%ADD10C,0.049370*%
%ADD11C,0.096614*%
%ADD12C,0.403700*%
%ADD13C,0.084000*%
%ADD14C,0.084008*%
%ADD15C,0.120236*%
%ADD16C,0.148425*%
%ADD17C,0.073528*%
%ADD18C,0.074000*%
%ADD19C,0.994252*%
%ADD20C,0.088000*%
%ADD21R,0.258087X0.265055*%
%ADD22R,0.088000X0.088000*%
%ADD23R,0.001000X0.001000*%
%LNMASK1*%
G90*
G70*
G54D10*
X4541Y3159D03*
G54D11*
X2148Y86D03*
G54D12*
X4116Y468D03*
G54D13*
X133Y3273D03*
X133Y3173D03*
X133Y3073D03*
X133Y3273D03*
X133Y3173D03*
X133Y3073D03*
G54D12*
X4118Y374D03*
X3820Y469D03*
X3822Y375D03*
X4022Y469D03*
G54D14*
X753Y1292D03*
G54D13*
X223Y1292D03*
G54D12*
X4024Y375D03*
X3517Y469D03*
X3519Y375D03*
X3920Y469D03*
X3922Y375D03*
X3721Y468D03*
X3723Y374D03*
X3614Y469D03*
X3616Y375D03*
X3329Y469D03*
X3327Y422D03*
X3331Y375D03*
X4122Y414D03*
X3415Y469D03*
X3417Y375D03*
G54D15*
X4702Y86D03*
G54D16*
X4354Y2707D03*
X401Y2710D03*
X4354Y4065D03*
X401Y4068D03*
G54D17*
X3448Y2037D03*
X3448Y1937D03*
X3448Y1837D03*
X3448Y1737D03*
X3448Y1637D03*
X3448Y1537D03*
G54D18*
X3959Y1702D03*
X3959Y1802D03*
X3959Y1902D03*
X3959Y2002D03*
X3959Y2102D03*
X4359Y2102D03*
X4359Y2002D03*
X4359Y1902D03*
X4359Y1802D03*
X4359Y1702D03*
X4359Y1602D03*
X3959Y1602D03*
G54D11*
X1547Y87D03*
X1572Y86D03*
X1516Y86D03*
X1462Y86D03*
X1412Y86D03*
X1363Y86D03*
X1962Y86D03*
X1754Y87D03*
X2094Y86D03*
X2044Y86D03*
X1987Y86D03*
G54D13*
X4642Y678D03*
X4642Y778D03*
X4642Y878D03*
X4642Y678D03*
X4642Y778D03*
X4642Y878D03*
G54D11*
X1938Y86D03*
X1883Y86D03*
X1829Y86D03*
X1777Y86D03*
X1727Y86D03*
X1674Y86D03*
X1622Y86D03*
G54D19*
X857Y1976D03*
X1108Y1976D03*
X1418Y1976D03*
X1530Y1976D03*
G54D12*
X1157Y1627D03*
X1315Y1628D03*
X1376Y1627D03*
X1078Y1627D03*
X1240Y1627D03*
X317Y1627D03*
X2179Y1627D03*
X317Y2316D03*
X2184Y2316D03*
G54D19*
X1871Y1974D03*
X627Y1974D03*
X693Y1976D03*
X937Y1976D03*
X1695Y1976D03*
X1260Y1976D03*
X1820Y1976D03*
G54D11*
X2119Y86D03*
X2013Y86D03*
X1908Y86D03*
X1802Y86D03*
X1699Y86D03*
X1597Y86D03*
X1491Y86D03*
X1388Y86D03*
X2067Y86D03*
X1856Y86D03*
X1649Y86D03*
X1442Y85D03*
G54D15*
X4702Y86D03*
X4702Y4150D03*
X86Y4150D03*
X86Y86D03*
G54D20*
X4645Y2477D03*
X4645Y2377D03*
X4026Y2328D03*
X4126Y2328D03*
X4226Y2328D03*
X3153Y2462D03*
X3053Y2462D03*
X4644Y1487D03*
X4644Y1387D03*
X3888Y1293D03*
X3888Y1193D03*
X3888Y1093D03*
X3888Y993D03*
X4644Y1886D03*
X4644Y1786D03*
X4644Y1686D03*
X4644Y2185D03*
X4644Y2085D03*
X4644Y2769D03*
X4644Y2669D03*
X4645Y3157D03*
X4645Y3057D03*
X4645Y2957D03*
G54D15*
X4702Y86D03*
X4702Y3583D03*
X2291Y86D03*
X2291Y3583D03*
G54D21*
X753Y1292D03*
X223Y1292D03*
G54D22*
X4645Y3157D03*
G54D23*
X3721Y2418D02*
X3735Y2418D01*
X3717Y2417D02*
X3739Y2417D01*
X3714Y2416D02*
X3742Y2416D01*
X3712Y2415D02*
X3745Y2415D01*
X3710Y2414D02*
X3747Y2414D01*
X3708Y2413D02*
X3748Y2413D01*
X3707Y2412D02*
X3750Y2412D01*
X3705Y2411D02*
X3751Y2411D01*
X3704Y2410D02*
X3753Y2410D01*
X3703Y2409D02*
X3754Y2409D01*
X3701Y2408D02*
X3755Y2408D01*
X3700Y2407D02*
X3756Y2407D01*
X3699Y2406D02*
X3757Y2406D01*
X3699Y2405D02*
X3758Y2405D01*
X3698Y2404D02*
X3759Y2404D01*
X3697Y2403D02*
X3759Y2403D01*
X3696Y2402D02*
X3760Y2402D01*
X3696Y2401D02*
X3761Y2401D01*
X3695Y2400D02*
X3762Y2400D01*
X3694Y2399D02*
X3762Y2399D01*
X3694Y2398D02*
X3763Y2398D01*
X3693Y2397D02*
X3763Y2397D01*
X3693Y2396D02*
X3764Y2396D01*
X3692Y2395D02*
X3764Y2395D01*
X3692Y2394D02*
X3765Y2394D01*
X3691Y2393D02*
X3765Y2393D01*
X3691Y2392D02*
X3765Y2392D01*
X3691Y2391D02*
X3766Y2391D01*
X3690Y2390D02*
X3766Y2390D01*
X3690Y2389D02*
X3766Y2389D01*
X3690Y2388D02*
X3767Y2388D01*
X3690Y2387D02*
X3767Y2387D01*
X3690Y2386D02*
X3767Y2386D01*
X3689Y2385D02*
X3767Y2385D01*
X3689Y2384D02*
X3767Y2384D01*
X3689Y2383D02*
X3767Y2383D01*
X3689Y2382D02*
X3768Y2382D01*
X3689Y2381D02*
X3768Y2381D01*
X3689Y2380D02*
X3768Y2380D01*
X3689Y2379D02*
X3768Y2379D01*
X3689Y2378D02*
X3768Y2378D01*
X3689Y2377D02*
X3768Y2377D01*
X3689Y2376D02*
X3768Y2376D01*
X3689Y2375D02*
X3768Y2375D01*
X3689Y2374D02*
X3767Y2374D01*
X3689Y2373D02*
X3767Y2373D01*
X3689Y2372D02*
X3767Y2372D01*
X3690Y2371D02*
X3767Y2371D01*
X3690Y2370D02*
X3767Y2370D01*
X3690Y2369D02*
X3766Y2369D01*
X3690Y2368D02*
X3766Y2368D01*
X3691Y2367D02*
X3766Y2367D01*
X3691Y2366D02*
X3766Y2366D01*
X3691Y2365D02*
X3765Y2365D01*
X3692Y2364D02*
X3765Y2364D01*
X3692Y2363D02*
X3764Y2363D01*
X3693Y2362D02*
X3764Y2362D01*
X3693Y2361D02*
X3764Y2361D01*
X3694Y2360D02*
X3763Y2360D01*
X3694Y2359D02*
X3762Y2359D01*
X3695Y2358D02*
X3762Y2358D01*
X3695Y2357D02*
X3761Y2357D01*
X3696Y2356D02*
X3761Y2356D01*
X3697Y2355D02*
X3760Y2355D01*
X3697Y2354D02*
X3759Y2354D01*
X3698Y2353D02*
X3758Y2353D01*
X3699Y2352D02*
X3757Y2352D01*
X3700Y2351D02*
X3756Y2351D01*
X3701Y2350D02*
X3755Y2350D01*
X3702Y2349D02*
X3754Y2349D01*
X3703Y2348D02*
X3753Y2348D01*
X3705Y2347D02*
X3752Y2347D01*
X3706Y2346D02*
X3750Y2346D01*
X3708Y2345D02*
X3749Y2345D01*
X3709Y2344D02*
X3747Y2344D01*
X3711Y2343D02*
X3745Y2343D01*
X3713Y2342D02*
X3743Y2342D01*
X3716Y2341D02*
X3741Y2341D01*
X3720Y2340D02*
X3737Y2340D01*
X3726Y2339D02*
X3731Y2339D01*
X3721Y2318D02*
X3735Y2318D01*
X3717Y2317D02*
X3740Y2317D01*
X3714Y2316D02*
X3742Y2316D01*
X3712Y2315D02*
X3745Y2315D01*
X3710Y2314D02*
X3747Y2314D01*
X3708Y2313D02*
X3748Y2313D01*
X3707Y2312D02*
X3750Y2312D01*
X3705Y2311D02*
X3751Y2311D01*
X3704Y2310D02*
X3753Y2310D01*
X3703Y2309D02*
X3754Y2309D01*
X3701Y2308D02*
X3755Y2308D01*
X3700Y2307D02*
X3756Y2307D01*
X3699Y2306D02*
X3757Y2306D01*
X3699Y2305D02*
X3758Y2305D01*
X3698Y2304D02*
X3759Y2304D01*
X3697Y2303D02*
X3760Y2303D01*
X3696Y2302D02*
X3760Y2302D01*
X3696Y2301D02*
X3761Y2301D01*
X3695Y2300D02*
X3762Y2300D01*
X3694Y2299D02*
X3762Y2299D01*
X3694Y2298D02*
X3763Y2298D01*
X3693Y2297D02*
X3763Y2297D01*
X3693Y2296D02*
X3764Y2296D01*
X3692Y2295D02*
X3764Y2295D01*
X3692Y2294D02*
X3765Y2294D01*
X3691Y2293D02*
X3765Y2293D01*
X3691Y2292D02*
X3765Y2292D01*
X3691Y2291D02*
X3766Y2291D01*
X3690Y2290D02*
X3766Y2290D01*
X3690Y2289D02*
X3766Y2289D01*
X3690Y2288D02*
X3767Y2288D01*
X3690Y2287D02*
X3767Y2287D01*
X3690Y2286D02*
X3767Y2286D01*
X3689Y2285D02*
X3767Y2285D01*
X3689Y2284D02*
X3767Y2284D01*
X3689Y2283D02*
X3767Y2283D01*
X3689Y2282D02*
X3768Y2282D01*
X3689Y2281D02*
X3768Y2281D01*
X3689Y2280D02*
X3768Y2280D01*
X3689Y2279D02*
X3768Y2279D01*
X3689Y2278D02*
X3768Y2278D01*
X3689Y2277D02*
X3768Y2277D01*
X3689Y2276D02*
X3768Y2276D01*
X3689Y2275D02*
X3768Y2275D01*
X3689Y2274D02*
X3767Y2274D01*
X3689Y2273D02*
X3767Y2273D01*
X3689Y2272D02*
X3767Y2272D01*
X3690Y2271D02*
X3767Y2271D01*
X3690Y2270D02*
X3767Y2270D01*
X3690Y2269D02*
X3766Y2269D01*
X3690Y2268D02*
X3766Y2268D01*
X3691Y2267D02*
X3766Y2267D01*
X3691Y2266D02*
X3766Y2266D01*
X3691Y2265D02*
X3765Y2265D01*
X3692Y2264D02*
X3765Y2264D01*
X3692Y2263D02*
X3764Y2263D01*
X3693Y2262D02*
X3764Y2262D01*
X3693Y2261D02*
X3764Y2261D01*
X3694Y2260D02*
X3763Y2260D01*
X3694Y2259D02*
X3762Y2259D01*
X3695Y2258D02*
X3762Y2258D01*
X3695Y2257D02*
X3761Y2257D01*
X3696Y2256D02*
X3761Y2256D01*
X3697Y2255D02*
X3760Y2255D01*
X3697Y2254D02*
X3759Y2254D01*
X3698Y2253D02*
X3758Y2253D01*
X3699Y2252D02*
X3757Y2252D01*
X3700Y2251D02*
X3756Y2251D01*
X3701Y2250D02*
X3755Y2250D01*
X3702Y2249D02*
X3754Y2249D01*
X3703Y2248D02*
X3753Y2248D01*
X3705Y2247D02*
X3752Y2247D01*
X3706Y2246D02*
X3750Y2246D01*
X3708Y2245D02*
X3749Y2245D01*
X3709Y2244D02*
X3747Y2244D01*
X3711Y2243D02*
X3745Y2243D01*
X3713Y2242D02*
X3743Y2242D01*
X3716Y2241D02*
X3741Y2241D01*
X3720Y2240D02*
X3737Y2240D01*
X3726Y2239D02*
X3731Y2239D01*
X3721Y2218D02*
X3735Y2218D01*
X3717Y2217D02*
X3740Y2217D01*
X3714Y2216D02*
X3742Y2216D01*
X3712Y2215D02*
X3745Y2215D01*
X3710Y2214D02*
X3747Y2214D01*
X3708Y2213D02*
X3748Y2213D01*
X3707Y2212D02*
X3750Y2212D01*
X3705Y2211D02*
X3751Y2211D01*
X3704Y2210D02*
X3753Y2210D01*
X3703Y2209D02*
X3754Y2209D01*
X3701Y2208D02*
X3755Y2208D01*
X3700Y2207D02*
X3756Y2207D01*
X3699Y2206D02*
X3757Y2206D01*
X3699Y2205D02*
X3758Y2205D01*
X3698Y2204D02*
X3759Y2204D01*
X3697Y2203D02*
X3760Y2203D01*
X3696Y2202D02*
X3760Y2202D01*
X3696Y2201D02*
X3761Y2201D01*
X3695Y2200D02*
X3762Y2200D01*
X3694Y2199D02*
X3762Y2199D01*
X3694Y2198D02*
X3763Y2198D01*
X3693Y2197D02*
X3763Y2197D01*
X3693Y2196D02*
X3764Y2196D01*
X3692Y2195D02*
X3764Y2195D01*
X3692Y2194D02*
X3765Y2194D01*
X3691Y2193D02*
X3765Y2193D01*
X3691Y2192D02*
X3765Y2192D01*
X3691Y2191D02*
X3766Y2191D01*
X3690Y2190D02*
X3766Y2190D01*
X3690Y2189D02*
X3766Y2189D01*
X3690Y2188D02*
X3767Y2188D01*
X3690Y2187D02*
X3767Y2187D01*
X3690Y2186D02*
X3767Y2186D01*
X3689Y2185D02*
X3767Y2185D01*
X3689Y2184D02*
X3767Y2184D01*
X3689Y2183D02*
X3767Y2183D01*
X3689Y2182D02*
X3768Y2182D01*
X3689Y2181D02*
X3768Y2181D01*
X3689Y2180D02*
X3768Y2180D01*
X3689Y2179D02*
X3768Y2179D01*
X3689Y2178D02*
X3768Y2178D01*
X3689Y2177D02*
X3768Y2177D01*
X3689Y2176D02*
X3768Y2176D01*
X3689Y2175D02*
X3768Y2175D01*
X3689Y2174D02*
X3767Y2174D01*
X3689Y2173D02*
X3767Y2173D01*
X3689Y2172D02*
X3767Y2172D01*
X3690Y2171D02*
X3767Y2171D01*
X3690Y2170D02*
X3767Y2170D01*
X3690Y2169D02*
X3766Y2169D01*
X3690Y2168D02*
X3766Y2168D01*
X3691Y2167D02*
X3766Y2167D01*
X3691Y2166D02*
X3766Y2166D01*
X3691Y2165D02*
X3765Y2165D01*
X3692Y2164D02*
X3765Y2164D01*
X3692Y2163D02*
X3764Y2163D01*
X3693Y2162D02*
X3764Y2162D01*
X3693Y2161D02*
X3764Y2161D01*
X3694Y2160D02*
X3763Y2160D01*
X3694Y2159D02*
X3762Y2159D01*
X3695Y2158D02*
X3762Y2158D01*
X3695Y2157D02*
X3761Y2157D01*
X3696Y2156D02*
X3761Y2156D01*
X3697Y2155D02*
X3760Y2155D01*
X3697Y2154D02*
X3759Y2154D01*
X3698Y2153D02*
X3758Y2153D01*
X3699Y2152D02*
X3757Y2152D01*
X3700Y2151D02*
X3756Y2151D01*
X3701Y2150D02*
X3755Y2150D01*
X3702Y2149D02*
X3754Y2149D01*
X3703Y2148D02*
X3753Y2148D01*
X3705Y2147D02*
X3752Y2147D01*
X3706Y2146D02*
X3750Y2146D01*
X3708Y2145D02*
X3749Y2145D01*
X3709Y2144D02*
X3747Y2144D01*
X3711Y2143D02*
X3745Y2143D01*
X3713Y2142D02*
X3743Y2142D01*
X3716Y2141D02*
X3741Y2141D01*
X3720Y2140D02*
X3737Y2140D01*
X3726Y2139D02*
X3731Y2139D01*
X3718Y1935D02*
X3728Y1935D01*
X3713Y1934D02*
X3733Y1934D01*
X3709Y1933D02*
X3736Y1933D01*
X3707Y1932D02*
X3738Y1932D01*
X3705Y1931D02*
X3741Y1931D01*
X3703Y1930D02*
X3742Y1930D01*
X3702Y1929D02*
X3744Y1929D01*
X3700Y1928D02*
X3745Y1928D01*
X3699Y1927D02*
X3747Y1927D01*
X3697Y1926D02*
X3748Y1926D01*
X3696Y1925D02*
X3749Y1925D01*
X3695Y1924D02*
X3750Y1924D01*
X3694Y1923D02*
X3751Y1923D01*
X3693Y1922D02*
X3752Y1922D01*
X3692Y1921D02*
X3753Y1921D01*
X3692Y1920D02*
X3754Y1920D01*
X3691Y1919D02*
X3754Y1919D01*
X3690Y1918D02*
X3755Y1918D01*
X3690Y1917D02*
X3756Y1917D01*
X3689Y1916D02*
X3756Y1916D01*
X3688Y1915D02*
X3757Y1915D01*
X3688Y1914D02*
X3758Y1914D01*
X3687Y1913D02*
X3758Y1913D01*
X3687Y1912D02*
X3759Y1912D01*
X3686Y1911D02*
X3759Y1911D01*
X3686Y1910D02*
X3759Y1910D01*
X3686Y1909D02*
X3760Y1909D01*
X3685Y1908D02*
X3760Y1908D01*
X3685Y1907D02*
X3760Y1907D01*
X3685Y1906D02*
X3761Y1906D01*
X3684Y1905D02*
X3761Y1905D01*
X3684Y1904D02*
X3761Y1904D01*
X3684Y1903D02*
X3761Y1903D01*
X3684Y1902D02*
X3762Y1902D01*
X3684Y1901D02*
X3762Y1901D01*
X3684Y1900D02*
X3762Y1900D01*
X3683Y1899D02*
X3762Y1899D01*
X3683Y1898D02*
X3762Y1898D01*
X3683Y1897D02*
X3762Y1897D01*
X3683Y1896D02*
X3762Y1896D01*
X3683Y1895D02*
X3762Y1895D01*
X3683Y1894D02*
X3762Y1894D01*
X3683Y1893D02*
X3762Y1893D01*
X3683Y1892D02*
X3762Y1892D01*
X3684Y1891D02*
X3762Y1891D01*
X3684Y1890D02*
X3762Y1890D01*
X3684Y1889D02*
X3762Y1889D01*
X3684Y1888D02*
X3761Y1888D01*
X3684Y1887D02*
X3761Y1887D01*
X3684Y1886D02*
X3761Y1886D01*
X3685Y1885D02*
X3761Y1885D01*
X3685Y1884D02*
X3760Y1884D01*
X3685Y1883D02*
X3760Y1883D01*
X3686Y1882D02*
X3760Y1882D01*
X3686Y1881D02*
X3759Y1881D01*
X3686Y1880D02*
X3759Y1880D01*
X3687Y1879D02*
X3759Y1879D01*
X3687Y1878D02*
X3758Y1878D01*
X3688Y1877D02*
X3758Y1877D01*
X3688Y1876D02*
X3757Y1876D01*
X3689Y1875D02*
X3756Y1875D01*
X3690Y1874D02*
X3756Y1874D01*
X3690Y1873D02*
X3755Y1873D01*
X3691Y1872D02*
X3754Y1872D01*
X3692Y1871D02*
X3754Y1871D01*
X3692Y1870D02*
X3753Y1870D01*
X3693Y1869D02*
X3752Y1869D01*
X3694Y1868D02*
X3751Y1868D01*
X3695Y1867D02*
X3750Y1867D01*
X3696Y1866D02*
X3749Y1866D01*
X3697Y1865D02*
X3748Y1865D01*
X3699Y1864D02*
X3747Y1864D01*
X3700Y1863D02*
X3745Y1863D01*
X3702Y1862D02*
X3744Y1862D01*
X3703Y1861D02*
X3742Y1861D01*
X3705Y1860D02*
X3741Y1860D01*
X3707Y1859D02*
X3738Y1859D01*
X3709Y1858D02*
X3736Y1858D01*
X3713Y1857D02*
X3733Y1857D01*
X3718Y1856D02*
X3728Y1856D01*
X3718Y1835D02*
X3728Y1835D01*
X3713Y1834D02*
X3733Y1834D01*
X3709Y1833D02*
X3736Y1833D01*
X3707Y1832D02*
X3739Y1832D01*
X3705Y1831D02*
X3741Y1831D01*
X3703Y1830D02*
X3742Y1830D01*
X3701Y1829D02*
X3744Y1829D01*
X3700Y1828D02*
X3745Y1828D01*
X3699Y1827D02*
X3747Y1827D01*
X3697Y1826D02*
X3748Y1826D01*
X3696Y1825D02*
X3749Y1825D01*
X3695Y1824D02*
X3750Y1824D01*
X3694Y1823D02*
X3751Y1823D01*
X3693Y1822D02*
X3752Y1822D01*
X3692Y1821D02*
X3753Y1821D01*
X3692Y1820D02*
X3754Y1820D01*
X3691Y1819D02*
X3754Y1819D01*
X3690Y1818D02*
X3755Y1818D01*
X3690Y1817D02*
X3756Y1817D01*
X3689Y1816D02*
X3756Y1816D01*
X3688Y1815D02*
X3757Y1815D01*
X3688Y1814D02*
X3758Y1814D01*
X3687Y1813D02*
X3758Y1813D01*
X3687Y1812D02*
X3759Y1812D01*
X3686Y1811D02*
X3759Y1811D01*
X3686Y1810D02*
X3759Y1810D01*
X3686Y1809D02*
X3760Y1809D01*
X3685Y1808D02*
X3760Y1808D01*
X3685Y1807D02*
X3760Y1807D01*
X3685Y1806D02*
X3761Y1806D01*
X3684Y1805D02*
X3761Y1805D01*
X3684Y1804D02*
X3761Y1804D01*
X3684Y1803D02*
X3761Y1803D01*
X3684Y1802D02*
X3762Y1802D01*
X3684Y1801D02*
X3762Y1801D01*
X3684Y1800D02*
X3762Y1800D01*
X3683Y1799D02*
X3762Y1799D01*
X3683Y1798D02*
X3762Y1798D01*
X3683Y1797D02*
X3762Y1797D01*
X3683Y1796D02*
X3762Y1796D01*
X3683Y1795D02*
X3762Y1795D01*
X3683Y1794D02*
X3762Y1794D01*
X3683Y1793D02*
X3762Y1793D01*
X3683Y1792D02*
X3762Y1792D01*
X3684Y1791D02*
X3762Y1791D01*
X3684Y1790D02*
X3762Y1790D01*
X3684Y1789D02*
X3762Y1789D01*
X3684Y1788D02*
X3761Y1788D01*
X3684Y1787D02*
X3761Y1787D01*
X3684Y1786D02*
X3761Y1786D01*
X3685Y1785D02*
X3761Y1785D01*
X3685Y1784D02*
X3760Y1784D01*
X3685Y1783D02*
X3760Y1783D01*
X3686Y1782D02*
X3760Y1782D01*
X3686Y1781D02*
X3759Y1781D01*
X3686Y1780D02*
X3759Y1780D01*
X3687Y1779D02*
X3759Y1779D01*
X3687Y1778D02*
X3758Y1778D01*
X3688Y1777D02*
X3758Y1777D01*
X3688Y1776D02*
X3757Y1776D01*
X3689Y1775D02*
X3756Y1775D01*
X3690Y1774D02*
X3756Y1774D01*
X3690Y1773D02*
X3755Y1773D01*
X3691Y1772D02*
X3754Y1772D01*
X3692Y1771D02*
X3754Y1771D01*
X3692Y1770D02*
X3753Y1770D01*
X3693Y1769D02*
X3752Y1769D01*
X3694Y1768D02*
X3751Y1768D01*
X3695Y1767D02*
X3750Y1767D01*
X3696Y1766D02*
X3749Y1766D01*
X3697Y1765D02*
X3748Y1765D01*
X3699Y1764D02*
X3747Y1764D01*
X3700Y1763D02*
X3745Y1763D01*
X3702Y1762D02*
X3744Y1762D01*
X3703Y1761D02*
X3742Y1761D01*
X3705Y1760D02*
X3741Y1760D01*
X3707Y1759D02*
X3738Y1759D01*
X3709Y1758D02*
X3736Y1758D01*
X3713Y1757D02*
X3733Y1757D01*
X3718Y1756D02*
X3728Y1756D01*
X3717Y1735D02*
X3728Y1735D01*
X3713Y1734D02*
X3733Y1734D01*
X3709Y1733D02*
X3736Y1733D01*
X3707Y1732D02*
X3739Y1732D01*
X3705Y1731D02*
X3741Y1731D01*
X3703Y1730D02*
X3742Y1730D01*
X3701Y1729D02*
X3744Y1729D01*
X3700Y1728D02*
X3745Y1728D01*
X3699Y1727D02*
X3747Y1727D01*
X3697Y1726D02*
X3748Y1726D01*
X3696Y1725D02*
X3749Y1725D01*
X3695Y1724D02*
X3750Y1724D01*
X3694Y1723D02*
X3751Y1723D01*
X3693Y1722D02*
X3752Y1722D01*
X3692Y1721D02*
X3753Y1721D01*
X3692Y1720D02*
X3754Y1720D01*
X3691Y1719D02*
X3754Y1719D01*
X3690Y1718D02*
X3755Y1718D01*
X3690Y1717D02*
X3756Y1717D01*
X3689Y1716D02*
X3756Y1716D01*
X3688Y1715D02*
X3757Y1715D01*
X3688Y1714D02*
X3758Y1714D01*
X3687Y1713D02*
X3758Y1713D01*
X3687Y1712D02*
X3759Y1712D01*
X3686Y1711D02*
X3759Y1711D01*
X3686Y1710D02*
X3759Y1710D01*
X3686Y1709D02*
X3760Y1709D01*
X3685Y1708D02*
X3760Y1708D01*
X3685Y1707D02*
X3760Y1707D01*
X3685Y1706D02*
X3761Y1706D01*
X3684Y1705D02*
X3761Y1705D01*
X3684Y1704D02*
X3761Y1704D01*
X3684Y1703D02*
X3761Y1703D01*
X3684Y1702D02*
X3762Y1702D01*
X3684Y1701D02*
X3762Y1701D01*
X3684Y1700D02*
X3762Y1700D01*
X3683Y1699D02*
X3762Y1699D01*
X3683Y1698D02*
X3762Y1698D01*
X3683Y1697D02*
X3762Y1697D01*
X3683Y1696D02*
X3762Y1696D01*
X3683Y1695D02*
X3762Y1695D01*
X3683Y1694D02*
X3762Y1694D01*
X3683Y1693D02*
X3762Y1693D01*
X3683Y1692D02*
X3762Y1692D01*
X3684Y1691D02*
X3762Y1691D01*
X3684Y1690D02*
X3762Y1690D01*
X3684Y1689D02*
X3762Y1689D01*
X3684Y1688D02*
X3761Y1688D01*
X3684Y1687D02*
X3761Y1687D01*
X3684Y1686D02*
X3761Y1686D01*
X3685Y1685D02*
X3761Y1685D01*
X3685Y1684D02*
X3760Y1684D01*
X3685Y1683D02*
X3760Y1683D01*
X3686Y1682D02*
X3760Y1682D01*
X3686Y1681D02*
X3759Y1681D01*
X3686Y1680D02*
X3759Y1680D01*
X3687Y1679D02*
X3759Y1679D01*
X3687Y1678D02*
X3758Y1678D01*
X3688Y1677D02*
X3758Y1677D01*
X3688Y1676D02*
X3757Y1676D01*
X3689Y1675D02*
X3756Y1675D01*
X3690Y1674D02*
X3756Y1674D01*
X3690Y1673D02*
X3755Y1673D01*
X3691Y1672D02*
X3754Y1672D01*
X3692Y1671D02*
X3754Y1671D01*
X3692Y1670D02*
X3753Y1670D01*
X3693Y1669D02*
X3752Y1669D01*
X3694Y1668D02*
X3751Y1668D01*
X3695Y1667D02*
X3750Y1667D01*
X3696Y1666D02*
X3749Y1666D01*
X3697Y1665D02*
X3748Y1665D01*
X3699Y1664D02*
X3747Y1664D01*
X3700Y1663D02*
X3745Y1663D01*
X3702Y1662D02*
X3744Y1662D01*
X3703Y1661D02*
X3742Y1661D01*
X3705Y1660D02*
X3741Y1660D01*
X3707Y1659D02*
X3738Y1659D01*
X3709Y1658D02*
X3736Y1658D01*
X3713Y1657D02*
X3733Y1657D01*
X3718Y1656D02*
X3728Y1656D01*
D02*
G04 End of Mask1*
M02*