; NON-PLATED HOLES START AT T1
; THROUGH (PLATED) HOLES START AT T100
M48
INCH
T1C0.086614
T2C0.393700
T100C0.040787
T101C0.040000
T102C0.050756
T103C0.039370
T104C0.038000
T105C0.086614
T106C0.015748
T107C0.038028
T108C0.035000
T109C0.098425
%
T1
X005487Y011557
X015958Y000866
X019861Y000866
X018819Y000866
X021180Y000866
X017536Y000872
X019375Y000866
X005495Y010585
X014111Y000866
X005487Y010279
X016486Y000866
X017764Y000866
X018278Y000866
X005499Y009339
X005495Y010148
X014417Y000852
X005487Y008668
X020430Y000866
X019069Y000866
X005487Y010890
X013875Y000866
X014611Y000866
X020667Y000866
X005487Y011724
X020125Y000866
X021472Y000866
X005499Y008902
X015708Y000866
X013625Y000866
X015153Y000866
X017264Y000866
X015459Y000872
X005491Y009033
X005495Y011140
X016736Y000866
X018555Y000866
X005491Y009644
X016986Y000866
X019611Y000866
X014903Y000866
X018014Y000866
X020930Y000866
X016208Y000866
X005499Y009894
T2
X034142Y004691
X033265Y004224
X033303Y003754
X036130Y004691
X040237Y003752
X036150Y003752
X033282Y004693
X037227Y003749
X039212Y003752
X035187Y003752
X038212Y003752
X041210Y004140
X035167Y004691
X040216Y004691
X034163Y003752
X039191Y004691
X041172Y003749
X037207Y004688
X041151Y004688
X038191Y004691
T100
X040060Y008864
X023578Y002634
X042060Y008864
X035060Y008864
X024578Y002634
X026578Y002634
X028578Y002634
X037060Y008864
X039060Y008864
X025578Y002634
X041060Y008864
X036060Y008864
X038060Y008864
X027578Y002634
T101
X001515Y009687
X001517Y034708
X046771Y038492
X046771Y037492
X001515Y010687
X001511Y028687
X001511Y022895
X015961Y002812
X012961Y002812
X013961Y002812
X001511Y030687
X046771Y039492
X010961Y002812
X001511Y029687
X001517Y036708
X001511Y021895
X001511Y023895
X011961Y002812
X001515Y008687
X014961Y002812
X001517Y035708
T102
X037560Y015364
X039560Y015364
T103
X034809Y029536
X026292Y035550
X042809Y035536
X042809Y031536
X034809Y025536
X026292Y032550
X019628Y010538
X026284Y022648
X034809Y030536
X020628Y010538
X042809Y032536
X042809Y026536
X034809Y027536
X042809Y027536
X026284Y020648
X034809Y021536
X034809Y031536
X031292Y031550
X042809Y021536
X034809Y026536
X031292Y034550
X042809Y033536
X026292Y034550
X034809Y028536
X042809Y023536
X031292Y033550
X026284Y024648
X034809Y020536
X034809Y024536
X042809Y022536
X042809Y025536
X042809Y030536
X042809Y028536
X026284Y021648
X031292Y032550
X026292Y031550
X026284Y023648
X034809Y022536
X026292Y033550
X042809Y024536
X042809Y020536
X026292Y030550
X042809Y029536
X034809Y023536
X042809Y034536
T104
X046438Y018858
X043867Y023511
X046448Y030565
X046448Y023766
X046436Y020847
X012099Y009607
X025688Y015269
X010056Y036967
X046448Y029565
X046448Y024766
X023688Y015269
X046448Y031565
X046444Y027692
X009056Y036967
X020011Y036975
X046438Y016858
X019010Y036975
X021011Y036975
X012099Y010607
X046436Y021847
X024688Y015269
X008055Y036967
X046438Y017858
X046436Y013867
X046444Y026692
X046436Y014867
X046957Y034576
T105
X047019Y000861
X000858Y041501
X018387Y041350
X008387Y041350
X047018Y000856
X000859Y000859
X047019Y041500
T106
X044163Y037826
X019307Y035495
X033294Y027906
X037910Y023554
X042790Y013861
X024307Y023212
X029667Y006475
X031250Y036083
X038767Y031533
X040865Y013070
X037185Y022631
X023477Y005779
X037910Y017817
X028178Y023974
X039493Y021444
X031778Y023620
X028404Y007779
X037580Y039050
X004806Y015884
X041405Y019466
X016342Y013795
X032503Y008849
X002500Y007719
X031163Y036863
X030129Y017356
X030722Y004563
X044719Y039900
X024440Y008749
X037514Y026587
X028717Y019323
X024326Y025598
X032243Y031573
X028744Y038918
X031778Y016037
X030195Y024939
X027627Y037148
X040482Y018543
X038701Y014454
X030275Y037789
X029338Y017949
X040548Y028632
X043647Y015641
X003907Y009697
X014105Y004695
X025460Y039714
X032172Y041908
X003907Y005779
X033937Y013033
X029615Y003729
X028170Y034493
X034110Y034630
X023469Y036347
X044838Y028825
X037185Y016432
X033007Y040667
X030920Y024213
X028396Y009987
X008954Y034425
X017468Y035489
X030854Y016696
X036592Y032324
X044163Y033879
X032942Y032661
X029470Y025862
X030312Y041085
X023601Y019334
X044596Y007196
X044193Y031196
T107
X018010Y036975
X007055Y036967
T108
X027426Y013876
X031426Y013876
T109
X018265Y014272
X006887Y014272
X006887Y025019
X018265Y025019
T00
M30
