G04 MADE WITH FRITZING*
G04 WWW.FRITZING.ORG*
G04 DOUBLE SIDED*
G04 HOLES PLATED*
G04 CONTOUR ON CENTER OF CONTOUR VECTOR*
%ASAXBY*%
%FSLAX23Y23*%
%MOIN*%
%OFA0B0*%
%SFA1.0B1.0*%
%ADD10C,0.049370*%
%ADD11C,0.166772*%
%ADD12C,0.078889*%
%ADD13C,0.120236*%
%ADD14C,0.148425*%
%ADD15C,0.084000*%
%ADD16C,0.088000*%
%LNMASK0*%
G90*
G70*
G54D10*
X898Y4124D03*
X2687Y4122D03*
X774Y4172D03*
X2756Y4183D03*
X4572Y4181D03*
X4452Y4125D03*
X3532Y4071D03*
X4206Y4015D03*
X4082Y3938D03*
X640Y4056D03*
G54D11*
X2219Y2441D03*
X2219Y157D03*
X290Y157D03*
X290Y2441D03*
X2219Y2441D03*
X2219Y157D03*
X290Y157D03*
X290Y2441D03*
G54D12*
X3656Y356D03*
X3656Y456D03*
X3656Y556D03*
X3656Y656D03*
X3656Y756D03*
X3656Y856D03*
X3656Y956D03*
X3656Y1056D03*
X3656Y1156D03*
X3656Y1256D03*
X3656Y1356D03*
X3656Y1456D03*
X3656Y1556D03*
X3656Y1656D03*
X3656Y1756D03*
X3656Y1856D03*
X3656Y1956D03*
X3656Y2056D03*
X3656Y2156D03*
X3656Y2256D03*
X3756Y2256D03*
X3756Y2156D03*
X3756Y2056D03*
X3756Y1956D03*
X3756Y1856D03*
X3756Y1756D03*
X3756Y1656D03*
X3756Y1556D03*
X3756Y1456D03*
X3756Y1356D03*
X3756Y1256D03*
X3756Y1156D03*
X3756Y1056D03*
X3756Y956D03*
X3756Y856D03*
X3756Y756D03*
X3756Y656D03*
X3756Y556D03*
X3756Y456D03*
X3756Y356D03*
X3656Y356D03*
X3656Y456D03*
X3656Y556D03*
X3656Y656D03*
X3656Y756D03*
X3656Y856D03*
X3656Y956D03*
X3656Y1056D03*
X3656Y1156D03*
X3656Y1256D03*
X3656Y1356D03*
X3656Y1456D03*
X3656Y1556D03*
X3656Y1656D03*
X3656Y1756D03*
X3656Y1856D03*
X3656Y1956D03*
X3656Y2056D03*
X3656Y2156D03*
X3656Y2256D03*
X3756Y2256D03*
X3756Y2156D03*
X3756Y2056D03*
X3756Y1956D03*
X3756Y1856D03*
X3756Y1756D03*
X3756Y1656D03*
X3756Y1556D03*
X3756Y1456D03*
X3756Y1356D03*
X3756Y1256D03*
X3756Y1156D03*
X3756Y1056D03*
X3756Y956D03*
X3756Y856D03*
X3756Y756D03*
X3756Y656D03*
X3756Y556D03*
X3756Y456D03*
X3756Y356D03*
G54D13*
X4702Y86D03*
X4702Y4150D03*
X86Y4150D03*
X86Y86D03*
X4702Y86D03*
G54D12*
X1817Y3798D03*
X1916Y3798D03*
X2017Y3798D03*
X2116Y3798D03*
X2217Y3798D03*
X2317Y3798D03*
X2416Y3798D03*
X2517Y3798D03*
X2616Y3798D03*
X2717Y3798D03*
X2817Y3798D03*
X2917Y3798D03*
X3017Y3798D03*
X3116Y3798D03*
X3217Y3798D03*
X3317Y3798D03*
X3417Y3798D03*
X3517Y3798D03*
X3616Y3798D03*
X3717Y3798D03*
X3717Y3898D03*
X3616Y3898D03*
X3517Y3898D03*
X3417Y3898D03*
X3317Y3898D03*
X3217Y3898D03*
X3116Y3898D03*
X3017Y3898D03*
X2917Y3898D03*
X2817Y3898D03*
X2717Y3898D03*
X2616Y3898D03*
X2517Y3898D03*
X2416Y3898D03*
X2317Y3898D03*
X2217Y3898D03*
X2116Y3898D03*
X2017Y3898D03*
X1916Y3898D03*
X1817Y3898D03*
G54D14*
X3908Y3832D03*
X1625Y3832D03*
X1625Y1903D03*
X3908Y1903D03*
G54D15*
X3745Y99D03*
X3845Y99D03*
X3945Y99D03*
G54D16*
X4314Y778D03*
X4314Y678D03*
G04 End of Mask0*
M02*