; NON-PLATED HOLES START AT T1
; THROUGH (PLATED) HOLES START AT T100
M48
INCH
T100C0.040000
T101C0.038000
T102C0.086614
T103C0.015748
T104C0.040639
T105C0.098425
%
T100
X039445Y000993
X038445Y000993
X037445Y000993
T101
X043140Y007784
X043140Y006784
T102
X047019Y000861
X000858Y041501
X047018Y000856
X000859Y000859
X047019Y041500
T103
X044518Y041245
X040816Y039380
X027563Y041834
X026866Y041215
X007741Y041715
X006399Y040562
X045721Y041805
X035322Y040706
X008979Y041238
X042057Y040146
T104
X027165Y038980
X037559Y003558
X029165Y037981
X021164Y038980
X035165Y038980
X022165Y038980
X037559Y015558
X036559Y015558
X037559Y006558
X037165Y038980
X036559Y019558
X022165Y037981
X037559Y018558
X021164Y037981
X037559Y012558
X034165Y037981
X036559Y014558
X037559Y014558
X036559Y011558
X036559Y018558
X020165Y038980
X027165Y037981
X037559Y010558
X036559Y005558
X024164Y037981
X036559Y013558
X019164Y037981
X037559Y005558
X036559Y008558
X026164Y038980
X036559Y021558
X018165Y038980
X036559Y007558
X034165Y038980
X036559Y022558
X029165Y038980
X037559Y022558
X036559Y004558
X037559Y017558
X037559Y009558
X036559Y016558
X037559Y021558
X028165Y037981
X037559Y004558
X030165Y037981
X026164Y037981
X037559Y019558
X036559Y006558
X037559Y020558
X019164Y038980
X036559Y009558
X028165Y038980
X037559Y007558
X036559Y020558
X023165Y038980
X036164Y037981
X020165Y037981
X037559Y008558
X031164Y037981
X025165Y038980
X036559Y003558
X037559Y013558
X037559Y016558
X032165Y037981
X037165Y037981
X031164Y038980
X037559Y011558
X036559Y012558
X036559Y010558
X036164Y038980
X030165Y038980
X018165Y037981
X033165Y038980
X035165Y037981
X023165Y037981
X036559Y017558
X024164Y038980
X025165Y037981
X032165Y038980
X033165Y037981
T105
X022193Y024407
X039084Y019027
X002901Y024407
X022193Y001572
X002901Y001572
X016249Y038318
X039084Y038318
X016249Y019027
T00
M30
