G04 MADE WITH FRITZING*
G04 WWW.FRITZING.ORG*
G04 DOUBLE SIDED*
G04 HOLES PLATED*
G04 CONTOUR ON CENTER OF CONTOUR VECTOR*
%ASAXBY*%
%FSLAX23Y23*%
%MOIN*%
%OFA0B0*%
%SFA1.0B1.0*%
%ADD10C,0.075000*%
%ADD11C,0.039370*%
%ADD12C,0.138425*%
%ADD13C,0.075361*%
%ADD14C,0.110236*%
%ADD15C,0.074000*%
%ADD16C,0.078000*%
%ADD17C,0.024000*%
%ADD18C,0.032000*%
%LNCOPPER1*%
G90*
G70*
G54D10*
X122Y3942D03*
X1471Y3847D03*
X2134Y3673D03*
X3017Y3672D03*
X4038Y1978D03*
X4649Y3999D03*
G54D11*
X898Y4124D03*
X2687Y4122D03*
X774Y4172D03*
X2756Y4183D03*
X4572Y4181D03*
X4452Y4125D03*
X3532Y4071D03*
X4206Y4015D03*
X4082Y3938D03*
X640Y4056D03*
G54D12*
X2219Y2441D03*
X2219Y157D03*
X290Y157D03*
X290Y2441D03*
X2219Y2441D03*
X2219Y157D03*
X290Y157D03*
X290Y2441D03*
G54D13*
X3656Y356D03*
X3656Y456D03*
X3656Y556D03*
X3656Y656D03*
X3656Y756D03*
X3656Y856D03*
X3656Y956D03*
X3656Y1056D03*
X3656Y1156D03*
X3656Y1256D03*
X3656Y1356D03*
X3656Y1456D03*
X3656Y1556D03*
X3656Y1656D03*
X3656Y1756D03*
X3656Y1856D03*
X3656Y1956D03*
X3656Y2056D03*
X3656Y2156D03*
X3656Y2256D03*
X3756Y2256D03*
X3756Y2156D03*
X3756Y2056D03*
X3756Y1956D03*
X3756Y1856D03*
X3756Y1756D03*
X3756Y1656D03*
X3756Y1556D03*
X3756Y1456D03*
X3756Y1356D03*
X3756Y1256D03*
X3756Y1156D03*
X3756Y1056D03*
X3756Y956D03*
X3756Y856D03*
X3756Y756D03*
X3756Y656D03*
X3756Y556D03*
X3756Y456D03*
X3756Y356D03*
X3656Y356D03*
X3656Y456D03*
X3656Y556D03*
X3656Y656D03*
X3656Y756D03*
X3656Y856D03*
X3656Y956D03*
X3656Y1056D03*
X3656Y1156D03*
X3656Y1256D03*
X3656Y1356D03*
X3656Y1456D03*
X3656Y1556D03*
X3656Y1656D03*
X3656Y1756D03*
X3656Y1856D03*
X3656Y1956D03*
X3656Y2056D03*
X3656Y2156D03*
X3656Y2256D03*
X3756Y2256D03*
X3756Y2156D03*
X3756Y2056D03*
X3756Y1956D03*
X3756Y1856D03*
X3756Y1756D03*
X3756Y1656D03*
X3756Y1556D03*
X3756Y1456D03*
X3756Y1356D03*
X3756Y1256D03*
X3756Y1156D03*
X3756Y1056D03*
X3756Y956D03*
X3756Y856D03*
X3756Y756D03*
X3756Y656D03*
X3756Y556D03*
X3756Y456D03*
X3756Y356D03*
G54D14*
X4702Y86D03*
X4702Y4150D03*
X86Y4150D03*
X86Y86D03*
X4702Y86D03*
G54D13*
X1817Y3798D03*
X1916Y3798D03*
X2017Y3798D03*
X2116Y3798D03*
X2217Y3798D03*
X2317Y3798D03*
X2416Y3798D03*
X2517Y3798D03*
X2616Y3798D03*
X2717Y3798D03*
X2817Y3798D03*
X2917Y3798D03*
X3017Y3798D03*
X3116Y3798D03*
X3217Y3798D03*
X3317Y3798D03*
X3417Y3798D03*
X3517Y3798D03*
X3616Y3798D03*
X3717Y3798D03*
X3717Y3898D03*
X3616Y3898D03*
X3517Y3898D03*
X3417Y3898D03*
X3317Y3898D03*
X3217Y3898D03*
X3116Y3898D03*
X3017Y3898D03*
X2917Y3898D03*
X2817Y3898D03*
X2717Y3898D03*
X2616Y3898D03*
X2517Y3898D03*
X2416Y3898D03*
X2317Y3898D03*
X2217Y3898D03*
X2116Y3898D03*
X2017Y3898D03*
X1916Y3898D03*
X1817Y3898D03*
G54D12*
X3908Y3832D03*
X1625Y3832D03*
X1625Y1903D03*
X3908Y1903D03*
G54D15*
X3745Y99D03*
X3845Y99D03*
X3945Y99D03*
X3745Y99D03*
X3845Y99D03*
X3945Y99D03*
G54D16*
X4314Y778D03*
X4314Y678D03*
G54D17*
X4206Y2154D02*
X4206Y3996D01*
D02*
X3787Y2156D02*
X4206Y2154D01*
D02*
X3551Y4071D02*
X4332Y4069D01*
D02*
X4332Y4069D02*
X4332Y2056D01*
D02*
X4332Y2056D02*
X3787Y2056D01*
D02*
X4452Y4106D02*
X4455Y1747D01*
D02*
X4455Y1747D02*
X3897Y1750D01*
D02*
X3897Y1750D02*
X3781Y1837D01*
D02*
X4562Y1654D02*
X4572Y4162D01*
D02*
X3787Y1656D02*
X4562Y1654D01*
D02*
X2737Y4183D02*
X793Y4172D01*
D02*
X2668Y4122D02*
X917Y4124D01*
D02*
X4082Y3919D02*
X4077Y2251D01*
D02*
X4077Y2251D02*
X3787Y2255D01*
D02*
X3317Y1856D02*
X3624Y1856D01*
D02*
X3317Y3767D02*
X3317Y1856D01*
D02*
X3217Y1756D02*
X3624Y1756D01*
D02*
X3217Y3767D02*
X3217Y1756D01*
D02*
X3116Y1656D02*
X3624Y1656D01*
D02*
X3116Y3767D02*
X3116Y1656D01*
D02*
X3017Y1556D02*
X3624Y1556D01*
D02*
X3017Y3767D02*
X3017Y1556D01*
D02*
X2917Y1456D02*
X3624Y1456D01*
D02*
X2917Y3767D02*
X2917Y1456D01*
D02*
X2817Y1356D02*
X3624Y1356D01*
D02*
X2817Y3767D02*
X2817Y1356D01*
D02*
X2341Y2461D02*
X2334Y864D01*
G54D18*
D02*
X3897Y351D02*
X3852Y135D01*
D02*
X3793Y355D02*
X3897Y351D01*
G54D17*
D02*
X1885Y3898D02*
X1848Y3898D01*
D02*
X3756Y387D02*
X3756Y424D01*
D02*
X3499Y3686D02*
X3496Y2053D01*
D02*
X3496Y2053D02*
X3625Y2055D01*
D02*
X3512Y3767D02*
X3499Y3686D01*
D02*
X3417Y1956D02*
X3624Y1956D01*
D02*
X3417Y3767D02*
X3417Y1956D01*
D02*
X2334Y864D02*
X3624Y856D01*
D02*
X2317Y3767D02*
X2341Y2461D01*
D02*
X2070Y756D02*
X3624Y756D01*
D02*
X2070Y3629D02*
X2070Y756D01*
D02*
X2196Y3774D02*
X2070Y3629D01*
D02*
X3406Y4004D02*
X3414Y3929D01*
D02*
X3229Y4028D02*
X3406Y4004D01*
D02*
X3229Y4028D02*
X2712Y4045D01*
D02*
X2712Y4045D02*
X2716Y3930D01*
D02*
X3219Y3929D02*
X3229Y4028D01*
G54D18*
D02*
X1377Y3991D02*
X1756Y3987D01*
D02*
X1756Y3987D02*
X1796Y3929D01*
D02*
X3751Y267D02*
X1397Y284D01*
D02*
X1397Y284D02*
X1377Y3991D01*
D02*
X3754Y319D02*
X3751Y267D01*
G54D17*
D02*
X3562Y2156D02*
X3624Y2156D01*
D02*
X3605Y2439D02*
X3559Y2393D01*
D02*
X3559Y2393D02*
X3562Y2156D01*
D02*
X3616Y3767D02*
X3605Y2439D01*
D02*
X3795Y3806D02*
X3748Y3801D01*
D02*
X3804Y3998D02*
X3795Y3806D01*
D02*
X3406Y4004D02*
X3804Y3998D01*
D02*
X1995Y4056D02*
X2097Y3923D01*
D02*
X2418Y4045D02*
X2417Y3930D01*
D02*
X2712Y4045D02*
X2418Y4045D01*
D02*
X3851Y967D02*
X3787Y960D01*
D02*
X3851Y1240D02*
X3851Y967D01*
D02*
X3787Y1251D02*
X3851Y1240D01*
D02*
X1995Y4056D02*
X659Y4056D01*
D02*
X1900Y3650D02*
X1900Y563D01*
D02*
X1811Y3650D02*
X1818Y457D01*
D02*
X1730Y3684D02*
X1730Y363D01*
D02*
X1900Y563D02*
X3624Y556D01*
D02*
X1997Y3773D02*
X1900Y3650D01*
D02*
X1818Y457D02*
X3624Y456D01*
D02*
X1898Y3772D02*
X1811Y3650D01*
D02*
X1730Y363D02*
X3624Y356D01*
D02*
X1798Y3773D02*
X1730Y3684D01*
D02*
X2717Y1256D02*
X3624Y1256D01*
D02*
X2717Y3767D02*
X2717Y1256D01*
D02*
X2616Y1156D02*
X3624Y1156D01*
D02*
X2616Y3767D02*
X2616Y1156D01*
D02*
X2517Y1056D02*
X3624Y1056D01*
D02*
X2517Y3767D02*
X2517Y1056D01*
D02*
X2436Y953D02*
X3624Y956D01*
D02*
X2417Y3767D02*
X2436Y953D01*
D02*
X1981Y3622D02*
X1995Y663D01*
D02*
X1995Y663D02*
X3624Y656D01*
D02*
X2097Y3773D02*
X1981Y3622D01*
G54D18*
D02*
X4281Y765D02*
X3790Y570D01*
G54D17*
D02*
X4298Y653D02*
X3961Y126D01*
G36*
X146Y4196D02*
X146Y4172D01*
X148Y4172D01*
X148Y4166D01*
X150Y4166D01*
X150Y4142D01*
X766Y4142D01*
X766Y4144D01*
X760Y4144D01*
X760Y4146D01*
X758Y4146D01*
X758Y4148D01*
X754Y4148D01*
X754Y4150D01*
X752Y4150D01*
X752Y4154D01*
X750Y4154D01*
X750Y4156D01*
X748Y4156D01*
X748Y4160D01*
X746Y4160D01*
X746Y4166D01*
X744Y4166D01*
X744Y4176D01*
X746Y4176D01*
X746Y4196D01*
X146Y4196D01*
G37*
D02*
G36*
X794Y4150D02*
X794Y4148D01*
X792Y4148D01*
X792Y4146D01*
X788Y4146D01*
X788Y4144D01*
X782Y4144D01*
X782Y4142D01*
X870Y4142D01*
X870Y4150D01*
X794Y4150D01*
G37*
D02*
G36*
X150Y4142D02*
X150Y4140D01*
X870Y4140D01*
X870Y4142D01*
X150Y4142D01*
G37*
D02*
G36*
X150Y4142D02*
X150Y4140D01*
X870Y4140D01*
X870Y4142D01*
X150Y4142D01*
G37*
D02*
G36*
X150Y4140D02*
X150Y4134D01*
X148Y4134D01*
X148Y4128D01*
X146Y4128D01*
X146Y4122D01*
X144Y4122D01*
X144Y4118D01*
X142Y4118D01*
X142Y4116D01*
X140Y4116D01*
X140Y4112D01*
X138Y4112D01*
X138Y4110D01*
X136Y4110D01*
X136Y4108D01*
X134Y4108D01*
X134Y4106D01*
X132Y4106D01*
X132Y4104D01*
X130Y4104D01*
X130Y4102D01*
X128Y4102D01*
X128Y4100D01*
X126Y4100D01*
X126Y4098D01*
X124Y4098D01*
X124Y4096D01*
X120Y4096D01*
X120Y4094D01*
X118Y4094D01*
X118Y4092D01*
X114Y4092D01*
X114Y4090D01*
X108Y4090D01*
X108Y4088D01*
X102Y4088D01*
X102Y4086D01*
X646Y4086D01*
X646Y4084D01*
X652Y4084D01*
X652Y4082D01*
X656Y4082D01*
X656Y4080D01*
X658Y4080D01*
X658Y4078D01*
X886Y4078D01*
X886Y4098D01*
X882Y4098D01*
X882Y4100D01*
X880Y4100D01*
X880Y4102D01*
X876Y4102D01*
X876Y4106D01*
X874Y4106D01*
X874Y4108D01*
X872Y4108D01*
X872Y4112D01*
X870Y4112D01*
X870Y4118D01*
X868Y4118D01*
X868Y4130D01*
X870Y4130D01*
X870Y4140D01*
X150Y4140D01*
G37*
D02*
G36*
X40Y4090D02*
X40Y4084D01*
X82Y4084D01*
X82Y4086D01*
X70Y4086D01*
X70Y4088D01*
X64Y4088D01*
X64Y4090D01*
X40Y4090D01*
G37*
D02*
G36*
X88Y4086D02*
X88Y4084D01*
X634Y4084D01*
X634Y4086D01*
X88Y4086D01*
G37*
D02*
G36*
X40Y4084D02*
X40Y4082D01*
X628Y4082D01*
X628Y4084D01*
X40Y4084D01*
G37*
D02*
G36*
X40Y4084D02*
X40Y4082D01*
X628Y4082D01*
X628Y4084D01*
X40Y4084D01*
G37*
D02*
G36*
X40Y4082D02*
X40Y4026D01*
X634Y4026D01*
X634Y4028D01*
X628Y4028D01*
X628Y4030D01*
X624Y4030D01*
X624Y4032D01*
X622Y4032D01*
X622Y4034D01*
X620Y4034D01*
X620Y4036D01*
X618Y4036D01*
X618Y4038D01*
X616Y4038D01*
X616Y4040D01*
X614Y4040D01*
X614Y4044D01*
X612Y4044D01*
X612Y4050D01*
X610Y4050D01*
X610Y4062D01*
X612Y4062D01*
X612Y4068D01*
X614Y4068D01*
X614Y4072D01*
X616Y4072D01*
X616Y4074D01*
X618Y4074D01*
X618Y4076D01*
X620Y4076D01*
X620Y4078D01*
X622Y4078D01*
X622Y4080D01*
X624Y4080D01*
X624Y4082D01*
X40Y4082D01*
G37*
D02*
G36*
X658Y4034D02*
X658Y4032D01*
X656Y4032D01*
X656Y4030D01*
X652Y4030D01*
X652Y4028D01*
X646Y4028D01*
X646Y4026D01*
X1368Y4026D01*
X1368Y4034D01*
X658Y4034D01*
G37*
D02*
G36*
X40Y4026D02*
X40Y4024D01*
X1368Y4024D01*
X1368Y4026D01*
X40Y4026D01*
G37*
D02*
G36*
X40Y4026D02*
X40Y4024D01*
X1368Y4024D01*
X1368Y4026D01*
X40Y4026D01*
G37*
D02*
G36*
X40Y4024D02*
X40Y2538D01*
X304Y2538D01*
X304Y2536D01*
X314Y2536D01*
X314Y2534D01*
X320Y2534D01*
X320Y2532D01*
X326Y2532D01*
X326Y2530D01*
X332Y2530D01*
X332Y2528D01*
X336Y2528D01*
X336Y2526D01*
X338Y2526D01*
X338Y2524D01*
X342Y2524D01*
X342Y2522D01*
X344Y2522D01*
X344Y2520D01*
X348Y2520D01*
X348Y2518D01*
X350Y2518D01*
X350Y2516D01*
X352Y2516D01*
X352Y2514D01*
X356Y2514D01*
X356Y2512D01*
X358Y2512D01*
X358Y2510D01*
X360Y2510D01*
X360Y2508D01*
X362Y2508D01*
X362Y2506D01*
X364Y2506D01*
X364Y2502D01*
X366Y2502D01*
X366Y2500D01*
X368Y2500D01*
X368Y2498D01*
X370Y2498D01*
X370Y2494D01*
X372Y2494D01*
X372Y2492D01*
X374Y2492D01*
X374Y2488D01*
X376Y2488D01*
X376Y2484D01*
X378Y2484D01*
X378Y2480D01*
X380Y2480D01*
X380Y2476D01*
X382Y2476D01*
X382Y2470D01*
X384Y2470D01*
X384Y2462D01*
X386Y2462D01*
X386Y2452D01*
X388Y2452D01*
X388Y2430D01*
X386Y2430D01*
X386Y2418D01*
X384Y2418D01*
X384Y2410D01*
X382Y2410D01*
X382Y2406D01*
X380Y2406D01*
X380Y2400D01*
X378Y2400D01*
X378Y2396D01*
X376Y2396D01*
X376Y2392D01*
X374Y2392D01*
X374Y2390D01*
X372Y2390D01*
X372Y2386D01*
X370Y2386D01*
X370Y2384D01*
X368Y2384D01*
X368Y2380D01*
X366Y2380D01*
X366Y2378D01*
X364Y2378D01*
X364Y2376D01*
X362Y2376D01*
X362Y2374D01*
X360Y2374D01*
X360Y2372D01*
X358Y2372D01*
X358Y2370D01*
X356Y2370D01*
X356Y2368D01*
X354Y2368D01*
X354Y2366D01*
X352Y2366D01*
X352Y2364D01*
X348Y2364D01*
X348Y2362D01*
X346Y2362D01*
X346Y2360D01*
X344Y2360D01*
X344Y2358D01*
X340Y2358D01*
X340Y2356D01*
X336Y2356D01*
X336Y2354D01*
X332Y2354D01*
X332Y2352D01*
X328Y2352D01*
X328Y2350D01*
X324Y2350D01*
X324Y2348D01*
X318Y2348D01*
X318Y2346D01*
X308Y2346D01*
X308Y2344D01*
X1360Y2344D01*
X1360Y2494D01*
X1358Y2494D01*
X1358Y2866D01*
X1356Y2866D01*
X1356Y3238D01*
X1354Y3238D01*
X1354Y3610D01*
X1352Y3610D01*
X1352Y3982D01*
X1350Y3982D01*
X1350Y3992D01*
X1352Y3992D01*
X1352Y4000D01*
X1354Y4000D01*
X1354Y4004D01*
X1356Y4004D01*
X1356Y4008D01*
X1358Y4008D01*
X1358Y4010D01*
X1360Y4010D01*
X1360Y4012D01*
X1364Y4012D01*
X1364Y4014D01*
X1368Y4014D01*
X1368Y4024D01*
X40Y4024D01*
G37*
D02*
G36*
X40Y2538D02*
X40Y2344D01*
X272Y2344D01*
X272Y2346D01*
X264Y2346D01*
X264Y2348D01*
X256Y2348D01*
X256Y2350D01*
X252Y2350D01*
X252Y2352D01*
X248Y2352D01*
X248Y2354D01*
X244Y2354D01*
X244Y2356D01*
X240Y2356D01*
X240Y2358D01*
X238Y2358D01*
X238Y2360D01*
X234Y2360D01*
X234Y2362D01*
X232Y2362D01*
X232Y2364D01*
X228Y2364D01*
X228Y2366D01*
X226Y2366D01*
X226Y2368D01*
X224Y2368D01*
X224Y2370D01*
X222Y2370D01*
X222Y2372D01*
X220Y2372D01*
X220Y2374D01*
X218Y2374D01*
X218Y2376D01*
X216Y2376D01*
X216Y2378D01*
X214Y2378D01*
X214Y2382D01*
X212Y2382D01*
X212Y2384D01*
X210Y2384D01*
X210Y2386D01*
X208Y2386D01*
X208Y2390D01*
X206Y2390D01*
X206Y2394D01*
X204Y2394D01*
X204Y2398D01*
X202Y2398D01*
X202Y2402D01*
X200Y2402D01*
X200Y2406D01*
X198Y2406D01*
X198Y2412D01*
X196Y2412D01*
X196Y2420D01*
X194Y2420D01*
X194Y2434D01*
X192Y2434D01*
X192Y2448D01*
X194Y2448D01*
X194Y2462D01*
X196Y2462D01*
X196Y2470D01*
X198Y2470D01*
X198Y2474D01*
X200Y2474D01*
X200Y2480D01*
X202Y2480D01*
X202Y2484D01*
X204Y2484D01*
X204Y2488D01*
X206Y2488D01*
X206Y2492D01*
X208Y2492D01*
X208Y2494D01*
X210Y2494D01*
X210Y2498D01*
X212Y2498D01*
X212Y2500D01*
X214Y2500D01*
X214Y2502D01*
X216Y2502D01*
X216Y2504D01*
X218Y2504D01*
X218Y2508D01*
X220Y2508D01*
X220Y2510D01*
X222Y2510D01*
X222Y2512D01*
X226Y2512D01*
X226Y2514D01*
X228Y2514D01*
X228Y2516D01*
X230Y2516D01*
X230Y2518D01*
X232Y2518D01*
X232Y2520D01*
X236Y2520D01*
X236Y2522D01*
X238Y2522D01*
X238Y2524D01*
X242Y2524D01*
X242Y2526D01*
X246Y2526D01*
X246Y2528D01*
X250Y2528D01*
X250Y2530D01*
X254Y2530D01*
X254Y2532D01*
X260Y2532D01*
X260Y2534D01*
X266Y2534D01*
X266Y2536D01*
X278Y2536D01*
X278Y2538D01*
X40Y2538D01*
G37*
D02*
G36*
X40Y2344D02*
X40Y2342D01*
X1360Y2342D01*
X1360Y2344D01*
X40Y2344D01*
G37*
D02*
G36*
X40Y2344D02*
X40Y2342D01*
X1360Y2342D01*
X1360Y2344D01*
X40Y2344D01*
G37*
D02*
G36*
X40Y2342D02*
X40Y254D01*
X306Y254D01*
X306Y252D01*
X316Y252D01*
X316Y250D01*
X322Y250D01*
X322Y248D01*
X328Y248D01*
X328Y246D01*
X332Y246D01*
X332Y244D01*
X336Y244D01*
X336Y242D01*
X340Y242D01*
X340Y240D01*
X342Y240D01*
X342Y238D01*
X346Y238D01*
X346Y236D01*
X348Y236D01*
X348Y234D01*
X352Y234D01*
X352Y232D01*
X354Y232D01*
X354Y230D01*
X356Y230D01*
X356Y228D01*
X358Y228D01*
X358Y226D01*
X360Y226D01*
X360Y224D01*
X362Y224D01*
X362Y222D01*
X364Y222D01*
X364Y220D01*
X366Y220D01*
X366Y216D01*
X368Y216D01*
X368Y214D01*
X370Y214D01*
X370Y212D01*
X372Y212D01*
X372Y208D01*
X374Y208D01*
X374Y204D01*
X376Y204D01*
X376Y202D01*
X378Y202D01*
X378Y198D01*
X380Y198D01*
X380Y192D01*
X382Y192D01*
X382Y186D01*
X384Y186D01*
X384Y178D01*
X386Y178D01*
X386Y168D01*
X388Y168D01*
X388Y146D01*
X386Y146D01*
X386Y136D01*
X384Y136D01*
X384Y128D01*
X382Y128D01*
X382Y122D01*
X380Y122D01*
X380Y116D01*
X378Y116D01*
X378Y112D01*
X376Y112D01*
X376Y110D01*
X374Y110D01*
X374Y106D01*
X372Y106D01*
X372Y102D01*
X370Y102D01*
X370Y100D01*
X368Y100D01*
X368Y98D01*
X366Y98D01*
X366Y94D01*
X364Y94D01*
X364Y92D01*
X362Y92D01*
X362Y90D01*
X360Y90D01*
X360Y88D01*
X358Y88D01*
X358Y86D01*
X356Y86D01*
X356Y84D01*
X354Y84D01*
X354Y82D01*
X350Y82D01*
X350Y80D01*
X348Y80D01*
X348Y78D01*
X346Y78D01*
X346Y76D01*
X342Y76D01*
X342Y74D01*
X340Y74D01*
X340Y72D01*
X336Y72D01*
X336Y70D01*
X332Y70D01*
X332Y68D01*
X328Y68D01*
X328Y66D01*
X322Y66D01*
X322Y64D01*
X316Y64D01*
X316Y62D01*
X306Y62D01*
X306Y60D01*
X2204Y60D01*
X2204Y62D01*
X2194Y62D01*
X2194Y64D01*
X2188Y64D01*
X2188Y66D01*
X2182Y66D01*
X2182Y68D01*
X2178Y68D01*
X2178Y70D01*
X2174Y70D01*
X2174Y72D01*
X2170Y72D01*
X2170Y74D01*
X2166Y74D01*
X2166Y76D01*
X2164Y76D01*
X2164Y78D01*
X2162Y78D01*
X2162Y80D01*
X2158Y80D01*
X2158Y82D01*
X2156Y82D01*
X2156Y84D01*
X2154Y84D01*
X2154Y86D01*
X2152Y86D01*
X2152Y88D01*
X2150Y88D01*
X2150Y90D01*
X2148Y90D01*
X2148Y92D01*
X2146Y92D01*
X2146Y94D01*
X2144Y94D01*
X2144Y96D01*
X2142Y96D01*
X2142Y100D01*
X2140Y100D01*
X2140Y102D01*
X2138Y102D01*
X2138Y106D01*
X2136Y106D01*
X2136Y108D01*
X2134Y108D01*
X2134Y112D01*
X2132Y112D01*
X2132Y116D01*
X2130Y116D01*
X2130Y120D01*
X2128Y120D01*
X2128Y126D01*
X2126Y126D01*
X2126Y134D01*
X2124Y134D01*
X2124Y144D01*
X2122Y144D01*
X2122Y170D01*
X2124Y170D01*
X2124Y180D01*
X2126Y180D01*
X2126Y188D01*
X2128Y188D01*
X2128Y194D01*
X2130Y194D01*
X2130Y198D01*
X2132Y198D01*
X2132Y202D01*
X2134Y202D01*
X2134Y206D01*
X2136Y206D01*
X2136Y208D01*
X2138Y208D01*
X2138Y212D01*
X2140Y212D01*
X2140Y214D01*
X2142Y214D01*
X2142Y218D01*
X2144Y218D01*
X2144Y220D01*
X2146Y220D01*
X2146Y222D01*
X2148Y222D01*
X2148Y224D01*
X2150Y224D01*
X2150Y226D01*
X2152Y226D01*
X2152Y228D01*
X2154Y228D01*
X2154Y230D01*
X2156Y230D01*
X2156Y232D01*
X2158Y232D01*
X2158Y252D01*
X2064Y252D01*
X2064Y254D01*
X1782Y254D01*
X1782Y256D01*
X1498Y256D01*
X1498Y258D01*
X1390Y258D01*
X1390Y260D01*
X1384Y260D01*
X1384Y262D01*
X1382Y262D01*
X1382Y264D01*
X1378Y264D01*
X1378Y268D01*
X1376Y268D01*
X1376Y270D01*
X1374Y270D01*
X1374Y274D01*
X1372Y274D01*
X1372Y282D01*
X1370Y282D01*
X1370Y630D01*
X1368Y630D01*
X1368Y1004D01*
X1366Y1004D01*
X1366Y1376D01*
X1364Y1376D01*
X1364Y1748D01*
X1362Y1748D01*
X1362Y2120D01*
X1360Y2120D01*
X1360Y2342D01*
X40Y2342D01*
G37*
D02*
G36*
X3786Y328D02*
X3786Y326D01*
X3784Y326D01*
X3784Y324D01*
X3780Y324D01*
X3780Y304D01*
X3778Y304D01*
X3778Y268D01*
X3776Y268D01*
X3776Y258D01*
X3774Y258D01*
X3774Y254D01*
X3772Y254D01*
X3772Y250D01*
X3770Y250D01*
X3770Y248D01*
X3768Y248D01*
X3768Y246D01*
X3764Y246D01*
X3764Y244D01*
X3760Y244D01*
X3760Y242D01*
X3848Y242D01*
X3848Y248D01*
X3850Y248D01*
X3850Y256D01*
X3852Y256D01*
X3852Y266D01*
X3854Y266D01*
X3854Y276D01*
X3856Y276D01*
X3856Y286D01*
X3858Y286D01*
X3858Y294D01*
X3860Y294D01*
X3860Y304D01*
X3862Y304D01*
X3862Y326D01*
X3840Y326D01*
X3840Y328D01*
X3786Y328D01*
G37*
D02*
G36*
X40Y254D02*
X40Y150D01*
X100Y150D01*
X100Y148D01*
X108Y148D01*
X108Y146D01*
X112Y146D01*
X112Y144D01*
X116Y144D01*
X116Y142D01*
X120Y142D01*
X120Y140D01*
X124Y140D01*
X124Y138D01*
X126Y138D01*
X126Y136D01*
X128Y136D01*
X128Y134D01*
X130Y134D01*
X130Y132D01*
X132Y132D01*
X132Y130D01*
X134Y130D01*
X134Y128D01*
X136Y128D01*
X136Y126D01*
X138Y126D01*
X138Y124D01*
X140Y124D01*
X140Y120D01*
X142Y120D01*
X142Y116D01*
X144Y116D01*
X144Y112D01*
X146Y112D01*
X146Y108D01*
X148Y108D01*
X148Y102D01*
X150Y102D01*
X150Y70D01*
X148Y70D01*
X148Y64D01*
X146Y64D01*
X146Y60D01*
X274Y60D01*
X274Y62D01*
X266Y62D01*
X266Y64D01*
X258Y64D01*
X258Y66D01*
X252Y66D01*
X252Y68D01*
X248Y68D01*
X248Y70D01*
X244Y70D01*
X244Y72D01*
X242Y72D01*
X242Y74D01*
X238Y74D01*
X238Y76D01*
X234Y76D01*
X234Y78D01*
X232Y78D01*
X232Y80D01*
X230Y80D01*
X230Y82D01*
X226Y82D01*
X226Y84D01*
X224Y84D01*
X224Y86D01*
X222Y86D01*
X222Y88D01*
X220Y88D01*
X220Y90D01*
X218Y90D01*
X218Y92D01*
X216Y92D01*
X216Y96D01*
X214Y96D01*
X214Y98D01*
X212Y98D01*
X212Y100D01*
X210Y100D01*
X210Y104D01*
X208Y104D01*
X208Y106D01*
X206Y106D01*
X206Y110D01*
X204Y110D01*
X204Y114D01*
X202Y114D01*
X202Y118D01*
X200Y118D01*
X200Y122D01*
X198Y122D01*
X198Y128D01*
X196Y128D01*
X196Y136D01*
X194Y136D01*
X194Y150D01*
X192Y150D01*
X192Y164D01*
X194Y164D01*
X194Y178D01*
X196Y178D01*
X196Y186D01*
X198Y186D01*
X198Y192D01*
X200Y192D01*
X200Y196D01*
X202Y196D01*
X202Y200D01*
X204Y200D01*
X204Y204D01*
X206Y204D01*
X206Y208D01*
X208Y208D01*
X208Y210D01*
X210Y210D01*
X210Y214D01*
X212Y214D01*
X212Y216D01*
X214Y216D01*
X214Y220D01*
X216Y220D01*
X216Y222D01*
X218Y222D01*
X218Y224D01*
X220Y224D01*
X220Y226D01*
X222Y226D01*
X222Y228D01*
X224Y228D01*
X224Y230D01*
X226Y230D01*
X226Y232D01*
X230Y232D01*
X230Y234D01*
X232Y234D01*
X232Y236D01*
X234Y236D01*
X234Y238D01*
X238Y238D01*
X238Y240D01*
X240Y240D01*
X240Y242D01*
X244Y242D01*
X244Y244D01*
X248Y244D01*
X248Y246D01*
X252Y246D01*
X252Y248D01*
X258Y248D01*
X258Y250D01*
X264Y250D01*
X264Y252D01*
X274Y252D01*
X274Y254D01*
X40Y254D01*
G37*
D02*
G36*
X2280Y252D02*
X2280Y242D01*
X3480Y242D01*
X3480Y244D01*
X3198Y244D01*
X3198Y246D01*
X2914Y246D01*
X2914Y248D01*
X2632Y248D01*
X2632Y250D01*
X2348Y250D01*
X2348Y252D01*
X2280Y252D01*
G37*
D02*
G36*
X2280Y242D02*
X2280Y240D01*
X3848Y240D01*
X3848Y242D01*
X2280Y242D01*
G37*
D02*
G36*
X2280Y242D02*
X2280Y240D01*
X3848Y240D01*
X3848Y242D01*
X2280Y242D01*
G37*
D02*
G36*
X2280Y240D02*
X2280Y232D01*
X2282Y232D01*
X2282Y230D01*
X2284Y230D01*
X2284Y228D01*
X2288Y228D01*
X2288Y226D01*
X2290Y226D01*
X2290Y222D01*
X2292Y222D01*
X2292Y220D01*
X2294Y220D01*
X2294Y218D01*
X2296Y218D01*
X2296Y216D01*
X2298Y216D01*
X2298Y212D01*
X2300Y212D01*
X2300Y210D01*
X2302Y210D01*
X2302Y206D01*
X2304Y206D01*
X2304Y204D01*
X2306Y204D01*
X2306Y200D01*
X2308Y200D01*
X2308Y196D01*
X2310Y196D01*
X2310Y190D01*
X2312Y190D01*
X2312Y184D01*
X2314Y184D01*
X2314Y174D01*
X2316Y174D01*
X2316Y146D01*
X3754Y146D01*
X3754Y144D01*
X3760Y144D01*
X3760Y142D01*
X3766Y142D01*
X3766Y140D01*
X3770Y140D01*
X3770Y138D01*
X3772Y138D01*
X3772Y136D01*
X3774Y136D01*
X3774Y134D01*
X3776Y134D01*
X3776Y132D01*
X3778Y132D01*
X3778Y130D01*
X3780Y130D01*
X3780Y128D01*
X3782Y128D01*
X3782Y126D01*
X3784Y126D01*
X3784Y122D01*
X3804Y122D01*
X3804Y124D01*
X3806Y124D01*
X3806Y128D01*
X3808Y128D01*
X3808Y130D01*
X3810Y130D01*
X3810Y132D01*
X3812Y132D01*
X3812Y134D01*
X3814Y134D01*
X3814Y136D01*
X3816Y136D01*
X3816Y138D01*
X3820Y138D01*
X3820Y140D01*
X3824Y140D01*
X3824Y142D01*
X3828Y142D01*
X3828Y152D01*
X3830Y152D01*
X3830Y162D01*
X3832Y162D01*
X3832Y170D01*
X3834Y170D01*
X3834Y180D01*
X3836Y180D01*
X3836Y190D01*
X3838Y190D01*
X3838Y200D01*
X3840Y200D01*
X3840Y210D01*
X3842Y210D01*
X3842Y218D01*
X3844Y218D01*
X3844Y228D01*
X3846Y228D01*
X3846Y238D01*
X3848Y238D01*
X3848Y240D01*
X2280Y240D01*
G37*
D02*
G36*
X40Y150D02*
X40Y144D01*
X60Y144D01*
X60Y146D01*
X64Y146D01*
X64Y148D01*
X72Y148D01*
X72Y150D01*
X40Y150D01*
G37*
D02*
G36*
X2316Y146D02*
X2316Y140D01*
X2314Y140D01*
X2314Y130D01*
X2312Y130D01*
X2312Y124D01*
X2310Y124D01*
X2310Y118D01*
X2308Y118D01*
X2308Y114D01*
X2306Y114D01*
X2306Y110D01*
X2304Y110D01*
X2304Y108D01*
X2302Y108D01*
X2302Y104D01*
X2300Y104D01*
X2300Y102D01*
X2298Y102D01*
X2298Y98D01*
X2296Y98D01*
X2296Y96D01*
X2294Y96D01*
X2294Y94D01*
X2292Y94D01*
X2292Y92D01*
X2290Y92D01*
X2290Y88D01*
X2288Y88D01*
X2288Y86D01*
X2284Y86D01*
X2284Y84D01*
X2282Y84D01*
X2282Y82D01*
X2280Y82D01*
X2280Y80D01*
X2278Y80D01*
X2278Y78D01*
X2274Y78D01*
X2274Y76D01*
X2272Y76D01*
X2272Y74D01*
X2268Y74D01*
X2268Y72D01*
X2266Y72D01*
X2266Y70D01*
X2262Y70D01*
X2262Y68D01*
X2256Y68D01*
X2256Y66D01*
X2252Y66D01*
X2252Y64D01*
X2244Y64D01*
X2244Y62D01*
X2234Y62D01*
X2234Y60D01*
X3718Y60D01*
X3718Y62D01*
X3714Y62D01*
X3714Y64D01*
X3712Y64D01*
X3712Y66D01*
X3710Y66D01*
X3710Y68D01*
X3708Y68D01*
X3708Y72D01*
X3706Y72D01*
X3706Y74D01*
X3704Y74D01*
X3704Y78D01*
X3702Y78D01*
X3702Y82D01*
X3700Y82D01*
X3700Y88D01*
X3698Y88D01*
X3698Y110D01*
X3700Y110D01*
X3700Y116D01*
X3702Y116D01*
X3702Y120D01*
X3704Y120D01*
X3704Y124D01*
X3706Y124D01*
X3706Y128D01*
X3708Y128D01*
X3708Y130D01*
X3710Y130D01*
X3710Y132D01*
X3712Y132D01*
X3712Y134D01*
X3714Y134D01*
X3714Y136D01*
X3716Y136D01*
X3716Y138D01*
X3720Y138D01*
X3720Y140D01*
X3724Y140D01*
X3724Y142D01*
X3728Y142D01*
X3728Y144D01*
X3734Y144D01*
X3734Y146D01*
X2316Y146D01*
G37*
D02*
G36*
X146Y60D02*
X146Y58D01*
X3720Y58D01*
X3720Y60D01*
X146Y60D01*
G37*
D02*
G36*
X146Y60D02*
X146Y58D01*
X3720Y58D01*
X3720Y60D01*
X146Y60D01*
G37*
D02*
G36*
X146Y60D02*
X146Y58D01*
X3720Y58D01*
X3720Y60D01*
X146Y60D01*
G37*
D02*
G36*
X146Y58D02*
X146Y40D01*
X3720Y40D01*
X3720Y58D01*
X146Y58D01*
G37*
D02*
G36*
X1544Y4034D02*
X1544Y4014D01*
X1720Y4014D01*
X1720Y4012D01*
X1766Y4012D01*
X1766Y4010D01*
X1770Y4010D01*
X1770Y4008D01*
X1772Y4008D01*
X1772Y4006D01*
X1774Y4006D01*
X1774Y4004D01*
X1776Y4004D01*
X1776Y4002D01*
X1778Y4002D01*
X1778Y4000D01*
X1780Y4000D01*
X1780Y3996D01*
X1782Y3996D01*
X1782Y3994D01*
X1784Y3994D01*
X1784Y3990D01*
X1786Y3990D01*
X1786Y3988D01*
X1788Y3988D01*
X1788Y3984D01*
X1790Y3984D01*
X1790Y3982D01*
X1792Y3982D01*
X1792Y3978D01*
X1794Y3978D01*
X1794Y3976D01*
X1796Y3976D01*
X1796Y3974D01*
X1798Y3974D01*
X1798Y3970D01*
X1800Y3970D01*
X1800Y3968D01*
X1802Y3968D01*
X1802Y3964D01*
X1804Y3964D01*
X1804Y3962D01*
X1806Y3962D01*
X1806Y3958D01*
X1808Y3958D01*
X1808Y3956D01*
X1810Y3956D01*
X1810Y3952D01*
X1812Y3952D01*
X1812Y3950D01*
X1814Y3950D01*
X1814Y3946D01*
X1816Y3946D01*
X1816Y3944D01*
X1818Y3944D01*
X1818Y3940D01*
X2018Y3940D01*
X2018Y3938D01*
X2028Y3938D01*
X2028Y3936D01*
X2034Y3936D01*
X2034Y3934D01*
X2038Y3934D01*
X2038Y3932D01*
X2040Y3932D01*
X2040Y3930D01*
X2044Y3930D01*
X2044Y3928D01*
X2046Y3928D01*
X2046Y3926D01*
X2048Y3926D01*
X2048Y3922D01*
X2050Y3922D01*
X2050Y3920D01*
X2052Y3920D01*
X2052Y3916D01*
X2054Y3916D01*
X2054Y3912D01*
X2056Y3912D01*
X2056Y3904D01*
X2076Y3904D01*
X2076Y3916D01*
X2074Y3916D01*
X2074Y3918D01*
X2072Y3918D01*
X2072Y3922D01*
X2070Y3922D01*
X2070Y3924D01*
X2068Y3924D01*
X2068Y3926D01*
X2066Y3926D01*
X2066Y3928D01*
X2064Y3928D01*
X2064Y3932D01*
X2062Y3932D01*
X2062Y3934D01*
X2060Y3934D01*
X2060Y3936D01*
X2058Y3936D01*
X2058Y3940D01*
X2056Y3940D01*
X2056Y3942D01*
X2054Y3942D01*
X2054Y3944D01*
X2052Y3944D01*
X2052Y3948D01*
X2050Y3948D01*
X2050Y3950D01*
X2048Y3950D01*
X2048Y3952D01*
X2046Y3952D01*
X2046Y3954D01*
X2044Y3954D01*
X2044Y3958D01*
X2042Y3958D01*
X2042Y3960D01*
X2040Y3960D01*
X2040Y3962D01*
X2038Y3962D01*
X2038Y3966D01*
X2036Y3966D01*
X2036Y3968D01*
X2034Y3968D01*
X2034Y3970D01*
X2032Y3970D01*
X2032Y3974D01*
X2030Y3974D01*
X2030Y3976D01*
X2028Y3976D01*
X2028Y3978D01*
X2026Y3978D01*
X2026Y3982D01*
X2024Y3982D01*
X2024Y3984D01*
X2022Y3984D01*
X2022Y3986D01*
X2020Y3986D01*
X2020Y3988D01*
X2018Y3988D01*
X2018Y3992D01*
X2016Y3992D01*
X2016Y3994D01*
X2014Y3994D01*
X2014Y3996D01*
X2012Y3996D01*
X2012Y4000D01*
X2010Y4000D01*
X2010Y4002D01*
X2008Y4002D01*
X2008Y4004D01*
X2006Y4004D01*
X2006Y4008D01*
X2004Y4008D01*
X2004Y4010D01*
X2002Y4010D01*
X2002Y4012D01*
X2000Y4012D01*
X2000Y4016D01*
X1998Y4016D01*
X1998Y4018D01*
X1996Y4018D01*
X1996Y4020D01*
X1994Y4020D01*
X1994Y4022D01*
X1992Y4022D01*
X1992Y4026D01*
X1990Y4026D01*
X1990Y4028D01*
X1988Y4028D01*
X1988Y4030D01*
X1986Y4030D01*
X1986Y4034D01*
X1544Y4034D01*
G37*
D02*
G36*
X1820Y3940D02*
X1820Y3938D01*
X1828Y3938D01*
X1828Y3936D01*
X1834Y3936D01*
X1834Y3934D01*
X1838Y3934D01*
X1838Y3932D01*
X1840Y3932D01*
X1840Y3930D01*
X1844Y3930D01*
X1844Y3928D01*
X1846Y3928D01*
X1846Y3926D01*
X1848Y3926D01*
X1848Y3922D01*
X1850Y3922D01*
X1850Y3920D01*
X1882Y3920D01*
X1882Y3922D01*
X1884Y3922D01*
X1884Y3924D01*
X1886Y3924D01*
X1886Y3926D01*
X1888Y3926D01*
X1888Y3928D01*
X1890Y3928D01*
X1890Y3930D01*
X1892Y3930D01*
X1892Y3932D01*
X1896Y3932D01*
X1896Y3934D01*
X1898Y3934D01*
X1898Y3936D01*
X1904Y3936D01*
X1904Y3938D01*
X1914Y3938D01*
X1914Y3940D01*
X1820Y3940D01*
G37*
D02*
G36*
X1918Y3940D02*
X1918Y3938D01*
X1928Y3938D01*
X1928Y3936D01*
X1934Y3936D01*
X1934Y3934D01*
X1938Y3934D01*
X1938Y3932D01*
X1940Y3932D01*
X1940Y3930D01*
X1944Y3930D01*
X1944Y3928D01*
X1946Y3928D01*
X1946Y3926D01*
X1948Y3926D01*
X1948Y3922D01*
X1950Y3922D01*
X1950Y3920D01*
X1952Y3920D01*
X1952Y3916D01*
X1954Y3916D01*
X1954Y3912D01*
X1956Y3912D01*
X1956Y3904D01*
X1976Y3904D01*
X1976Y3908D01*
X1978Y3908D01*
X1978Y3914D01*
X1980Y3914D01*
X1980Y3918D01*
X1982Y3918D01*
X1982Y3922D01*
X1984Y3922D01*
X1984Y3924D01*
X1986Y3924D01*
X1986Y3926D01*
X1988Y3926D01*
X1988Y3928D01*
X1990Y3928D01*
X1990Y3930D01*
X1992Y3930D01*
X1992Y3932D01*
X1996Y3932D01*
X1996Y3934D01*
X1998Y3934D01*
X1998Y3936D01*
X2004Y3936D01*
X2004Y3938D01*
X2014Y3938D01*
X2014Y3940D01*
X1918Y3940D01*
G37*
D02*
G36*
X1404Y3964D02*
X1404Y3910D01*
X1642Y3910D01*
X1642Y3908D01*
X1650Y3908D01*
X1650Y3906D01*
X1654Y3906D01*
X1654Y3904D01*
X1660Y3904D01*
X1660Y3902D01*
X1664Y3902D01*
X1664Y3900D01*
X1666Y3900D01*
X1666Y3898D01*
X1670Y3898D01*
X1670Y3896D01*
X1672Y3896D01*
X1672Y3894D01*
X1674Y3894D01*
X1674Y3892D01*
X1678Y3892D01*
X1678Y3890D01*
X1680Y3890D01*
X1680Y3888D01*
X1682Y3888D01*
X1682Y3886D01*
X1684Y3886D01*
X1684Y3884D01*
X1686Y3884D01*
X1686Y3880D01*
X1688Y3880D01*
X1688Y3878D01*
X1690Y3878D01*
X1690Y3876D01*
X1692Y3876D01*
X1692Y3872D01*
X1694Y3872D01*
X1694Y3868D01*
X1696Y3868D01*
X1696Y3864D01*
X1698Y3864D01*
X1698Y3860D01*
X1700Y3860D01*
X1700Y3854D01*
X1702Y3854D01*
X1702Y3844D01*
X1704Y3844D01*
X1704Y3820D01*
X1702Y3820D01*
X1702Y3810D01*
X1700Y3810D01*
X1700Y3804D01*
X1698Y3804D01*
X1698Y3798D01*
X1696Y3798D01*
X1696Y3794D01*
X1694Y3794D01*
X1694Y3792D01*
X1692Y3792D01*
X1692Y3788D01*
X1690Y3788D01*
X1690Y3786D01*
X1688Y3786D01*
X1688Y3782D01*
X1686Y3782D01*
X1686Y3780D01*
X1684Y3780D01*
X1684Y3778D01*
X1682Y3778D01*
X1682Y3776D01*
X1680Y3776D01*
X1680Y3774D01*
X1678Y3774D01*
X1678Y3772D01*
X1676Y3772D01*
X1676Y3770D01*
X1674Y3770D01*
X1674Y3768D01*
X1670Y3768D01*
X1670Y3766D01*
X1668Y3766D01*
X1668Y3764D01*
X1664Y3764D01*
X1664Y3762D01*
X1660Y3762D01*
X1660Y3760D01*
X1656Y3760D01*
X1656Y3758D01*
X1652Y3758D01*
X1652Y3756D01*
X1644Y3756D01*
X1644Y3754D01*
X1634Y3754D01*
X1634Y3752D01*
X1754Y3752D01*
X1754Y3754D01*
X1756Y3754D01*
X1756Y3756D01*
X1758Y3756D01*
X1758Y3758D01*
X1760Y3758D01*
X1760Y3762D01*
X1762Y3762D01*
X1762Y3764D01*
X1764Y3764D01*
X1764Y3766D01*
X1766Y3766D01*
X1766Y3768D01*
X1768Y3768D01*
X1768Y3772D01*
X1770Y3772D01*
X1770Y3774D01*
X1772Y3774D01*
X1772Y3776D01*
X1774Y3776D01*
X1774Y3780D01*
X1776Y3780D01*
X1776Y3808D01*
X1778Y3808D01*
X1778Y3814D01*
X1780Y3814D01*
X1780Y3818D01*
X1782Y3818D01*
X1782Y3822D01*
X1784Y3822D01*
X1784Y3824D01*
X1786Y3824D01*
X1786Y3826D01*
X1788Y3826D01*
X1788Y3828D01*
X1790Y3828D01*
X1790Y3830D01*
X1792Y3830D01*
X1792Y3832D01*
X1796Y3832D01*
X1796Y3834D01*
X1798Y3834D01*
X1798Y3836D01*
X1804Y3836D01*
X1804Y3838D01*
X1812Y3838D01*
X1812Y3858D01*
X1804Y3858D01*
X1804Y3860D01*
X1798Y3860D01*
X1798Y3862D01*
X1794Y3862D01*
X1794Y3864D01*
X1792Y3864D01*
X1792Y3866D01*
X1790Y3866D01*
X1790Y3868D01*
X1788Y3868D01*
X1788Y3870D01*
X1786Y3870D01*
X1786Y3872D01*
X1784Y3872D01*
X1784Y3874D01*
X1782Y3874D01*
X1782Y3878D01*
X1780Y3878D01*
X1780Y3880D01*
X1778Y3880D01*
X1778Y3886D01*
X1776Y3886D01*
X1776Y3914D01*
X1774Y3914D01*
X1774Y3916D01*
X1772Y3916D01*
X1772Y3918D01*
X1770Y3918D01*
X1770Y3922D01*
X1768Y3922D01*
X1768Y3924D01*
X1766Y3924D01*
X1766Y3928D01*
X1764Y3928D01*
X1764Y3930D01*
X1762Y3930D01*
X1762Y3934D01*
X1760Y3934D01*
X1760Y3936D01*
X1758Y3936D01*
X1758Y3940D01*
X1756Y3940D01*
X1756Y3942D01*
X1754Y3942D01*
X1754Y3946D01*
X1752Y3946D01*
X1752Y3948D01*
X1750Y3948D01*
X1750Y3952D01*
X1748Y3952D01*
X1748Y3954D01*
X1746Y3954D01*
X1746Y3958D01*
X1744Y3958D01*
X1744Y3960D01*
X1718Y3960D01*
X1718Y3962D01*
X1542Y3962D01*
X1542Y3964D01*
X1404Y3964D01*
G37*
D02*
G36*
X1404Y3910D02*
X1404Y3752D01*
X1616Y3752D01*
X1616Y3754D01*
X1606Y3754D01*
X1606Y3756D01*
X1598Y3756D01*
X1598Y3758D01*
X1594Y3758D01*
X1594Y3760D01*
X1590Y3760D01*
X1590Y3762D01*
X1586Y3762D01*
X1586Y3764D01*
X1582Y3764D01*
X1582Y3766D01*
X1580Y3766D01*
X1580Y3768D01*
X1576Y3768D01*
X1576Y3770D01*
X1574Y3770D01*
X1574Y3772D01*
X1572Y3772D01*
X1572Y3774D01*
X1570Y3774D01*
X1570Y3776D01*
X1568Y3776D01*
X1568Y3778D01*
X1566Y3778D01*
X1566Y3780D01*
X1564Y3780D01*
X1564Y3782D01*
X1562Y3782D01*
X1562Y3786D01*
X1560Y3786D01*
X1560Y3788D01*
X1558Y3788D01*
X1558Y3792D01*
X1556Y3792D01*
X1556Y3794D01*
X1554Y3794D01*
X1554Y3798D01*
X1552Y3798D01*
X1552Y3804D01*
X1550Y3804D01*
X1550Y3810D01*
X1548Y3810D01*
X1548Y3818D01*
X1546Y3818D01*
X1546Y3844D01*
X1548Y3844D01*
X1548Y3854D01*
X1550Y3854D01*
X1550Y3860D01*
X1552Y3860D01*
X1552Y3864D01*
X1554Y3864D01*
X1554Y3868D01*
X1556Y3868D01*
X1556Y3872D01*
X1558Y3872D01*
X1558Y3876D01*
X1560Y3876D01*
X1560Y3878D01*
X1562Y3878D01*
X1562Y3880D01*
X1564Y3880D01*
X1564Y3884D01*
X1566Y3884D01*
X1566Y3886D01*
X1568Y3886D01*
X1568Y3888D01*
X1570Y3888D01*
X1570Y3890D01*
X1572Y3890D01*
X1572Y3892D01*
X1574Y3892D01*
X1574Y3894D01*
X1578Y3894D01*
X1578Y3896D01*
X1580Y3896D01*
X1580Y3898D01*
X1584Y3898D01*
X1584Y3900D01*
X1586Y3900D01*
X1586Y3902D01*
X1590Y3902D01*
X1590Y3904D01*
X1596Y3904D01*
X1596Y3906D01*
X1600Y3906D01*
X1600Y3908D01*
X1608Y3908D01*
X1608Y3910D01*
X1404Y3910D01*
G37*
D02*
G36*
X1404Y3752D02*
X1404Y3750D01*
X1754Y3750D01*
X1754Y3752D01*
X1404Y3752D01*
G37*
D02*
G36*
X1404Y3752D02*
X1404Y3750D01*
X1754Y3750D01*
X1754Y3752D01*
X1404Y3752D01*
G37*
D02*
G36*
X1404Y3750D02*
X1404Y3614D01*
X1406Y3614D01*
X1406Y3240D01*
X1408Y3240D01*
X1408Y2868D01*
X1410Y2868D01*
X1410Y2496D01*
X1412Y2496D01*
X1412Y2124D01*
X1414Y2124D01*
X1414Y1982D01*
X1634Y1982D01*
X1634Y1980D01*
X1646Y1980D01*
X1646Y1978D01*
X1652Y1978D01*
X1652Y1976D01*
X1656Y1976D01*
X1656Y1974D01*
X1660Y1974D01*
X1660Y1972D01*
X1664Y1972D01*
X1664Y1970D01*
X1668Y1970D01*
X1668Y1968D01*
X1670Y1968D01*
X1670Y1966D01*
X1674Y1966D01*
X1674Y1964D01*
X1676Y1964D01*
X1676Y1962D01*
X1678Y1962D01*
X1678Y1960D01*
X1680Y1960D01*
X1680Y1958D01*
X1682Y1958D01*
X1682Y1956D01*
X1684Y1956D01*
X1684Y1954D01*
X1686Y1954D01*
X1686Y1952D01*
X1688Y1952D01*
X1688Y1948D01*
X1708Y1948D01*
X1708Y3690D01*
X1710Y3690D01*
X1710Y3694D01*
X1712Y3694D01*
X1712Y3698D01*
X1714Y3698D01*
X1714Y3700D01*
X1716Y3700D01*
X1716Y3702D01*
X1718Y3702D01*
X1718Y3706D01*
X1720Y3706D01*
X1720Y3708D01*
X1722Y3708D01*
X1722Y3710D01*
X1724Y3710D01*
X1724Y3714D01*
X1726Y3714D01*
X1726Y3716D01*
X1728Y3716D01*
X1728Y3718D01*
X1730Y3718D01*
X1730Y3722D01*
X1732Y3722D01*
X1732Y3724D01*
X1734Y3724D01*
X1734Y3726D01*
X1736Y3726D01*
X1736Y3730D01*
X1738Y3730D01*
X1738Y3732D01*
X1740Y3732D01*
X1740Y3734D01*
X1742Y3734D01*
X1742Y3738D01*
X1744Y3738D01*
X1744Y3740D01*
X1746Y3740D01*
X1746Y3742D01*
X1748Y3742D01*
X1748Y3746D01*
X1750Y3746D01*
X1750Y3748D01*
X1752Y3748D01*
X1752Y3750D01*
X1404Y3750D01*
G37*
D02*
G36*
X1414Y1982D02*
X1414Y1824D01*
X1610Y1824D01*
X1610Y1826D01*
X1602Y1826D01*
X1602Y1828D01*
X1596Y1828D01*
X1596Y1830D01*
X1592Y1830D01*
X1592Y1832D01*
X1588Y1832D01*
X1588Y1834D01*
X1584Y1834D01*
X1584Y1836D01*
X1580Y1836D01*
X1580Y1838D01*
X1578Y1838D01*
X1578Y1840D01*
X1576Y1840D01*
X1576Y1842D01*
X1572Y1842D01*
X1572Y1844D01*
X1570Y1844D01*
X1570Y1846D01*
X1568Y1846D01*
X1568Y1848D01*
X1566Y1848D01*
X1566Y1850D01*
X1564Y1850D01*
X1564Y1854D01*
X1562Y1854D01*
X1562Y1856D01*
X1560Y1856D01*
X1560Y1858D01*
X1558Y1858D01*
X1558Y1862D01*
X1556Y1862D01*
X1556Y1866D01*
X1554Y1866D01*
X1554Y1870D01*
X1552Y1870D01*
X1552Y1874D01*
X1550Y1874D01*
X1550Y1880D01*
X1548Y1880D01*
X1548Y1890D01*
X1546Y1890D01*
X1546Y1916D01*
X1548Y1916D01*
X1548Y1924D01*
X1550Y1924D01*
X1550Y1930D01*
X1552Y1930D01*
X1552Y1936D01*
X1554Y1936D01*
X1554Y1940D01*
X1556Y1940D01*
X1556Y1942D01*
X1558Y1942D01*
X1558Y1946D01*
X1560Y1946D01*
X1560Y1950D01*
X1562Y1950D01*
X1562Y1952D01*
X1564Y1952D01*
X1564Y1954D01*
X1566Y1954D01*
X1566Y1956D01*
X1568Y1956D01*
X1568Y1958D01*
X1570Y1958D01*
X1570Y1960D01*
X1572Y1960D01*
X1572Y1962D01*
X1574Y1962D01*
X1574Y1964D01*
X1576Y1964D01*
X1576Y1966D01*
X1580Y1966D01*
X1580Y1968D01*
X1582Y1968D01*
X1582Y1970D01*
X1586Y1970D01*
X1586Y1972D01*
X1588Y1972D01*
X1588Y1974D01*
X1594Y1974D01*
X1594Y1976D01*
X1598Y1976D01*
X1598Y1978D01*
X1604Y1978D01*
X1604Y1980D01*
X1616Y1980D01*
X1616Y1982D01*
X1414Y1982D01*
G37*
D02*
G36*
X1688Y1856D02*
X1688Y1854D01*
X1686Y1854D01*
X1686Y1852D01*
X1684Y1852D01*
X1684Y1848D01*
X1682Y1848D01*
X1682Y1846D01*
X1680Y1846D01*
X1680Y1844D01*
X1678Y1844D01*
X1678Y1842D01*
X1674Y1842D01*
X1674Y1840D01*
X1672Y1840D01*
X1672Y1838D01*
X1670Y1838D01*
X1670Y1836D01*
X1666Y1836D01*
X1666Y1834D01*
X1662Y1834D01*
X1662Y1832D01*
X1658Y1832D01*
X1658Y1830D01*
X1654Y1830D01*
X1654Y1828D01*
X1648Y1828D01*
X1648Y1826D01*
X1640Y1826D01*
X1640Y1824D01*
X1708Y1824D01*
X1708Y1856D01*
X1688Y1856D01*
G37*
D02*
G36*
X1414Y1824D02*
X1414Y1822D01*
X1708Y1822D01*
X1708Y1824D01*
X1414Y1824D01*
G37*
D02*
G36*
X1414Y1824D02*
X1414Y1822D01*
X1708Y1822D01*
X1708Y1824D01*
X1414Y1824D01*
G37*
D02*
G36*
X1414Y1822D02*
X1414Y1750D01*
X1416Y1750D01*
X1416Y1378D01*
X1418Y1378D01*
X1418Y1006D01*
X1420Y1006D01*
X1420Y634D01*
X1422Y634D01*
X1422Y314D01*
X3650Y314D01*
X3650Y316D01*
X3642Y316D01*
X3642Y318D01*
X3638Y318D01*
X3638Y320D01*
X3634Y320D01*
X3634Y322D01*
X3632Y322D01*
X3632Y324D01*
X3628Y324D01*
X3628Y326D01*
X3626Y326D01*
X3626Y328D01*
X3624Y328D01*
X3624Y332D01*
X3622Y332D01*
X3622Y334D01*
X3258Y334D01*
X3258Y336D01*
X2690Y336D01*
X2690Y338D01*
X2120Y338D01*
X2120Y340D01*
X1724Y340D01*
X1724Y342D01*
X1720Y342D01*
X1720Y344D01*
X1716Y344D01*
X1716Y346D01*
X1714Y346D01*
X1714Y348D01*
X1712Y348D01*
X1712Y352D01*
X1710Y352D01*
X1710Y356D01*
X1708Y356D01*
X1708Y1822D01*
X1414Y1822D01*
G37*
D02*
G36*
X3696Y352D02*
X3696Y344D01*
X3694Y344D01*
X3694Y338D01*
X3692Y338D01*
X3692Y334D01*
X3690Y334D01*
X3690Y332D01*
X3688Y332D01*
X3688Y328D01*
X3686Y328D01*
X3686Y326D01*
X3684Y326D01*
X3684Y324D01*
X3680Y324D01*
X3680Y322D01*
X3678Y322D01*
X3678Y320D01*
X3674Y320D01*
X3674Y318D01*
X3670Y318D01*
X3670Y316D01*
X3662Y316D01*
X3662Y314D01*
X3728Y314D01*
X3728Y326D01*
X3726Y326D01*
X3726Y328D01*
X3724Y328D01*
X3724Y332D01*
X3722Y332D01*
X3722Y334D01*
X3720Y334D01*
X3720Y338D01*
X3718Y338D01*
X3718Y342D01*
X3716Y342D01*
X3716Y352D01*
X3696Y352D01*
G37*
D02*
G36*
X1422Y314D02*
X1422Y312D01*
X3728Y312D01*
X3728Y314D01*
X1422Y314D01*
G37*
D02*
G36*
X1422Y314D02*
X1422Y312D01*
X3728Y312D01*
X3728Y314D01*
X1422Y314D01*
G37*
D02*
G36*
X1422Y312D02*
X1422Y310D01*
X1500Y310D01*
X1500Y308D01*
X1784Y308D01*
X1784Y306D01*
X2066Y306D01*
X2066Y304D01*
X2350Y304D01*
X2350Y302D01*
X2632Y302D01*
X2632Y300D01*
X2916Y300D01*
X2916Y298D01*
X3200Y298D01*
X3200Y296D01*
X3482Y296D01*
X3482Y294D01*
X3726Y294D01*
X3726Y306D01*
X3728Y306D01*
X3728Y312D01*
X1422Y312D01*
G37*
D02*
G36*
X1956Y3890D02*
X1956Y3884D01*
X1954Y3884D01*
X1954Y3880D01*
X1952Y3880D01*
X1952Y3876D01*
X1950Y3876D01*
X1950Y3872D01*
X1948Y3872D01*
X1948Y3870D01*
X1946Y3870D01*
X1946Y3868D01*
X1944Y3868D01*
X1944Y3866D01*
X1942Y3866D01*
X1942Y3864D01*
X1938Y3864D01*
X1938Y3862D01*
X1934Y3862D01*
X1934Y3860D01*
X1930Y3860D01*
X1930Y3858D01*
X1922Y3858D01*
X1922Y3838D01*
X1928Y3838D01*
X1928Y3836D01*
X1934Y3836D01*
X1934Y3834D01*
X1938Y3834D01*
X1938Y3832D01*
X1940Y3832D01*
X1940Y3830D01*
X1944Y3830D01*
X1944Y3828D01*
X1946Y3828D01*
X1946Y3826D01*
X1948Y3826D01*
X1948Y3822D01*
X1950Y3822D01*
X1950Y3820D01*
X1952Y3820D01*
X1952Y3816D01*
X1954Y3816D01*
X1954Y3812D01*
X1956Y3812D01*
X1956Y3804D01*
X1976Y3804D01*
X1976Y3808D01*
X1978Y3808D01*
X1978Y3814D01*
X1980Y3814D01*
X1980Y3818D01*
X1982Y3818D01*
X1982Y3822D01*
X1984Y3822D01*
X1984Y3824D01*
X1986Y3824D01*
X1986Y3826D01*
X1988Y3826D01*
X1988Y3828D01*
X1990Y3828D01*
X1990Y3830D01*
X1992Y3830D01*
X1992Y3832D01*
X1996Y3832D01*
X1996Y3834D01*
X1998Y3834D01*
X1998Y3836D01*
X2004Y3836D01*
X2004Y3838D01*
X2012Y3838D01*
X2012Y3858D01*
X2004Y3858D01*
X2004Y3860D01*
X1998Y3860D01*
X1998Y3862D01*
X1994Y3862D01*
X1994Y3864D01*
X1992Y3864D01*
X1992Y3866D01*
X1990Y3866D01*
X1990Y3868D01*
X1988Y3868D01*
X1988Y3870D01*
X1986Y3870D01*
X1986Y3872D01*
X1984Y3872D01*
X1984Y3874D01*
X1982Y3874D01*
X1982Y3878D01*
X1980Y3878D01*
X1980Y3880D01*
X1978Y3880D01*
X1978Y3886D01*
X1976Y3886D01*
X1976Y3890D01*
X1956Y3890D01*
G37*
D02*
G36*
X2056Y3890D02*
X2056Y3884D01*
X2054Y3884D01*
X2054Y3880D01*
X2052Y3880D01*
X2052Y3876D01*
X2050Y3876D01*
X2050Y3872D01*
X2048Y3872D01*
X2048Y3870D01*
X2046Y3870D01*
X2046Y3868D01*
X2044Y3868D01*
X2044Y3866D01*
X2042Y3866D01*
X2042Y3864D01*
X2038Y3864D01*
X2038Y3862D01*
X2034Y3862D01*
X2034Y3860D01*
X2030Y3860D01*
X2030Y3858D01*
X2022Y3858D01*
X2022Y3838D01*
X2028Y3838D01*
X2028Y3836D01*
X2034Y3836D01*
X2034Y3834D01*
X2038Y3834D01*
X2038Y3832D01*
X2040Y3832D01*
X2040Y3830D01*
X2044Y3830D01*
X2044Y3828D01*
X2046Y3828D01*
X2046Y3826D01*
X2048Y3826D01*
X2048Y3822D01*
X2050Y3822D01*
X2050Y3820D01*
X2052Y3820D01*
X2052Y3816D01*
X2054Y3816D01*
X2054Y3812D01*
X2056Y3812D01*
X2056Y3804D01*
X2076Y3804D01*
X2076Y3808D01*
X2078Y3808D01*
X2078Y3814D01*
X2080Y3814D01*
X2080Y3818D01*
X2082Y3818D01*
X2082Y3822D01*
X2084Y3822D01*
X2084Y3824D01*
X2086Y3824D01*
X2086Y3826D01*
X2088Y3826D01*
X2088Y3828D01*
X2090Y3828D01*
X2090Y3830D01*
X2092Y3830D01*
X2092Y3832D01*
X2096Y3832D01*
X2096Y3834D01*
X2098Y3834D01*
X2098Y3836D01*
X2104Y3836D01*
X2104Y3838D01*
X2112Y3838D01*
X2112Y3858D01*
X2104Y3858D01*
X2104Y3860D01*
X2098Y3860D01*
X2098Y3862D01*
X2094Y3862D01*
X2094Y3864D01*
X2092Y3864D01*
X2092Y3866D01*
X2090Y3866D01*
X2090Y3868D01*
X2088Y3868D01*
X2088Y3870D01*
X2086Y3870D01*
X2086Y3872D01*
X2084Y3872D01*
X2084Y3874D01*
X2082Y3874D01*
X2082Y3878D01*
X2080Y3878D01*
X2080Y3880D01*
X2078Y3880D01*
X2078Y3886D01*
X2076Y3886D01*
X2076Y3890D01*
X2056Y3890D01*
G37*
D02*
G36*
X2156Y3890D02*
X2156Y3884D01*
X2154Y3884D01*
X2154Y3880D01*
X2152Y3880D01*
X2152Y3876D01*
X2150Y3876D01*
X2150Y3872D01*
X2148Y3872D01*
X2148Y3870D01*
X2146Y3870D01*
X2146Y3868D01*
X2144Y3868D01*
X2144Y3866D01*
X2142Y3866D01*
X2142Y3864D01*
X2138Y3864D01*
X2138Y3862D01*
X2134Y3862D01*
X2134Y3860D01*
X2130Y3860D01*
X2130Y3858D01*
X2122Y3858D01*
X2122Y3838D01*
X2128Y3838D01*
X2128Y3836D01*
X2134Y3836D01*
X2134Y3834D01*
X2138Y3834D01*
X2138Y3832D01*
X2140Y3832D01*
X2140Y3830D01*
X2144Y3830D01*
X2144Y3828D01*
X2146Y3828D01*
X2146Y3826D01*
X2148Y3826D01*
X2148Y3822D01*
X2150Y3822D01*
X2150Y3820D01*
X2152Y3820D01*
X2152Y3816D01*
X2154Y3816D01*
X2154Y3812D01*
X2156Y3812D01*
X2156Y3804D01*
X2176Y3804D01*
X2176Y3808D01*
X2178Y3808D01*
X2178Y3814D01*
X2180Y3814D01*
X2180Y3818D01*
X2182Y3818D01*
X2182Y3822D01*
X2184Y3822D01*
X2184Y3824D01*
X2186Y3824D01*
X2186Y3826D01*
X2188Y3826D01*
X2188Y3828D01*
X2190Y3828D01*
X2190Y3830D01*
X2192Y3830D01*
X2192Y3832D01*
X2196Y3832D01*
X2196Y3834D01*
X2198Y3834D01*
X2198Y3836D01*
X2204Y3836D01*
X2204Y3838D01*
X2212Y3838D01*
X2212Y3858D01*
X2204Y3858D01*
X2204Y3860D01*
X2198Y3860D01*
X2198Y3862D01*
X2194Y3862D01*
X2194Y3864D01*
X2192Y3864D01*
X2192Y3866D01*
X2190Y3866D01*
X2190Y3868D01*
X2188Y3868D01*
X2188Y3870D01*
X2186Y3870D01*
X2186Y3872D01*
X2184Y3872D01*
X2184Y3874D01*
X2182Y3874D01*
X2182Y3878D01*
X2180Y3878D01*
X2180Y3880D01*
X2178Y3880D01*
X2178Y3886D01*
X2176Y3886D01*
X2176Y3890D01*
X2156Y3890D01*
G37*
D02*
G36*
X2256Y3890D02*
X2256Y3884D01*
X2254Y3884D01*
X2254Y3880D01*
X2252Y3880D01*
X2252Y3876D01*
X2250Y3876D01*
X2250Y3872D01*
X2248Y3872D01*
X2248Y3870D01*
X2246Y3870D01*
X2246Y3868D01*
X2244Y3868D01*
X2244Y3866D01*
X2242Y3866D01*
X2242Y3864D01*
X2238Y3864D01*
X2238Y3862D01*
X2234Y3862D01*
X2234Y3860D01*
X2230Y3860D01*
X2230Y3858D01*
X2222Y3858D01*
X2222Y3838D01*
X2228Y3838D01*
X2228Y3836D01*
X2234Y3836D01*
X2234Y3834D01*
X2238Y3834D01*
X2238Y3832D01*
X2240Y3832D01*
X2240Y3830D01*
X2244Y3830D01*
X2244Y3828D01*
X2246Y3828D01*
X2246Y3826D01*
X2248Y3826D01*
X2248Y3822D01*
X2250Y3822D01*
X2250Y3820D01*
X2252Y3820D01*
X2252Y3816D01*
X2254Y3816D01*
X2254Y3812D01*
X2256Y3812D01*
X2256Y3804D01*
X2276Y3804D01*
X2276Y3808D01*
X2278Y3808D01*
X2278Y3814D01*
X2280Y3814D01*
X2280Y3818D01*
X2282Y3818D01*
X2282Y3822D01*
X2284Y3822D01*
X2284Y3824D01*
X2286Y3824D01*
X2286Y3826D01*
X2288Y3826D01*
X2288Y3828D01*
X2290Y3828D01*
X2290Y3830D01*
X2292Y3830D01*
X2292Y3832D01*
X2296Y3832D01*
X2296Y3834D01*
X2298Y3834D01*
X2298Y3836D01*
X2304Y3836D01*
X2304Y3838D01*
X2312Y3838D01*
X2312Y3858D01*
X2304Y3858D01*
X2304Y3860D01*
X2298Y3860D01*
X2298Y3862D01*
X2294Y3862D01*
X2294Y3864D01*
X2292Y3864D01*
X2292Y3866D01*
X2290Y3866D01*
X2290Y3868D01*
X2288Y3868D01*
X2288Y3870D01*
X2286Y3870D01*
X2286Y3872D01*
X2284Y3872D01*
X2284Y3874D01*
X2282Y3874D01*
X2282Y3878D01*
X2280Y3878D01*
X2280Y3880D01*
X2278Y3880D01*
X2278Y3886D01*
X2276Y3886D01*
X2276Y3890D01*
X2256Y3890D01*
G37*
D02*
G36*
X2356Y3890D02*
X2356Y3884D01*
X2354Y3884D01*
X2354Y3880D01*
X2352Y3880D01*
X2352Y3876D01*
X2350Y3876D01*
X2350Y3872D01*
X2348Y3872D01*
X2348Y3870D01*
X2346Y3870D01*
X2346Y3868D01*
X2344Y3868D01*
X2344Y3866D01*
X2342Y3866D01*
X2342Y3864D01*
X2338Y3864D01*
X2338Y3862D01*
X2334Y3862D01*
X2334Y3860D01*
X2330Y3860D01*
X2330Y3858D01*
X2322Y3858D01*
X2322Y3838D01*
X2328Y3838D01*
X2328Y3836D01*
X2334Y3836D01*
X2334Y3834D01*
X2338Y3834D01*
X2338Y3832D01*
X2340Y3832D01*
X2340Y3830D01*
X2344Y3830D01*
X2344Y3828D01*
X2346Y3828D01*
X2346Y3826D01*
X2348Y3826D01*
X2348Y3822D01*
X2350Y3822D01*
X2350Y3820D01*
X2352Y3820D01*
X2352Y3816D01*
X2354Y3816D01*
X2354Y3812D01*
X2356Y3812D01*
X2356Y3804D01*
X2376Y3804D01*
X2376Y3808D01*
X2378Y3808D01*
X2378Y3814D01*
X2380Y3814D01*
X2380Y3818D01*
X2382Y3818D01*
X2382Y3822D01*
X2384Y3822D01*
X2384Y3824D01*
X2386Y3824D01*
X2386Y3826D01*
X2388Y3826D01*
X2388Y3828D01*
X2390Y3828D01*
X2390Y3830D01*
X2392Y3830D01*
X2392Y3832D01*
X2396Y3832D01*
X2396Y3834D01*
X2398Y3834D01*
X2398Y3836D01*
X2404Y3836D01*
X2404Y3838D01*
X2412Y3838D01*
X2412Y3858D01*
X2404Y3858D01*
X2404Y3860D01*
X2398Y3860D01*
X2398Y3862D01*
X2394Y3862D01*
X2394Y3864D01*
X2392Y3864D01*
X2392Y3866D01*
X2390Y3866D01*
X2390Y3868D01*
X2388Y3868D01*
X2388Y3870D01*
X2386Y3870D01*
X2386Y3872D01*
X2384Y3872D01*
X2384Y3874D01*
X2382Y3874D01*
X2382Y3878D01*
X2380Y3878D01*
X2380Y3880D01*
X2378Y3880D01*
X2378Y3886D01*
X2376Y3886D01*
X2376Y3890D01*
X2356Y3890D01*
G37*
D02*
G36*
X2456Y3890D02*
X2456Y3884D01*
X2454Y3884D01*
X2454Y3880D01*
X2452Y3880D01*
X2452Y3876D01*
X2450Y3876D01*
X2450Y3872D01*
X2448Y3872D01*
X2448Y3870D01*
X2446Y3870D01*
X2446Y3868D01*
X2444Y3868D01*
X2444Y3866D01*
X2442Y3866D01*
X2442Y3864D01*
X2438Y3864D01*
X2438Y3862D01*
X2434Y3862D01*
X2434Y3860D01*
X2430Y3860D01*
X2430Y3858D01*
X2422Y3858D01*
X2422Y3838D01*
X2428Y3838D01*
X2428Y3836D01*
X2434Y3836D01*
X2434Y3834D01*
X2438Y3834D01*
X2438Y3832D01*
X2440Y3832D01*
X2440Y3830D01*
X2444Y3830D01*
X2444Y3828D01*
X2446Y3828D01*
X2446Y3826D01*
X2448Y3826D01*
X2448Y3822D01*
X2450Y3822D01*
X2450Y3820D01*
X2452Y3820D01*
X2452Y3816D01*
X2454Y3816D01*
X2454Y3812D01*
X2456Y3812D01*
X2456Y3804D01*
X2476Y3804D01*
X2476Y3808D01*
X2478Y3808D01*
X2478Y3814D01*
X2480Y3814D01*
X2480Y3818D01*
X2482Y3818D01*
X2482Y3822D01*
X2484Y3822D01*
X2484Y3824D01*
X2486Y3824D01*
X2486Y3826D01*
X2488Y3826D01*
X2488Y3828D01*
X2490Y3828D01*
X2490Y3830D01*
X2492Y3830D01*
X2492Y3832D01*
X2496Y3832D01*
X2496Y3834D01*
X2498Y3834D01*
X2498Y3836D01*
X2504Y3836D01*
X2504Y3838D01*
X2512Y3838D01*
X2512Y3858D01*
X2504Y3858D01*
X2504Y3860D01*
X2498Y3860D01*
X2498Y3862D01*
X2494Y3862D01*
X2494Y3864D01*
X2492Y3864D01*
X2492Y3866D01*
X2490Y3866D01*
X2490Y3868D01*
X2488Y3868D01*
X2488Y3870D01*
X2486Y3870D01*
X2486Y3872D01*
X2484Y3872D01*
X2484Y3874D01*
X2482Y3874D01*
X2482Y3878D01*
X2480Y3878D01*
X2480Y3880D01*
X2478Y3880D01*
X2478Y3886D01*
X2476Y3886D01*
X2476Y3890D01*
X2456Y3890D01*
G37*
D02*
G36*
X2556Y3890D02*
X2556Y3884D01*
X2554Y3884D01*
X2554Y3880D01*
X2552Y3880D01*
X2552Y3876D01*
X2550Y3876D01*
X2550Y3872D01*
X2548Y3872D01*
X2548Y3870D01*
X2546Y3870D01*
X2546Y3868D01*
X2544Y3868D01*
X2544Y3866D01*
X2542Y3866D01*
X2542Y3864D01*
X2538Y3864D01*
X2538Y3862D01*
X2534Y3862D01*
X2534Y3860D01*
X2530Y3860D01*
X2530Y3858D01*
X2522Y3858D01*
X2522Y3838D01*
X2528Y3838D01*
X2528Y3836D01*
X2534Y3836D01*
X2534Y3834D01*
X2538Y3834D01*
X2538Y3832D01*
X2540Y3832D01*
X2540Y3830D01*
X2544Y3830D01*
X2544Y3828D01*
X2546Y3828D01*
X2546Y3826D01*
X2548Y3826D01*
X2548Y3822D01*
X2550Y3822D01*
X2550Y3820D01*
X2552Y3820D01*
X2552Y3816D01*
X2554Y3816D01*
X2554Y3812D01*
X2556Y3812D01*
X2556Y3804D01*
X2576Y3804D01*
X2576Y3808D01*
X2578Y3808D01*
X2578Y3814D01*
X2580Y3814D01*
X2580Y3818D01*
X2582Y3818D01*
X2582Y3822D01*
X2584Y3822D01*
X2584Y3824D01*
X2586Y3824D01*
X2586Y3826D01*
X2588Y3826D01*
X2588Y3828D01*
X2590Y3828D01*
X2590Y3830D01*
X2592Y3830D01*
X2592Y3832D01*
X2596Y3832D01*
X2596Y3834D01*
X2598Y3834D01*
X2598Y3836D01*
X2604Y3836D01*
X2604Y3838D01*
X2612Y3838D01*
X2612Y3858D01*
X2604Y3858D01*
X2604Y3860D01*
X2598Y3860D01*
X2598Y3862D01*
X2594Y3862D01*
X2594Y3864D01*
X2592Y3864D01*
X2592Y3866D01*
X2590Y3866D01*
X2590Y3868D01*
X2588Y3868D01*
X2588Y3870D01*
X2586Y3870D01*
X2586Y3872D01*
X2584Y3872D01*
X2584Y3874D01*
X2582Y3874D01*
X2582Y3878D01*
X2580Y3878D01*
X2580Y3880D01*
X2578Y3880D01*
X2578Y3886D01*
X2576Y3886D01*
X2576Y3890D01*
X2556Y3890D01*
G37*
D02*
G36*
X2656Y3890D02*
X2656Y3884D01*
X2654Y3884D01*
X2654Y3880D01*
X2652Y3880D01*
X2652Y3876D01*
X2650Y3876D01*
X2650Y3872D01*
X2648Y3872D01*
X2648Y3870D01*
X2646Y3870D01*
X2646Y3868D01*
X2644Y3868D01*
X2644Y3866D01*
X2642Y3866D01*
X2642Y3864D01*
X2638Y3864D01*
X2638Y3862D01*
X2634Y3862D01*
X2634Y3860D01*
X2630Y3860D01*
X2630Y3858D01*
X2622Y3858D01*
X2622Y3838D01*
X2628Y3838D01*
X2628Y3836D01*
X2634Y3836D01*
X2634Y3834D01*
X2638Y3834D01*
X2638Y3832D01*
X2640Y3832D01*
X2640Y3830D01*
X2644Y3830D01*
X2644Y3828D01*
X2646Y3828D01*
X2646Y3826D01*
X2648Y3826D01*
X2648Y3822D01*
X2650Y3822D01*
X2650Y3820D01*
X2652Y3820D01*
X2652Y3816D01*
X2654Y3816D01*
X2654Y3812D01*
X2656Y3812D01*
X2656Y3804D01*
X2676Y3804D01*
X2676Y3808D01*
X2678Y3808D01*
X2678Y3814D01*
X2680Y3814D01*
X2680Y3818D01*
X2682Y3818D01*
X2682Y3822D01*
X2684Y3822D01*
X2684Y3824D01*
X2686Y3824D01*
X2686Y3826D01*
X2688Y3826D01*
X2688Y3828D01*
X2690Y3828D01*
X2690Y3830D01*
X2692Y3830D01*
X2692Y3832D01*
X2696Y3832D01*
X2696Y3834D01*
X2698Y3834D01*
X2698Y3836D01*
X2704Y3836D01*
X2704Y3838D01*
X2712Y3838D01*
X2712Y3858D01*
X2704Y3858D01*
X2704Y3860D01*
X2698Y3860D01*
X2698Y3862D01*
X2694Y3862D01*
X2694Y3864D01*
X2692Y3864D01*
X2692Y3866D01*
X2690Y3866D01*
X2690Y3868D01*
X2688Y3868D01*
X2688Y3870D01*
X2686Y3870D01*
X2686Y3872D01*
X2684Y3872D01*
X2684Y3874D01*
X2682Y3874D01*
X2682Y3878D01*
X2680Y3878D01*
X2680Y3880D01*
X2678Y3880D01*
X2678Y3886D01*
X2676Y3886D01*
X2676Y3890D01*
X2656Y3890D01*
G37*
D02*
G36*
X2756Y3890D02*
X2756Y3884D01*
X2754Y3884D01*
X2754Y3880D01*
X2752Y3880D01*
X2752Y3876D01*
X2750Y3876D01*
X2750Y3872D01*
X2748Y3872D01*
X2748Y3870D01*
X2746Y3870D01*
X2746Y3868D01*
X2744Y3868D01*
X2744Y3866D01*
X2742Y3866D01*
X2742Y3864D01*
X2738Y3864D01*
X2738Y3862D01*
X2734Y3862D01*
X2734Y3860D01*
X2730Y3860D01*
X2730Y3858D01*
X2722Y3858D01*
X2722Y3838D01*
X2728Y3838D01*
X2728Y3836D01*
X2734Y3836D01*
X2734Y3834D01*
X2738Y3834D01*
X2738Y3832D01*
X2740Y3832D01*
X2740Y3830D01*
X2744Y3830D01*
X2744Y3828D01*
X2746Y3828D01*
X2746Y3826D01*
X2748Y3826D01*
X2748Y3822D01*
X2750Y3822D01*
X2750Y3820D01*
X2752Y3820D01*
X2752Y3816D01*
X2754Y3816D01*
X2754Y3812D01*
X2756Y3812D01*
X2756Y3804D01*
X2776Y3804D01*
X2776Y3808D01*
X2778Y3808D01*
X2778Y3814D01*
X2780Y3814D01*
X2780Y3818D01*
X2782Y3818D01*
X2782Y3822D01*
X2784Y3822D01*
X2784Y3824D01*
X2786Y3824D01*
X2786Y3826D01*
X2788Y3826D01*
X2788Y3828D01*
X2790Y3828D01*
X2790Y3830D01*
X2792Y3830D01*
X2792Y3832D01*
X2796Y3832D01*
X2796Y3834D01*
X2798Y3834D01*
X2798Y3836D01*
X2804Y3836D01*
X2804Y3838D01*
X2812Y3838D01*
X2812Y3858D01*
X2804Y3858D01*
X2804Y3860D01*
X2798Y3860D01*
X2798Y3862D01*
X2794Y3862D01*
X2794Y3864D01*
X2792Y3864D01*
X2792Y3866D01*
X2790Y3866D01*
X2790Y3868D01*
X2788Y3868D01*
X2788Y3870D01*
X2786Y3870D01*
X2786Y3872D01*
X2784Y3872D01*
X2784Y3874D01*
X2782Y3874D01*
X2782Y3878D01*
X2780Y3878D01*
X2780Y3880D01*
X2778Y3880D01*
X2778Y3886D01*
X2776Y3886D01*
X2776Y3890D01*
X2756Y3890D01*
G37*
D02*
G36*
X2856Y3890D02*
X2856Y3884D01*
X2854Y3884D01*
X2854Y3880D01*
X2852Y3880D01*
X2852Y3876D01*
X2850Y3876D01*
X2850Y3872D01*
X2848Y3872D01*
X2848Y3870D01*
X2846Y3870D01*
X2846Y3868D01*
X2844Y3868D01*
X2844Y3866D01*
X2842Y3866D01*
X2842Y3864D01*
X2838Y3864D01*
X2838Y3862D01*
X2834Y3862D01*
X2834Y3860D01*
X2830Y3860D01*
X2830Y3858D01*
X2822Y3858D01*
X2822Y3838D01*
X2828Y3838D01*
X2828Y3836D01*
X2834Y3836D01*
X2834Y3834D01*
X2838Y3834D01*
X2838Y3832D01*
X2840Y3832D01*
X2840Y3830D01*
X2844Y3830D01*
X2844Y3828D01*
X2846Y3828D01*
X2846Y3826D01*
X2848Y3826D01*
X2848Y3822D01*
X2850Y3822D01*
X2850Y3820D01*
X2852Y3820D01*
X2852Y3816D01*
X2854Y3816D01*
X2854Y3812D01*
X2856Y3812D01*
X2856Y3804D01*
X2876Y3804D01*
X2876Y3808D01*
X2878Y3808D01*
X2878Y3814D01*
X2880Y3814D01*
X2880Y3818D01*
X2882Y3818D01*
X2882Y3822D01*
X2884Y3822D01*
X2884Y3824D01*
X2886Y3824D01*
X2886Y3826D01*
X2888Y3826D01*
X2888Y3828D01*
X2890Y3828D01*
X2890Y3830D01*
X2892Y3830D01*
X2892Y3832D01*
X2896Y3832D01*
X2896Y3834D01*
X2898Y3834D01*
X2898Y3836D01*
X2904Y3836D01*
X2904Y3838D01*
X2912Y3838D01*
X2912Y3858D01*
X2904Y3858D01*
X2904Y3860D01*
X2898Y3860D01*
X2898Y3862D01*
X2894Y3862D01*
X2894Y3864D01*
X2892Y3864D01*
X2892Y3866D01*
X2890Y3866D01*
X2890Y3868D01*
X2888Y3868D01*
X2888Y3870D01*
X2886Y3870D01*
X2886Y3872D01*
X2884Y3872D01*
X2884Y3874D01*
X2882Y3874D01*
X2882Y3878D01*
X2880Y3878D01*
X2880Y3880D01*
X2878Y3880D01*
X2878Y3886D01*
X2876Y3886D01*
X2876Y3890D01*
X2856Y3890D01*
G37*
D02*
G36*
X2956Y3890D02*
X2956Y3884D01*
X2954Y3884D01*
X2954Y3880D01*
X2952Y3880D01*
X2952Y3876D01*
X2950Y3876D01*
X2950Y3872D01*
X2948Y3872D01*
X2948Y3870D01*
X2946Y3870D01*
X2946Y3868D01*
X2944Y3868D01*
X2944Y3866D01*
X2942Y3866D01*
X2942Y3864D01*
X2938Y3864D01*
X2938Y3862D01*
X2934Y3862D01*
X2934Y3860D01*
X2930Y3860D01*
X2930Y3858D01*
X2922Y3858D01*
X2922Y3838D01*
X2928Y3838D01*
X2928Y3836D01*
X2934Y3836D01*
X2934Y3834D01*
X2938Y3834D01*
X2938Y3832D01*
X2940Y3832D01*
X2940Y3830D01*
X2944Y3830D01*
X2944Y3828D01*
X2946Y3828D01*
X2946Y3826D01*
X2948Y3826D01*
X2948Y3822D01*
X2950Y3822D01*
X2950Y3820D01*
X2952Y3820D01*
X2952Y3816D01*
X2954Y3816D01*
X2954Y3812D01*
X2956Y3812D01*
X2956Y3804D01*
X2976Y3804D01*
X2976Y3808D01*
X2978Y3808D01*
X2978Y3814D01*
X2980Y3814D01*
X2980Y3818D01*
X2982Y3818D01*
X2982Y3822D01*
X2984Y3822D01*
X2984Y3824D01*
X2986Y3824D01*
X2986Y3826D01*
X2988Y3826D01*
X2988Y3828D01*
X2990Y3828D01*
X2990Y3830D01*
X2992Y3830D01*
X2992Y3832D01*
X2996Y3832D01*
X2996Y3834D01*
X2998Y3834D01*
X2998Y3836D01*
X3004Y3836D01*
X3004Y3838D01*
X3012Y3838D01*
X3012Y3858D01*
X3004Y3858D01*
X3004Y3860D01*
X2998Y3860D01*
X2998Y3862D01*
X2994Y3862D01*
X2994Y3864D01*
X2992Y3864D01*
X2992Y3866D01*
X2990Y3866D01*
X2990Y3868D01*
X2988Y3868D01*
X2988Y3870D01*
X2986Y3870D01*
X2986Y3872D01*
X2984Y3872D01*
X2984Y3874D01*
X2982Y3874D01*
X2982Y3878D01*
X2980Y3878D01*
X2980Y3880D01*
X2978Y3880D01*
X2978Y3886D01*
X2976Y3886D01*
X2976Y3890D01*
X2956Y3890D01*
G37*
D02*
G36*
X3056Y3890D02*
X3056Y3884D01*
X3054Y3884D01*
X3054Y3880D01*
X3052Y3880D01*
X3052Y3876D01*
X3050Y3876D01*
X3050Y3872D01*
X3048Y3872D01*
X3048Y3870D01*
X3046Y3870D01*
X3046Y3868D01*
X3044Y3868D01*
X3044Y3866D01*
X3042Y3866D01*
X3042Y3864D01*
X3038Y3864D01*
X3038Y3862D01*
X3034Y3862D01*
X3034Y3860D01*
X3030Y3860D01*
X3030Y3858D01*
X3022Y3858D01*
X3022Y3838D01*
X3028Y3838D01*
X3028Y3836D01*
X3034Y3836D01*
X3034Y3834D01*
X3038Y3834D01*
X3038Y3832D01*
X3040Y3832D01*
X3040Y3830D01*
X3044Y3830D01*
X3044Y3828D01*
X3046Y3828D01*
X3046Y3826D01*
X3048Y3826D01*
X3048Y3822D01*
X3050Y3822D01*
X3050Y3820D01*
X3052Y3820D01*
X3052Y3816D01*
X3054Y3816D01*
X3054Y3812D01*
X3056Y3812D01*
X3056Y3804D01*
X3076Y3804D01*
X3076Y3808D01*
X3078Y3808D01*
X3078Y3814D01*
X3080Y3814D01*
X3080Y3818D01*
X3082Y3818D01*
X3082Y3822D01*
X3084Y3822D01*
X3084Y3824D01*
X3086Y3824D01*
X3086Y3826D01*
X3088Y3826D01*
X3088Y3828D01*
X3090Y3828D01*
X3090Y3830D01*
X3092Y3830D01*
X3092Y3832D01*
X3096Y3832D01*
X3096Y3834D01*
X3098Y3834D01*
X3098Y3836D01*
X3104Y3836D01*
X3104Y3838D01*
X3112Y3838D01*
X3112Y3858D01*
X3104Y3858D01*
X3104Y3860D01*
X3098Y3860D01*
X3098Y3862D01*
X3094Y3862D01*
X3094Y3864D01*
X3092Y3864D01*
X3092Y3866D01*
X3090Y3866D01*
X3090Y3868D01*
X3088Y3868D01*
X3088Y3870D01*
X3086Y3870D01*
X3086Y3872D01*
X3084Y3872D01*
X3084Y3874D01*
X3082Y3874D01*
X3082Y3878D01*
X3080Y3878D01*
X3080Y3880D01*
X3078Y3880D01*
X3078Y3886D01*
X3076Y3886D01*
X3076Y3890D01*
X3056Y3890D01*
G37*
D02*
G36*
X3156Y3890D02*
X3156Y3884D01*
X3154Y3884D01*
X3154Y3880D01*
X3152Y3880D01*
X3152Y3876D01*
X3150Y3876D01*
X3150Y3872D01*
X3148Y3872D01*
X3148Y3870D01*
X3146Y3870D01*
X3146Y3868D01*
X3144Y3868D01*
X3144Y3866D01*
X3142Y3866D01*
X3142Y3864D01*
X3138Y3864D01*
X3138Y3862D01*
X3134Y3862D01*
X3134Y3860D01*
X3130Y3860D01*
X3130Y3858D01*
X3122Y3858D01*
X3122Y3838D01*
X3128Y3838D01*
X3128Y3836D01*
X3134Y3836D01*
X3134Y3834D01*
X3138Y3834D01*
X3138Y3832D01*
X3140Y3832D01*
X3140Y3830D01*
X3144Y3830D01*
X3144Y3828D01*
X3146Y3828D01*
X3146Y3826D01*
X3148Y3826D01*
X3148Y3822D01*
X3150Y3822D01*
X3150Y3820D01*
X3152Y3820D01*
X3152Y3816D01*
X3154Y3816D01*
X3154Y3812D01*
X3156Y3812D01*
X3156Y3804D01*
X3176Y3804D01*
X3176Y3808D01*
X3178Y3808D01*
X3178Y3814D01*
X3180Y3814D01*
X3180Y3818D01*
X3182Y3818D01*
X3182Y3822D01*
X3184Y3822D01*
X3184Y3824D01*
X3186Y3824D01*
X3186Y3826D01*
X3188Y3826D01*
X3188Y3828D01*
X3190Y3828D01*
X3190Y3830D01*
X3192Y3830D01*
X3192Y3832D01*
X3196Y3832D01*
X3196Y3834D01*
X3198Y3834D01*
X3198Y3836D01*
X3204Y3836D01*
X3204Y3838D01*
X3212Y3838D01*
X3212Y3858D01*
X3204Y3858D01*
X3204Y3860D01*
X3198Y3860D01*
X3198Y3862D01*
X3194Y3862D01*
X3194Y3864D01*
X3192Y3864D01*
X3192Y3866D01*
X3190Y3866D01*
X3190Y3868D01*
X3188Y3868D01*
X3188Y3870D01*
X3186Y3870D01*
X3186Y3872D01*
X3184Y3872D01*
X3184Y3874D01*
X3182Y3874D01*
X3182Y3878D01*
X3180Y3878D01*
X3180Y3882D01*
X3178Y3882D01*
X3178Y3886D01*
X3176Y3886D01*
X3176Y3890D01*
X3156Y3890D01*
G37*
D02*
G36*
X3256Y3890D02*
X3256Y3884D01*
X3254Y3884D01*
X3254Y3880D01*
X3252Y3880D01*
X3252Y3876D01*
X3250Y3876D01*
X3250Y3872D01*
X3248Y3872D01*
X3248Y3870D01*
X3246Y3870D01*
X3246Y3868D01*
X3244Y3868D01*
X3244Y3866D01*
X3242Y3866D01*
X3242Y3864D01*
X3238Y3864D01*
X3238Y3862D01*
X3234Y3862D01*
X3234Y3860D01*
X3230Y3860D01*
X3230Y3858D01*
X3222Y3858D01*
X3222Y3838D01*
X3228Y3838D01*
X3228Y3836D01*
X3234Y3836D01*
X3234Y3834D01*
X3238Y3834D01*
X3238Y3832D01*
X3240Y3832D01*
X3240Y3830D01*
X3244Y3830D01*
X3244Y3828D01*
X3246Y3828D01*
X3246Y3826D01*
X3248Y3826D01*
X3248Y3822D01*
X3250Y3822D01*
X3250Y3820D01*
X3252Y3820D01*
X3252Y3816D01*
X3254Y3816D01*
X3254Y3812D01*
X3256Y3812D01*
X3256Y3806D01*
X3276Y3806D01*
X3276Y3808D01*
X3278Y3808D01*
X3278Y3814D01*
X3280Y3814D01*
X3280Y3818D01*
X3282Y3818D01*
X3282Y3822D01*
X3284Y3822D01*
X3284Y3824D01*
X3286Y3824D01*
X3286Y3826D01*
X3288Y3826D01*
X3288Y3828D01*
X3290Y3828D01*
X3290Y3830D01*
X3292Y3830D01*
X3292Y3832D01*
X3296Y3832D01*
X3296Y3834D01*
X3298Y3834D01*
X3298Y3836D01*
X3304Y3836D01*
X3304Y3838D01*
X3312Y3838D01*
X3312Y3858D01*
X3304Y3858D01*
X3304Y3860D01*
X3298Y3860D01*
X3298Y3862D01*
X3294Y3862D01*
X3294Y3864D01*
X3292Y3864D01*
X3292Y3866D01*
X3290Y3866D01*
X3290Y3868D01*
X3288Y3868D01*
X3288Y3870D01*
X3286Y3870D01*
X3286Y3872D01*
X3284Y3872D01*
X3284Y3874D01*
X3282Y3874D01*
X3282Y3878D01*
X3280Y3878D01*
X3280Y3880D01*
X3278Y3880D01*
X3278Y3886D01*
X3276Y3886D01*
X3276Y3890D01*
X3256Y3890D01*
G37*
D02*
G36*
X3356Y3890D02*
X3356Y3884D01*
X3354Y3884D01*
X3354Y3880D01*
X3352Y3880D01*
X3352Y3876D01*
X3350Y3876D01*
X3350Y3872D01*
X3348Y3872D01*
X3348Y3870D01*
X3346Y3870D01*
X3346Y3868D01*
X3344Y3868D01*
X3344Y3866D01*
X3342Y3866D01*
X3342Y3864D01*
X3338Y3864D01*
X3338Y3862D01*
X3334Y3862D01*
X3334Y3860D01*
X3330Y3860D01*
X3330Y3858D01*
X3322Y3858D01*
X3322Y3838D01*
X3328Y3838D01*
X3328Y3836D01*
X3334Y3836D01*
X3334Y3834D01*
X3338Y3834D01*
X3338Y3832D01*
X3340Y3832D01*
X3340Y3830D01*
X3344Y3830D01*
X3344Y3828D01*
X3346Y3828D01*
X3346Y3826D01*
X3348Y3826D01*
X3348Y3822D01*
X3350Y3822D01*
X3350Y3820D01*
X3352Y3820D01*
X3352Y3816D01*
X3354Y3816D01*
X3354Y3812D01*
X3356Y3812D01*
X3356Y3804D01*
X3376Y3804D01*
X3376Y3808D01*
X3378Y3808D01*
X3378Y3814D01*
X3380Y3814D01*
X3380Y3818D01*
X3382Y3818D01*
X3382Y3822D01*
X3384Y3822D01*
X3384Y3824D01*
X3386Y3824D01*
X3386Y3826D01*
X3388Y3826D01*
X3388Y3828D01*
X3390Y3828D01*
X3390Y3830D01*
X3392Y3830D01*
X3392Y3832D01*
X3396Y3832D01*
X3396Y3834D01*
X3398Y3834D01*
X3398Y3836D01*
X3404Y3836D01*
X3404Y3838D01*
X3412Y3838D01*
X3412Y3858D01*
X3404Y3858D01*
X3404Y3860D01*
X3398Y3860D01*
X3398Y3862D01*
X3394Y3862D01*
X3394Y3864D01*
X3392Y3864D01*
X3392Y3866D01*
X3390Y3866D01*
X3390Y3868D01*
X3388Y3868D01*
X3388Y3870D01*
X3386Y3870D01*
X3386Y3872D01*
X3384Y3872D01*
X3384Y3874D01*
X3382Y3874D01*
X3382Y3878D01*
X3380Y3878D01*
X3380Y3880D01*
X3378Y3880D01*
X3378Y3886D01*
X3376Y3886D01*
X3376Y3890D01*
X3356Y3890D01*
G37*
D02*
G36*
X3456Y3890D02*
X3456Y3884D01*
X3454Y3884D01*
X3454Y3880D01*
X3452Y3880D01*
X3452Y3876D01*
X3450Y3876D01*
X3450Y3872D01*
X3448Y3872D01*
X3448Y3870D01*
X3446Y3870D01*
X3446Y3868D01*
X3444Y3868D01*
X3444Y3866D01*
X3442Y3866D01*
X3442Y3864D01*
X3438Y3864D01*
X3438Y3862D01*
X3434Y3862D01*
X3434Y3860D01*
X3430Y3860D01*
X3430Y3858D01*
X3422Y3858D01*
X3422Y3838D01*
X3428Y3838D01*
X3428Y3836D01*
X3434Y3836D01*
X3434Y3834D01*
X3438Y3834D01*
X3438Y3832D01*
X3440Y3832D01*
X3440Y3830D01*
X3444Y3830D01*
X3444Y3828D01*
X3446Y3828D01*
X3446Y3826D01*
X3448Y3826D01*
X3448Y3822D01*
X3450Y3822D01*
X3450Y3820D01*
X3452Y3820D01*
X3452Y3816D01*
X3454Y3816D01*
X3454Y3812D01*
X3456Y3812D01*
X3456Y3804D01*
X3476Y3804D01*
X3476Y3808D01*
X3478Y3808D01*
X3478Y3814D01*
X3480Y3814D01*
X3480Y3818D01*
X3482Y3818D01*
X3482Y3822D01*
X3484Y3822D01*
X3484Y3824D01*
X3486Y3824D01*
X3486Y3826D01*
X3488Y3826D01*
X3488Y3828D01*
X3490Y3828D01*
X3490Y3830D01*
X3492Y3830D01*
X3492Y3832D01*
X3496Y3832D01*
X3496Y3834D01*
X3498Y3834D01*
X3498Y3836D01*
X3504Y3836D01*
X3504Y3838D01*
X3512Y3838D01*
X3512Y3858D01*
X3504Y3858D01*
X3504Y3860D01*
X3498Y3860D01*
X3498Y3862D01*
X3494Y3862D01*
X3494Y3864D01*
X3492Y3864D01*
X3492Y3866D01*
X3490Y3866D01*
X3490Y3868D01*
X3488Y3868D01*
X3488Y3870D01*
X3486Y3870D01*
X3486Y3872D01*
X3484Y3872D01*
X3484Y3874D01*
X3482Y3874D01*
X3482Y3878D01*
X3480Y3878D01*
X3480Y3880D01*
X3478Y3880D01*
X3478Y3886D01*
X3476Y3886D01*
X3476Y3890D01*
X3456Y3890D01*
G37*
D02*
G36*
X3556Y3890D02*
X3556Y3884D01*
X3554Y3884D01*
X3554Y3880D01*
X3552Y3880D01*
X3552Y3876D01*
X3550Y3876D01*
X3550Y3872D01*
X3548Y3872D01*
X3548Y3870D01*
X3546Y3870D01*
X3546Y3868D01*
X3544Y3868D01*
X3544Y3866D01*
X3542Y3866D01*
X3542Y3864D01*
X3538Y3864D01*
X3538Y3862D01*
X3534Y3862D01*
X3534Y3860D01*
X3530Y3860D01*
X3530Y3858D01*
X3522Y3858D01*
X3522Y3838D01*
X3528Y3838D01*
X3528Y3836D01*
X3534Y3836D01*
X3534Y3834D01*
X3538Y3834D01*
X3538Y3832D01*
X3540Y3832D01*
X3540Y3830D01*
X3544Y3830D01*
X3544Y3828D01*
X3546Y3828D01*
X3546Y3826D01*
X3548Y3826D01*
X3548Y3822D01*
X3550Y3822D01*
X3550Y3820D01*
X3552Y3820D01*
X3552Y3816D01*
X3554Y3816D01*
X3554Y3812D01*
X3556Y3812D01*
X3556Y3804D01*
X3576Y3804D01*
X3576Y3808D01*
X3578Y3808D01*
X3578Y3814D01*
X3580Y3814D01*
X3580Y3818D01*
X3582Y3818D01*
X3582Y3822D01*
X3584Y3822D01*
X3584Y3824D01*
X3586Y3824D01*
X3586Y3826D01*
X3588Y3826D01*
X3588Y3828D01*
X3590Y3828D01*
X3590Y3830D01*
X3592Y3830D01*
X3592Y3832D01*
X3596Y3832D01*
X3596Y3834D01*
X3598Y3834D01*
X3598Y3836D01*
X3604Y3836D01*
X3604Y3838D01*
X3612Y3838D01*
X3612Y3858D01*
X3604Y3858D01*
X3604Y3860D01*
X3598Y3860D01*
X3598Y3862D01*
X3594Y3862D01*
X3594Y3864D01*
X3592Y3864D01*
X3592Y3866D01*
X3590Y3866D01*
X3590Y3868D01*
X3588Y3868D01*
X3588Y3870D01*
X3586Y3870D01*
X3586Y3872D01*
X3584Y3872D01*
X3584Y3874D01*
X3582Y3874D01*
X3582Y3878D01*
X3580Y3878D01*
X3580Y3880D01*
X3578Y3880D01*
X3578Y3886D01*
X3576Y3886D01*
X3576Y3890D01*
X3556Y3890D01*
G37*
D02*
G36*
X3656Y3890D02*
X3656Y3884D01*
X3654Y3884D01*
X3654Y3880D01*
X3652Y3880D01*
X3652Y3876D01*
X3650Y3876D01*
X3650Y3872D01*
X3648Y3872D01*
X3648Y3870D01*
X3646Y3870D01*
X3646Y3868D01*
X3644Y3868D01*
X3644Y3866D01*
X3642Y3866D01*
X3642Y3864D01*
X3638Y3864D01*
X3638Y3862D01*
X3634Y3862D01*
X3634Y3860D01*
X3630Y3860D01*
X3630Y3858D01*
X3622Y3858D01*
X3622Y3838D01*
X3628Y3838D01*
X3628Y3836D01*
X3634Y3836D01*
X3634Y3834D01*
X3638Y3834D01*
X3638Y3832D01*
X3640Y3832D01*
X3640Y3830D01*
X3644Y3830D01*
X3644Y3828D01*
X3646Y3828D01*
X3646Y3826D01*
X3648Y3826D01*
X3648Y3822D01*
X3650Y3822D01*
X3650Y3820D01*
X3652Y3820D01*
X3652Y3816D01*
X3654Y3816D01*
X3654Y3812D01*
X3656Y3812D01*
X3656Y3804D01*
X3676Y3804D01*
X3676Y3808D01*
X3678Y3808D01*
X3678Y3814D01*
X3680Y3814D01*
X3680Y3818D01*
X3682Y3818D01*
X3682Y3822D01*
X3684Y3822D01*
X3684Y3824D01*
X3686Y3824D01*
X3686Y3826D01*
X3688Y3826D01*
X3688Y3828D01*
X3690Y3828D01*
X3690Y3830D01*
X3692Y3830D01*
X3692Y3832D01*
X3696Y3832D01*
X3696Y3834D01*
X3698Y3834D01*
X3698Y3836D01*
X3704Y3836D01*
X3704Y3838D01*
X3712Y3838D01*
X3712Y3858D01*
X3704Y3858D01*
X3704Y3860D01*
X3698Y3860D01*
X3698Y3862D01*
X3694Y3862D01*
X3694Y3864D01*
X3692Y3864D01*
X3692Y3866D01*
X3690Y3866D01*
X3690Y3868D01*
X3688Y3868D01*
X3688Y3870D01*
X3686Y3870D01*
X3686Y3872D01*
X3684Y3872D01*
X3684Y3874D01*
X3682Y3874D01*
X3682Y3878D01*
X3680Y3878D01*
X3680Y3882D01*
X3678Y3882D01*
X3678Y3886D01*
X3676Y3886D01*
X3676Y3890D01*
X3656Y3890D01*
G37*
D02*
G36*
X1850Y3876D02*
X1850Y3872D01*
X1848Y3872D01*
X1848Y3870D01*
X1846Y3870D01*
X1846Y3868D01*
X1844Y3868D01*
X1844Y3866D01*
X1842Y3866D01*
X1842Y3864D01*
X1838Y3864D01*
X1838Y3862D01*
X1834Y3862D01*
X1834Y3860D01*
X1830Y3860D01*
X1830Y3858D01*
X1822Y3858D01*
X1822Y3838D01*
X1828Y3838D01*
X1828Y3836D01*
X1834Y3836D01*
X1834Y3834D01*
X1838Y3834D01*
X1838Y3832D01*
X1840Y3832D01*
X1840Y3830D01*
X1844Y3830D01*
X1844Y3828D01*
X1846Y3828D01*
X1846Y3826D01*
X1848Y3826D01*
X1848Y3822D01*
X1850Y3822D01*
X1850Y3820D01*
X1852Y3820D01*
X1852Y3816D01*
X1854Y3816D01*
X1854Y3812D01*
X1856Y3812D01*
X1856Y3804D01*
X1876Y3804D01*
X1876Y3808D01*
X1878Y3808D01*
X1878Y3814D01*
X1880Y3814D01*
X1880Y3818D01*
X1882Y3818D01*
X1882Y3822D01*
X1884Y3822D01*
X1884Y3824D01*
X1886Y3824D01*
X1886Y3826D01*
X1888Y3826D01*
X1888Y3828D01*
X1890Y3828D01*
X1890Y3830D01*
X1892Y3830D01*
X1892Y3832D01*
X1896Y3832D01*
X1896Y3834D01*
X1898Y3834D01*
X1898Y3836D01*
X1904Y3836D01*
X1904Y3838D01*
X1912Y3838D01*
X1912Y3858D01*
X1904Y3858D01*
X1904Y3860D01*
X1898Y3860D01*
X1898Y3862D01*
X1894Y3862D01*
X1894Y3864D01*
X1892Y3864D01*
X1892Y3866D01*
X1890Y3866D01*
X1890Y3868D01*
X1888Y3868D01*
X1888Y3870D01*
X1886Y3870D01*
X1886Y3872D01*
X1884Y3872D01*
X1884Y3874D01*
X1882Y3874D01*
X1882Y3876D01*
X1850Y3876D01*
G37*
D02*
G36*
X1856Y3790D02*
X1856Y3784D01*
X1854Y3784D01*
X1854Y3780D01*
X1852Y3780D01*
X1852Y3776D01*
X1850Y3776D01*
X1850Y3772D01*
X1848Y3772D01*
X1848Y3770D01*
X1846Y3770D01*
X1846Y3768D01*
X1844Y3768D01*
X1844Y3766D01*
X1842Y3766D01*
X1842Y3764D01*
X1838Y3764D01*
X1838Y3762D01*
X1834Y3762D01*
X1834Y3760D01*
X1830Y3760D01*
X1830Y3758D01*
X1822Y3758D01*
X1822Y3756D01*
X1812Y3756D01*
X1812Y3754D01*
X1810Y3754D01*
X1810Y3752D01*
X1808Y3752D01*
X1808Y3748D01*
X1806Y3748D01*
X1806Y3746D01*
X1804Y3746D01*
X1804Y3744D01*
X1802Y3744D01*
X1802Y3740D01*
X1800Y3740D01*
X1800Y3738D01*
X1798Y3738D01*
X1798Y3736D01*
X1796Y3736D01*
X1796Y3734D01*
X1794Y3734D01*
X1794Y3730D01*
X1792Y3730D01*
X1792Y3728D01*
X1790Y3728D01*
X1790Y3726D01*
X1788Y3726D01*
X1788Y3722D01*
X1786Y3722D01*
X1786Y3720D01*
X1784Y3720D01*
X1784Y3718D01*
X1782Y3718D01*
X1782Y3714D01*
X1780Y3714D01*
X1780Y3712D01*
X1778Y3712D01*
X1778Y3710D01*
X1776Y3710D01*
X1776Y3706D01*
X1774Y3706D01*
X1774Y3704D01*
X1772Y3704D01*
X1772Y3702D01*
X1770Y3702D01*
X1770Y3698D01*
X1768Y3698D01*
X1768Y3696D01*
X1766Y3696D01*
X1766Y3694D01*
X1764Y3694D01*
X1764Y3690D01*
X1762Y3690D01*
X1762Y3688D01*
X1760Y3688D01*
X1760Y3686D01*
X1758Y3686D01*
X1758Y3682D01*
X1756Y3682D01*
X1756Y3680D01*
X1754Y3680D01*
X1754Y3678D01*
X1752Y3678D01*
X1752Y384D01*
X2124Y384D01*
X2124Y382D01*
X2694Y382D01*
X2694Y380D01*
X3264Y380D01*
X3264Y378D01*
X3622Y378D01*
X3622Y380D01*
X3624Y380D01*
X3624Y382D01*
X3626Y382D01*
X3626Y384D01*
X3628Y384D01*
X3628Y386D01*
X3630Y386D01*
X3630Y388D01*
X3632Y388D01*
X3632Y390D01*
X3636Y390D01*
X3636Y392D01*
X3638Y392D01*
X3638Y394D01*
X3644Y394D01*
X3644Y396D01*
X3650Y396D01*
X3650Y416D01*
X3642Y416D01*
X3642Y418D01*
X3638Y418D01*
X3638Y420D01*
X3634Y420D01*
X3634Y422D01*
X3632Y422D01*
X3632Y424D01*
X3628Y424D01*
X3628Y426D01*
X3626Y426D01*
X3626Y428D01*
X3624Y428D01*
X3624Y432D01*
X3622Y432D01*
X3622Y434D01*
X1814Y434D01*
X1814Y436D01*
X1808Y436D01*
X1808Y438D01*
X1806Y438D01*
X1806Y440D01*
X1802Y440D01*
X1802Y442D01*
X1800Y442D01*
X1800Y446D01*
X1798Y446D01*
X1798Y450D01*
X1796Y450D01*
X1796Y1010D01*
X1794Y1010D01*
X1794Y1952D01*
X1792Y1952D01*
X1792Y2894D01*
X1790Y2894D01*
X1790Y3658D01*
X1792Y3658D01*
X1792Y3662D01*
X1794Y3662D01*
X1794Y3664D01*
X1796Y3664D01*
X1796Y3668D01*
X1798Y3668D01*
X1798Y3670D01*
X1800Y3670D01*
X1800Y3672D01*
X1802Y3672D01*
X1802Y3676D01*
X1804Y3676D01*
X1804Y3678D01*
X1806Y3678D01*
X1806Y3682D01*
X1808Y3682D01*
X1808Y3684D01*
X1810Y3684D01*
X1810Y3686D01*
X1812Y3686D01*
X1812Y3690D01*
X1814Y3690D01*
X1814Y3692D01*
X1816Y3692D01*
X1816Y3696D01*
X1818Y3696D01*
X1818Y3698D01*
X1820Y3698D01*
X1820Y3702D01*
X1822Y3702D01*
X1822Y3704D01*
X1824Y3704D01*
X1824Y3706D01*
X1826Y3706D01*
X1826Y3710D01*
X1828Y3710D01*
X1828Y3712D01*
X1830Y3712D01*
X1830Y3716D01*
X1832Y3716D01*
X1832Y3718D01*
X1834Y3718D01*
X1834Y3720D01*
X1836Y3720D01*
X1836Y3724D01*
X1838Y3724D01*
X1838Y3726D01*
X1840Y3726D01*
X1840Y3730D01*
X1842Y3730D01*
X1842Y3732D01*
X1844Y3732D01*
X1844Y3734D01*
X1846Y3734D01*
X1846Y3738D01*
X1848Y3738D01*
X1848Y3740D01*
X1850Y3740D01*
X1850Y3744D01*
X1852Y3744D01*
X1852Y3746D01*
X1854Y3746D01*
X1854Y3750D01*
X1856Y3750D01*
X1856Y3752D01*
X1858Y3752D01*
X1858Y3754D01*
X1860Y3754D01*
X1860Y3758D01*
X1862Y3758D01*
X1862Y3760D01*
X1864Y3760D01*
X1864Y3764D01*
X1866Y3764D01*
X1866Y3766D01*
X1868Y3766D01*
X1868Y3768D01*
X1870Y3768D01*
X1870Y3772D01*
X1872Y3772D01*
X1872Y3774D01*
X1874Y3774D01*
X1874Y3778D01*
X1876Y3778D01*
X1876Y3790D01*
X1856Y3790D01*
G37*
D02*
G36*
X2056Y3790D02*
X2056Y3784D01*
X2054Y3784D01*
X2054Y3780D01*
X2052Y3780D01*
X2052Y3776D01*
X2050Y3776D01*
X2050Y3772D01*
X2048Y3772D01*
X2048Y3770D01*
X2046Y3770D01*
X2046Y3768D01*
X2044Y3768D01*
X2044Y3766D01*
X2042Y3766D01*
X2042Y3764D01*
X2038Y3764D01*
X2038Y3762D01*
X2034Y3762D01*
X2034Y3760D01*
X2030Y3760D01*
X2030Y3758D01*
X2022Y3758D01*
X2022Y3756D01*
X2010Y3756D01*
X2010Y3752D01*
X2008Y3752D01*
X2008Y3750D01*
X2006Y3750D01*
X2006Y3748D01*
X2004Y3748D01*
X2004Y3746D01*
X2002Y3746D01*
X2002Y3742D01*
X2000Y3742D01*
X2000Y3740D01*
X1998Y3740D01*
X1998Y3738D01*
X1996Y3738D01*
X1996Y3734D01*
X1994Y3734D01*
X1994Y3732D01*
X1992Y3732D01*
X1992Y3730D01*
X1990Y3730D01*
X1990Y3728D01*
X1988Y3728D01*
X1988Y3724D01*
X1986Y3724D01*
X1986Y3722D01*
X1984Y3722D01*
X1984Y3720D01*
X1982Y3720D01*
X1982Y3718D01*
X1980Y3718D01*
X1980Y3714D01*
X1978Y3714D01*
X1978Y3712D01*
X1976Y3712D01*
X1976Y3710D01*
X1974Y3710D01*
X1974Y3706D01*
X1972Y3706D01*
X1972Y3704D01*
X1970Y3704D01*
X1970Y3702D01*
X1968Y3702D01*
X1968Y3700D01*
X1966Y3700D01*
X1966Y3696D01*
X1964Y3696D01*
X1964Y3694D01*
X1962Y3694D01*
X1962Y3692D01*
X1960Y3692D01*
X1960Y3690D01*
X1958Y3690D01*
X1958Y3686D01*
X1956Y3686D01*
X1956Y3684D01*
X1954Y3684D01*
X1954Y3682D01*
X1952Y3682D01*
X1952Y3680D01*
X1950Y3680D01*
X1950Y3676D01*
X1948Y3676D01*
X1948Y3674D01*
X1946Y3674D01*
X1946Y3672D01*
X1944Y3672D01*
X1944Y3668D01*
X1942Y3668D01*
X1942Y3666D01*
X1940Y3666D01*
X1940Y3664D01*
X1938Y3664D01*
X1938Y3662D01*
X1936Y3662D01*
X1936Y3658D01*
X1934Y3658D01*
X1934Y3656D01*
X1932Y3656D01*
X1932Y3654D01*
X1930Y3654D01*
X1930Y3652D01*
X1928Y3652D01*
X1928Y3648D01*
X1926Y3648D01*
X1926Y3646D01*
X1924Y3646D01*
X1924Y3644D01*
X1922Y3644D01*
X1922Y584D01*
X2260Y584D01*
X2260Y582D01*
X2778Y582D01*
X2778Y580D01*
X3296Y580D01*
X3296Y578D01*
X3622Y578D01*
X3622Y580D01*
X3624Y580D01*
X3624Y582D01*
X3626Y582D01*
X3626Y584D01*
X3628Y584D01*
X3628Y586D01*
X3630Y586D01*
X3630Y588D01*
X3632Y588D01*
X3632Y590D01*
X3636Y590D01*
X3636Y592D01*
X3638Y592D01*
X3638Y594D01*
X3644Y594D01*
X3644Y596D01*
X3650Y596D01*
X3650Y616D01*
X3642Y616D01*
X3642Y618D01*
X3638Y618D01*
X3638Y620D01*
X3634Y620D01*
X3634Y622D01*
X3632Y622D01*
X3632Y624D01*
X3628Y624D01*
X3628Y626D01*
X3626Y626D01*
X3626Y628D01*
X3624Y628D01*
X3624Y632D01*
X3622Y632D01*
X3622Y634D01*
X3310Y634D01*
X3310Y636D01*
X2820Y636D01*
X2820Y638D01*
X2330Y638D01*
X2330Y640D01*
X1990Y640D01*
X1990Y642D01*
X1984Y642D01*
X1984Y644D01*
X1982Y644D01*
X1982Y646D01*
X1980Y646D01*
X1980Y648D01*
X1978Y648D01*
X1978Y650D01*
X1976Y650D01*
X1976Y652D01*
X1974Y652D01*
X1974Y660D01*
X1972Y660D01*
X1972Y1054D01*
X1970Y1054D01*
X1970Y1490D01*
X1968Y1490D01*
X1968Y1926D01*
X1966Y1926D01*
X1966Y2360D01*
X1964Y2360D01*
X1964Y2796D01*
X1962Y2796D01*
X1962Y3232D01*
X1960Y3232D01*
X1960Y3630D01*
X1962Y3630D01*
X1962Y3634D01*
X1964Y3634D01*
X1964Y3638D01*
X1966Y3638D01*
X1966Y3640D01*
X1968Y3640D01*
X1968Y3642D01*
X1970Y3642D01*
X1970Y3646D01*
X1972Y3646D01*
X1972Y3648D01*
X1974Y3648D01*
X1974Y3650D01*
X1976Y3650D01*
X1976Y3652D01*
X1978Y3652D01*
X1978Y3656D01*
X1980Y3656D01*
X1980Y3658D01*
X1982Y3658D01*
X1982Y3660D01*
X1984Y3660D01*
X1984Y3664D01*
X1986Y3664D01*
X1986Y3666D01*
X1988Y3666D01*
X1988Y3668D01*
X1990Y3668D01*
X1990Y3670D01*
X1992Y3670D01*
X1992Y3674D01*
X1994Y3674D01*
X1994Y3676D01*
X1996Y3676D01*
X1996Y3678D01*
X1998Y3678D01*
X1998Y3682D01*
X2000Y3682D01*
X2000Y3684D01*
X2002Y3684D01*
X2002Y3686D01*
X2004Y3686D01*
X2004Y3690D01*
X2006Y3690D01*
X2006Y3692D01*
X2008Y3692D01*
X2008Y3694D01*
X2010Y3694D01*
X2010Y3696D01*
X2012Y3696D01*
X2012Y3700D01*
X2014Y3700D01*
X2014Y3702D01*
X2016Y3702D01*
X2016Y3704D01*
X2018Y3704D01*
X2018Y3708D01*
X2020Y3708D01*
X2020Y3710D01*
X2022Y3710D01*
X2022Y3712D01*
X2024Y3712D01*
X2024Y3716D01*
X2026Y3716D01*
X2026Y3718D01*
X2028Y3718D01*
X2028Y3720D01*
X2030Y3720D01*
X2030Y3722D01*
X2032Y3722D01*
X2032Y3726D01*
X2034Y3726D01*
X2034Y3728D01*
X2036Y3728D01*
X2036Y3730D01*
X2038Y3730D01*
X2038Y3734D01*
X2040Y3734D01*
X2040Y3736D01*
X2042Y3736D01*
X2042Y3738D01*
X2044Y3738D01*
X2044Y3742D01*
X2046Y3742D01*
X2046Y3744D01*
X2048Y3744D01*
X2048Y3746D01*
X2050Y3746D01*
X2050Y3748D01*
X2052Y3748D01*
X2052Y3752D01*
X2054Y3752D01*
X2054Y3754D01*
X2056Y3754D01*
X2056Y3756D01*
X2058Y3756D01*
X2058Y3760D01*
X2060Y3760D01*
X2060Y3762D01*
X2062Y3762D01*
X2062Y3764D01*
X2064Y3764D01*
X2064Y3768D01*
X2066Y3768D01*
X2066Y3770D01*
X2068Y3770D01*
X2068Y3772D01*
X2070Y3772D01*
X2070Y3774D01*
X2072Y3774D01*
X2072Y3778D01*
X2074Y3778D01*
X2074Y3780D01*
X2076Y3780D01*
X2076Y3790D01*
X2056Y3790D01*
G37*
D02*
G36*
X2156Y3790D02*
X2156Y3784D01*
X2154Y3784D01*
X2154Y3780D01*
X2152Y3780D01*
X2152Y3776D01*
X2150Y3776D01*
X2150Y3772D01*
X2148Y3772D01*
X2148Y3770D01*
X2146Y3770D01*
X2146Y3768D01*
X2144Y3768D01*
X2144Y3766D01*
X2142Y3766D01*
X2142Y3764D01*
X2138Y3764D01*
X2138Y3762D01*
X2134Y3762D01*
X2134Y3760D01*
X2130Y3760D01*
X2130Y3758D01*
X2122Y3758D01*
X2122Y3756D01*
X2212Y3756D01*
X2212Y3758D01*
X2204Y3758D01*
X2204Y3760D01*
X2198Y3760D01*
X2198Y3762D01*
X2194Y3762D01*
X2194Y3764D01*
X2192Y3764D01*
X2192Y3766D01*
X2190Y3766D01*
X2190Y3768D01*
X2188Y3768D01*
X2188Y3770D01*
X2186Y3770D01*
X2186Y3772D01*
X2184Y3772D01*
X2184Y3774D01*
X2182Y3774D01*
X2182Y3778D01*
X2180Y3778D01*
X2180Y3780D01*
X2178Y3780D01*
X2178Y3786D01*
X2176Y3786D01*
X2176Y3790D01*
X2156Y3790D01*
G37*
D02*
G36*
X2256Y3790D02*
X2256Y3784D01*
X2254Y3784D01*
X2254Y3780D01*
X2252Y3780D01*
X2252Y3776D01*
X2250Y3776D01*
X2250Y3772D01*
X2248Y3772D01*
X2248Y3770D01*
X2246Y3770D01*
X2246Y3768D01*
X2244Y3768D01*
X2244Y3766D01*
X2242Y3766D01*
X2242Y3764D01*
X2238Y3764D01*
X2238Y3762D01*
X2234Y3762D01*
X2234Y3760D01*
X2230Y3760D01*
X2230Y3758D01*
X2222Y3758D01*
X2222Y3756D01*
X2296Y3756D01*
X2296Y3762D01*
X2294Y3762D01*
X2294Y3764D01*
X2292Y3764D01*
X2292Y3766D01*
X2290Y3766D01*
X2290Y3768D01*
X2288Y3768D01*
X2288Y3770D01*
X2286Y3770D01*
X2286Y3772D01*
X2284Y3772D01*
X2284Y3774D01*
X2282Y3774D01*
X2282Y3778D01*
X2280Y3778D01*
X2280Y3780D01*
X2278Y3780D01*
X2278Y3786D01*
X2276Y3786D01*
X2276Y3790D01*
X2256Y3790D01*
G37*
D02*
G36*
X2112Y3756D02*
X2112Y3754D01*
X2296Y3754D01*
X2296Y3756D01*
X2112Y3756D01*
G37*
D02*
G36*
X2112Y3756D02*
X2112Y3754D01*
X2296Y3754D01*
X2296Y3756D01*
X2112Y3756D01*
G37*
D02*
G36*
X2110Y3754D02*
X2110Y3752D01*
X2108Y3752D01*
X2108Y3750D01*
X2106Y3750D01*
X2106Y3746D01*
X2104Y3746D01*
X2104Y3744D01*
X2102Y3744D01*
X2102Y3742D01*
X2100Y3742D01*
X2100Y3740D01*
X2098Y3740D01*
X2098Y3736D01*
X2096Y3736D01*
X2096Y3734D01*
X2094Y3734D01*
X2094Y3732D01*
X2092Y3732D01*
X2092Y3728D01*
X2090Y3728D01*
X2090Y3726D01*
X2088Y3726D01*
X2088Y3724D01*
X2086Y3724D01*
X2086Y3720D01*
X2084Y3720D01*
X2084Y3718D01*
X2082Y3718D01*
X2082Y3716D01*
X2080Y3716D01*
X2080Y3714D01*
X2078Y3714D01*
X2078Y3710D01*
X2076Y3710D01*
X2076Y3708D01*
X2074Y3708D01*
X2074Y3706D01*
X2072Y3706D01*
X2072Y3702D01*
X2070Y3702D01*
X2070Y3700D01*
X2068Y3700D01*
X2068Y3698D01*
X2066Y3698D01*
X2066Y3694D01*
X2064Y3694D01*
X2064Y3692D01*
X2062Y3692D01*
X2062Y3690D01*
X2060Y3690D01*
X2060Y3688D01*
X2058Y3688D01*
X2058Y3684D01*
X2056Y3684D01*
X2056Y3682D01*
X2054Y3682D01*
X2054Y3680D01*
X2052Y3680D01*
X2052Y3676D01*
X2050Y3676D01*
X2050Y3674D01*
X2048Y3674D01*
X2048Y3672D01*
X2046Y3672D01*
X2046Y3668D01*
X2044Y3668D01*
X2044Y3666D01*
X2042Y3666D01*
X2042Y3664D01*
X2040Y3664D01*
X2040Y3662D01*
X2038Y3662D01*
X2038Y3658D01*
X2036Y3658D01*
X2036Y3656D01*
X2034Y3656D01*
X2034Y3654D01*
X2032Y3654D01*
X2032Y3650D01*
X2030Y3650D01*
X2030Y3648D01*
X2028Y3648D01*
X2028Y3646D01*
X2026Y3646D01*
X2026Y3644D01*
X2024Y3644D01*
X2024Y3640D01*
X2022Y3640D01*
X2022Y3638D01*
X2020Y3638D01*
X2020Y3636D01*
X2018Y3636D01*
X2018Y3632D01*
X2016Y3632D01*
X2016Y3630D01*
X2014Y3630D01*
X2014Y3628D01*
X2012Y3628D01*
X2012Y3624D01*
X2010Y3624D01*
X2010Y3622D01*
X2008Y3622D01*
X2008Y3620D01*
X2006Y3620D01*
X2006Y3618D01*
X2004Y3618D01*
X2004Y3236D01*
X2006Y3236D01*
X2006Y2800D01*
X2008Y2800D01*
X2008Y2538D01*
X2232Y2538D01*
X2232Y2536D01*
X2242Y2536D01*
X2242Y2534D01*
X2250Y2534D01*
X2250Y2532D01*
X2256Y2532D01*
X2256Y2530D01*
X2260Y2530D01*
X2260Y2528D01*
X2264Y2528D01*
X2264Y2526D01*
X2268Y2526D01*
X2268Y2524D01*
X2270Y2524D01*
X2270Y2522D01*
X2274Y2522D01*
X2274Y2520D01*
X2276Y2520D01*
X2276Y2518D01*
X2280Y2518D01*
X2280Y2516D01*
X2282Y2516D01*
X2282Y2514D01*
X2284Y2514D01*
X2284Y2512D01*
X2286Y2512D01*
X2286Y2510D01*
X2288Y2510D01*
X2288Y2508D01*
X2290Y2508D01*
X2290Y2506D01*
X2292Y2506D01*
X2292Y2504D01*
X2294Y2504D01*
X2294Y2502D01*
X2296Y2502D01*
X2296Y2500D01*
X2298Y2500D01*
X2298Y2496D01*
X2318Y2496D01*
X2318Y2582D01*
X2316Y2582D01*
X2316Y2690D01*
X2314Y2690D01*
X2314Y2798D01*
X2312Y2798D01*
X2312Y2906D01*
X2310Y2906D01*
X2310Y3014D01*
X2308Y3014D01*
X2308Y3122D01*
X2306Y3122D01*
X2306Y3230D01*
X2304Y3230D01*
X2304Y3338D01*
X2302Y3338D01*
X2302Y3446D01*
X2300Y3446D01*
X2300Y3554D01*
X2298Y3554D01*
X2298Y3662D01*
X2296Y3662D01*
X2296Y3754D01*
X2110Y3754D01*
G37*
D02*
G36*
X2008Y2538D02*
X2008Y2364D01*
X2010Y2364D01*
X2010Y2344D01*
X2200Y2344D01*
X2200Y2346D01*
X2192Y2346D01*
X2192Y2348D01*
X2186Y2348D01*
X2186Y2350D01*
X2180Y2350D01*
X2180Y2352D01*
X2176Y2352D01*
X2176Y2354D01*
X2172Y2354D01*
X2172Y2356D01*
X2170Y2356D01*
X2170Y2358D01*
X2166Y2358D01*
X2166Y2360D01*
X2164Y2360D01*
X2164Y2362D01*
X2160Y2362D01*
X2160Y2364D01*
X2158Y2364D01*
X2158Y2366D01*
X2156Y2366D01*
X2156Y2368D01*
X2154Y2368D01*
X2154Y2370D01*
X2150Y2370D01*
X2150Y2374D01*
X2148Y2374D01*
X2148Y2376D01*
X2146Y2376D01*
X2146Y2378D01*
X2144Y2378D01*
X2144Y2380D01*
X2142Y2380D01*
X2142Y2382D01*
X2140Y2382D01*
X2140Y2386D01*
X2138Y2386D01*
X2138Y2388D01*
X2136Y2388D01*
X2136Y2392D01*
X2134Y2392D01*
X2134Y2396D01*
X2132Y2396D01*
X2132Y2400D01*
X2130Y2400D01*
X2130Y2404D01*
X2128Y2404D01*
X2128Y2410D01*
X2126Y2410D01*
X2126Y2416D01*
X2124Y2416D01*
X2124Y2426D01*
X2122Y2426D01*
X2122Y2454D01*
X2124Y2454D01*
X2124Y2464D01*
X2126Y2464D01*
X2126Y2472D01*
X2128Y2472D01*
X2128Y2478D01*
X2130Y2478D01*
X2130Y2482D01*
X2132Y2482D01*
X2132Y2486D01*
X2134Y2486D01*
X2134Y2490D01*
X2136Y2490D01*
X2136Y2492D01*
X2138Y2492D01*
X2138Y2496D01*
X2140Y2496D01*
X2140Y2498D01*
X2142Y2498D01*
X2142Y2500D01*
X2144Y2500D01*
X2144Y2504D01*
X2146Y2504D01*
X2146Y2506D01*
X2148Y2506D01*
X2148Y2508D01*
X2150Y2508D01*
X2150Y2510D01*
X2152Y2510D01*
X2152Y2512D01*
X2154Y2512D01*
X2154Y2514D01*
X2156Y2514D01*
X2156Y2516D01*
X2160Y2516D01*
X2160Y2518D01*
X2162Y2518D01*
X2162Y2520D01*
X2164Y2520D01*
X2164Y2522D01*
X2168Y2522D01*
X2168Y2524D01*
X2170Y2524D01*
X2170Y2526D01*
X2174Y2526D01*
X2174Y2528D01*
X2178Y2528D01*
X2178Y2530D01*
X2182Y2530D01*
X2182Y2532D01*
X2188Y2532D01*
X2188Y2534D01*
X2196Y2534D01*
X2196Y2536D01*
X2206Y2536D01*
X2206Y2538D01*
X2008Y2538D01*
G37*
D02*
G36*
X2298Y2384D02*
X2298Y2382D01*
X2296Y2382D01*
X2296Y2380D01*
X2294Y2380D01*
X2294Y2376D01*
X2292Y2376D01*
X2292Y2374D01*
X2290Y2374D01*
X2290Y2372D01*
X2288Y2372D01*
X2288Y2370D01*
X2286Y2370D01*
X2286Y2368D01*
X2284Y2368D01*
X2284Y2366D01*
X2280Y2366D01*
X2280Y2364D01*
X2278Y2364D01*
X2278Y2362D01*
X2276Y2362D01*
X2276Y2360D01*
X2272Y2360D01*
X2272Y2358D01*
X2270Y2358D01*
X2270Y2356D01*
X2266Y2356D01*
X2266Y2354D01*
X2262Y2354D01*
X2262Y2352D01*
X2258Y2352D01*
X2258Y2350D01*
X2252Y2350D01*
X2252Y2348D01*
X2246Y2348D01*
X2246Y2346D01*
X2238Y2346D01*
X2238Y2344D01*
X2318Y2344D01*
X2318Y2384D01*
X2298Y2384D01*
G37*
D02*
G36*
X2010Y2344D02*
X2010Y2342D01*
X2318Y2342D01*
X2318Y2344D01*
X2010Y2344D01*
G37*
D02*
G36*
X2010Y2344D02*
X2010Y2342D01*
X2318Y2342D01*
X2318Y2344D01*
X2010Y2344D01*
G37*
D02*
G36*
X2010Y2342D02*
X2010Y1928D01*
X2012Y1928D01*
X2012Y1494D01*
X2014Y1494D01*
X2014Y1058D01*
X2016Y1058D01*
X2016Y684D01*
X2334Y684D01*
X2334Y682D01*
X2824Y682D01*
X2824Y680D01*
X3314Y680D01*
X3314Y678D01*
X3622Y678D01*
X3622Y680D01*
X3624Y680D01*
X3624Y682D01*
X3626Y682D01*
X3626Y684D01*
X3628Y684D01*
X3628Y686D01*
X3630Y686D01*
X3630Y688D01*
X3632Y688D01*
X3632Y690D01*
X3636Y690D01*
X3636Y692D01*
X3638Y692D01*
X3638Y694D01*
X3644Y694D01*
X3644Y696D01*
X3650Y696D01*
X3650Y716D01*
X3642Y716D01*
X3642Y718D01*
X3638Y718D01*
X3638Y720D01*
X3634Y720D01*
X3634Y722D01*
X3632Y722D01*
X3632Y724D01*
X3628Y724D01*
X3628Y726D01*
X3626Y726D01*
X3626Y728D01*
X3624Y728D01*
X3624Y732D01*
X3622Y732D01*
X3622Y734D01*
X3620Y734D01*
X3620Y738D01*
X3618Y738D01*
X3618Y742D01*
X3616Y742D01*
X3616Y752D01*
X3614Y752D01*
X3614Y760D01*
X3616Y760D01*
X3616Y768D01*
X3618Y768D01*
X3618Y774D01*
X3620Y774D01*
X3620Y778D01*
X3622Y778D01*
X3622Y780D01*
X3624Y780D01*
X3624Y782D01*
X3626Y782D01*
X3626Y784D01*
X3628Y784D01*
X3628Y786D01*
X3630Y786D01*
X3630Y788D01*
X3632Y788D01*
X3632Y790D01*
X3636Y790D01*
X3636Y792D01*
X3638Y792D01*
X3638Y794D01*
X3644Y794D01*
X3644Y796D01*
X3650Y796D01*
X3650Y816D01*
X3642Y816D01*
X3642Y818D01*
X3638Y818D01*
X3638Y820D01*
X3634Y820D01*
X3634Y822D01*
X3632Y822D01*
X3632Y824D01*
X3628Y824D01*
X3628Y826D01*
X3626Y826D01*
X3626Y828D01*
X3624Y828D01*
X3624Y832D01*
X3622Y832D01*
X3622Y834D01*
X3440Y834D01*
X3440Y836D01*
X3130Y836D01*
X3130Y838D01*
X2820Y838D01*
X2820Y840D01*
X2508Y840D01*
X2508Y842D01*
X2328Y842D01*
X2328Y844D01*
X2324Y844D01*
X2324Y846D01*
X2320Y846D01*
X2320Y848D01*
X2318Y848D01*
X2318Y850D01*
X2316Y850D01*
X2316Y854D01*
X2314Y854D01*
X2314Y860D01*
X2312Y860D01*
X2312Y992D01*
X2314Y992D01*
X2314Y1460D01*
X2316Y1460D01*
X2316Y1928D01*
X2318Y1928D01*
X2318Y2342D01*
X2010Y2342D01*
G37*
D02*
G36*
X2356Y3790D02*
X2356Y3784D01*
X2354Y3784D01*
X2354Y3780D01*
X2352Y3780D01*
X2352Y3776D01*
X2350Y3776D01*
X2350Y3772D01*
X2348Y3772D01*
X2348Y3770D01*
X2346Y3770D01*
X2346Y3768D01*
X2344Y3768D01*
X2344Y3766D01*
X2342Y3766D01*
X2342Y3764D01*
X2340Y3764D01*
X2340Y3662D01*
X2342Y3662D01*
X2342Y3554D01*
X2344Y3554D01*
X2344Y3446D01*
X2346Y3446D01*
X2346Y3340D01*
X2348Y3340D01*
X2348Y3232D01*
X2350Y3232D01*
X2350Y3124D01*
X2352Y3124D01*
X2352Y3016D01*
X2354Y3016D01*
X2354Y2908D01*
X2356Y2908D01*
X2356Y2800D01*
X2358Y2800D01*
X2358Y2692D01*
X2360Y2692D01*
X2360Y2584D01*
X2362Y2584D01*
X2362Y2476D01*
X2364Y2476D01*
X2364Y2394D01*
X2362Y2394D01*
X2362Y1926D01*
X2360Y1926D01*
X2360Y1456D01*
X2358Y1456D01*
X2358Y988D01*
X2356Y988D01*
X2356Y930D01*
X2432Y930D01*
X2432Y932D01*
X2426Y932D01*
X2426Y934D01*
X2424Y934D01*
X2424Y936D01*
X2420Y936D01*
X2420Y940D01*
X2418Y940D01*
X2418Y942D01*
X2416Y942D01*
X2416Y948D01*
X2414Y948D01*
X2414Y1148D01*
X2412Y1148D01*
X2412Y1434D01*
X2410Y1434D01*
X2410Y1720D01*
X2408Y1720D01*
X2408Y2006D01*
X2406Y2006D01*
X2406Y2294D01*
X2404Y2294D01*
X2404Y2580D01*
X2402Y2580D01*
X2402Y2866D01*
X2400Y2866D01*
X2400Y3152D01*
X2398Y3152D01*
X2398Y3438D01*
X2396Y3438D01*
X2396Y3724D01*
X2394Y3724D01*
X2394Y3764D01*
X2392Y3764D01*
X2392Y3766D01*
X2390Y3766D01*
X2390Y3768D01*
X2388Y3768D01*
X2388Y3770D01*
X2386Y3770D01*
X2386Y3772D01*
X2384Y3772D01*
X2384Y3774D01*
X2382Y3774D01*
X2382Y3778D01*
X2380Y3778D01*
X2380Y3780D01*
X2378Y3780D01*
X2378Y3786D01*
X2376Y3786D01*
X2376Y3790D01*
X2356Y3790D01*
G37*
D02*
G36*
X3432Y934D02*
X3432Y932D01*
X2656Y932D01*
X2656Y930D01*
X3624Y930D01*
X3624Y932D01*
X3622Y932D01*
X3622Y934D01*
X3432Y934D01*
G37*
D02*
G36*
X2356Y930D02*
X2356Y928D01*
X3624Y928D01*
X3624Y930D01*
X2356Y930D01*
G37*
D02*
G36*
X2356Y930D02*
X2356Y928D01*
X3624Y928D01*
X3624Y930D01*
X2356Y930D01*
G37*
D02*
G36*
X2356Y928D02*
X2356Y886D01*
X2510Y886D01*
X2510Y884D01*
X2822Y884D01*
X2822Y882D01*
X3132Y882D01*
X3132Y880D01*
X3442Y880D01*
X3442Y878D01*
X3622Y878D01*
X3622Y880D01*
X3624Y880D01*
X3624Y882D01*
X3626Y882D01*
X3626Y884D01*
X3628Y884D01*
X3628Y886D01*
X3630Y886D01*
X3630Y888D01*
X3632Y888D01*
X3632Y890D01*
X3636Y890D01*
X3636Y892D01*
X3638Y892D01*
X3638Y894D01*
X3644Y894D01*
X3644Y896D01*
X3650Y896D01*
X3650Y916D01*
X3642Y916D01*
X3642Y918D01*
X3638Y918D01*
X3638Y920D01*
X3634Y920D01*
X3634Y922D01*
X3632Y922D01*
X3632Y924D01*
X3628Y924D01*
X3628Y926D01*
X3626Y926D01*
X3626Y928D01*
X2356Y928D01*
G37*
D02*
G36*
X2456Y3790D02*
X2456Y3784D01*
X2454Y3784D01*
X2454Y3780D01*
X2452Y3780D01*
X2452Y3776D01*
X2450Y3776D01*
X2450Y3772D01*
X2448Y3772D01*
X2448Y3770D01*
X2446Y3770D01*
X2446Y3768D01*
X2444Y3768D01*
X2444Y3766D01*
X2442Y3766D01*
X2442Y3764D01*
X2438Y3764D01*
X2438Y3726D01*
X2440Y3726D01*
X2440Y3440D01*
X2442Y3440D01*
X2442Y3154D01*
X2444Y3154D01*
X2444Y2868D01*
X2446Y2868D01*
X2446Y2582D01*
X2448Y2582D01*
X2448Y2294D01*
X2450Y2294D01*
X2450Y2008D01*
X2452Y2008D01*
X2452Y1722D01*
X2454Y1722D01*
X2454Y1436D01*
X2456Y1436D01*
X2456Y1150D01*
X2458Y1150D01*
X2458Y974D01*
X2650Y974D01*
X2650Y976D01*
X3426Y976D01*
X3426Y978D01*
X3622Y978D01*
X3622Y980D01*
X3624Y980D01*
X3624Y982D01*
X3626Y982D01*
X3626Y984D01*
X3628Y984D01*
X3628Y986D01*
X3630Y986D01*
X3630Y988D01*
X3632Y988D01*
X3632Y990D01*
X3636Y990D01*
X3636Y992D01*
X3638Y992D01*
X3638Y994D01*
X3644Y994D01*
X3644Y996D01*
X3650Y996D01*
X3650Y1016D01*
X3642Y1016D01*
X3642Y1018D01*
X3638Y1018D01*
X3638Y1020D01*
X3634Y1020D01*
X3634Y1022D01*
X3632Y1022D01*
X3632Y1024D01*
X3628Y1024D01*
X3628Y1026D01*
X3626Y1026D01*
X3626Y1028D01*
X3624Y1028D01*
X3624Y1032D01*
X3622Y1032D01*
X3622Y1034D01*
X2510Y1034D01*
X2510Y1036D01*
X2504Y1036D01*
X2504Y1038D01*
X2502Y1038D01*
X2502Y1040D01*
X2500Y1040D01*
X2500Y1042D01*
X2498Y1042D01*
X2498Y1046D01*
X2496Y1046D01*
X2496Y1052D01*
X2494Y1052D01*
X2494Y3764D01*
X2492Y3764D01*
X2492Y3766D01*
X2490Y3766D01*
X2490Y3768D01*
X2488Y3768D01*
X2488Y3770D01*
X2486Y3770D01*
X2486Y3772D01*
X2484Y3772D01*
X2484Y3774D01*
X2482Y3774D01*
X2482Y3778D01*
X2480Y3778D01*
X2480Y3780D01*
X2478Y3780D01*
X2478Y3786D01*
X2476Y3786D01*
X2476Y3790D01*
X2456Y3790D01*
G37*
D02*
G36*
X2556Y3790D02*
X2556Y3784D01*
X2554Y3784D01*
X2554Y3780D01*
X2552Y3780D01*
X2552Y3776D01*
X2550Y3776D01*
X2550Y3772D01*
X2548Y3772D01*
X2548Y3770D01*
X2546Y3770D01*
X2546Y3768D01*
X2544Y3768D01*
X2544Y3766D01*
X2542Y3766D01*
X2542Y3764D01*
X2538Y3764D01*
X2538Y1078D01*
X3622Y1078D01*
X3622Y1080D01*
X3624Y1080D01*
X3624Y1082D01*
X3626Y1082D01*
X3626Y1084D01*
X3628Y1084D01*
X3628Y1086D01*
X3630Y1086D01*
X3630Y1088D01*
X3632Y1088D01*
X3632Y1090D01*
X3636Y1090D01*
X3636Y1092D01*
X3638Y1092D01*
X3638Y1094D01*
X3644Y1094D01*
X3644Y1096D01*
X3650Y1096D01*
X3650Y1116D01*
X3642Y1116D01*
X3642Y1118D01*
X3638Y1118D01*
X3638Y1120D01*
X3634Y1120D01*
X3634Y1122D01*
X3632Y1122D01*
X3632Y1124D01*
X3628Y1124D01*
X3628Y1126D01*
X3626Y1126D01*
X3626Y1128D01*
X3624Y1128D01*
X3624Y1132D01*
X3622Y1132D01*
X3622Y1134D01*
X2608Y1134D01*
X2608Y1136D01*
X2604Y1136D01*
X2604Y1138D01*
X2602Y1138D01*
X2602Y1140D01*
X2600Y1140D01*
X2600Y1142D01*
X2598Y1142D01*
X2598Y1146D01*
X2596Y1146D01*
X2596Y1152D01*
X2594Y1152D01*
X2594Y3764D01*
X2592Y3764D01*
X2592Y3766D01*
X2590Y3766D01*
X2590Y3768D01*
X2588Y3768D01*
X2588Y3770D01*
X2586Y3770D01*
X2586Y3772D01*
X2584Y3772D01*
X2584Y3774D01*
X2582Y3774D01*
X2582Y3778D01*
X2580Y3778D01*
X2580Y3780D01*
X2578Y3780D01*
X2578Y3786D01*
X2576Y3786D01*
X2576Y3790D01*
X2556Y3790D01*
G37*
D02*
G36*
X2656Y3790D02*
X2656Y3784D01*
X2654Y3784D01*
X2654Y3780D01*
X2652Y3780D01*
X2652Y3776D01*
X2650Y3776D01*
X2650Y3772D01*
X2648Y3772D01*
X2648Y3770D01*
X2646Y3770D01*
X2646Y3768D01*
X2644Y3768D01*
X2644Y3766D01*
X2642Y3766D01*
X2642Y3764D01*
X2638Y3764D01*
X2638Y1178D01*
X3622Y1178D01*
X3622Y1180D01*
X3624Y1180D01*
X3624Y1182D01*
X3626Y1182D01*
X3626Y1184D01*
X3628Y1184D01*
X3628Y1186D01*
X3630Y1186D01*
X3630Y1188D01*
X3632Y1188D01*
X3632Y1190D01*
X3636Y1190D01*
X3636Y1192D01*
X3638Y1192D01*
X3638Y1194D01*
X3644Y1194D01*
X3644Y1196D01*
X3650Y1196D01*
X3650Y1216D01*
X3642Y1216D01*
X3642Y1218D01*
X3638Y1218D01*
X3638Y1220D01*
X3634Y1220D01*
X3634Y1222D01*
X3632Y1222D01*
X3632Y1224D01*
X3628Y1224D01*
X3628Y1226D01*
X3626Y1226D01*
X3626Y1228D01*
X3624Y1228D01*
X3624Y1232D01*
X3622Y1232D01*
X3622Y1234D01*
X2710Y1234D01*
X2710Y1236D01*
X2704Y1236D01*
X2704Y1238D01*
X2702Y1238D01*
X2702Y1240D01*
X2700Y1240D01*
X2700Y1242D01*
X2698Y1242D01*
X2698Y1246D01*
X2696Y1246D01*
X2696Y1252D01*
X2694Y1252D01*
X2694Y3764D01*
X2692Y3764D01*
X2692Y3766D01*
X2690Y3766D01*
X2690Y3768D01*
X2688Y3768D01*
X2688Y3770D01*
X2686Y3770D01*
X2686Y3772D01*
X2684Y3772D01*
X2684Y3774D01*
X2682Y3774D01*
X2682Y3778D01*
X2680Y3778D01*
X2680Y3780D01*
X2678Y3780D01*
X2678Y3786D01*
X2676Y3786D01*
X2676Y3790D01*
X2656Y3790D01*
G37*
D02*
G36*
X2756Y3790D02*
X2756Y3784D01*
X2754Y3784D01*
X2754Y3780D01*
X2752Y3780D01*
X2752Y3776D01*
X2750Y3776D01*
X2750Y3772D01*
X2748Y3772D01*
X2748Y3770D01*
X2746Y3770D01*
X2746Y3768D01*
X2744Y3768D01*
X2744Y3766D01*
X2742Y3766D01*
X2742Y3764D01*
X2738Y3764D01*
X2738Y1278D01*
X3622Y1278D01*
X3622Y1280D01*
X3624Y1280D01*
X3624Y1282D01*
X3626Y1282D01*
X3626Y1284D01*
X3628Y1284D01*
X3628Y1286D01*
X3630Y1286D01*
X3630Y1288D01*
X3632Y1288D01*
X3632Y1290D01*
X3636Y1290D01*
X3636Y1292D01*
X3638Y1292D01*
X3638Y1294D01*
X3644Y1294D01*
X3644Y1296D01*
X3650Y1296D01*
X3650Y1316D01*
X3642Y1316D01*
X3642Y1318D01*
X3638Y1318D01*
X3638Y1320D01*
X3634Y1320D01*
X3634Y1322D01*
X3632Y1322D01*
X3632Y1324D01*
X3628Y1324D01*
X3628Y1326D01*
X3626Y1326D01*
X3626Y1328D01*
X3624Y1328D01*
X3624Y1332D01*
X3622Y1332D01*
X3622Y1334D01*
X2810Y1334D01*
X2810Y1336D01*
X2804Y1336D01*
X2804Y1338D01*
X2802Y1338D01*
X2802Y1340D01*
X2800Y1340D01*
X2800Y1342D01*
X2798Y1342D01*
X2798Y1346D01*
X2796Y1346D01*
X2796Y1352D01*
X2794Y1352D01*
X2794Y3764D01*
X2792Y3764D01*
X2792Y3766D01*
X2790Y3766D01*
X2790Y3768D01*
X2788Y3768D01*
X2788Y3770D01*
X2786Y3770D01*
X2786Y3772D01*
X2784Y3772D01*
X2784Y3774D01*
X2782Y3774D01*
X2782Y3778D01*
X2780Y3778D01*
X2780Y3780D01*
X2778Y3780D01*
X2778Y3786D01*
X2776Y3786D01*
X2776Y3790D01*
X2756Y3790D01*
G37*
D02*
G36*
X2856Y3790D02*
X2856Y3784D01*
X2854Y3784D01*
X2854Y3780D01*
X2852Y3780D01*
X2852Y3776D01*
X2850Y3776D01*
X2850Y3772D01*
X2848Y3772D01*
X2848Y3770D01*
X2846Y3770D01*
X2846Y3768D01*
X2844Y3768D01*
X2844Y3766D01*
X2842Y3766D01*
X2842Y3764D01*
X2838Y3764D01*
X2838Y1378D01*
X3622Y1378D01*
X3622Y1380D01*
X3624Y1380D01*
X3624Y1382D01*
X3626Y1382D01*
X3626Y1384D01*
X3628Y1384D01*
X3628Y1386D01*
X3630Y1386D01*
X3630Y1388D01*
X3632Y1388D01*
X3632Y1390D01*
X3636Y1390D01*
X3636Y1392D01*
X3638Y1392D01*
X3638Y1394D01*
X3644Y1394D01*
X3644Y1396D01*
X3650Y1396D01*
X3650Y1416D01*
X3642Y1416D01*
X3642Y1418D01*
X3638Y1418D01*
X3638Y1420D01*
X3634Y1420D01*
X3634Y1422D01*
X3632Y1422D01*
X3632Y1424D01*
X3628Y1424D01*
X3628Y1426D01*
X3626Y1426D01*
X3626Y1428D01*
X3624Y1428D01*
X3624Y1432D01*
X3622Y1432D01*
X3622Y1434D01*
X2910Y1434D01*
X2910Y1436D01*
X2904Y1436D01*
X2904Y1438D01*
X2902Y1438D01*
X2902Y1440D01*
X2900Y1440D01*
X2900Y1442D01*
X2898Y1442D01*
X2898Y1446D01*
X2896Y1446D01*
X2896Y1452D01*
X2894Y1452D01*
X2894Y3764D01*
X2892Y3764D01*
X2892Y3766D01*
X2890Y3766D01*
X2890Y3768D01*
X2888Y3768D01*
X2888Y3770D01*
X2886Y3770D01*
X2886Y3772D01*
X2884Y3772D01*
X2884Y3774D01*
X2882Y3774D01*
X2882Y3778D01*
X2880Y3778D01*
X2880Y3780D01*
X2878Y3780D01*
X2878Y3786D01*
X2876Y3786D01*
X2876Y3790D01*
X2856Y3790D01*
G37*
D02*
G36*
X2956Y3790D02*
X2956Y3784D01*
X2954Y3784D01*
X2954Y3780D01*
X2952Y3780D01*
X2952Y3776D01*
X2950Y3776D01*
X2950Y3772D01*
X2948Y3772D01*
X2948Y3770D01*
X2946Y3770D01*
X2946Y3768D01*
X2944Y3768D01*
X2944Y3766D01*
X2942Y3766D01*
X2942Y3764D01*
X2938Y3764D01*
X2938Y3756D01*
X3012Y3756D01*
X3012Y3758D01*
X3004Y3758D01*
X3004Y3760D01*
X2998Y3760D01*
X2998Y3762D01*
X2994Y3762D01*
X2994Y3764D01*
X2992Y3764D01*
X2992Y3766D01*
X2990Y3766D01*
X2990Y3768D01*
X2988Y3768D01*
X2988Y3770D01*
X2986Y3770D01*
X2986Y3772D01*
X2984Y3772D01*
X2984Y3774D01*
X2982Y3774D01*
X2982Y3778D01*
X2980Y3778D01*
X2980Y3780D01*
X2978Y3780D01*
X2978Y3786D01*
X2976Y3786D01*
X2976Y3790D01*
X2956Y3790D01*
G37*
D02*
G36*
X3056Y3790D02*
X3056Y3784D01*
X3054Y3784D01*
X3054Y3780D01*
X3052Y3780D01*
X3052Y3776D01*
X3050Y3776D01*
X3050Y3772D01*
X3048Y3772D01*
X3048Y3770D01*
X3046Y3770D01*
X3046Y3768D01*
X3044Y3768D01*
X3044Y3766D01*
X3042Y3766D01*
X3042Y3764D01*
X3038Y3764D01*
X3038Y3762D01*
X3034Y3762D01*
X3034Y3760D01*
X3030Y3760D01*
X3030Y3758D01*
X3022Y3758D01*
X3022Y3756D01*
X3094Y3756D01*
X3094Y3764D01*
X3092Y3764D01*
X3092Y3766D01*
X3090Y3766D01*
X3090Y3768D01*
X3088Y3768D01*
X3088Y3770D01*
X3086Y3770D01*
X3086Y3772D01*
X3084Y3772D01*
X3084Y3774D01*
X3082Y3774D01*
X3082Y3778D01*
X3080Y3778D01*
X3080Y3780D01*
X3078Y3780D01*
X3078Y3786D01*
X3076Y3786D01*
X3076Y3790D01*
X3056Y3790D01*
G37*
D02*
G36*
X2938Y3756D02*
X2938Y3754D01*
X3094Y3754D01*
X3094Y3756D01*
X2938Y3756D01*
G37*
D02*
G36*
X2938Y3756D02*
X2938Y3754D01*
X3094Y3754D01*
X3094Y3756D01*
X2938Y3756D01*
G37*
D02*
G36*
X2938Y3754D02*
X2938Y1478D01*
X3622Y1478D01*
X3622Y1480D01*
X3624Y1480D01*
X3624Y1482D01*
X3626Y1482D01*
X3626Y1484D01*
X3628Y1484D01*
X3628Y1486D01*
X3630Y1486D01*
X3630Y1488D01*
X3632Y1488D01*
X3632Y1490D01*
X3636Y1490D01*
X3636Y1492D01*
X3638Y1492D01*
X3638Y1494D01*
X3644Y1494D01*
X3644Y1496D01*
X3650Y1496D01*
X3650Y1516D01*
X3642Y1516D01*
X3642Y1518D01*
X3638Y1518D01*
X3638Y1520D01*
X3634Y1520D01*
X3634Y1522D01*
X3632Y1522D01*
X3632Y1524D01*
X3628Y1524D01*
X3628Y1526D01*
X3626Y1526D01*
X3626Y1528D01*
X3624Y1528D01*
X3624Y1532D01*
X3622Y1532D01*
X3622Y1534D01*
X3620Y1534D01*
X3620Y1538D01*
X3618Y1538D01*
X3618Y1542D01*
X3616Y1542D01*
X3616Y1552D01*
X3614Y1552D01*
X3614Y1560D01*
X3616Y1560D01*
X3616Y1568D01*
X3618Y1568D01*
X3618Y1574D01*
X3620Y1574D01*
X3620Y1578D01*
X3622Y1578D01*
X3622Y1580D01*
X3624Y1580D01*
X3624Y1582D01*
X3626Y1582D01*
X3626Y1584D01*
X3628Y1584D01*
X3628Y1586D01*
X3630Y1586D01*
X3630Y1588D01*
X3632Y1588D01*
X3632Y1590D01*
X3636Y1590D01*
X3636Y1592D01*
X3638Y1592D01*
X3638Y1594D01*
X3644Y1594D01*
X3644Y1596D01*
X3650Y1596D01*
X3650Y1616D01*
X3642Y1616D01*
X3642Y1618D01*
X3638Y1618D01*
X3638Y1620D01*
X3634Y1620D01*
X3634Y1622D01*
X3632Y1622D01*
X3632Y1624D01*
X3628Y1624D01*
X3628Y1626D01*
X3626Y1626D01*
X3626Y1628D01*
X3624Y1628D01*
X3624Y1632D01*
X3622Y1632D01*
X3622Y1634D01*
X3108Y1634D01*
X3108Y1636D01*
X3104Y1636D01*
X3104Y1638D01*
X3102Y1638D01*
X3102Y1640D01*
X3100Y1640D01*
X3100Y1642D01*
X3098Y1642D01*
X3098Y1646D01*
X3096Y1646D01*
X3096Y1652D01*
X3094Y1652D01*
X3094Y3754D01*
X2938Y3754D01*
G37*
D02*
G36*
X3156Y3790D02*
X3156Y3784D01*
X3154Y3784D01*
X3154Y3780D01*
X3152Y3780D01*
X3152Y3776D01*
X3150Y3776D01*
X3150Y3772D01*
X3148Y3772D01*
X3148Y3770D01*
X3146Y3770D01*
X3146Y3768D01*
X3144Y3768D01*
X3144Y3766D01*
X3142Y3766D01*
X3142Y3764D01*
X3138Y3764D01*
X3138Y1678D01*
X3622Y1678D01*
X3622Y1680D01*
X3624Y1680D01*
X3624Y1682D01*
X3626Y1682D01*
X3626Y1684D01*
X3628Y1684D01*
X3628Y1686D01*
X3630Y1686D01*
X3630Y1688D01*
X3632Y1688D01*
X3632Y1690D01*
X3636Y1690D01*
X3636Y1692D01*
X3638Y1692D01*
X3638Y1694D01*
X3644Y1694D01*
X3644Y1696D01*
X3650Y1696D01*
X3650Y1716D01*
X3642Y1716D01*
X3642Y1718D01*
X3638Y1718D01*
X3638Y1720D01*
X3634Y1720D01*
X3634Y1722D01*
X3632Y1722D01*
X3632Y1724D01*
X3628Y1724D01*
X3628Y1726D01*
X3626Y1726D01*
X3626Y1728D01*
X3624Y1728D01*
X3624Y1732D01*
X3622Y1732D01*
X3622Y1734D01*
X3210Y1734D01*
X3210Y1736D01*
X3204Y1736D01*
X3204Y1738D01*
X3202Y1738D01*
X3202Y1740D01*
X3200Y1740D01*
X3200Y1742D01*
X3198Y1742D01*
X3198Y1746D01*
X3196Y1746D01*
X3196Y1752D01*
X3194Y1752D01*
X3194Y3764D01*
X3192Y3764D01*
X3192Y3766D01*
X3190Y3766D01*
X3190Y3768D01*
X3188Y3768D01*
X3188Y3770D01*
X3186Y3770D01*
X3186Y3772D01*
X3184Y3772D01*
X3184Y3774D01*
X3182Y3774D01*
X3182Y3778D01*
X3180Y3778D01*
X3180Y3782D01*
X3178Y3782D01*
X3178Y3786D01*
X3176Y3786D01*
X3176Y3790D01*
X3156Y3790D01*
G37*
D02*
G36*
X3256Y3790D02*
X3256Y3784D01*
X3254Y3784D01*
X3254Y3780D01*
X3252Y3780D01*
X3252Y3776D01*
X3250Y3776D01*
X3250Y3772D01*
X3248Y3772D01*
X3248Y3770D01*
X3246Y3770D01*
X3246Y3768D01*
X3244Y3768D01*
X3244Y3766D01*
X3242Y3766D01*
X3242Y3764D01*
X3238Y3764D01*
X3238Y1778D01*
X3622Y1778D01*
X3622Y1780D01*
X3624Y1780D01*
X3624Y1782D01*
X3626Y1782D01*
X3626Y1784D01*
X3628Y1784D01*
X3628Y1786D01*
X3630Y1786D01*
X3630Y1788D01*
X3632Y1788D01*
X3632Y1790D01*
X3636Y1790D01*
X3636Y1792D01*
X3638Y1792D01*
X3638Y1794D01*
X3644Y1794D01*
X3644Y1796D01*
X3650Y1796D01*
X3650Y1816D01*
X3642Y1816D01*
X3642Y1818D01*
X3638Y1818D01*
X3638Y1820D01*
X3634Y1820D01*
X3634Y1822D01*
X3632Y1822D01*
X3632Y1824D01*
X3628Y1824D01*
X3628Y1826D01*
X3626Y1826D01*
X3626Y1828D01*
X3624Y1828D01*
X3624Y1832D01*
X3622Y1832D01*
X3622Y1834D01*
X3310Y1834D01*
X3310Y1836D01*
X3304Y1836D01*
X3304Y1838D01*
X3302Y1838D01*
X3302Y1840D01*
X3300Y1840D01*
X3300Y1842D01*
X3298Y1842D01*
X3298Y1846D01*
X3296Y1846D01*
X3296Y1852D01*
X3294Y1852D01*
X3294Y3764D01*
X3292Y3764D01*
X3292Y3766D01*
X3290Y3766D01*
X3290Y3768D01*
X3288Y3768D01*
X3288Y3770D01*
X3286Y3770D01*
X3286Y3772D01*
X3284Y3772D01*
X3284Y3774D01*
X3282Y3774D01*
X3282Y3778D01*
X3280Y3778D01*
X3280Y3780D01*
X3278Y3780D01*
X3278Y3786D01*
X3276Y3786D01*
X3276Y3790D01*
X3256Y3790D01*
G37*
D02*
G36*
X3356Y3790D02*
X3356Y3784D01*
X3354Y3784D01*
X3354Y3780D01*
X3352Y3780D01*
X3352Y3776D01*
X3350Y3776D01*
X3350Y3772D01*
X3348Y3772D01*
X3348Y3770D01*
X3346Y3770D01*
X3346Y3768D01*
X3344Y3768D01*
X3344Y3766D01*
X3342Y3766D01*
X3342Y3764D01*
X3338Y3764D01*
X3338Y1878D01*
X3622Y1878D01*
X3622Y1880D01*
X3624Y1880D01*
X3624Y1882D01*
X3626Y1882D01*
X3626Y1884D01*
X3628Y1884D01*
X3628Y1886D01*
X3630Y1886D01*
X3630Y1888D01*
X3632Y1888D01*
X3632Y1890D01*
X3636Y1890D01*
X3636Y1892D01*
X3638Y1892D01*
X3638Y1894D01*
X3644Y1894D01*
X3644Y1896D01*
X3650Y1896D01*
X3650Y1916D01*
X3642Y1916D01*
X3642Y1918D01*
X3638Y1918D01*
X3638Y1920D01*
X3634Y1920D01*
X3634Y1922D01*
X3632Y1922D01*
X3632Y1924D01*
X3628Y1924D01*
X3628Y1926D01*
X3626Y1926D01*
X3626Y1928D01*
X3624Y1928D01*
X3624Y1932D01*
X3622Y1932D01*
X3622Y1934D01*
X3410Y1934D01*
X3410Y1936D01*
X3404Y1936D01*
X3404Y1938D01*
X3402Y1938D01*
X3402Y1940D01*
X3400Y1940D01*
X3400Y1942D01*
X3398Y1942D01*
X3398Y1946D01*
X3396Y1946D01*
X3396Y1952D01*
X3394Y1952D01*
X3394Y3764D01*
X3392Y3764D01*
X3392Y3766D01*
X3390Y3766D01*
X3390Y3768D01*
X3388Y3768D01*
X3388Y3770D01*
X3386Y3770D01*
X3386Y3772D01*
X3384Y3772D01*
X3384Y3774D01*
X3382Y3774D01*
X3382Y3778D01*
X3380Y3778D01*
X3380Y3780D01*
X3378Y3780D01*
X3378Y3786D01*
X3376Y3786D01*
X3376Y3790D01*
X3356Y3790D01*
G37*
D02*
G36*
X3456Y3790D02*
X3456Y3784D01*
X3454Y3784D01*
X3454Y3780D01*
X3452Y3780D01*
X3452Y3776D01*
X3450Y3776D01*
X3450Y3772D01*
X3448Y3772D01*
X3448Y3770D01*
X3446Y3770D01*
X3446Y3768D01*
X3444Y3768D01*
X3444Y3766D01*
X3442Y3766D01*
X3442Y3764D01*
X3438Y3764D01*
X3438Y2030D01*
X3496Y2030D01*
X3496Y2032D01*
X3488Y2032D01*
X3488Y2034D01*
X3484Y2034D01*
X3484Y2036D01*
X3482Y2036D01*
X3482Y2038D01*
X3480Y2038D01*
X3480Y2040D01*
X3478Y2040D01*
X3478Y2042D01*
X3476Y2042D01*
X3476Y2048D01*
X3474Y2048D01*
X3474Y2522D01*
X3476Y2522D01*
X3476Y3622D01*
X3478Y3622D01*
X3478Y3700D01*
X3480Y3700D01*
X3480Y3712D01*
X3482Y3712D01*
X3482Y3726D01*
X3484Y3726D01*
X3484Y3738D01*
X3486Y3738D01*
X3486Y3772D01*
X3484Y3772D01*
X3484Y3774D01*
X3482Y3774D01*
X3482Y3778D01*
X3480Y3778D01*
X3480Y3780D01*
X3478Y3780D01*
X3478Y3786D01*
X3476Y3786D01*
X3476Y3790D01*
X3456Y3790D01*
G37*
D02*
G36*
X3498Y2032D02*
X3498Y2030D01*
X3624Y2030D01*
X3624Y2032D01*
X3498Y2032D01*
G37*
D02*
G36*
X3438Y2030D02*
X3438Y2028D01*
X3624Y2028D01*
X3624Y2030D01*
X3438Y2030D01*
G37*
D02*
G36*
X3438Y2030D02*
X3438Y2028D01*
X3624Y2028D01*
X3624Y2030D01*
X3438Y2030D01*
G37*
D02*
G36*
X3438Y2028D02*
X3438Y1978D01*
X3622Y1978D01*
X3622Y1980D01*
X3624Y1980D01*
X3624Y1982D01*
X3626Y1982D01*
X3626Y1984D01*
X3628Y1984D01*
X3628Y1986D01*
X3630Y1986D01*
X3630Y1988D01*
X3632Y1988D01*
X3632Y1990D01*
X3636Y1990D01*
X3636Y1992D01*
X3638Y1992D01*
X3638Y1994D01*
X3644Y1994D01*
X3644Y1996D01*
X3650Y1996D01*
X3650Y2016D01*
X3642Y2016D01*
X3642Y2018D01*
X3638Y2018D01*
X3638Y2020D01*
X3634Y2020D01*
X3634Y2022D01*
X3632Y2022D01*
X3632Y2024D01*
X3628Y2024D01*
X3628Y2026D01*
X3626Y2026D01*
X3626Y2028D01*
X3438Y2028D01*
G37*
D02*
G36*
X3556Y3790D02*
X3556Y3784D01*
X3554Y3784D01*
X3554Y3780D01*
X3552Y3780D01*
X3552Y3776D01*
X3550Y3776D01*
X3550Y3772D01*
X3548Y3772D01*
X3548Y3770D01*
X3546Y3770D01*
X3546Y3768D01*
X3544Y3768D01*
X3544Y3766D01*
X3542Y3766D01*
X3542Y3764D01*
X3538Y3764D01*
X3538Y3762D01*
X3534Y3762D01*
X3534Y3760D01*
X3532Y3760D01*
X3532Y3748D01*
X3530Y3748D01*
X3530Y3734D01*
X3528Y3734D01*
X3528Y3722D01*
X3526Y3722D01*
X3526Y3710D01*
X3524Y3710D01*
X3524Y3696D01*
X3522Y3696D01*
X3522Y3616D01*
X3520Y3616D01*
X3520Y2516D01*
X3518Y2516D01*
X3518Y2394D01*
X3538Y2394D01*
X3538Y2402D01*
X3540Y2402D01*
X3540Y2406D01*
X3542Y2406D01*
X3542Y2408D01*
X3544Y2408D01*
X3544Y2410D01*
X3546Y2410D01*
X3546Y2412D01*
X3548Y2412D01*
X3548Y2414D01*
X3550Y2414D01*
X3550Y2416D01*
X3552Y2416D01*
X3552Y2418D01*
X3554Y2418D01*
X3554Y2420D01*
X3556Y2420D01*
X3556Y2422D01*
X3558Y2422D01*
X3558Y2424D01*
X3560Y2424D01*
X3560Y2426D01*
X3562Y2426D01*
X3562Y2428D01*
X3564Y2428D01*
X3564Y2430D01*
X3566Y2430D01*
X3566Y2432D01*
X3568Y2432D01*
X3568Y2434D01*
X3570Y2434D01*
X3570Y2436D01*
X3572Y2436D01*
X3572Y2438D01*
X3574Y2438D01*
X3574Y2440D01*
X3576Y2440D01*
X3576Y2442D01*
X3578Y2442D01*
X3578Y2444D01*
X3580Y2444D01*
X3580Y2446D01*
X3582Y2446D01*
X3582Y2448D01*
X3584Y2448D01*
X3584Y2652D01*
X3586Y2652D01*
X3586Y2894D01*
X3588Y2894D01*
X3588Y3136D01*
X3590Y3136D01*
X3590Y3378D01*
X3592Y3378D01*
X3592Y3620D01*
X3594Y3620D01*
X3594Y3764D01*
X3592Y3764D01*
X3592Y3766D01*
X3590Y3766D01*
X3590Y3768D01*
X3588Y3768D01*
X3588Y3770D01*
X3586Y3770D01*
X3586Y3772D01*
X3584Y3772D01*
X3584Y3774D01*
X3582Y3774D01*
X3582Y3778D01*
X3580Y3778D01*
X3580Y3780D01*
X3578Y3780D01*
X3578Y3786D01*
X3576Y3786D01*
X3576Y3790D01*
X3556Y3790D01*
G37*
D02*
G36*
X1948Y3772D02*
X1948Y3770D01*
X1946Y3770D01*
X1946Y3768D01*
X1944Y3768D01*
X1944Y3766D01*
X1942Y3766D01*
X1942Y3764D01*
X1938Y3764D01*
X1938Y3762D01*
X1934Y3762D01*
X1934Y3760D01*
X1930Y3760D01*
X1930Y3758D01*
X1922Y3758D01*
X1922Y3756D01*
X1914Y3756D01*
X1914Y3754D01*
X1912Y3754D01*
X1912Y3752D01*
X1910Y3752D01*
X1910Y3750D01*
X1908Y3750D01*
X1908Y3746D01*
X1906Y3746D01*
X1906Y3744D01*
X1904Y3744D01*
X1904Y3740D01*
X1902Y3740D01*
X1902Y3738D01*
X1900Y3738D01*
X1900Y3736D01*
X1898Y3736D01*
X1898Y3732D01*
X1896Y3732D01*
X1896Y3730D01*
X1894Y3730D01*
X1894Y3726D01*
X1892Y3726D01*
X1892Y3724D01*
X1890Y3724D01*
X1890Y3720D01*
X1888Y3720D01*
X1888Y3718D01*
X1886Y3718D01*
X1886Y3716D01*
X1884Y3716D01*
X1884Y3712D01*
X1882Y3712D01*
X1882Y3710D01*
X1880Y3710D01*
X1880Y3706D01*
X1878Y3706D01*
X1878Y3704D01*
X1876Y3704D01*
X1876Y3702D01*
X1874Y3702D01*
X1874Y3698D01*
X1872Y3698D01*
X1872Y3696D01*
X1870Y3696D01*
X1870Y3692D01*
X1868Y3692D01*
X1868Y3690D01*
X1866Y3690D01*
X1866Y3688D01*
X1864Y3688D01*
X1864Y3684D01*
X1862Y3684D01*
X1862Y3682D01*
X1860Y3682D01*
X1860Y3678D01*
X1858Y3678D01*
X1858Y3676D01*
X1856Y3676D01*
X1856Y3672D01*
X1854Y3672D01*
X1854Y3670D01*
X1852Y3670D01*
X1852Y3668D01*
X1850Y3668D01*
X1850Y3664D01*
X1848Y3664D01*
X1848Y3662D01*
X1846Y3662D01*
X1846Y3658D01*
X1844Y3658D01*
X1844Y3656D01*
X1842Y3656D01*
X1842Y3654D01*
X1840Y3654D01*
X1840Y3650D01*
X1838Y3650D01*
X1838Y3648D01*
X1836Y3648D01*
X1836Y3644D01*
X1834Y3644D01*
X1834Y2888D01*
X1836Y2888D01*
X1836Y1952D01*
X1838Y1952D01*
X1838Y1014D01*
X1840Y1014D01*
X1840Y478D01*
X3622Y478D01*
X3622Y480D01*
X3624Y480D01*
X3624Y482D01*
X3626Y482D01*
X3626Y484D01*
X3628Y484D01*
X3628Y486D01*
X3630Y486D01*
X3630Y488D01*
X3632Y488D01*
X3632Y490D01*
X3636Y490D01*
X3636Y492D01*
X3638Y492D01*
X3638Y494D01*
X3644Y494D01*
X3644Y496D01*
X3650Y496D01*
X3650Y516D01*
X3642Y516D01*
X3642Y518D01*
X3638Y518D01*
X3638Y520D01*
X3634Y520D01*
X3634Y522D01*
X3632Y522D01*
X3632Y524D01*
X3628Y524D01*
X3628Y526D01*
X3626Y526D01*
X3626Y528D01*
X3624Y528D01*
X3624Y532D01*
X3622Y532D01*
X3622Y534D01*
X3292Y534D01*
X3292Y536D01*
X2774Y536D01*
X2774Y538D01*
X2254Y538D01*
X2254Y540D01*
X1894Y540D01*
X1894Y542D01*
X1890Y542D01*
X1890Y544D01*
X1886Y544D01*
X1886Y546D01*
X1884Y546D01*
X1884Y548D01*
X1882Y548D01*
X1882Y550D01*
X1880Y550D01*
X1880Y556D01*
X1878Y556D01*
X1878Y3656D01*
X1880Y3656D01*
X1880Y3660D01*
X1882Y3660D01*
X1882Y3664D01*
X1884Y3664D01*
X1884Y3666D01*
X1886Y3666D01*
X1886Y3668D01*
X1888Y3668D01*
X1888Y3672D01*
X1890Y3672D01*
X1890Y3674D01*
X1892Y3674D01*
X1892Y3676D01*
X1894Y3676D01*
X1894Y3680D01*
X1896Y3680D01*
X1896Y3682D01*
X1898Y3682D01*
X1898Y3684D01*
X1900Y3684D01*
X1900Y3686D01*
X1902Y3686D01*
X1902Y3690D01*
X1904Y3690D01*
X1904Y3692D01*
X1906Y3692D01*
X1906Y3694D01*
X1908Y3694D01*
X1908Y3696D01*
X1910Y3696D01*
X1910Y3700D01*
X1912Y3700D01*
X1912Y3702D01*
X1914Y3702D01*
X1914Y3704D01*
X1916Y3704D01*
X1916Y3706D01*
X1918Y3706D01*
X1918Y3710D01*
X1920Y3710D01*
X1920Y3712D01*
X1922Y3712D01*
X1922Y3714D01*
X1924Y3714D01*
X1924Y3718D01*
X1926Y3718D01*
X1926Y3720D01*
X1928Y3720D01*
X1928Y3722D01*
X1930Y3722D01*
X1930Y3724D01*
X1932Y3724D01*
X1932Y3728D01*
X1934Y3728D01*
X1934Y3730D01*
X1936Y3730D01*
X1936Y3732D01*
X1938Y3732D01*
X1938Y3734D01*
X1940Y3734D01*
X1940Y3738D01*
X1942Y3738D01*
X1942Y3740D01*
X1944Y3740D01*
X1944Y3742D01*
X1946Y3742D01*
X1946Y3746D01*
X1948Y3746D01*
X1948Y3748D01*
X1950Y3748D01*
X1950Y3750D01*
X1952Y3750D01*
X1952Y3752D01*
X1954Y3752D01*
X1954Y3756D01*
X1956Y3756D01*
X1956Y3758D01*
X1958Y3758D01*
X1958Y3760D01*
X1960Y3760D01*
X1960Y3762D01*
X1962Y3762D01*
X1962Y3766D01*
X1964Y3766D01*
X1964Y3768D01*
X1966Y3768D01*
X1966Y3770D01*
X1968Y3770D01*
X1968Y3772D01*
X1948Y3772D01*
G37*
D02*
G36*
X3518Y2378D02*
X3518Y2076D01*
X3618Y2076D01*
X3618Y2078D01*
X3622Y2078D01*
X3622Y2080D01*
X3624Y2080D01*
X3624Y2082D01*
X3626Y2082D01*
X3626Y2084D01*
X3628Y2084D01*
X3628Y2086D01*
X3630Y2086D01*
X3630Y2088D01*
X3632Y2088D01*
X3632Y2090D01*
X3636Y2090D01*
X3636Y2092D01*
X3638Y2092D01*
X3638Y2094D01*
X3644Y2094D01*
X3644Y2096D01*
X3650Y2096D01*
X3650Y2116D01*
X3642Y2116D01*
X3642Y2118D01*
X3638Y2118D01*
X3638Y2120D01*
X3634Y2120D01*
X3634Y2122D01*
X3632Y2122D01*
X3632Y2124D01*
X3628Y2124D01*
X3628Y2126D01*
X3626Y2126D01*
X3626Y2128D01*
X3624Y2128D01*
X3624Y2132D01*
X3622Y2132D01*
X3622Y2134D01*
X3556Y2134D01*
X3556Y2136D01*
X3552Y2136D01*
X3552Y2138D01*
X3548Y2138D01*
X3548Y2140D01*
X3546Y2140D01*
X3546Y2142D01*
X3544Y2142D01*
X3544Y2146D01*
X3542Y2146D01*
X3542Y2150D01*
X3540Y2150D01*
X3540Y2230D01*
X3538Y2230D01*
X3538Y2378D01*
X3518Y2378D01*
G37*
D02*
G36*
X3696Y2252D02*
X3696Y2244D01*
X3694Y2244D01*
X3694Y2238D01*
X3692Y2238D01*
X3692Y2234D01*
X3690Y2234D01*
X3690Y2232D01*
X3688Y2232D01*
X3688Y2228D01*
X3686Y2228D01*
X3686Y2226D01*
X3684Y2226D01*
X3684Y2224D01*
X3680Y2224D01*
X3680Y2222D01*
X3678Y2222D01*
X3678Y2220D01*
X3674Y2220D01*
X3674Y2218D01*
X3670Y2218D01*
X3670Y2216D01*
X3662Y2216D01*
X3662Y2196D01*
X3668Y2196D01*
X3668Y2194D01*
X3674Y2194D01*
X3674Y2192D01*
X3676Y2192D01*
X3676Y2190D01*
X3680Y2190D01*
X3680Y2188D01*
X3682Y2188D01*
X3682Y2186D01*
X3684Y2186D01*
X3684Y2184D01*
X3686Y2184D01*
X3686Y2182D01*
X3688Y2182D01*
X3688Y2180D01*
X3690Y2180D01*
X3690Y2176D01*
X3692Y2176D01*
X3692Y2174D01*
X3694Y2174D01*
X3694Y2168D01*
X3696Y2168D01*
X3696Y2160D01*
X3716Y2160D01*
X3716Y2168D01*
X3718Y2168D01*
X3718Y2174D01*
X3720Y2174D01*
X3720Y2178D01*
X3722Y2178D01*
X3722Y2180D01*
X3724Y2180D01*
X3724Y2182D01*
X3726Y2182D01*
X3726Y2184D01*
X3728Y2184D01*
X3728Y2186D01*
X3730Y2186D01*
X3730Y2188D01*
X3732Y2188D01*
X3732Y2190D01*
X3736Y2190D01*
X3736Y2192D01*
X3738Y2192D01*
X3738Y2194D01*
X3744Y2194D01*
X3744Y2196D01*
X3750Y2196D01*
X3750Y2216D01*
X3742Y2216D01*
X3742Y2218D01*
X3738Y2218D01*
X3738Y2220D01*
X3734Y2220D01*
X3734Y2222D01*
X3732Y2222D01*
X3732Y2224D01*
X3728Y2224D01*
X3728Y2226D01*
X3726Y2226D01*
X3726Y2228D01*
X3724Y2228D01*
X3724Y2232D01*
X3722Y2232D01*
X3722Y2234D01*
X3720Y2234D01*
X3720Y2238D01*
X3718Y2238D01*
X3718Y2242D01*
X3716Y2242D01*
X3716Y2252D01*
X3696Y2252D01*
G37*
D02*
G36*
X3696Y2152D02*
X3696Y2144D01*
X3694Y2144D01*
X3694Y2138D01*
X3692Y2138D01*
X3692Y2134D01*
X3690Y2134D01*
X3690Y2132D01*
X3688Y2132D01*
X3688Y2128D01*
X3686Y2128D01*
X3686Y2126D01*
X3684Y2126D01*
X3684Y2124D01*
X3680Y2124D01*
X3680Y2122D01*
X3678Y2122D01*
X3678Y2120D01*
X3674Y2120D01*
X3674Y2118D01*
X3670Y2118D01*
X3670Y2116D01*
X3662Y2116D01*
X3662Y2096D01*
X3668Y2096D01*
X3668Y2094D01*
X3674Y2094D01*
X3674Y2092D01*
X3676Y2092D01*
X3676Y2090D01*
X3680Y2090D01*
X3680Y2088D01*
X3682Y2088D01*
X3682Y2086D01*
X3684Y2086D01*
X3684Y2084D01*
X3686Y2084D01*
X3686Y2082D01*
X3688Y2082D01*
X3688Y2080D01*
X3690Y2080D01*
X3690Y2076D01*
X3692Y2076D01*
X3692Y2074D01*
X3694Y2074D01*
X3694Y2068D01*
X3696Y2068D01*
X3696Y2060D01*
X3716Y2060D01*
X3716Y2068D01*
X3718Y2068D01*
X3718Y2074D01*
X3720Y2074D01*
X3720Y2078D01*
X3722Y2078D01*
X3722Y2080D01*
X3724Y2080D01*
X3724Y2082D01*
X3726Y2082D01*
X3726Y2084D01*
X3728Y2084D01*
X3728Y2086D01*
X3730Y2086D01*
X3730Y2088D01*
X3732Y2088D01*
X3732Y2090D01*
X3736Y2090D01*
X3736Y2092D01*
X3738Y2092D01*
X3738Y2094D01*
X3744Y2094D01*
X3744Y2096D01*
X3750Y2096D01*
X3750Y2116D01*
X3742Y2116D01*
X3742Y2118D01*
X3738Y2118D01*
X3738Y2120D01*
X3734Y2120D01*
X3734Y2122D01*
X3732Y2122D01*
X3732Y2124D01*
X3728Y2124D01*
X3728Y2126D01*
X3726Y2126D01*
X3726Y2128D01*
X3724Y2128D01*
X3724Y2132D01*
X3722Y2132D01*
X3722Y2134D01*
X3720Y2134D01*
X3720Y2138D01*
X3718Y2138D01*
X3718Y2142D01*
X3716Y2142D01*
X3716Y2152D01*
X3696Y2152D01*
G37*
D02*
G36*
X4232Y4048D02*
X4232Y4026D01*
X4234Y4026D01*
X4234Y4018D01*
X4236Y4018D01*
X4236Y4012D01*
X4234Y4012D01*
X4234Y4002D01*
X4232Y4002D01*
X4232Y4000D01*
X4230Y4000D01*
X4230Y3996D01*
X4228Y3996D01*
X4228Y2146D01*
X4226Y2146D01*
X4226Y2142D01*
X4224Y2142D01*
X4224Y2140D01*
X4222Y2140D01*
X4222Y2138D01*
X4220Y2138D01*
X4220Y2136D01*
X4218Y2136D01*
X4218Y2134D01*
X4212Y2134D01*
X4212Y2132D01*
X4310Y2132D01*
X4310Y4048D01*
X4232Y4048D01*
G37*
D02*
G36*
X3790Y2134D02*
X3790Y2132D01*
X3938Y2132D01*
X3938Y2134D01*
X3790Y2134D01*
G37*
D02*
G36*
X3788Y2132D02*
X3788Y2130D01*
X4310Y2130D01*
X4310Y2132D01*
X3788Y2132D01*
G37*
D02*
G36*
X3788Y2132D02*
X3788Y2130D01*
X4310Y2130D01*
X4310Y2132D01*
X3788Y2132D01*
G37*
D02*
G36*
X3788Y2130D02*
X3788Y2128D01*
X3786Y2128D01*
X3786Y2126D01*
X3784Y2126D01*
X3784Y2124D01*
X3780Y2124D01*
X3780Y2122D01*
X3778Y2122D01*
X3778Y2120D01*
X3774Y2120D01*
X3774Y2118D01*
X3770Y2118D01*
X3770Y2116D01*
X3762Y2116D01*
X3762Y2096D01*
X3768Y2096D01*
X3768Y2094D01*
X3774Y2094D01*
X3774Y2092D01*
X3776Y2092D01*
X3776Y2090D01*
X3780Y2090D01*
X3780Y2088D01*
X3782Y2088D01*
X3782Y2086D01*
X3784Y2086D01*
X3784Y2084D01*
X3786Y2084D01*
X3786Y2082D01*
X3788Y2082D01*
X3788Y2080D01*
X3790Y2080D01*
X3790Y2078D01*
X4310Y2078D01*
X4310Y2130D01*
X3788Y2130D01*
G37*
D02*
G36*
X3696Y2052D02*
X3696Y2044D01*
X3694Y2044D01*
X3694Y2038D01*
X3692Y2038D01*
X3692Y2034D01*
X3690Y2034D01*
X3690Y2032D01*
X3688Y2032D01*
X3688Y2028D01*
X3686Y2028D01*
X3686Y2026D01*
X3684Y2026D01*
X3684Y2024D01*
X3680Y2024D01*
X3680Y2022D01*
X3678Y2022D01*
X3678Y2020D01*
X3674Y2020D01*
X3674Y2018D01*
X3670Y2018D01*
X3670Y2016D01*
X3662Y2016D01*
X3662Y1996D01*
X3668Y1996D01*
X3668Y1994D01*
X3674Y1994D01*
X3674Y1992D01*
X3676Y1992D01*
X3676Y1990D01*
X3680Y1990D01*
X3680Y1988D01*
X3682Y1988D01*
X3682Y1986D01*
X3684Y1986D01*
X3684Y1984D01*
X3686Y1984D01*
X3686Y1982D01*
X3688Y1982D01*
X3688Y1980D01*
X3690Y1980D01*
X3690Y1976D01*
X3692Y1976D01*
X3692Y1974D01*
X3694Y1974D01*
X3694Y1968D01*
X3696Y1968D01*
X3696Y1960D01*
X3716Y1960D01*
X3716Y1968D01*
X3718Y1968D01*
X3718Y1974D01*
X3720Y1974D01*
X3720Y1978D01*
X3722Y1978D01*
X3722Y1980D01*
X3724Y1980D01*
X3724Y1982D01*
X3726Y1982D01*
X3726Y1984D01*
X3728Y1984D01*
X3728Y1986D01*
X3730Y1986D01*
X3730Y1988D01*
X3732Y1988D01*
X3732Y1990D01*
X3736Y1990D01*
X3736Y1992D01*
X3738Y1992D01*
X3738Y1994D01*
X3744Y1994D01*
X3744Y1996D01*
X3750Y1996D01*
X3750Y2016D01*
X3742Y2016D01*
X3742Y2018D01*
X3738Y2018D01*
X3738Y2020D01*
X3734Y2020D01*
X3734Y2022D01*
X3732Y2022D01*
X3732Y2024D01*
X3728Y2024D01*
X3728Y2026D01*
X3726Y2026D01*
X3726Y2028D01*
X3724Y2028D01*
X3724Y2032D01*
X3722Y2032D01*
X3722Y2034D01*
X3720Y2034D01*
X3720Y2038D01*
X3718Y2038D01*
X3718Y2042D01*
X3716Y2042D01*
X3716Y2052D01*
X3696Y2052D01*
G37*
D02*
G36*
X3696Y1952D02*
X3696Y1944D01*
X3694Y1944D01*
X3694Y1938D01*
X3692Y1938D01*
X3692Y1934D01*
X3690Y1934D01*
X3690Y1932D01*
X3688Y1932D01*
X3688Y1928D01*
X3686Y1928D01*
X3686Y1926D01*
X3684Y1926D01*
X3684Y1924D01*
X3680Y1924D01*
X3680Y1922D01*
X3678Y1922D01*
X3678Y1920D01*
X3674Y1920D01*
X3674Y1918D01*
X3670Y1918D01*
X3670Y1916D01*
X3662Y1916D01*
X3662Y1896D01*
X3668Y1896D01*
X3668Y1894D01*
X3674Y1894D01*
X3674Y1892D01*
X3676Y1892D01*
X3676Y1890D01*
X3680Y1890D01*
X3680Y1888D01*
X3682Y1888D01*
X3682Y1886D01*
X3684Y1886D01*
X3684Y1884D01*
X3686Y1884D01*
X3686Y1882D01*
X3688Y1882D01*
X3688Y1880D01*
X3690Y1880D01*
X3690Y1876D01*
X3692Y1876D01*
X3692Y1874D01*
X3694Y1874D01*
X3694Y1868D01*
X3696Y1868D01*
X3696Y1860D01*
X3716Y1860D01*
X3716Y1868D01*
X3718Y1868D01*
X3718Y1874D01*
X3720Y1874D01*
X3720Y1878D01*
X3722Y1878D01*
X3722Y1880D01*
X3724Y1880D01*
X3724Y1882D01*
X3726Y1882D01*
X3726Y1884D01*
X3728Y1884D01*
X3728Y1886D01*
X3730Y1886D01*
X3730Y1888D01*
X3732Y1888D01*
X3732Y1890D01*
X3736Y1890D01*
X3736Y1892D01*
X3738Y1892D01*
X3738Y1894D01*
X3744Y1894D01*
X3744Y1896D01*
X3750Y1896D01*
X3750Y1916D01*
X3742Y1916D01*
X3742Y1918D01*
X3738Y1918D01*
X3738Y1920D01*
X3734Y1920D01*
X3734Y1922D01*
X3732Y1922D01*
X3732Y1924D01*
X3728Y1924D01*
X3728Y1926D01*
X3726Y1926D01*
X3726Y1928D01*
X3724Y1928D01*
X3724Y1932D01*
X3722Y1932D01*
X3722Y1934D01*
X3720Y1934D01*
X3720Y1938D01*
X3718Y1938D01*
X3718Y1942D01*
X3716Y1942D01*
X3716Y1952D01*
X3696Y1952D01*
G37*
D02*
G36*
X3696Y1852D02*
X3696Y1844D01*
X3694Y1844D01*
X3694Y1838D01*
X3692Y1838D01*
X3692Y1834D01*
X3690Y1834D01*
X3690Y1832D01*
X3688Y1832D01*
X3688Y1828D01*
X3686Y1828D01*
X3686Y1826D01*
X3684Y1826D01*
X3684Y1824D01*
X3680Y1824D01*
X3680Y1822D01*
X3678Y1822D01*
X3678Y1820D01*
X3674Y1820D01*
X3674Y1818D01*
X3670Y1818D01*
X3670Y1816D01*
X3662Y1816D01*
X3662Y1796D01*
X3668Y1796D01*
X3668Y1794D01*
X3674Y1794D01*
X3674Y1792D01*
X3676Y1792D01*
X3676Y1790D01*
X3680Y1790D01*
X3680Y1788D01*
X3682Y1788D01*
X3682Y1786D01*
X3684Y1786D01*
X3684Y1784D01*
X3686Y1784D01*
X3686Y1782D01*
X3688Y1782D01*
X3688Y1780D01*
X3690Y1780D01*
X3690Y1776D01*
X3692Y1776D01*
X3692Y1774D01*
X3694Y1774D01*
X3694Y1768D01*
X3696Y1768D01*
X3696Y1760D01*
X3716Y1760D01*
X3716Y1768D01*
X3718Y1768D01*
X3718Y1774D01*
X3720Y1774D01*
X3720Y1778D01*
X3722Y1778D01*
X3722Y1780D01*
X3724Y1780D01*
X3724Y1782D01*
X3726Y1782D01*
X3726Y1784D01*
X3728Y1784D01*
X3728Y1786D01*
X3730Y1786D01*
X3730Y1788D01*
X3732Y1788D01*
X3732Y1790D01*
X3736Y1790D01*
X3736Y1792D01*
X3738Y1792D01*
X3738Y1794D01*
X3744Y1794D01*
X3744Y1796D01*
X3750Y1796D01*
X3750Y1816D01*
X3742Y1816D01*
X3742Y1818D01*
X3738Y1818D01*
X3738Y1820D01*
X3734Y1820D01*
X3734Y1822D01*
X3732Y1822D01*
X3732Y1824D01*
X3728Y1824D01*
X3728Y1826D01*
X3726Y1826D01*
X3726Y1828D01*
X3724Y1828D01*
X3724Y1832D01*
X3722Y1832D01*
X3722Y1834D01*
X3720Y1834D01*
X3720Y1838D01*
X3718Y1838D01*
X3718Y1842D01*
X3716Y1842D01*
X3716Y1852D01*
X3696Y1852D01*
G37*
D02*
G36*
X2786Y4196D02*
X2786Y4176D01*
X2784Y4176D01*
X2784Y4170D01*
X2782Y4170D01*
X2782Y4166D01*
X2780Y4166D01*
X2780Y4164D01*
X2778Y4164D01*
X2778Y4162D01*
X2776Y4162D01*
X2776Y4160D01*
X2774Y4160D01*
X2774Y4158D01*
X2770Y4158D01*
X2770Y4156D01*
X2766Y4156D01*
X2766Y4154D01*
X4460Y4154D01*
X4460Y4152D01*
X4464Y4152D01*
X4464Y4150D01*
X4468Y4150D01*
X4468Y4148D01*
X4470Y4148D01*
X4470Y4146D01*
X4474Y4146D01*
X4474Y4142D01*
X4476Y4142D01*
X4476Y4140D01*
X4478Y4140D01*
X4478Y4136D01*
X4480Y4136D01*
X4480Y4130D01*
X4482Y4130D01*
X4482Y4120D01*
X4480Y4120D01*
X4480Y4112D01*
X4478Y4112D01*
X4478Y4108D01*
X4476Y4108D01*
X4476Y4106D01*
X4474Y4106D01*
X4474Y3130D01*
X4476Y3130D01*
X4476Y1738D01*
X4474Y1738D01*
X4474Y1734D01*
X4472Y1734D01*
X4472Y1732D01*
X4470Y1732D01*
X4470Y1730D01*
X4468Y1730D01*
X4468Y1728D01*
X4464Y1728D01*
X4464Y1726D01*
X4458Y1726D01*
X4458Y1724D01*
X4540Y1724D01*
X4540Y1906D01*
X4542Y1906D01*
X4542Y2402D01*
X4544Y2402D01*
X4544Y2900D01*
X4546Y2900D01*
X4546Y3396D01*
X4548Y3396D01*
X4548Y3892D01*
X4550Y3892D01*
X4550Y4162D01*
X4548Y4162D01*
X4548Y4164D01*
X4546Y4164D01*
X4546Y4168D01*
X4544Y4168D01*
X4544Y4176D01*
X4542Y4176D01*
X4542Y4196D01*
X2786Y4196D01*
G37*
D02*
G36*
X2708Y4160D02*
X2708Y4154D01*
X2748Y4154D01*
X2748Y4156D01*
X2742Y4156D01*
X2742Y4158D01*
X2740Y4158D01*
X2740Y4160D01*
X2708Y4160D01*
G37*
D02*
G36*
X2708Y4154D02*
X2708Y4152D01*
X4444Y4152D01*
X4444Y4154D01*
X2708Y4154D01*
G37*
D02*
G36*
X2708Y4154D02*
X2708Y4152D01*
X4444Y4152D01*
X4444Y4154D01*
X2708Y4154D01*
G37*
D02*
G36*
X2708Y4152D02*
X2708Y4140D01*
X2710Y4140D01*
X2710Y4138D01*
X2712Y4138D01*
X2712Y4134D01*
X2714Y4134D01*
X2714Y4130D01*
X2716Y4130D01*
X2716Y4114D01*
X2714Y4114D01*
X2714Y4108D01*
X2712Y4108D01*
X2712Y4104D01*
X2710Y4104D01*
X2710Y4102D01*
X2708Y4102D01*
X2708Y4100D01*
X3540Y4100D01*
X3540Y4098D01*
X3546Y4098D01*
X3546Y4096D01*
X3548Y4096D01*
X3548Y4094D01*
X3552Y4094D01*
X3552Y4092D01*
X4320Y4092D01*
X4320Y4090D01*
X4342Y4090D01*
X4342Y4088D01*
X4344Y4088D01*
X4344Y4086D01*
X4348Y4086D01*
X4348Y4084D01*
X4350Y4084D01*
X4350Y4080D01*
X4352Y4080D01*
X4352Y4076D01*
X4354Y4076D01*
X4354Y2048D01*
X4352Y2048D01*
X4352Y2044D01*
X4350Y2044D01*
X4350Y2042D01*
X4348Y2042D01*
X4348Y2040D01*
X4346Y2040D01*
X4346Y2038D01*
X4344Y2038D01*
X4344Y2036D01*
X4340Y2036D01*
X4340Y2034D01*
X3790Y2034D01*
X3790Y2032D01*
X3788Y2032D01*
X3788Y2028D01*
X3786Y2028D01*
X3786Y2026D01*
X3784Y2026D01*
X3784Y2024D01*
X3780Y2024D01*
X3780Y2022D01*
X3778Y2022D01*
X3778Y2020D01*
X3774Y2020D01*
X3774Y2018D01*
X3770Y2018D01*
X3770Y2016D01*
X3762Y2016D01*
X3762Y1996D01*
X3768Y1996D01*
X3768Y1994D01*
X3774Y1994D01*
X3774Y1992D01*
X3776Y1992D01*
X3776Y1990D01*
X3780Y1990D01*
X3780Y1988D01*
X3782Y1988D01*
X3782Y1986D01*
X3784Y1986D01*
X3784Y1984D01*
X3786Y1984D01*
X3786Y1982D01*
X3918Y1982D01*
X3918Y1980D01*
X3928Y1980D01*
X3928Y1978D01*
X3936Y1978D01*
X3936Y1976D01*
X3940Y1976D01*
X3940Y1974D01*
X3944Y1974D01*
X3944Y1972D01*
X3948Y1972D01*
X3948Y1970D01*
X3952Y1970D01*
X3952Y1968D01*
X3954Y1968D01*
X3954Y1966D01*
X3956Y1966D01*
X3956Y1964D01*
X3960Y1964D01*
X3960Y1962D01*
X3962Y1962D01*
X3962Y1960D01*
X3964Y1960D01*
X3964Y1958D01*
X3966Y1958D01*
X3966Y1956D01*
X3968Y1956D01*
X3968Y1954D01*
X3970Y1954D01*
X3970Y1950D01*
X3972Y1950D01*
X3972Y1948D01*
X3974Y1948D01*
X3974Y1946D01*
X3976Y1946D01*
X3976Y1942D01*
X3978Y1942D01*
X3978Y1938D01*
X3980Y1938D01*
X3980Y1934D01*
X3982Y1934D01*
X3982Y1930D01*
X3984Y1930D01*
X3984Y1922D01*
X3986Y1922D01*
X3986Y1912D01*
X3988Y1912D01*
X3988Y1894D01*
X3986Y1894D01*
X3986Y1882D01*
X3984Y1882D01*
X3984Y1876D01*
X3982Y1876D01*
X3982Y1870D01*
X3980Y1870D01*
X3980Y1866D01*
X3978Y1866D01*
X3978Y1864D01*
X3976Y1864D01*
X3976Y1860D01*
X3974Y1860D01*
X3974Y1856D01*
X3972Y1856D01*
X3972Y1854D01*
X3970Y1854D01*
X3970Y1852D01*
X3968Y1852D01*
X3968Y1850D01*
X3966Y1850D01*
X3966Y1848D01*
X3964Y1848D01*
X3964Y1846D01*
X3962Y1846D01*
X3962Y1844D01*
X3960Y1844D01*
X3960Y1842D01*
X3958Y1842D01*
X3958Y1840D01*
X3956Y1840D01*
X3956Y1838D01*
X3952Y1838D01*
X3952Y1836D01*
X3950Y1836D01*
X3950Y1834D01*
X3946Y1834D01*
X3946Y1832D01*
X3942Y1832D01*
X3942Y1830D01*
X3938Y1830D01*
X3938Y1828D01*
X3932Y1828D01*
X3932Y1826D01*
X3924Y1826D01*
X3924Y1824D01*
X4432Y1824D01*
X4432Y3122D01*
X4430Y3122D01*
X4430Y4106D01*
X4428Y4106D01*
X4428Y4108D01*
X4426Y4108D01*
X4426Y4112D01*
X4424Y4112D01*
X4424Y4118D01*
X4422Y4118D01*
X4422Y4130D01*
X4424Y4130D01*
X4424Y4136D01*
X4426Y4136D01*
X4426Y4140D01*
X4428Y4140D01*
X4428Y4144D01*
X4430Y4144D01*
X4430Y4146D01*
X4432Y4146D01*
X4432Y4148D01*
X4436Y4148D01*
X4436Y4150D01*
X4440Y4150D01*
X4440Y4152D01*
X2708Y4152D01*
G37*
D02*
G36*
X916Y4102D02*
X916Y4100D01*
X914Y4100D01*
X914Y4098D01*
X910Y4098D01*
X910Y4092D01*
X2678Y4092D01*
X2678Y4094D01*
X2674Y4094D01*
X2674Y4096D01*
X2670Y4096D01*
X2670Y4098D01*
X2668Y4098D01*
X2668Y4100D01*
X1396Y4100D01*
X1396Y4102D01*
X916Y4102D01*
G37*
D02*
G36*
X2706Y4100D02*
X2706Y4098D01*
X2704Y4098D01*
X2704Y4096D01*
X2700Y4096D01*
X2700Y4094D01*
X2694Y4094D01*
X2694Y4092D01*
X3514Y4092D01*
X3514Y4094D01*
X3516Y4094D01*
X3516Y4096D01*
X3520Y4096D01*
X3520Y4098D01*
X3524Y4098D01*
X3524Y4100D01*
X2706Y4100D01*
G37*
D02*
G36*
X910Y4092D02*
X910Y4090D01*
X3510Y4090D01*
X3510Y4092D01*
X910Y4092D01*
G37*
D02*
G36*
X910Y4092D02*
X910Y4090D01*
X3510Y4090D01*
X3510Y4092D01*
X910Y4092D01*
G37*
D02*
G36*
X910Y4090D02*
X910Y4078D01*
X2002Y4078D01*
X2002Y4076D01*
X2006Y4076D01*
X2006Y4074D01*
X2010Y4074D01*
X2010Y4072D01*
X2012Y4072D01*
X2012Y4070D01*
X2014Y4070D01*
X2014Y4066D01*
X2016Y4066D01*
X2016Y4064D01*
X2018Y4064D01*
X2018Y4062D01*
X2020Y4062D01*
X2020Y4058D01*
X2022Y4058D01*
X2022Y4056D01*
X2024Y4056D01*
X2024Y4054D01*
X2026Y4054D01*
X2026Y4050D01*
X2028Y4050D01*
X2028Y4048D01*
X2030Y4048D01*
X2030Y4046D01*
X2032Y4046D01*
X2032Y4042D01*
X2034Y4042D01*
X2034Y4040D01*
X3530Y4040D01*
X3530Y4042D01*
X3522Y4042D01*
X3522Y4044D01*
X3518Y4044D01*
X3518Y4046D01*
X3514Y4046D01*
X3514Y4048D01*
X3512Y4048D01*
X3512Y4050D01*
X3510Y4050D01*
X3510Y4052D01*
X3508Y4052D01*
X3508Y4056D01*
X3506Y4056D01*
X3506Y4058D01*
X3504Y4058D01*
X3504Y4066D01*
X3502Y4066D01*
X3502Y4074D01*
X3504Y4074D01*
X3504Y4082D01*
X3506Y4082D01*
X3506Y4086D01*
X3508Y4086D01*
X3508Y4088D01*
X3510Y4088D01*
X3510Y4090D01*
X910Y4090D01*
G37*
D02*
G36*
X3550Y4048D02*
X3550Y4046D01*
X3548Y4046D01*
X3548Y4044D01*
X3544Y4044D01*
X3544Y4042D01*
X3534Y4042D01*
X3534Y4040D01*
X4180Y4040D01*
X4180Y4048D01*
X3550Y4048D01*
G37*
D02*
G36*
X2036Y4040D02*
X2036Y4038D01*
X4180Y4038D01*
X4180Y4040D01*
X2036Y4040D01*
G37*
D02*
G36*
X2036Y4040D02*
X2036Y4038D01*
X4180Y4038D01*
X4180Y4040D01*
X2036Y4040D01*
G37*
D02*
G36*
X2038Y4038D02*
X2038Y4036D01*
X2040Y4036D01*
X2040Y4032D01*
X2042Y4032D01*
X2042Y4030D01*
X2044Y4030D01*
X2044Y4028D01*
X2046Y4028D01*
X2046Y4024D01*
X2048Y4024D01*
X2048Y4022D01*
X2050Y4022D01*
X2050Y4020D01*
X2052Y4020D01*
X2052Y4016D01*
X2054Y4016D01*
X2054Y4014D01*
X2056Y4014D01*
X2056Y4012D01*
X2058Y4012D01*
X2058Y4010D01*
X2060Y4010D01*
X2060Y4006D01*
X2062Y4006D01*
X2062Y4004D01*
X2064Y4004D01*
X2064Y4002D01*
X2066Y4002D01*
X2066Y3998D01*
X2068Y3998D01*
X2068Y3996D01*
X2070Y3996D01*
X2070Y3994D01*
X2072Y3994D01*
X2072Y3990D01*
X2074Y3990D01*
X2074Y3988D01*
X2076Y3988D01*
X2076Y3986D01*
X2078Y3986D01*
X2078Y3982D01*
X2080Y3982D01*
X2080Y3980D01*
X2082Y3980D01*
X2082Y3978D01*
X2084Y3978D01*
X2084Y3976D01*
X2086Y3976D01*
X2086Y3972D01*
X2088Y3972D01*
X2088Y3970D01*
X2090Y3970D01*
X2090Y3968D01*
X4086Y3968D01*
X4086Y3966D01*
X4094Y3966D01*
X4094Y3964D01*
X4098Y3964D01*
X4098Y3962D01*
X4100Y3962D01*
X4100Y3960D01*
X4102Y3960D01*
X4102Y3958D01*
X4104Y3958D01*
X4104Y3956D01*
X4106Y3956D01*
X4106Y3952D01*
X4108Y3952D01*
X4108Y3950D01*
X4110Y3950D01*
X4110Y3942D01*
X4112Y3942D01*
X4112Y3934D01*
X4110Y3934D01*
X4110Y3926D01*
X4108Y3926D01*
X4108Y3922D01*
X4106Y3922D01*
X4106Y3920D01*
X4104Y3920D01*
X4104Y3702D01*
X4102Y3702D01*
X4102Y3008D01*
X4100Y3008D01*
X4100Y2314D01*
X4098Y2314D01*
X4098Y2242D01*
X4096Y2242D01*
X4096Y2238D01*
X4094Y2238D01*
X4094Y2236D01*
X4092Y2236D01*
X4092Y2234D01*
X4090Y2234D01*
X4090Y2232D01*
X4086Y2232D01*
X4086Y2230D01*
X4082Y2230D01*
X4082Y2228D01*
X4184Y2228D01*
X4184Y3996D01*
X4182Y3996D01*
X4182Y3998D01*
X4180Y3998D01*
X4180Y4002D01*
X4178Y4002D01*
X4178Y4008D01*
X4176Y4008D01*
X4176Y4022D01*
X4178Y4022D01*
X4178Y4028D01*
X4180Y4028D01*
X4180Y4038D01*
X2038Y4038D01*
G37*
D02*
G36*
X2092Y3968D02*
X2092Y3964D01*
X2094Y3964D01*
X2094Y3962D01*
X2096Y3962D01*
X2096Y3960D01*
X2098Y3960D01*
X2098Y3956D01*
X2100Y3956D01*
X2100Y3954D01*
X2102Y3954D01*
X2102Y3952D01*
X2104Y3952D01*
X2104Y3950D01*
X2106Y3950D01*
X2106Y3946D01*
X2108Y3946D01*
X2108Y3944D01*
X2110Y3944D01*
X2110Y3942D01*
X2112Y3942D01*
X2112Y3940D01*
X3718Y3940D01*
X3718Y3938D01*
X3728Y3938D01*
X3728Y3936D01*
X3734Y3936D01*
X3734Y3934D01*
X3738Y3934D01*
X3738Y3932D01*
X3740Y3932D01*
X3740Y3930D01*
X3744Y3930D01*
X3744Y3928D01*
X3746Y3928D01*
X3746Y3926D01*
X3748Y3926D01*
X3748Y3922D01*
X3750Y3922D01*
X3750Y3920D01*
X3752Y3920D01*
X3752Y3916D01*
X3754Y3916D01*
X3754Y3912D01*
X3756Y3912D01*
X3756Y3910D01*
X3926Y3910D01*
X3926Y3908D01*
X3932Y3908D01*
X3932Y3906D01*
X3938Y3906D01*
X3938Y3904D01*
X3942Y3904D01*
X3942Y3902D01*
X3946Y3902D01*
X3946Y3900D01*
X3950Y3900D01*
X3950Y3898D01*
X3954Y3898D01*
X3954Y3896D01*
X3956Y3896D01*
X3956Y3894D01*
X3958Y3894D01*
X3958Y3892D01*
X3960Y3892D01*
X3960Y3890D01*
X3964Y3890D01*
X3964Y3888D01*
X3966Y3888D01*
X3966Y3884D01*
X3968Y3884D01*
X3968Y3882D01*
X3970Y3882D01*
X3970Y3880D01*
X3972Y3880D01*
X3972Y3878D01*
X3974Y3878D01*
X3974Y3874D01*
X3976Y3874D01*
X3976Y3872D01*
X3978Y3872D01*
X3978Y3868D01*
X3980Y3868D01*
X3980Y3864D01*
X3982Y3864D01*
X3982Y3858D01*
X3984Y3858D01*
X3984Y3852D01*
X3986Y3852D01*
X3986Y3840D01*
X3988Y3840D01*
X3988Y3822D01*
X3986Y3822D01*
X3986Y3812D01*
X3984Y3812D01*
X3984Y3806D01*
X3982Y3806D01*
X3982Y3800D01*
X3980Y3800D01*
X3980Y3796D01*
X3978Y3796D01*
X3978Y3792D01*
X3976Y3792D01*
X3976Y3788D01*
X3974Y3788D01*
X3974Y3786D01*
X3972Y3786D01*
X3972Y3784D01*
X3970Y3784D01*
X3970Y3780D01*
X3968Y3780D01*
X3968Y3778D01*
X3966Y3778D01*
X3966Y3776D01*
X3964Y3776D01*
X3964Y3774D01*
X3962Y3774D01*
X3962Y3772D01*
X3960Y3772D01*
X3960Y3770D01*
X3956Y3770D01*
X3956Y3768D01*
X3954Y3768D01*
X3954Y3766D01*
X3950Y3766D01*
X3950Y3764D01*
X3948Y3764D01*
X3948Y3762D01*
X3944Y3762D01*
X3944Y3760D01*
X3940Y3760D01*
X3940Y3758D01*
X3934Y3758D01*
X3934Y3756D01*
X3928Y3756D01*
X3928Y3754D01*
X3916Y3754D01*
X3916Y3752D01*
X4060Y3752D01*
X4060Y3918D01*
X4058Y3918D01*
X4058Y3922D01*
X4056Y3922D01*
X4056Y3926D01*
X4054Y3926D01*
X4054Y3930D01*
X4052Y3930D01*
X4052Y3944D01*
X4054Y3944D01*
X4054Y3950D01*
X4056Y3950D01*
X4056Y3954D01*
X4058Y3954D01*
X4058Y3956D01*
X4060Y3956D01*
X4060Y3960D01*
X4064Y3960D01*
X4064Y3962D01*
X4066Y3962D01*
X4066Y3964D01*
X4070Y3964D01*
X4070Y3966D01*
X4078Y3966D01*
X4078Y3968D01*
X2092Y3968D01*
G37*
D02*
G36*
X2118Y3940D02*
X2118Y3938D01*
X2128Y3938D01*
X2128Y3936D01*
X2134Y3936D01*
X2134Y3934D01*
X2138Y3934D01*
X2138Y3932D01*
X2140Y3932D01*
X2140Y3930D01*
X2144Y3930D01*
X2144Y3928D01*
X2146Y3928D01*
X2146Y3926D01*
X2148Y3926D01*
X2148Y3922D01*
X2150Y3922D01*
X2150Y3920D01*
X2152Y3920D01*
X2152Y3916D01*
X2154Y3916D01*
X2154Y3912D01*
X2156Y3912D01*
X2156Y3904D01*
X2176Y3904D01*
X2176Y3908D01*
X2178Y3908D01*
X2178Y3914D01*
X2180Y3914D01*
X2180Y3918D01*
X2182Y3918D01*
X2182Y3922D01*
X2184Y3922D01*
X2184Y3924D01*
X2186Y3924D01*
X2186Y3926D01*
X2188Y3926D01*
X2188Y3928D01*
X2190Y3928D01*
X2190Y3930D01*
X2192Y3930D01*
X2192Y3932D01*
X2196Y3932D01*
X2196Y3934D01*
X2198Y3934D01*
X2198Y3936D01*
X2204Y3936D01*
X2204Y3938D01*
X2214Y3938D01*
X2214Y3940D01*
X2118Y3940D01*
G37*
D02*
G36*
X2218Y3940D02*
X2218Y3938D01*
X2228Y3938D01*
X2228Y3936D01*
X2234Y3936D01*
X2234Y3934D01*
X2238Y3934D01*
X2238Y3932D01*
X2240Y3932D01*
X2240Y3930D01*
X2244Y3930D01*
X2244Y3928D01*
X2246Y3928D01*
X2246Y3926D01*
X2248Y3926D01*
X2248Y3922D01*
X2250Y3922D01*
X2250Y3920D01*
X2252Y3920D01*
X2252Y3916D01*
X2254Y3916D01*
X2254Y3912D01*
X2256Y3912D01*
X2256Y3904D01*
X2276Y3904D01*
X2276Y3908D01*
X2278Y3908D01*
X2278Y3914D01*
X2280Y3914D01*
X2280Y3918D01*
X2282Y3918D01*
X2282Y3922D01*
X2284Y3922D01*
X2284Y3924D01*
X2286Y3924D01*
X2286Y3926D01*
X2288Y3926D01*
X2288Y3928D01*
X2290Y3928D01*
X2290Y3930D01*
X2292Y3930D01*
X2292Y3932D01*
X2296Y3932D01*
X2296Y3934D01*
X2298Y3934D01*
X2298Y3936D01*
X2304Y3936D01*
X2304Y3938D01*
X2314Y3938D01*
X2314Y3940D01*
X2218Y3940D01*
G37*
D02*
G36*
X2318Y3940D02*
X2318Y3938D01*
X2328Y3938D01*
X2328Y3936D01*
X2334Y3936D01*
X2334Y3934D01*
X2338Y3934D01*
X2338Y3932D01*
X2340Y3932D01*
X2340Y3930D01*
X2344Y3930D01*
X2344Y3928D01*
X2346Y3928D01*
X2346Y3926D01*
X2348Y3926D01*
X2348Y3922D01*
X2350Y3922D01*
X2350Y3920D01*
X2352Y3920D01*
X2352Y3916D01*
X2354Y3916D01*
X2354Y3912D01*
X2356Y3912D01*
X2356Y3904D01*
X2376Y3904D01*
X2376Y3908D01*
X2378Y3908D01*
X2378Y3914D01*
X2380Y3914D01*
X2380Y3918D01*
X2382Y3918D01*
X2382Y3922D01*
X2384Y3922D01*
X2384Y3924D01*
X2386Y3924D01*
X2386Y3926D01*
X2388Y3926D01*
X2388Y3928D01*
X2390Y3928D01*
X2390Y3930D01*
X2392Y3930D01*
X2392Y3932D01*
X2396Y3932D01*
X2396Y3934D01*
X2398Y3934D01*
X2398Y3936D01*
X2404Y3936D01*
X2404Y3938D01*
X2414Y3938D01*
X2414Y3940D01*
X2318Y3940D01*
G37*
D02*
G36*
X2418Y3940D02*
X2418Y3938D01*
X2428Y3938D01*
X2428Y3936D01*
X2434Y3936D01*
X2434Y3934D01*
X2438Y3934D01*
X2438Y3932D01*
X2440Y3932D01*
X2440Y3930D01*
X2444Y3930D01*
X2444Y3928D01*
X2446Y3928D01*
X2446Y3926D01*
X2448Y3926D01*
X2448Y3922D01*
X2450Y3922D01*
X2450Y3920D01*
X2452Y3920D01*
X2452Y3916D01*
X2454Y3916D01*
X2454Y3912D01*
X2456Y3912D01*
X2456Y3904D01*
X2476Y3904D01*
X2476Y3908D01*
X2478Y3908D01*
X2478Y3914D01*
X2480Y3914D01*
X2480Y3918D01*
X2482Y3918D01*
X2482Y3922D01*
X2484Y3922D01*
X2484Y3924D01*
X2486Y3924D01*
X2486Y3926D01*
X2488Y3926D01*
X2488Y3928D01*
X2490Y3928D01*
X2490Y3930D01*
X2492Y3930D01*
X2492Y3932D01*
X2496Y3932D01*
X2496Y3934D01*
X2498Y3934D01*
X2498Y3936D01*
X2504Y3936D01*
X2504Y3938D01*
X2514Y3938D01*
X2514Y3940D01*
X2418Y3940D01*
G37*
D02*
G36*
X2518Y3940D02*
X2518Y3938D01*
X2528Y3938D01*
X2528Y3936D01*
X2534Y3936D01*
X2534Y3934D01*
X2538Y3934D01*
X2538Y3932D01*
X2540Y3932D01*
X2540Y3930D01*
X2544Y3930D01*
X2544Y3928D01*
X2546Y3928D01*
X2546Y3926D01*
X2548Y3926D01*
X2548Y3922D01*
X2550Y3922D01*
X2550Y3920D01*
X2552Y3920D01*
X2552Y3916D01*
X2554Y3916D01*
X2554Y3912D01*
X2556Y3912D01*
X2556Y3904D01*
X2576Y3904D01*
X2576Y3908D01*
X2578Y3908D01*
X2578Y3914D01*
X2580Y3914D01*
X2580Y3918D01*
X2582Y3918D01*
X2582Y3922D01*
X2584Y3922D01*
X2584Y3924D01*
X2586Y3924D01*
X2586Y3926D01*
X2588Y3926D01*
X2588Y3928D01*
X2590Y3928D01*
X2590Y3930D01*
X2592Y3930D01*
X2592Y3932D01*
X2596Y3932D01*
X2596Y3934D01*
X2598Y3934D01*
X2598Y3936D01*
X2604Y3936D01*
X2604Y3938D01*
X2614Y3938D01*
X2614Y3940D01*
X2518Y3940D01*
G37*
D02*
G36*
X2618Y3940D02*
X2618Y3938D01*
X2628Y3938D01*
X2628Y3936D01*
X2634Y3936D01*
X2634Y3934D01*
X2638Y3934D01*
X2638Y3932D01*
X2640Y3932D01*
X2640Y3930D01*
X2644Y3930D01*
X2644Y3928D01*
X2646Y3928D01*
X2646Y3926D01*
X2648Y3926D01*
X2648Y3922D01*
X2650Y3922D01*
X2650Y3920D01*
X2652Y3920D01*
X2652Y3916D01*
X2654Y3916D01*
X2654Y3912D01*
X2656Y3912D01*
X2656Y3904D01*
X2676Y3904D01*
X2676Y3908D01*
X2678Y3908D01*
X2678Y3914D01*
X2680Y3914D01*
X2680Y3918D01*
X2682Y3918D01*
X2682Y3922D01*
X2684Y3922D01*
X2684Y3924D01*
X2686Y3924D01*
X2686Y3926D01*
X2688Y3926D01*
X2688Y3928D01*
X2690Y3928D01*
X2690Y3930D01*
X2692Y3930D01*
X2692Y3932D01*
X2696Y3932D01*
X2696Y3934D01*
X2698Y3934D01*
X2698Y3936D01*
X2704Y3936D01*
X2704Y3938D01*
X2714Y3938D01*
X2714Y3940D01*
X2618Y3940D01*
G37*
D02*
G36*
X2718Y3940D02*
X2718Y3938D01*
X2728Y3938D01*
X2728Y3936D01*
X2734Y3936D01*
X2734Y3934D01*
X2738Y3934D01*
X2738Y3932D01*
X2740Y3932D01*
X2740Y3930D01*
X2744Y3930D01*
X2744Y3928D01*
X2746Y3928D01*
X2746Y3926D01*
X2748Y3926D01*
X2748Y3922D01*
X2750Y3922D01*
X2750Y3920D01*
X2752Y3920D01*
X2752Y3916D01*
X2754Y3916D01*
X2754Y3912D01*
X2756Y3912D01*
X2756Y3904D01*
X2776Y3904D01*
X2776Y3908D01*
X2778Y3908D01*
X2778Y3914D01*
X2780Y3914D01*
X2780Y3918D01*
X2782Y3918D01*
X2782Y3922D01*
X2784Y3922D01*
X2784Y3924D01*
X2786Y3924D01*
X2786Y3926D01*
X2788Y3926D01*
X2788Y3928D01*
X2790Y3928D01*
X2790Y3930D01*
X2792Y3930D01*
X2792Y3932D01*
X2796Y3932D01*
X2796Y3934D01*
X2798Y3934D01*
X2798Y3936D01*
X2804Y3936D01*
X2804Y3938D01*
X2814Y3938D01*
X2814Y3940D01*
X2718Y3940D01*
G37*
D02*
G36*
X2818Y3940D02*
X2818Y3938D01*
X2828Y3938D01*
X2828Y3936D01*
X2834Y3936D01*
X2834Y3934D01*
X2838Y3934D01*
X2838Y3932D01*
X2840Y3932D01*
X2840Y3930D01*
X2844Y3930D01*
X2844Y3928D01*
X2846Y3928D01*
X2846Y3926D01*
X2848Y3926D01*
X2848Y3922D01*
X2850Y3922D01*
X2850Y3920D01*
X2852Y3920D01*
X2852Y3916D01*
X2854Y3916D01*
X2854Y3912D01*
X2856Y3912D01*
X2856Y3904D01*
X2876Y3904D01*
X2876Y3908D01*
X2878Y3908D01*
X2878Y3914D01*
X2880Y3914D01*
X2880Y3918D01*
X2882Y3918D01*
X2882Y3922D01*
X2884Y3922D01*
X2884Y3924D01*
X2886Y3924D01*
X2886Y3926D01*
X2888Y3926D01*
X2888Y3928D01*
X2890Y3928D01*
X2890Y3930D01*
X2892Y3930D01*
X2892Y3932D01*
X2896Y3932D01*
X2896Y3934D01*
X2898Y3934D01*
X2898Y3936D01*
X2904Y3936D01*
X2904Y3938D01*
X2914Y3938D01*
X2914Y3940D01*
X2818Y3940D01*
G37*
D02*
G36*
X2918Y3940D02*
X2918Y3938D01*
X2928Y3938D01*
X2928Y3936D01*
X2934Y3936D01*
X2934Y3934D01*
X2938Y3934D01*
X2938Y3932D01*
X2940Y3932D01*
X2940Y3930D01*
X2944Y3930D01*
X2944Y3928D01*
X2946Y3928D01*
X2946Y3926D01*
X2948Y3926D01*
X2948Y3922D01*
X2950Y3922D01*
X2950Y3920D01*
X2952Y3920D01*
X2952Y3916D01*
X2954Y3916D01*
X2954Y3912D01*
X2956Y3912D01*
X2956Y3904D01*
X2976Y3904D01*
X2976Y3908D01*
X2978Y3908D01*
X2978Y3914D01*
X2980Y3914D01*
X2980Y3918D01*
X2982Y3918D01*
X2982Y3922D01*
X2984Y3922D01*
X2984Y3924D01*
X2986Y3924D01*
X2986Y3926D01*
X2988Y3926D01*
X2988Y3928D01*
X2990Y3928D01*
X2990Y3930D01*
X2992Y3930D01*
X2992Y3932D01*
X2996Y3932D01*
X2996Y3934D01*
X2998Y3934D01*
X2998Y3936D01*
X3004Y3936D01*
X3004Y3938D01*
X3014Y3938D01*
X3014Y3940D01*
X2918Y3940D01*
G37*
D02*
G36*
X3018Y3940D02*
X3018Y3938D01*
X3028Y3938D01*
X3028Y3936D01*
X3034Y3936D01*
X3034Y3934D01*
X3038Y3934D01*
X3038Y3932D01*
X3040Y3932D01*
X3040Y3930D01*
X3044Y3930D01*
X3044Y3928D01*
X3046Y3928D01*
X3046Y3926D01*
X3048Y3926D01*
X3048Y3922D01*
X3050Y3922D01*
X3050Y3920D01*
X3052Y3920D01*
X3052Y3916D01*
X3054Y3916D01*
X3054Y3912D01*
X3056Y3912D01*
X3056Y3904D01*
X3076Y3904D01*
X3076Y3908D01*
X3078Y3908D01*
X3078Y3914D01*
X3080Y3914D01*
X3080Y3918D01*
X3082Y3918D01*
X3082Y3922D01*
X3084Y3922D01*
X3084Y3924D01*
X3086Y3924D01*
X3086Y3926D01*
X3088Y3926D01*
X3088Y3928D01*
X3090Y3928D01*
X3090Y3930D01*
X3092Y3930D01*
X3092Y3932D01*
X3096Y3932D01*
X3096Y3934D01*
X3098Y3934D01*
X3098Y3936D01*
X3104Y3936D01*
X3104Y3938D01*
X3114Y3938D01*
X3114Y3940D01*
X3018Y3940D01*
G37*
D02*
G36*
X3118Y3940D02*
X3118Y3938D01*
X3128Y3938D01*
X3128Y3936D01*
X3134Y3936D01*
X3134Y3934D01*
X3138Y3934D01*
X3138Y3932D01*
X3140Y3932D01*
X3140Y3930D01*
X3144Y3930D01*
X3144Y3928D01*
X3146Y3928D01*
X3146Y3926D01*
X3148Y3926D01*
X3148Y3922D01*
X3150Y3922D01*
X3150Y3920D01*
X3152Y3920D01*
X3152Y3916D01*
X3154Y3916D01*
X3154Y3912D01*
X3156Y3912D01*
X3156Y3904D01*
X3176Y3904D01*
X3176Y3908D01*
X3178Y3908D01*
X3178Y3914D01*
X3180Y3914D01*
X3180Y3918D01*
X3182Y3918D01*
X3182Y3922D01*
X3184Y3922D01*
X3184Y3924D01*
X3186Y3924D01*
X3186Y3926D01*
X3188Y3926D01*
X3188Y3928D01*
X3190Y3928D01*
X3190Y3930D01*
X3192Y3930D01*
X3192Y3932D01*
X3196Y3932D01*
X3196Y3934D01*
X3198Y3934D01*
X3198Y3936D01*
X3204Y3936D01*
X3204Y3938D01*
X3214Y3938D01*
X3214Y3940D01*
X3118Y3940D01*
G37*
D02*
G36*
X3218Y3940D02*
X3218Y3938D01*
X3228Y3938D01*
X3228Y3936D01*
X3234Y3936D01*
X3234Y3934D01*
X3238Y3934D01*
X3238Y3932D01*
X3240Y3932D01*
X3240Y3930D01*
X3244Y3930D01*
X3244Y3928D01*
X3246Y3928D01*
X3246Y3926D01*
X3248Y3926D01*
X3248Y3922D01*
X3250Y3922D01*
X3250Y3920D01*
X3252Y3920D01*
X3252Y3916D01*
X3254Y3916D01*
X3254Y3912D01*
X3256Y3912D01*
X3256Y3906D01*
X3276Y3906D01*
X3276Y3908D01*
X3278Y3908D01*
X3278Y3914D01*
X3280Y3914D01*
X3280Y3918D01*
X3282Y3918D01*
X3282Y3922D01*
X3284Y3922D01*
X3284Y3924D01*
X3286Y3924D01*
X3286Y3926D01*
X3288Y3926D01*
X3288Y3928D01*
X3290Y3928D01*
X3290Y3930D01*
X3292Y3930D01*
X3292Y3932D01*
X3296Y3932D01*
X3296Y3934D01*
X3298Y3934D01*
X3298Y3936D01*
X3304Y3936D01*
X3304Y3938D01*
X3314Y3938D01*
X3314Y3940D01*
X3218Y3940D01*
G37*
D02*
G36*
X3318Y3940D02*
X3318Y3938D01*
X3328Y3938D01*
X3328Y3936D01*
X3334Y3936D01*
X3334Y3934D01*
X3338Y3934D01*
X3338Y3932D01*
X3340Y3932D01*
X3340Y3930D01*
X3344Y3930D01*
X3344Y3928D01*
X3346Y3928D01*
X3346Y3926D01*
X3348Y3926D01*
X3348Y3922D01*
X3350Y3922D01*
X3350Y3920D01*
X3352Y3920D01*
X3352Y3916D01*
X3354Y3916D01*
X3354Y3912D01*
X3356Y3912D01*
X3356Y3904D01*
X3376Y3904D01*
X3376Y3908D01*
X3378Y3908D01*
X3378Y3914D01*
X3380Y3914D01*
X3380Y3918D01*
X3382Y3918D01*
X3382Y3922D01*
X3384Y3922D01*
X3384Y3924D01*
X3386Y3924D01*
X3386Y3926D01*
X3388Y3926D01*
X3388Y3928D01*
X3390Y3928D01*
X3390Y3930D01*
X3392Y3930D01*
X3392Y3932D01*
X3396Y3932D01*
X3396Y3934D01*
X3398Y3934D01*
X3398Y3936D01*
X3404Y3936D01*
X3404Y3938D01*
X3414Y3938D01*
X3414Y3940D01*
X3318Y3940D01*
G37*
D02*
G36*
X3418Y3940D02*
X3418Y3938D01*
X3428Y3938D01*
X3428Y3936D01*
X3434Y3936D01*
X3434Y3934D01*
X3438Y3934D01*
X3438Y3932D01*
X3440Y3932D01*
X3440Y3930D01*
X3444Y3930D01*
X3444Y3928D01*
X3446Y3928D01*
X3446Y3926D01*
X3448Y3926D01*
X3448Y3922D01*
X3450Y3922D01*
X3450Y3920D01*
X3452Y3920D01*
X3452Y3916D01*
X3454Y3916D01*
X3454Y3912D01*
X3456Y3912D01*
X3456Y3904D01*
X3476Y3904D01*
X3476Y3908D01*
X3478Y3908D01*
X3478Y3914D01*
X3480Y3914D01*
X3480Y3918D01*
X3482Y3918D01*
X3482Y3922D01*
X3484Y3922D01*
X3484Y3924D01*
X3486Y3924D01*
X3486Y3926D01*
X3488Y3926D01*
X3488Y3928D01*
X3490Y3928D01*
X3490Y3930D01*
X3492Y3930D01*
X3492Y3932D01*
X3496Y3932D01*
X3496Y3934D01*
X3498Y3934D01*
X3498Y3936D01*
X3504Y3936D01*
X3504Y3938D01*
X3514Y3938D01*
X3514Y3940D01*
X3418Y3940D01*
G37*
D02*
G36*
X3518Y3940D02*
X3518Y3938D01*
X3528Y3938D01*
X3528Y3936D01*
X3534Y3936D01*
X3534Y3934D01*
X3538Y3934D01*
X3538Y3932D01*
X3540Y3932D01*
X3540Y3930D01*
X3544Y3930D01*
X3544Y3928D01*
X3546Y3928D01*
X3546Y3926D01*
X3548Y3926D01*
X3548Y3922D01*
X3550Y3922D01*
X3550Y3920D01*
X3552Y3920D01*
X3552Y3916D01*
X3554Y3916D01*
X3554Y3912D01*
X3556Y3912D01*
X3556Y3904D01*
X3576Y3904D01*
X3576Y3908D01*
X3578Y3908D01*
X3578Y3914D01*
X3580Y3914D01*
X3580Y3918D01*
X3582Y3918D01*
X3582Y3922D01*
X3584Y3922D01*
X3584Y3924D01*
X3586Y3924D01*
X3586Y3926D01*
X3588Y3926D01*
X3588Y3928D01*
X3590Y3928D01*
X3590Y3930D01*
X3592Y3930D01*
X3592Y3932D01*
X3596Y3932D01*
X3596Y3934D01*
X3598Y3934D01*
X3598Y3936D01*
X3604Y3936D01*
X3604Y3938D01*
X3614Y3938D01*
X3614Y3940D01*
X3518Y3940D01*
G37*
D02*
G36*
X3618Y3940D02*
X3618Y3938D01*
X3628Y3938D01*
X3628Y3936D01*
X3634Y3936D01*
X3634Y3934D01*
X3638Y3934D01*
X3638Y3932D01*
X3640Y3932D01*
X3640Y3930D01*
X3644Y3930D01*
X3644Y3928D01*
X3646Y3928D01*
X3646Y3926D01*
X3648Y3926D01*
X3648Y3922D01*
X3650Y3922D01*
X3650Y3920D01*
X3652Y3920D01*
X3652Y3916D01*
X3654Y3916D01*
X3654Y3912D01*
X3656Y3912D01*
X3656Y3904D01*
X3676Y3904D01*
X3676Y3908D01*
X3678Y3908D01*
X3678Y3914D01*
X3680Y3914D01*
X3680Y3918D01*
X3682Y3918D01*
X3682Y3922D01*
X3684Y3922D01*
X3684Y3924D01*
X3686Y3924D01*
X3686Y3926D01*
X3688Y3926D01*
X3688Y3928D01*
X3690Y3928D01*
X3690Y3930D01*
X3692Y3930D01*
X3692Y3932D01*
X3696Y3932D01*
X3696Y3934D01*
X3698Y3934D01*
X3698Y3936D01*
X3704Y3936D01*
X3704Y3938D01*
X3714Y3938D01*
X3714Y3940D01*
X3618Y3940D01*
G37*
D02*
G36*
X3756Y3910D02*
X3756Y3906D01*
X3758Y3906D01*
X3758Y3890D01*
X3756Y3890D01*
X3756Y3884D01*
X3754Y3884D01*
X3754Y3880D01*
X3752Y3880D01*
X3752Y3876D01*
X3750Y3876D01*
X3750Y3872D01*
X3748Y3872D01*
X3748Y3870D01*
X3746Y3870D01*
X3746Y3868D01*
X3744Y3868D01*
X3744Y3866D01*
X3742Y3866D01*
X3742Y3864D01*
X3738Y3864D01*
X3738Y3862D01*
X3734Y3862D01*
X3734Y3860D01*
X3730Y3860D01*
X3730Y3858D01*
X3722Y3858D01*
X3722Y3838D01*
X3728Y3838D01*
X3728Y3836D01*
X3734Y3836D01*
X3734Y3834D01*
X3738Y3834D01*
X3738Y3832D01*
X3740Y3832D01*
X3740Y3830D01*
X3744Y3830D01*
X3744Y3828D01*
X3746Y3828D01*
X3746Y3826D01*
X3748Y3826D01*
X3748Y3822D01*
X3750Y3822D01*
X3750Y3820D01*
X3752Y3820D01*
X3752Y3816D01*
X3754Y3816D01*
X3754Y3812D01*
X3756Y3812D01*
X3756Y3806D01*
X3758Y3806D01*
X3758Y3790D01*
X3756Y3790D01*
X3756Y3784D01*
X3754Y3784D01*
X3754Y3780D01*
X3752Y3780D01*
X3752Y3776D01*
X3750Y3776D01*
X3750Y3772D01*
X3748Y3772D01*
X3748Y3770D01*
X3746Y3770D01*
X3746Y3768D01*
X3744Y3768D01*
X3744Y3766D01*
X3742Y3766D01*
X3742Y3764D01*
X3738Y3764D01*
X3738Y3762D01*
X3734Y3762D01*
X3734Y3760D01*
X3730Y3760D01*
X3730Y3758D01*
X3722Y3758D01*
X3722Y3756D01*
X3882Y3756D01*
X3882Y3758D01*
X3876Y3758D01*
X3876Y3760D01*
X3872Y3760D01*
X3872Y3762D01*
X3870Y3762D01*
X3870Y3764D01*
X3866Y3764D01*
X3866Y3766D01*
X3862Y3766D01*
X3862Y3768D01*
X3860Y3768D01*
X3860Y3770D01*
X3858Y3770D01*
X3858Y3772D01*
X3856Y3772D01*
X3856Y3774D01*
X3854Y3774D01*
X3854Y3776D01*
X3852Y3776D01*
X3852Y3778D01*
X3850Y3778D01*
X3850Y3780D01*
X3848Y3780D01*
X3848Y3782D01*
X3846Y3782D01*
X3846Y3784D01*
X3844Y3784D01*
X3844Y3788D01*
X3842Y3788D01*
X3842Y3790D01*
X3840Y3790D01*
X3840Y3794D01*
X3838Y3794D01*
X3838Y3798D01*
X3836Y3798D01*
X3836Y3802D01*
X3834Y3802D01*
X3834Y3808D01*
X3832Y3808D01*
X3832Y3816D01*
X3830Y3816D01*
X3830Y3848D01*
X3832Y3848D01*
X3832Y3856D01*
X3834Y3856D01*
X3834Y3862D01*
X3836Y3862D01*
X3836Y3866D01*
X3838Y3866D01*
X3838Y3870D01*
X3840Y3870D01*
X3840Y3872D01*
X3842Y3872D01*
X3842Y3876D01*
X3844Y3876D01*
X3844Y3878D01*
X3846Y3878D01*
X3846Y3882D01*
X3848Y3882D01*
X3848Y3884D01*
X3850Y3884D01*
X3850Y3886D01*
X3852Y3886D01*
X3852Y3888D01*
X3854Y3888D01*
X3854Y3890D01*
X3856Y3890D01*
X3856Y3892D01*
X3858Y3892D01*
X3858Y3894D01*
X3862Y3894D01*
X3862Y3896D01*
X3864Y3896D01*
X3864Y3898D01*
X3868Y3898D01*
X3868Y3900D01*
X3870Y3900D01*
X3870Y3902D01*
X3874Y3902D01*
X3874Y3904D01*
X3878Y3904D01*
X3878Y3906D01*
X3884Y3906D01*
X3884Y3908D01*
X3892Y3908D01*
X3892Y3910D01*
X3756Y3910D01*
G37*
D02*
G36*
X3656Y3790D02*
X3656Y3784D01*
X3654Y3784D01*
X3654Y3780D01*
X3652Y3780D01*
X3652Y3776D01*
X3650Y3776D01*
X3650Y3772D01*
X3648Y3772D01*
X3648Y3770D01*
X3646Y3770D01*
X3646Y3768D01*
X3644Y3768D01*
X3644Y3766D01*
X3642Y3766D01*
X3642Y3764D01*
X3638Y3764D01*
X3638Y3756D01*
X3712Y3756D01*
X3712Y3758D01*
X3704Y3758D01*
X3704Y3760D01*
X3698Y3760D01*
X3698Y3762D01*
X3694Y3762D01*
X3694Y3764D01*
X3692Y3764D01*
X3692Y3766D01*
X3690Y3766D01*
X3690Y3768D01*
X3688Y3768D01*
X3688Y3770D01*
X3686Y3770D01*
X3686Y3772D01*
X3684Y3772D01*
X3684Y3774D01*
X3682Y3774D01*
X3682Y3778D01*
X3680Y3778D01*
X3680Y3782D01*
X3678Y3782D01*
X3678Y3786D01*
X3676Y3786D01*
X3676Y3790D01*
X3656Y3790D01*
G37*
D02*
G36*
X3638Y3756D02*
X3638Y3754D01*
X3890Y3754D01*
X3890Y3756D01*
X3638Y3756D01*
G37*
D02*
G36*
X3638Y3756D02*
X3638Y3754D01*
X3890Y3754D01*
X3890Y3756D01*
X3638Y3756D01*
G37*
D02*
G36*
X3638Y3754D02*
X3638Y3752D01*
X3900Y3752D01*
X3900Y3754D01*
X3638Y3754D01*
G37*
D02*
G36*
X3638Y3752D02*
X3638Y3750D01*
X4060Y3750D01*
X4060Y3752D01*
X3638Y3752D01*
G37*
D02*
G36*
X3638Y3752D02*
X3638Y3750D01*
X4060Y3750D01*
X4060Y3752D01*
X3638Y3752D01*
G37*
D02*
G36*
X3638Y3750D02*
X3638Y3618D01*
X3636Y3618D01*
X3636Y3376D01*
X3634Y3376D01*
X3634Y3134D01*
X3632Y3134D01*
X3632Y2892D01*
X3630Y2892D01*
X3630Y2650D01*
X3628Y2650D01*
X3628Y2436D01*
X3626Y2436D01*
X3626Y2430D01*
X3624Y2430D01*
X3624Y2426D01*
X3622Y2426D01*
X3622Y2424D01*
X3620Y2424D01*
X3620Y2422D01*
X3618Y2422D01*
X3618Y2420D01*
X3616Y2420D01*
X3616Y2418D01*
X3614Y2418D01*
X3614Y2416D01*
X3612Y2416D01*
X3612Y2414D01*
X3610Y2414D01*
X3610Y2412D01*
X3608Y2412D01*
X3608Y2410D01*
X3606Y2410D01*
X3606Y2408D01*
X3604Y2408D01*
X3604Y2406D01*
X3602Y2406D01*
X3602Y2404D01*
X3600Y2404D01*
X3600Y2402D01*
X3598Y2402D01*
X3598Y2400D01*
X3596Y2400D01*
X3596Y2398D01*
X3594Y2398D01*
X3594Y2396D01*
X3592Y2396D01*
X3592Y2394D01*
X3590Y2394D01*
X3590Y2392D01*
X3588Y2392D01*
X3588Y2390D01*
X3586Y2390D01*
X3586Y2388D01*
X3584Y2388D01*
X3584Y2386D01*
X3582Y2386D01*
X3582Y2296D01*
X3768Y2296D01*
X3768Y2294D01*
X3774Y2294D01*
X3774Y2292D01*
X3776Y2292D01*
X3776Y2290D01*
X3780Y2290D01*
X3780Y2288D01*
X3782Y2288D01*
X3782Y2286D01*
X3784Y2286D01*
X3784Y2284D01*
X3786Y2284D01*
X3786Y2282D01*
X3788Y2282D01*
X3788Y2280D01*
X3790Y2280D01*
X3790Y2278D01*
X3794Y2278D01*
X3794Y2276D01*
X3918Y2276D01*
X3918Y2274D01*
X4054Y2274D01*
X4054Y2320D01*
X4056Y2320D01*
X4056Y3012D01*
X4058Y3012D01*
X4058Y3706D01*
X4060Y3706D01*
X4060Y3750D01*
X3638Y3750D01*
G37*
D02*
G36*
X3582Y2296D02*
X3582Y2230D01*
X3584Y2230D01*
X3584Y2178D01*
X3622Y2178D01*
X3622Y2180D01*
X3624Y2180D01*
X3624Y2182D01*
X3626Y2182D01*
X3626Y2184D01*
X3628Y2184D01*
X3628Y2186D01*
X3630Y2186D01*
X3630Y2188D01*
X3632Y2188D01*
X3632Y2190D01*
X3636Y2190D01*
X3636Y2192D01*
X3638Y2192D01*
X3638Y2194D01*
X3644Y2194D01*
X3644Y2196D01*
X3650Y2196D01*
X3650Y2216D01*
X3642Y2216D01*
X3642Y2218D01*
X3638Y2218D01*
X3638Y2220D01*
X3634Y2220D01*
X3634Y2222D01*
X3632Y2222D01*
X3632Y2224D01*
X3628Y2224D01*
X3628Y2226D01*
X3626Y2226D01*
X3626Y2228D01*
X3624Y2228D01*
X3624Y2232D01*
X3622Y2232D01*
X3622Y2234D01*
X3620Y2234D01*
X3620Y2238D01*
X3618Y2238D01*
X3618Y2242D01*
X3616Y2242D01*
X3616Y2252D01*
X3614Y2252D01*
X3614Y2260D01*
X3616Y2260D01*
X3616Y2268D01*
X3618Y2268D01*
X3618Y2274D01*
X3620Y2274D01*
X3620Y2278D01*
X3622Y2278D01*
X3622Y2280D01*
X3624Y2280D01*
X3624Y2282D01*
X3626Y2282D01*
X3626Y2284D01*
X3628Y2284D01*
X3628Y2286D01*
X3630Y2286D01*
X3630Y2288D01*
X3632Y2288D01*
X3632Y2290D01*
X3636Y2290D01*
X3636Y2292D01*
X3638Y2292D01*
X3638Y2294D01*
X3644Y2294D01*
X3644Y2296D01*
X3582Y2296D01*
G37*
D02*
G36*
X3668Y2296D02*
X3668Y2294D01*
X3674Y2294D01*
X3674Y2292D01*
X3676Y2292D01*
X3676Y2290D01*
X3680Y2290D01*
X3680Y2288D01*
X3682Y2288D01*
X3682Y2286D01*
X3684Y2286D01*
X3684Y2284D01*
X3686Y2284D01*
X3686Y2282D01*
X3688Y2282D01*
X3688Y2280D01*
X3690Y2280D01*
X3690Y2276D01*
X3692Y2276D01*
X3692Y2274D01*
X3694Y2274D01*
X3694Y2268D01*
X3696Y2268D01*
X3696Y2260D01*
X3716Y2260D01*
X3716Y2268D01*
X3718Y2268D01*
X3718Y2274D01*
X3720Y2274D01*
X3720Y2278D01*
X3722Y2278D01*
X3722Y2280D01*
X3724Y2280D01*
X3724Y2282D01*
X3726Y2282D01*
X3726Y2284D01*
X3728Y2284D01*
X3728Y2286D01*
X3730Y2286D01*
X3730Y2288D01*
X3732Y2288D01*
X3732Y2290D01*
X3736Y2290D01*
X3736Y2292D01*
X3738Y2292D01*
X3738Y2294D01*
X3744Y2294D01*
X3744Y2296D01*
X3668Y2296D01*
G37*
D02*
G36*
X3788Y2232D02*
X3788Y2228D01*
X4042Y2228D01*
X4042Y2230D01*
X3918Y2230D01*
X3918Y2232D01*
X3788Y2232D01*
G37*
D02*
G36*
X3786Y2228D02*
X3786Y2226D01*
X4184Y2226D01*
X4184Y2228D01*
X3786Y2228D01*
G37*
D02*
G36*
X3786Y2228D02*
X3786Y2226D01*
X4184Y2226D01*
X4184Y2228D01*
X3786Y2228D01*
G37*
D02*
G36*
X3784Y2226D02*
X3784Y2224D01*
X3780Y2224D01*
X3780Y2222D01*
X3778Y2222D01*
X3778Y2220D01*
X3774Y2220D01*
X3774Y2218D01*
X3770Y2218D01*
X3770Y2216D01*
X3762Y2216D01*
X3762Y2196D01*
X3768Y2196D01*
X3768Y2194D01*
X3774Y2194D01*
X3774Y2192D01*
X3776Y2192D01*
X3776Y2190D01*
X3780Y2190D01*
X3780Y2188D01*
X3782Y2188D01*
X3782Y2186D01*
X3784Y2186D01*
X3784Y2184D01*
X3786Y2184D01*
X3786Y2182D01*
X3788Y2182D01*
X3788Y2180D01*
X3790Y2180D01*
X3790Y2178D01*
X3944Y2178D01*
X3944Y2176D01*
X4184Y2176D01*
X4184Y2226D01*
X3784Y2226D01*
G37*
D02*
G36*
X3788Y1982D02*
X3788Y1980D01*
X3790Y1980D01*
X3790Y1976D01*
X3792Y1976D01*
X3792Y1974D01*
X3794Y1974D01*
X3794Y1968D01*
X3796Y1968D01*
X3796Y1958D01*
X3798Y1958D01*
X3798Y1954D01*
X3796Y1954D01*
X3796Y1944D01*
X3794Y1944D01*
X3794Y1938D01*
X3792Y1938D01*
X3792Y1934D01*
X3790Y1934D01*
X3790Y1932D01*
X3788Y1932D01*
X3788Y1928D01*
X3786Y1928D01*
X3786Y1926D01*
X3784Y1926D01*
X3784Y1924D01*
X3780Y1924D01*
X3780Y1922D01*
X3778Y1922D01*
X3778Y1920D01*
X3774Y1920D01*
X3774Y1918D01*
X3770Y1918D01*
X3770Y1916D01*
X3762Y1916D01*
X3762Y1896D01*
X3768Y1896D01*
X3768Y1894D01*
X3774Y1894D01*
X3774Y1892D01*
X3776Y1892D01*
X3776Y1890D01*
X3780Y1890D01*
X3780Y1888D01*
X3782Y1888D01*
X3782Y1886D01*
X3784Y1886D01*
X3784Y1884D01*
X3786Y1884D01*
X3786Y1882D01*
X3788Y1882D01*
X3788Y1880D01*
X3790Y1880D01*
X3790Y1876D01*
X3792Y1876D01*
X3792Y1874D01*
X3794Y1874D01*
X3794Y1868D01*
X3796Y1868D01*
X3796Y1858D01*
X3798Y1858D01*
X3798Y1850D01*
X3802Y1850D01*
X3802Y1848D01*
X3804Y1848D01*
X3804Y1846D01*
X3806Y1846D01*
X3806Y1844D01*
X3810Y1844D01*
X3810Y1842D01*
X3812Y1842D01*
X3812Y1840D01*
X3814Y1840D01*
X3814Y1838D01*
X3818Y1838D01*
X3818Y1836D01*
X3820Y1836D01*
X3820Y1834D01*
X3822Y1834D01*
X3822Y1832D01*
X3826Y1832D01*
X3826Y1830D01*
X3828Y1830D01*
X3828Y1828D01*
X3830Y1828D01*
X3830Y1826D01*
X3834Y1826D01*
X3834Y1824D01*
X3892Y1824D01*
X3892Y1826D01*
X3884Y1826D01*
X3884Y1828D01*
X3880Y1828D01*
X3880Y1830D01*
X3874Y1830D01*
X3874Y1832D01*
X3870Y1832D01*
X3870Y1834D01*
X3868Y1834D01*
X3868Y1836D01*
X3864Y1836D01*
X3864Y1838D01*
X3862Y1838D01*
X3862Y1840D01*
X3858Y1840D01*
X3858Y1842D01*
X3856Y1842D01*
X3856Y1844D01*
X3854Y1844D01*
X3854Y1846D01*
X3852Y1846D01*
X3852Y1848D01*
X3850Y1848D01*
X3850Y1850D01*
X3848Y1850D01*
X3848Y1852D01*
X3846Y1852D01*
X3846Y1856D01*
X3844Y1856D01*
X3844Y1858D01*
X3842Y1858D01*
X3842Y1862D01*
X3840Y1862D01*
X3840Y1864D01*
X3838Y1864D01*
X3838Y1868D01*
X3836Y1868D01*
X3836Y1872D01*
X3834Y1872D01*
X3834Y1878D01*
X3832Y1878D01*
X3832Y1886D01*
X3830Y1886D01*
X3830Y1918D01*
X3832Y1918D01*
X3832Y1926D01*
X3834Y1926D01*
X3834Y1932D01*
X3836Y1932D01*
X3836Y1936D01*
X3838Y1936D01*
X3838Y1940D01*
X3840Y1940D01*
X3840Y1944D01*
X3842Y1944D01*
X3842Y1946D01*
X3844Y1946D01*
X3844Y1950D01*
X3846Y1950D01*
X3846Y1952D01*
X3848Y1952D01*
X3848Y1954D01*
X3850Y1954D01*
X3850Y1956D01*
X3852Y1956D01*
X3852Y1960D01*
X3856Y1960D01*
X3856Y1962D01*
X3858Y1962D01*
X3858Y1964D01*
X3860Y1964D01*
X3860Y1966D01*
X3862Y1966D01*
X3862Y1968D01*
X3866Y1968D01*
X3866Y1970D01*
X3868Y1970D01*
X3868Y1972D01*
X3872Y1972D01*
X3872Y1974D01*
X3876Y1974D01*
X3876Y1976D01*
X3882Y1976D01*
X3882Y1978D01*
X3888Y1978D01*
X3888Y1980D01*
X3898Y1980D01*
X3898Y1982D01*
X3788Y1982D01*
G37*
D02*
G36*
X3836Y1824D02*
X3836Y1822D01*
X4432Y1822D01*
X4432Y1824D01*
X3836Y1824D01*
G37*
D02*
G36*
X3836Y1824D02*
X3836Y1822D01*
X4432Y1822D01*
X4432Y1824D01*
X3836Y1824D01*
G37*
D02*
G36*
X3838Y1822D02*
X3838Y1820D01*
X3842Y1820D01*
X3842Y1818D01*
X3844Y1818D01*
X3844Y1816D01*
X3846Y1816D01*
X3846Y1814D01*
X3850Y1814D01*
X3850Y1812D01*
X3852Y1812D01*
X3852Y1810D01*
X3854Y1810D01*
X3854Y1808D01*
X3858Y1808D01*
X3858Y1806D01*
X3860Y1806D01*
X3860Y1804D01*
X3862Y1804D01*
X3862Y1802D01*
X3864Y1802D01*
X3864Y1800D01*
X3868Y1800D01*
X3868Y1798D01*
X3870Y1798D01*
X3870Y1796D01*
X3872Y1796D01*
X3872Y1794D01*
X3876Y1794D01*
X3876Y1792D01*
X3878Y1792D01*
X3878Y1790D01*
X3880Y1790D01*
X3880Y1788D01*
X3884Y1788D01*
X3884Y1786D01*
X3886Y1786D01*
X3886Y1784D01*
X3888Y1784D01*
X3888Y1782D01*
X3892Y1782D01*
X3892Y1780D01*
X3894Y1780D01*
X3894Y1778D01*
X3896Y1778D01*
X3896Y1776D01*
X3900Y1776D01*
X3900Y1774D01*
X3902Y1774D01*
X3902Y1772D01*
X3974Y1772D01*
X3974Y1770D01*
X4404Y1770D01*
X4404Y1768D01*
X4432Y1768D01*
X4432Y1822D01*
X3838Y1822D01*
G37*
D02*
G36*
X3762Y1810D02*
X3762Y1796D01*
X3768Y1796D01*
X3768Y1794D01*
X3774Y1794D01*
X3774Y1792D01*
X3776Y1792D01*
X3776Y1790D01*
X3780Y1790D01*
X3780Y1788D01*
X3782Y1788D01*
X3782Y1786D01*
X3784Y1786D01*
X3784Y1784D01*
X3786Y1784D01*
X3786Y1782D01*
X3788Y1782D01*
X3788Y1780D01*
X3790Y1780D01*
X3790Y1776D01*
X3792Y1776D01*
X3792Y1774D01*
X3794Y1774D01*
X3794Y1768D01*
X3796Y1768D01*
X3796Y1758D01*
X3798Y1758D01*
X3798Y1754D01*
X3796Y1754D01*
X3796Y1744D01*
X3794Y1744D01*
X3794Y1738D01*
X3792Y1738D01*
X3792Y1734D01*
X3790Y1734D01*
X3790Y1732D01*
X3788Y1732D01*
X3788Y1728D01*
X3786Y1728D01*
X3786Y1726D01*
X3784Y1726D01*
X3784Y1724D01*
X4400Y1724D01*
X4400Y1726D01*
X3970Y1726D01*
X3970Y1728D01*
X3888Y1728D01*
X3888Y1730D01*
X3884Y1730D01*
X3884Y1732D01*
X3882Y1732D01*
X3882Y1734D01*
X3880Y1734D01*
X3880Y1736D01*
X3876Y1736D01*
X3876Y1738D01*
X3874Y1738D01*
X3874Y1740D01*
X3872Y1740D01*
X3872Y1742D01*
X3868Y1742D01*
X3868Y1744D01*
X3866Y1744D01*
X3866Y1746D01*
X3864Y1746D01*
X3864Y1748D01*
X3860Y1748D01*
X3860Y1750D01*
X3858Y1750D01*
X3858Y1752D01*
X3856Y1752D01*
X3856Y1754D01*
X3852Y1754D01*
X3852Y1756D01*
X3850Y1756D01*
X3850Y1758D01*
X3848Y1758D01*
X3848Y1760D01*
X3844Y1760D01*
X3844Y1762D01*
X3842Y1762D01*
X3842Y1764D01*
X3840Y1764D01*
X3840Y1766D01*
X3836Y1766D01*
X3836Y1768D01*
X3834Y1768D01*
X3834Y1770D01*
X3832Y1770D01*
X3832Y1772D01*
X3830Y1772D01*
X3830Y1774D01*
X3826Y1774D01*
X3826Y1776D01*
X3824Y1776D01*
X3824Y1778D01*
X3822Y1778D01*
X3822Y1780D01*
X3818Y1780D01*
X3818Y1782D01*
X3816Y1782D01*
X3816Y1784D01*
X3814Y1784D01*
X3814Y1786D01*
X3810Y1786D01*
X3810Y1788D01*
X3808Y1788D01*
X3808Y1790D01*
X3806Y1790D01*
X3806Y1792D01*
X3802Y1792D01*
X3802Y1794D01*
X3800Y1794D01*
X3800Y1796D01*
X3798Y1796D01*
X3798Y1798D01*
X3794Y1798D01*
X3794Y1800D01*
X3792Y1800D01*
X3792Y1802D01*
X3790Y1802D01*
X3790Y1804D01*
X3786Y1804D01*
X3786Y1806D01*
X3784Y1806D01*
X3784Y1808D01*
X3782Y1808D01*
X3782Y1810D01*
X3762Y1810D01*
G37*
D02*
G36*
X3780Y1724D02*
X3780Y1722D01*
X4540Y1722D01*
X4540Y1724D01*
X3780Y1724D01*
G37*
D02*
G36*
X3780Y1724D02*
X3780Y1722D01*
X4540Y1722D01*
X4540Y1724D01*
X3780Y1724D01*
G37*
D02*
G36*
X3778Y1722D02*
X3778Y1720D01*
X3774Y1720D01*
X3774Y1718D01*
X3770Y1718D01*
X3770Y1716D01*
X3762Y1716D01*
X3762Y1696D01*
X3768Y1696D01*
X3768Y1694D01*
X3774Y1694D01*
X3774Y1692D01*
X3776Y1692D01*
X3776Y1690D01*
X3780Y1690D01*
X3780Y1688D01*
X3782Y1688D01*
X3782Y1686D01*
X3784Y1686D01*
X3784Y1684D01*
X3786Y1684D01*
X3786Y1682D01*
X3788Y1682D01*
X3788Y1680D01*
X3790Y1680D01*
X3790Y1678D01*
X4086Y1678D01*
X4086Y1676D01*
X4540Y1676D01*
X4540Y1722D01*
X3778Y1722D01*
G37*
D02*
G36*
X3696Y1752D02*
X3696Y1744D01*
X3694Y1744D01*
X3694Y1738D01*
X3692Y1738D01*
X3692Y1734D01*
X3690Y1734D01*
X3690Y1732D01*
X3688Y1732D01*
X3688Y1728D01*
X3686Y1728D01*
X3686Y1726D01*
X3684Y1726D01*
X3684Y1724D01*
X3680Y1724D01*
X3680Y1722D01*
X3678Y1722D01*
X3678Y1720D01*
X3674Y1720D01*
X3674Y1718D01*
X3670Y1718D01*
X3670Y1716D01*
X3662Y1716D01*
X3662Y1696D01*
X3668Y1696D01*
X3668Y1694D01*
X3674Y1694D01*
X3674Y1692D01*
X3676Y1692D01*
X3676Y1690D01*
X3680Y1690D01*
X3680Y1688D01*
X3682Y1688D01*
X3682Y1686D01*
X3684Y1686D01*
X3684Y1684D01*
X3686Y1684D01*
X3686Y1682D01*
X3688Y1682D01*
X3688Y1680D01*
X3690Y1680D01*
X3690Y1676D01*
X3692Y1676D01*
X3692Y1674D01*
X3694Y1674D01*
X3694Y1668D01*
X3696Y1668D01*
X3696Y1660D01*
X3716Y1660D01*
X3716Y1668D01*
X3718Y1668D01*
X3718Y1674D01*
X3720Y1674D01*
X3720Y1678D01*
X3722Y1678D01*
X3722Y1680D01*
X3724Y1680D01*
X3724Y1682D01*
X3726Y1682D01*
X3726Y1684D01*
X3728Y1684D01*
X3728Y1686D01*
X3730Y1686D01*
X3730Y1688D01*
X3732Y1688D01*
X3732Y1690D01*
X3736Y1690D01*
X3736Y1692D01*
X3738Y1692D01*
X3738Y1694D01*
X3744Y1694D01*
X3744Y1696D01*
X3750Y1696D01*
X3750Y1716D01*
X3742Y1716D01*
X3742Y1718D01*
X3738Y1718D01*
X3738Y1720D01*
X3734Y1720D01*
X3734Y1722D01*
X3732Y1722D01*
X3732Y1724D01*
X3728Y1724D01*
X3728Y1726D01*
X3726Y1726D01*
X3726Y1728D01*
X3724Y1728D01*
X3724Y1732D01*
X3722Y1732D01*
X3722Y1734D01*
X3720Y1734D01*
X3720Y1738D01*
X3718Y1738D01*
X3718Y1742D01*
X3716Y1742D01*
X3716Y1752D01*
X3696Y1752D01*
G37*
D02*
G36*
X3696Y1652D02*
X3696Y1644D01*
X3694Y1644D01*
X3694Y1638D01*
X3692Y1638D01*
X3692Y1634D01*
X3690Y1634D01*
X3690Y1632D01*
X3688Y1632D01*
X3688Y1628D01*
X3686Y1628D01*
X3686Y1626D01*
X3684Y1626D01*
X3684Y1624D01*
X3680Y1624D01*
X3680Y1622D01*
X3678Y1622D01*
X3678Y1620D01*
X3674Y1620D01*
X3674Y1618D01*
X3670Y1618D01*
X3670Y1616D01*
X3662Y1616D01*
X3662Y1596D01*
X3668Y1596D01*
X3668Y1594D01*
X3674Y1594D01*
X3674Y1592D01*
X3676Y1592D01*
X3676Y1590D01*
X3680Y1590D01*
X3680Y1588D01*
X3682Y1588D01*
X3682Y1586D01*
X3684Y1586D01*
X3684Y1584D01*
X3686Y1584D01*
X3686Y1582D01*
X3688Y1582D01*
X3688Y1580D01*
X3690Y1580D01*
X3690Y1576D01*
X3692Y1576D01*
X3692Y1574D01*
X3694Y1574D01*
X3694Y1568D01*
X3696Y1568D01*
X3696Y1560D01*
X3716Y1560D01*
X3716Y1568D01*
X3718Y1568D01*
X3718Y1574D01*
X3720Y1574D01*
X3720Y1578D01*
X3722Y1578D01*
X3722Y1580D01*
X3724Y1580D01*
X3724Y1582D01*
X3726Y1582D01*
X3726Y1584D01*
X3728Y1584D01*
X3728Y1586D01*
X3730Y1586D01*
X3730Y1588D01*
X3732Y1588D01*
X3732Y1590D01*
X3736Y1590D01*
X3736Y1592D01*
X3738Y1592D01*
X3738Y1594D01*
X3744Y1594D01*
X3744Y1596D01*
X3750Y1596D01*
X3750Y1616D01*
X3742Y1616D01*
X3742Y1618D01*
X3738Y1618D01*
X3738Y1620D01*
X3734Y1620D01*
X3734Y1622D01*
X3732Y1622D01*
X3732Y1624D01*
X3728Y1624D01*
X3728Y1626D01*
X3726Y1626D01*
X3726Y1628D01*
X3724Y1628D01*
X3724Y1632D01*
X3722Y1632D01*
X3722Y1634D01*
X3720Y1634D01*
X3720Y1638D01*
X3718Y1638D01*
X3718Y1642D01*
X3716Y1642D01*
X3716Y1652D01*
X3696Y1652D01*
G37*
D02*
G36*
X4602Y4196D02*
X4602Y4174D01*
X4600Y4174D01*
X4600Y4168D01*
X4598Y4168D01*
X4598Y4164D01*
X4596Y4164D01*
X4596Y4162D01*
X4594Y4162D01*
X4594Y4084D01*
X4698Y4084D01*
X4698Y4086D01*
X4686Y4086D01*
X4686Y4088D01*
X4678Y4088D01*
X4678Y4090D01*
X4674Y4090D01*
X4674Y4092D01*
X4670Y4092D01*
X4670Y4094D01*
X4668Y4094D01*
X4668Y4096D01*
X4664Y4096D01*
X4664Y4098D01*
X4662Y4098D01*
X4662Y4100D01*
X4660Y4100D01*
X4660Y4102D01*
X4656Y4102D01*
X4656Y4104D01*
X4654Y4104D01*
X4654Y4108D01*
X4652Y4108D01*
X4652Y4110D01*
X4650Y4110D01*
X4650Y4112D01*
X4648Y4112D01*
X4648Y4116D01*
X4646Y4116D01*
X4646Y4118D01*
X4644Y4118D01*
X4644Y4122D01*
X4642Y4122D01*
X4642Y4128D01*
X4640Y4128D01*
X4640Y4134D01*
X4638Y4134D01*
X4638Y4146D01*
X4636Y4146D01*
X4636Y4152D01*
X4638Y4152D01*
X4638Y4166D01*
X4640Y4166D01*
X4640Y4172D01*
X4642Y4172D01*
X4642Y4196D01*
X4602Y4196D01*
G37*
D02*
G36*
X4724Y4090D02*
X4724Y4088D01*
X4718Y4088D01*
X4718Y4086D01*
X4706Y4086D01*
X4706Y4084D01*
X4746Y4084D01*
X4746Y4090D01*
X4724Y4090D01*
G37*
D02*
G36*
X4594Y4084D02*
X4594Y4082D01*
X4746Y4082D01*
X4746Y4084D01*
X4594Y4084D01*
G37*
D02*
G36*
X4594Y4084D02*
X4594Y4082D01*
X4746Y4082D01*
X4746Y4084D01*
X4594Y4084D01*
G37*
D02*
G36*
X4594Y4082D02*
X4594Y3888D01*
X4592Y3888D01*
X4592Y3392D01*
X4590Y3392D01*
X4590Y2896D01*
X4588Y2896D01*
X4588Y2398D01*
X4586Y2398D01*
X4586Y1902D01*
X4584Y1902D01*
X4584Y1648D01*
X4582Y1648D01*
X4582Y1644D01*
X4580Y1644D01*
X4580Y1640D01*
X4578Y1640D01*
X4578Y1638D01*
X4576Y1638D01*
X4576Y1636D01*
X4572Y1636D01*
X4572Y1634D01*
X4568Y1634D01*
X4568Y1632D01*
X4746Y1632D01*
X4746Y4082D01*
X4594Y4082D01*
G37*
D02*
G36*
X3790Y1634D02*
X3790Y1632D01*
X4078Y1632D01*
X4078Y1634D01*
X3790Y1634D01*
G37*
D02*
G36*
X3788Y1632D02*
X3788Y1630D01*
X4746Y1630D01*
X4746Y1632D01*
X3788Y1632D01*
G37*
D02*
G36*
X3788Y1632D02*
X3788Y1630D01*
X4746Y1630D01*
X4746Y1632D01*
X3788Y1632D01*
G37*
D02*
G36*
X3788Y1630D02*
X3788Y1628D01*
X3786Y1628D01*
X3786Y1626D01*
X3784Y1626D01*
X3784Y1624D01*
X3780Y1624D01*
X3780Y1622D01*
X3778Y1622D01*
X3778Y1620D01*
X3774Y1620D01*
X3774Y1618D01*
X3770Y1618D01*
X3770Y1616D01*
X3762Y1616D01*
X3762Y1596D01*
X3768Y1596D01*
X3768Y1594D01*
X3774Y1594D01*
X3774Y1592D01*
X3776Y1592D01*
X3776Y1590D01*
X3780Y1590D01*
X3780Y1588D01*
X3782Y1588D01*
X3782Y1586D01*
X3784Y1586D01*
X3784Y1584D01*
X3786Y1584D01*
X3786Y1582D01*
X3788Y1582D01*
X3788Y1580D01*
X3790Y1580D01*
X3790Y1576D01*
X3792Y1576D01*
X3792Y1574D01*
X3794Y1574D01*
X3794Y1568D01*
X3796Y1568D01*
X3796Y1558D01*
X3798Y1558D01*
X3798Y1554D01*
X3796Y1554D01*
X3796Y1544D01*
X3794Y1544D01*
X3794Y1538D01*
X3792Y1538D01*
X3792Y1534D01*
X3790Y1534D01*
X3790Y1532D01*
X3788Y1532D01*
X3788Y1528D01*
X3786Y1528D01*
X3786Y1526D01*
X3784Y1526D01*
X3784Y1524D01*
X3780Y1524D01*
X3780Y1522D01*
X3778Y1522D01*
X3778Y1520D01*
X3774Y1520D01*
X3774Y1518D01*
X3770Y1518D01*
X3770Y1516D01*
X3762Y1516D01*
X3762Y1496D01*
X3768Y1496D01*
X3768Y1494D01*
X3774Y1494D01*
X3774Y1492D01*
X3776Y1492D01*
X3776Y1490D01*
X3780Y1490D01*
X3780Y1488D01*
X3782Y1488D01*
X3782Y1486D01*
X3784Y1486D01*
X3784Y1484D01*
X3786Y1484D01*
X3786Y1482D01*
X3788Y1482D01*
X3788Y1480D01*
X3790Y1480D01*
X3790Y1476D01*
X3792Y1476D01*
X3792Y1474D01*
X3794Y1474D01*
X3794Y1468D01*
X3796Y1468D01*
X3796Y1458D01*
X3798Y1458D01*
X3798Y1454D01*
X3796Y1454D01*
X3796Y1444D01*
X3794Y1444D01*
X3794Y1438D01*
X3792Y1438D01*
X3792Y1434D01*
X3790Y1434D01*
X3790Y1432D01*
X3788Y1432D01*
X3788Y1428D01*
X3786Y1428D01*
X3786Y1426D01*
X3784Y1426D01*
X3784Y1424D01*
X3780Y1424D01*
X3780Y1422D01*
X3778Y1422D01*
X3778Y1420D01*
X3774Y1420D01*
X3774Y1418D01*
X3770Y1418D01*
X3770Y1416D01*
X3762Y1416D01*
X3762Y1396D01*
X3768Y1396D01*
X3768Y1394D01*
X3774Y1394D01*
X3774Y1392D01*
X3776Y1392D01*
X3776Y1390D01*
X3780Y1390D01*
X3780Y1388D01*
X3782Y1388D01*
X3782Y1386D01*
X3784Y1386D01*
X3784Y1384D01*
X3786Y1384D01*
X3786Y1382D01*
X3788Y1382D01*
X3788Y1380D01*
X3790Y1380D01*
X3790Y1376D01*
X3792Y1376D01*
X3792Y1374D01*
X3794Y1374D01*
X3794Y1368D01*
X3796Y1368D01*
X3796Y1358D01*
X3798Y1358D01*
X3798Y1354D01*
X3796Y1354D01*
X3796Y1344D01*
X3794Y1344D01*
X3794Y1338D01*
X3792Y1338D01*
X3792Y1334D01*
X3790Y1334D01*
X3790Y1332D01*
X3788Y1332D01*
X3788Y1328D01*
X3786Y1328D01*
X3786Y1326D01*
X3784Y1326D01*
X3784Y1324D01*
X3780Y1324D01*
X3780Y1322D01*
X3778Y1322D01*
X3778Y1320D01*
X3774Y1320D01*
X3774Y1318D01*
X3770Y1318D01*
X3770Y1316D01*
X3762Y1316D01*
X3762Y1296D01*
X3768Y1296D01*
X3768Y1294D01*
X3774Y1294D01*
X3774Y1292D01*
X3776Y1292D01*
X3776Y1290D01*
X3780Y1290D01*
X3780Y1288D01*
X3782Y1288D01*
X3782Y1286D01*
X3784Y1286D01*
X3784Y1284D01*
X3786Y1284D01*
X3786Y1282D01*
X3788Y1282D01*
X3788Y1280D01*
X3790Y1280D01*
X3790Y1276D01*
X3792Y1276D01*
X3792Y1274D01*
X3794Y1274D01*
X3794Y1268D01*
X3796Y1268D01*
X3796Y1258D01*
X3798Y1258D01*
X3798Y1254D01*
X3796Y1254D01*
X3796Y1244D01*
X3794Y1244D01*
X3794Y1238D01*
X3792Y1238D01*
X3792Y1234D01*
X3790Y1234D01*
X3790Y1232D01*
X3788Y1232D01*
X3788Y1228D01*
X3786Y1228D01*
X3786Y1226D01*
X3784Y1226D01*
X3784Y1224D01*
X3780Y1224D01*
X3780Y1222D01*
X3778Y1222D01*
X3778Y1220D01*
X3774Y1220D01*
X3774Y1218D01*
X3770Y1218D01*
X3770Y1216D01*
X3762Y1216D01*
X3762Y1196D01*
X3768Y1196D01*
X3768Y1194D01*
X3774Y1194D01*
X3774Y1192D01*
X3776Y1192D01*
X3776Y1190D01*
X3780Y1190D01*
X3780Y1188D01*
X3782Y1188D01*
X3782Y1186D01*
X3784Y1186D01*
X3784Y1184D01*
X3786Y1184D01*
X3786Y1182D01*
X3788Y1182D01*
X3788Y1180D01*
X3790Y1180D01*
X3790Y1176D01*
X3792Y1176D01*
X3792Y1174D01*
X3794Y1174D01*
X3794Y1168D01*
X3796Y1168D01*
X3796Y1158D01*
X3798Y1158D01*
X3798Y1154D01*
X3796Y1154D01*
X3796Y1144D01*
X3794Y1144D01*
X3794Y1138D01*
X3792Y1138D01*
X3792Y1134D01*
X3790Y1134D01*
X3790Y1132D01*
X3788Y1132D01*
X3788Y1128D01*
X3786Y1128D01*
X3786Y1126D01*
X3784Y1126D01*
X3784Y1124D01*
X3780Y1124D01*
X3780Y1122D01*
X3778Y1122D01*
X3778Y1120D01*
X3774Y1120D01*
X3774Y1118D01*
X3770Y1118D01*
X3770Y1116D01*
X3762Y1116D01*
X3762Y1096D01*
X3768Y1096D01*
X3768Y1094D01*
X3774Y1094D01*
X3774Y1092D01*
X3776Y1092D01*
X3776Y1090D01*
X3780Y1090D01*
X3780Y1088D01*
X3782Y1088D01*
X3782Y1086D01*
X3784Y1086D01*
X3784Y1084D01*
X3786Y1084D01*
X3786Y1082D01*
X3788Y1082D01*
X3788Y1080D01*
X3790Y1080D01*
X3790Y1076D01*
X3792Y1076D01*
X3792Y1074D01*
X3794Y1074D01*
X3794Y1068D01*
X3796Y1068D01*
X3796Y1058D01*
X3798Y1058D01*
X3798Y1054D01*
X3796Y1054D01*
X3796Y1044D01*
X3794Y1044D01*
X3794Y1038D01*
X3792Y1038D01*
X3792Y1034D01*
X3790Y1034D01*
X3790Y1032D01*
X3788Y1032D01*
X3788Y1028D01*
X3786Y1028D01*
X3786Y1026D01*
X3784Y1026D01*
X3784Y1024D01*
X3780Y1024D01*
X3780Y1022D01*
X3778Y1022D01*
X3778Y1020D01*
X3774Y1020D01*
X3774Y1018D01*
X3770Y1018D01*
X3770Y1016D01*
X3762Y1016D01*
X3762Y996D01*
X3768Y996D01*
X3768Y994D01*
X3774Y994D01*
X3774Y992D01*
X3776Y992D01*
X3776Y990D01*
X3780Y990D01*
X3780Y988D01*
X3782Y988D01*
X3782Y986D01*
X3784Y986D01*
X3784Y984D01*
X3786Y984D01*
X3786Y982D01*
X3788Y982D01*
X3788Y980D01*
X3790Y980D01*
X3790Y976D01*
X3792Y976D01*
X3792Y974D01*
X3794Y974D01*
X3794Y968D01*
X3796Y968D01*
X3796Y958D01*
X3798Y958D01*
X3798Y954D01*
X3796Y954D01*
X3796Y944D01*
X3794Y944D01*
X3794Y938D01*
X3792Y938D01*
X3792Y934D01*
X3790Y934D01*
X3790Y932D01*
X3788Y932D01*
X3788Y928D01*
X3786Y928D01*
X3786Y926D01*
X3784Y926D01*
X3784Y924D01*
X3780Y924D01*
X3780Y922D01*
X3778Y922D01*
X3778Y920D01*
X3774Y920D01*
X3774Y918D01*
X3770Y918D01*
X3770Y916D01*
X3762Y916D01*
X3762Y896D01*
X3768Y896D01*
X3768Y894D01*
X3774Y894D01*
X3774Y892D01*
X3776Y892D01*
X3776Y890D01*
X3780Y890D01*
X3780Y888D01*
X3782Y888D01*
X3782Y886D01*
X3784Y886D01*
X3784Y884D01*
X3786Y884D01*
X3786Y882D01*
X3788Y882D01*
X3788Y880D01*
X3790Y880D01*
X3790Y876D01*
X3792Y876D01*
X3792Y874D01*
X3794Y874D01*
X3794Y868D01*
X3796Y868D01*
X3796Y858D01*
X3798Y858D01*
X3798Y854D01*
X3796Y854D01*
X3796Y844D01*
X3794Y844D01*
X3794Y838D01*
X3792Y838D01*
X3792Y834D01*
X3790Y834D01*
X3790Y832D01*
X3788Y832D01*
X3788Y828D01*
X4318Y828D01*
X4318Y826D01*
X4328Y826D01*
X4328Y824D01*
X4334Y824D01*
X4334Y822D01*
X4338Y822D01*
X4338Y820D01*
X4342Y820D01*
X4342Y818D01*
X4344Y818D01*
X4344Y816D01*
X4346Y816D01*
X4346Y814D01*
X4348Y814D01*
X4348Y812D01*
X4350Y812D01*
X4350Y810D01*
X4352Y810D01*
X4352Y808D01*
X4354Y808D01*
X4354Y804D01*
X4356Y804D01*
X4356Y802D01*
X4358Y802D01*
X4358Y798D01*
X4360Y798D01*
X4360Y792D01*
X4362Y792D01*
X4362Y780D01*
X4364Y780D01*
X4364Y776D01*
X4362Y776D01*
X4362Y766D01*
X4360Y766D01*
X4360Y758D01*
X4358Y758D01*
X4358Y756D01*
X4356Y756D01*
X4356Y752D01*
X4354Y752D01*
X4354Y748D01*
X4352Y748D01*
X4352Y746D01*
X4350Y746D01*
X4350Y744D01*
X4348Y744D01*
X4348Y742D01*
X4346Y742D01*
X4346Y740D01*
X4344Y740D01*
X4344Y738D01*
X4342Y738D01*
X4342Y718D01*
X4344Y718D01*
X4344Y716D01*
X4346Y716D01*
X4346Y714D01*
X4348Y714D01*
X4348Y712D01*
X4350Y712D01*
X4350Y710D01*
X4352Y710D01*
X4352Y708D01*
X4354Y708D01*
X4354Y704D01*
X4356Y704D01*
X4356Y702D01*
X4358Y702D01*
X4358Y698D01*
X4360Y698D01*
X4360Y692D01*
X4362Y692D01*
X4362Y680D01*
X4364Y680D01*
X4364Y676D01*
X4362Y676D01*
X4362Y666D01*
X4360Y666D01*
X4360Y658D01*
X4358Y658D01*
X4358Y656D01*
X4356Y656D01*
X4356Y652D01*
X4354Y652D01*
X4354Y648D01*
X4352Y648D01*
X4352Y646D01*
X4350Y646D01*
X4350Y644D01*
X4348Y644D01*
X4348Y642D01*
X4346Y642D01*
X4346Y640D01*
X4344Y640D01*
X4344Y638D01*
X4340Y638D01*
X4340Y636D01*
X4336Y636D01*
X4336Y634D01*
X4332Y634D01*
X4332Y632D01*
X4326Y632D01*
X4326Y630D01*
X4308Y630D01*
X4308Y626D01*
X4306Y626D01*
X4306Y624D01*
X4304Y624D01*
X4304Y620D01*
X4302Y620D01*
X4302Y616D01*
X4300Y616D01*
X4300Y614D01*
X4298Y614D01*
X4298Y610D01*
X4296Y610D01*
X4296Y608D01*
X4294Y608D01*
X4294Y604D01*
X4292Y604D01*
X4292Y602D01*
X4290Y602D01*
X4290Y598D01*
X4288Y598D01*
X4288Y594D01*
X4286Y594D01*
X4286Y592D01*
X4284Y592D01*
X4284Y588D01*
X4282Y588D01*
X4282Y586D01*
X4280Y586D01*
X4280Y582D01*
X4278Y582D01*
X4278Y580D01*
X4276Y580D01*
X4276Y576D01*
X4274Y576D01*
X4274Y572D01*
X4272Y572D01*
X4272Y570D01*
X4270Y570D01*
X4270Y566D01*
X4268Y566D01*
X4268Y564D01*
X4266Y564D01*
X4266Y560D01*
X4264Y560D01*
X4264Y558D01*
X4262Y558D01*
X4262Y554D01*
X4260Y554D01*
X4260Y550D01*
X4258Y550D01*
X4258Y548D01*
X4256Y548D01*
X4256Y544D01*
X4254Y544D01*
X4254Y542D01*
X4252Y542D01*
X4252Y538D01*
X4250Y538D01*
X4250Y536D01*
X4248Y536D01*
X4248Y532D01*
X4246Y532D01*
X4246Y530D01*
X4244Y530D01*
X4244Y526D01*
X4242Y526D01*
X4242Y522D01*
X4240Y522D01*
X4240Y520D01*
X4238Y520D01*
X4238Y516D01*
X4236Y516D01*
X4236Y514D01*
X4234Y514D01*
X4234Y510D01*
X4232Y510D01*
X4232Y508D01*
X4230Y508D01*
X4230Y504D01*
X4228Y504D01*
X4228Y500D01*
X4226Y500D01*
X4226Y498D01*
X4224Y498D01*
X4224Y494D01*
X4222Y494D01*
X4222Y492D01*
X4220Y492D01*
X4220Y488D01*
X4218Y488D01*
X4218Y486D01*
X4216Y486D01*
X4216Y482D01*
X4214Y482D01*
X4214Y478D01*
X4212Y478D01*
X4212Y476D01*
X4210Y476D01*
X4210Y472D01*
X4208Y472D01*
X4208Y470D01*
X4206Y470D01*
X4206Y466D01*
X4204Y466D01*
X4204Y464D01*
X4202Y464D01*
X4202Y460D01*
X4200Y460D01*
X4200Y456D01*
X4198Y456D01*
X4198Y454D01*
X4196Y454D01*
X4196Y450D01*
X4194Y450D01*
X4194Y448D01*
X4192Y448D01*
X4192Y444D01*
X4190Y444D01*
X4190Y442D01*
X4188Y442D01*
X4188Y438D01*
X4186Y438D01*
X4186Y436D01*
X4184Y436D01*
X4184Y432D01*
X4182Y432D01*
X4182Y428D01*
X4180Y428D01*
X4180Y426D01*
X4178Y426D01*
X4178Y422D01*
X4176Y422D01*
X4176Y420D01*
X4174Y420D01*
X4174Y416D01*
X4172Y416D01*
X4172Y414D01*
X4170Y414D01*
X4170Y410D01*
X4168Y410D01*
X4168Y406D01*
X4166Y406D01*
X4166Y404D01*
X4164Y404D01*
X4164Y400D01*
X4162Y400D01*
X4162Y398D01*
X4160Y398D01*
X4160Y394D01*
X4158Y394D01*
X4158Y392D01*
X4156Y392D01*
X4156Y388D01*
X4154Y388D01*
X4154Y384D01*
X4152Y384D01*
X4152Y382D01*
X4150Y382D01*
X4150Y378D01*
X4148Y378D01*
X4148Y376D01*
X4146Y376D01*
X4146Y372D01*
X4144Y372D01*
X4144Y370D01*
X4142Y370D01*
X4142Y366D01*
X4140Y366D01*
X4140Y362D01*
X4138Y362D01*
X4138Y360D01*
X4136Y360D01*
X4136Y356D01*
X4134Y356D01*
X4134Y354D01*
X4132Y354D01*
X4132Y350D01*
X4130Y350D01*
X4130Y348D01*
X4128Y348D01*
X4128Y344D01*
X4126Y344D01*
X4126Y342D01*
X4124Y342D01*
X4124Y338D01*
X4122Y338D01*
X4122Y334D01*
X4120Y334D01*
X4120Y332D01*
X4118Y332D01*
X4118Y328D01*
X4116Y328D01*
X4116Y326D01*
X4114Y326D01*
X4114Y322D01*
X4112Y322D01*
X4112Y320D01*
X4110Y320D01*
X4110Y316D01*
X4108Y316D01*
X4108Y312D01*
X4106Y312D01*
X4106Y310D01*
X4104Y310D01*
X4104Y306D01*
X4102Y306D01*
X4102Y304D01*
X4100Y304D01*
X4100Y300D01*
X4098Y300D01*
X4098Y298D01*
X4096Y298D01*
X4096Y294D01*
X4094Y294D01*
X4094Y290D01*
X4092Y290D01*
X4092Y288D01*
X4090Y288D01*
X4090Y284D01*
X4088Y284D01*
X4088Y282D01*
X4086Y282D01*
X4086Y278D01*
X4084Y278D01*
X4084Y276D01*
X4082Y276D01*
X4082Y272D01*
X4080Y272D01*
X4080Y268D01*
X4078Y268D01*
X4078Y266D01*
X4076Y266D01*
X4076Y262D01*
X4074Y262D01*
X4074Y260D01*
X4072Y260D01*
X4072Y256D01*
X4070Y256D01*
X4070Y254D01*
X4068Y254D01*
X4068Y250D01*
X4066Y250D01*
X4066Y248D01*
X4064Y248D01*
X4064Y244D01*
X4062Y244D01*
X4062Y240D01*
X4060Y240D01*
X4060Y238D01*
X4058Y238D01*
X4058Y234D01*
X4056Y234D01*
X4056Y232D01*
X4054Y232D01*
X4054Y228D01*
X4052Y228D01*
X4052Y226D01*
X4050Y226D01*
X4050Y222D01*
X4048Y222D01*
X4048Y218D01*
X4046Y218D01*
X4046Y216D01*
X4044Y216D01*
X4044Y212D01*
X4042Y212D01*
X4042Y210D01*
X4040Y210D01*
X4040Y206D01*
X4038Y206D01*
X4038Y204D01*
X4036Y204D01*
X4036Y200D01*
X4034Y200D01*
X4034Y196D01*
X4032Y196D01*
X4032Y194D01*
X4030Y194D01*
X4030Y190D01*
X4028Y190D01*
X4028Y188D01*
X4026Y188D01*
X4026Y184D01*
X4024Y184D01*
X4024Y182D01*
X4022Y182D01*
X4022Y178D01*
X4020Y178D01*
X4020Y174D01*
X4018Y174D01*
X4018Y172D01*
X4016Y172D01*
X4016Y168D01*
X4014Y168D01*
X4014Y166D01*
X4012Y166D01*
X4012Y162D01*
X4010Y162D01*
X4010Y160D01*
X4008Y160D01*
X4008Y156D01*
X4006Y156D01*
X4006Y154D01*
X4004Y154D01*
X4004Y152D01*
X4704Y152D01*
X4704Y150D01*
X4718Y150D01*
X4718Y148D01*
X4724Y148D01*
X4724Y146D01*
X4746Y146D01*
X4746Y1630D01*
X3788Y1630D01*
G37*
D02*
G36*
X3786Y828D02*
X3786Y826D01*
X3784Y826D01*
X3784Y824D01*
X3780Y824D01*
X3780Y822D01*
X3778Y822D01*
X3778Y820D01*
X3774Y820D01*
X3774Y818D01*
X3770Y818D01*
X3770Y816D01*
X3762Y816D01*
X3762Y796D01*
X3768Y796D01*
X3768Y794D01*
X3774Y794D01*
X3774Y792D01*
X3776Y792D01*
X3776Y790D01*
X3780Y790D01*
X3780Y788D01*
X3782Y788D01*
X3782Y786D01*
X3784Y786D01*
X3784Y784D01*
X3786Y784D01*
X3786Y782D01*
X3788Y782D01*
X3788Y780D01*
X3790Y780D01*
X3790Y776D01*
X3792Y776D01*
X3792Y774D01*
X3794Y774D01*
X3794Y768D01*
X3796Y768D01*
X3796Y758D01*
X3798Y758D01*
X3798Y754D01*
X3796Y754D01*
X3796Y744D01*
X3794Y744D01*
X3794Y738D01*
X3792Y738D01*
X3792Y734D01*
X3790Y734D01*
X3790Y732D01*
X3788Y732D01*
X3788Y728D01*
X3786Y728D01*
X3786Y726D01*
X3784Y726D01*
X3784Y724D01*
X3780Y724D01*
X3780Y722D01*
X3778Y722D01*
X3778Y720D01*
X3774Y720D01*
X3774Y718D01*
X3770Y718D01*
X3770Y716D01*
X3762Y716D01*
X3762Y696D01*
X3768Y696D01*
X3768Y694D01*
X3774Y694D01*
X3774Y692D01*
X3776Y692D01*
X3776Y690D01*
X3780Y690D01*
X3780Y688D01*
X3782Y688D01*
X3782Y686D01*
X3784Y686D01*
X3784Y684D01*
X3786Y684D01*
X3786Y682D01*
X3788Y682D01*
X3788Y680D01*
X3790Y680D01*
X3790Y676D01*
X3792Y676D01*
X3792Y674D01*
X3794Y674D01*
X3794Y668D01*
X3796Y668D01*
X3796Y658D01*
X3798Y658D01*
X3798Y654D01*
X3796Y654D01*
X3796Y644D01*
X3794Y644D01*
X3794Y638D01*
X3792Y638D01*
X3792Y634D01*
X3790Y634D01*
X3790Y632D01*
X3788Y632D01*
X3788Y628D01*
X3786Y628D01*
X3786Y626D01*
X3784Y626D01*
X3784Y624D01*
X3780Y624D01*
X3780Y622D01*
X3778Y622D01*
X3778Y620D01*
X3774Y620D01*
X3774Y618D01*
X3770Y618D01*
X3770Y616D01*
X3762Y616D01*
X3762Y596D01*
X3768Y596D01*
X3768Y594D01*
X3774Y594D01*
X3774Y592D01*
X3776Y592D01*
X3776Y590D01*
X3780Y590D01*
X3780Y588D01*
X3782Y588D01*
X3782Y586D01*
X3784Y586D01*
X3784Y584D01*
X3786Y584D01*
X3786Y582D01*
X3788Y582D01*
X3788Y580D01*
X3790Y580D01*
X3790Y576D01*
X3792Y576D01*
X3792Y574D01*
X3794Y574D01*
X3794Y568D01*
X3796Y568D01*
X3796Y558D01*
X3798Y558D01*
X3798Y554D01*
X3796Y554D01*
X3796Y544D01*
X3794Y544D01*
X3794Y538D01*
X3792Y538D01*
X3792Y534D01*
X3790Y534D01*
X3790Y532D01*
X3788Y532D01*
X3788Y528D01*
X3786Y528D01*
X3786Y526D01*
X3784Y526D01*
X3784Y524D01*
X3780Y524D01*
X3780Y522D01*
X3778Y522D01*
X3778Y520D01*
X3774Y520D01*
X3774Y518D01*
X3770Y518D01*
X3770Y516D01*
X3762Y516D01*
X3762Y496D01*
X3768Y496D01*
X3768Y494D01*
X3774Y494D01*
X3774Y492D01*
X3776Y492D01*
X3776Y490D01*
X3780Y490D01*
X3780Y488D01*
X3782Y488D01*
X3782Y486D01*
X3784Y486D01*
X3784Y484D01*
X3786Y484D01*
X3786Y482D01*
X3788Y482D01*
X3788Y480D01*
X3790Y480D01*
X3790Y476D01*
X3792Y476D01*
X3792Y474D01*
X3794Y474D01*
X3794Y468D01*
X3796Y468D01*
X3796Y458D01*
X3798Y458D01*
X3798Y454D01*
X3796Y454D01*
X3796Y444D01*
X3794Y444D01*
X3794Y438D01*
X3792Y438D01*
X3792Y434D01*
X3790Y434D01*
X3790Y432D01*
X3788Y432D01*
X3788Y428D01*
X3786Y428D01*
X3786Y426D01*
X3784Y426D01*
X3784Y424D01*
X3780Y424D01*
X3780Y422D01*
X3778Y422D01*
X3778Y390D01*
X3780Y390D01*
X3780Y388D01*
X3782Y388D01*
X3782Y386D01*
X3784Y386D01*
X3784Y384D01*
X3786Y384D01*
X3786Y382D01*
X3788Y382D01*
X3788Y380D01*
X3842Y380D01*
X3842Y378D01*
X3900Y378D01*
X3900Y376D01*
X3908Y376D01*
X3908Y374D01*
X3912Y374D01*
X3912Y372D01*
X3914Y372D01*
X3914Y370D01*
X3916Y370D01*
X3916Y368D01*
X3918Y368D01*
X3918Y366D01*
X3920Y366D01*
X3920Y362D01*
X3922Y362D01*
X3922Y356D01*
X3924Y356D01*
X3924Y348D01*
X3922Y348D01*
X3922Y336D01*
X3920Y336D01*
X3920Y328D01*
X3918Y328D01*
X3918Y318D01*
X3916Y318D01*
X3916Y308D01*
X3914Y308D01*
X3914Y298D01*
X3912Y298D01*
X3912Y290D01*
X3910Y290D01*
X3910Y280D01*
X3908Y280D01*
X3908Y270D01*
X3906Y270D01*
X3906Y260D01*
X3904Y260D01*
X3904Y252D01*
X3902Y252D01*
X3902Y242D01*
X3900Y242D01*
X3900Y232D01*
X3898Y232D01*
X3898Y222D01*
X3896Y222D01*
X3896Y214D01*
X3894Y214D01*
X3894Y204D01*
X3892Y204D01*
X3892Y194D01*
X3890Y194D01*
X3890Y184D01*
X3888Y184D01*
X3888Y174D01*
X3886Y174D01*
X3886Y166D01*
X3884Y166D01*
X3884Y156D01*
X3882Y156D01*
X3882Y126D01*
X3884Y126D01*
X3884Y122D01*
X3904Y122D01*
X3904Y124D01*
X3906Y124D01*
X3906Y128D01*
X3908Y128D01*
X3908Y130D01*
X3910Y130D01*
X3910Y132D01*
X3912Y132D01*
X3912Y134D01*
X3914Y134D01*
X3914Y136D01*
X3916Y136D01*
X3916Y138D01*
X3920Y138D01*
X3920Y140D01*
X3924Y140D01*
X3924Y142D01*
X3928Y142D01*
X3928Y144D01*
X3934Y144D01*
X3934Y146D01*
X3948Y146D01*
X3948Y148D01*
X3950Y148D01*
X3950Y150D01*
X3952Y150D01*
X3952Y154D01*
X3954Y154D01*
X3954Y156D01*
X3956Y156D01*
X3956Y160D01*
X3958Y160D01*
X3958Y162D01*
X3960Y162D01*
X3960Y166D01*
X3962Y166D01*
X3962Y168D01*
X3964Y168D01*
X3964Y172D01*
X3966Y172D01*
X3966Y176D01*
X3968Y176D01*
X3968Y178D01*
X3970Y178D01*
X3970Y182D01*
X3972Y182D01*
X3972Y184D01*
X3974Y184D01*
X3974Y188D01*
X3976Y188D01*
X3976Y190D01*
X3978Y190D01*
X3978Y194D01*
X3980Y194D01*
X3980Y198D01*
X3982Y198D01*
X3982Y200D01*
X3984Y200D01*
X3984Y204D01*
X3986Y204D01*
X3986Y206D01*
X3988Y206D01*
X3988Y210D01*
X3990Y210D01*
X3990Y212D01*
X3992Y212D01*
X3992Y216D01*
X3994Y216D01*
X3994Y220D01*
X3996Y220D01*
X3996Y222D01*
X3998Y222D01*
X3998Y226D01*
X4000Y226D01*
X4000Y228D01*
X4002Y228D01*
X4002Y232D01*
X4004Y232D01*
X4004Y234D01*
X4006Y234D01*
X4006Y238D01*
X4008Y238D01*
X4008Y242D01*
X4010Y242D01*
X4010Y244D01*
X4012Y244D01*
X4012Y248D01*
X4014Y248D01*
X4014Y250D01*
X4016Y250D01*
X4016Y254D01*
X4018Y254D01*
X4018Y256D01*
X4020Y256D01*
X4020Y260D01*
X4022Y260D01*
X4022Y264D01*
X4024Y264D01*
X4024Y266D01*
X4026Y266D01*
X4026Y270D01*
X4028Y270D01*
X4028Y272D01*
X4030Y272D01*
X4030Y276D01*
X4032Y276D01*
X4032Y278D01*
X4034Y278D01*
X4034Y282D01*
X4036Y282D01*
X4036Y284D01*
X4038Y284D01*
X4038Y288D01*
X4040Y288D01*
X4040Y292D01*
X4042Y292D01*
X4042Y294D01*
X4044Y294D01*
X4044Y298D01*
X4046Y298D01*
X4046Y300D01*
X4048Y300D01*
X4048Y304D01*
X4050Y304D01*
X4050Y306D01*
X4052Y306D01*
X4052Y310D01*
X4054Y310D01*
X4054Y314D01*
X4056Y314D01*
X4056Y316D01*
X4058Y316D01*
X4058Y320D01*
X4060Y320D01*
X4060Y322D01*
X4062Y322D01*
X4062Y326D01*
X4064Y326D01*
X4064Y328D01*
X4066Y328D01*
X4066Y332D01*
X4068Y332D01*
X4068Y336D01*
X4070Y336D01*
X4070Y338D01*
X4072Y338D01*
X4072Y342D01*
X4074Y342D01*
X4074Y344D01*
X4076Y344D01*
X4076Y348D01*
X4078Y348D01*
X4078Y350D01*
X4080Y350D01*
X4080Y354D01*
X4082Y354D01*
X4082Y358D01*
X4084Y358D01*
X4084Y360D01*
X4086Y360D01*
X4086Y364D01*
X4088Y364D01*
X4088Y366D01*
X4090Y366D01*
X4090Y370D01*
X4092Y370D01*
X4092Y372D01*
X4094Y372D01*
X4094Y376D01*
X4096Y376D01*
X4096Y378D01*
X4098Y378D01*
X4098Y382D01*
X4100Y382D01*
X4100Y386D01*
X4102Y386D01*
X4102Y388D01*
X4104Y388D01*
X4104Y392D01*
X4106Y392D01*
X4106Y394D01*
X4108Y394D01*
X4108Y398D01*
X4110Y398D01*
X4110Y400D01*
X4112Y400D01*
X4112Y404D01*
X4114Y404D01*
X4114Y408D01*
X4116Y408D01*
X4116Y410D01*
X4118Y410D01*
X4118Y414D01*
X4120Y414D01*
X4120Y416D01*
X4122Y416D01*
X4122Y420D01*
X4124Y420D01*
X4124Y422D01*
X4126Y422D01*
X4126Y426D01*
X4128Y426D01*
X4128Y430D01*
X4130Y430D01*
X4130Y432D01*
X4132Y432D01*
X4132Y436D01*
X4134Y436D01*
X4134Y438D01*
X4136Y438D01*
X4136Y442D01*
X4138Y442D01*
X4138Y444D01*
X4140Y444D01*
X4140Y448D01*
X4142Y448D01*
X4142Y452D01*
X4144Y452D01*
X4144Y454D01*
X4146Y454D01*
X4146Y458D01*
X4148Y458D01*
X4148Y460D01*
X4150Y460D01*
X4150Y464D01*
X4152Y464D01*
X4152Y466D01*
X4154Y466D01*
X4154Y470D01*
X4156Y470D01*
X4156Y472D01*
X4158Y472D01*
X4158Y476D01*
X4160Y476D01*
X4160Y480D01*
X4162Y480D01*
X4162Y482D01*
X4164Y482D01*
X4164Y486D01*
X4166Y486D01*
X4166Y488D01*
X4168Y488D01*
X4168Y492D01*
X4170Y492D01*
X4170Y494D01*
X4172Y494D01*
X4172Y498D01*
X4174Y498D01*
X4174Y502D01*
X4176Y502D01*
X4176Y504D01*
X4178Y504D01*
X4178Y508D01*
X4180Y508D01*
X4180Y510D01*
X4182Y510D01*
X4182Y514D01*
X4184Y514D01*
X4184Y516D01*
X4186Y516D01*
X4186Y520D01*
X4188Y520D01*
X4188Y524D01*
X4190Y524D01*
X4190Y526D01*
X4192Y526D01*
X4192Y530D01*
X4194Y530D01*
X4194Y532D01*
X4196Y532D01*
X4196Y536D01*
X4198Y536D01*
X4198Y538D01*
X4200Y538D01*
X4200Y542D01*
X4202Y542D01*
X4202Y546D01*
X4204Y546D01*
X4204Y548D01*
X4206Y548D01*
X4206Y552D01*
X4208Y552D01*
X4208Y554D01*
X4210Y554D01*
X4210Y558D01*
X4212Y558D01*
X4212Y560D01*
X4214Y560D01*
X4214Y564D01*
X4216Y564D01*
X4216Y568D01*
X4218Y568D01*
X4218Y570D01*
X4220Y570D01*
X4220Y574D01*
X4222Y574D01*
X4222Y576D01*
X4224Y576D01*
X4224Y580D01*
X4226Y580D01*
X4226Y582D01*
X4228Y582D01*
X4228Y586D01*
X4230Y586D01*
X4230Y588D01*
X4232Y588D01*
X4232Y592D01*
X4234Y592D01*
X4234Y596D01*
X4236Y596D01*
X4236Y598D01*
X4238Y598D01*
X4238Y602D01*
X4240Y602D01*
X4240Y604D01*
X4242Y604D01*
X4242Y608D01*
X4244Y608D01*
X4244Y610D01*
X4246Y610D01*
X4246Y614D01*
X4248Y614D01*
X4248Y618D01*
X4250Y618D01*
X4250Y620D01*
X4252Y620D01*
X4252Y624D01*
X4254Y624D01*
X4254Y626D01*
X4256Y626D01*
X4256Y630D01*
X4258Y630D01*
X4258Y632D01*
X4260Y632D01*
X4260Y636D01*
X4262Y636D01*
X4262Y640D01*
X4264Y640D01*
X4264Y642D01*
X4266Y642D01*
X4266Y646D01*
X4268Y646D01*
X4268Y666D01*
X4266Y666D01*
X4266Y690D01*
X4268Y690D01*
X4268Y698D01*
X4270Y698D01*
X4270Y702D01*
X4272Y702D01*
X4272Y704D01*
X4274Y704D01*
X4274Y708D01*
X4276Y708D01*
X4276Y710D01*
X4278Y710D01*
X4278Y712D01*
X4280Y712D01*
X4280Y714D01*
X4282Y714D01*
X4282Y716D01*
X4284Y716D01*
X4284Y718D01*
X4288Y718D01*
X4288Y738D01*
X4286Y738D01*
X4286Y740D01*
X4282Y740D01*
X4282Y742D01*
X4280Y742D01*
X4280Y744D01*
X4278Y744D01*
X4278Y746D01*
X4276Y746D01*
X4276Y750D01*
X4274Y750D01*
X4274Y752D01*
X4272Y752D01*
X4272Y756D01*
X4270Y756D01*
X4270Y760D01*
X4268Y760D01*
X4268Y766D01*
X4266Y766D01*
X4266Y790D01*
X4268Y790D01*
X4268Y798D01*
X4270Y798D01*
X4270Y802D01*
X4272Y802D01*
X4272Y804D01*
X4274Y804D01*
X4274Y808D01*
X4276Y808D01*
X4276Y810D01*
X4278Y810D01*
X4278Y812D01*
X4280Y812D01*
X4280Y814D01*
X4282Y814D01*
X4282Y816D01*
X4284Y816D01*
X4284Y818D01*
X4288Y818D01*
X4288Y820D01*
X4290Y820D01*
X4290Y822D01*
X4294Y822D01*
X4294Y824D01*
X4300Y824D01*
X4300Y826D01*
X4310Y826D01*
X4310Y828D01*
X3786Y828D01*
G37*
D02*
G36*
X4004Y152D02*
X4004Y150D01*
X4002Y150D01*
X4002Y146D01*
X4000Y146D01*
X4000Y144D01*
X3998Y144D01*
X3998Y140D01*
X3996Y140D01*
X3996Y138D01*
X3994Y138D01*
X3994Y134D01*
X3992Y134D01*
X3992Y132D01*
X3990Y132D01*
X3990Y106D01*
X3992Y106D01*
X3992Y92D01*
X3990Y92D01*
X3990Y84D01*
X3988Y84D01*
X3988Y80D01*
X3986Y80D01*
X3986Y76D01*
X3984Y76D01*
X3984Y72D01*
X3982Y72D01*
X3982Y70D01*
X3980Y70D01*
X3980Y68D01*
X3978Y68D01*
X3978Y66D01*
X3976Y66D01*
X3976Y64D01*
X3974Y64D01*
X3974Y62D01*
X3972Y62D01*
X3972Y60D01*
X3968Y60D01*
X3968Y40D01*
X4642Y40D01*
X4642Y62D01*
X4640Y62D01*
X4640Y68D01*
X4638Y68D01*
X4638Y80D01*
X4636Y80D01*
X4636Y92D01*
X4638Y92D01*
X4638Y102D01*
X4640Y102D01*
X4640Y108D01*
X4642Y108D01*
X4642Y114D01*
X4644Y114D01*
X4644Y118D01*
X4646Y118D01*
X4646Y120D01*
X4648Y120D01*
X4648Y124D01*
X4650Y124D01*
X4650Y126D01*
X4652Y126D01*
X4652Y128D01*
X4654Y128D01*
X4654Y130D01*
X4656Y130D01*
X4656Y132D01*
X4658Y132D01*
X4658Y134D01*
X4660Y134D01*
X4660Y136D01*
X4662Y136D01*
X4662Y138D01*
X4664Y138D01*
X4664Y140D01*
X4668Y140D01*
X4668Y142D01*
X4670Y142D01*
X4670Y144D01*
X4674Y144D01*
X4674Y146D01*
X4680Y146D01*
X4680Y148D01*
X4686Y148D01*
X4686Y150D01*
X4700Y150D01*
X4700Y152D01*
X4004Y152D01*
G37*
D02*
G36*
X3696Y1552D02*
X3696Y1544D01*
X3694Y1544D01*
X3694Y1538D01*
X3692Y1538D01*
X3692Y1534D01*
X3690Y1534D01*
X3690Y1532D01*
X3688Y1532D01*
X3688Y1528D01*
X3686Y1528D01*
X3686Y1526D01*
X3684Y1526D01*
X3684Y1524D01*
X3680Y1524D01*
X3680Y1522D01*
X3678Y1522D01*
X3678Y1520D01*
X3674Y1520D01*
X3674Y1518D01*
X3670Y1518D01*
X3670Y1516D01*
X3662Y1516D01*
X3662Y1496D01*
X3668Y1496D01*
X3668Y1494D01*
X3674Y1494D01*
X3674Y1492D01*
X3676Y1492D01*
X3676Y1490D01*
X3680Y1490D01*
X3680Y1488D01*
X3682Y1488D01*
X3682Y1486D01*
X3684Y1486D01*
X3684Y1484D01*
X3686Y1484D01*
X3686Y1482D01*
X3688Y1482D01*
X3688Y1480D01*
X3690Y1480D01*
X3690Y1476D01*
X3692Y1476D01*
X3692Y1474D01*
X3694Y1474D01*
X3694Y1468D01*
X3696Y1468D01*
X3696Y1460D01*
X3716Y1460D01*
X3716Y1468D01*
X3718Y1468D01*
X3718Y1474D01*
X3720Y1474D01*
X3720Y1478D01*
X3722Y1478D01*
X3722Y1480D01*
X3724Y1480D01*
X3724Y1482D01*
X3726Y1482D01*
X3726Y1484D01*
X3728Y1484D01*
X3728Y1486D01*
X3730Y1486D01*
X3730Y1488D01*
X3732Y1488D01*
X3732Y1490D01*
X3736Y1490D01*
X3736Y1492D01*
X3738Y1492D01*
X3738Y1494D01*
X3744Y1494D01*
X3744Y1496D01*
X3750Y1496D01*
X3750Y1516D01*
X3742Y1516D01*
X3742Y1518D01*
X3738Y1518D01*
X3738Y1520D01*
X3734Y1520D01*
X3734Y1522D01*
X3732Y1522D01*
X3732Y1524D01*
X3728Y1524D01*
X3728Y1526D01*
X3726Y1526D01*
X3726Y1528D01*
X3724Y1528D01*
X3724Y1532D01*
X3722Y1532D01*
X3722Y1534D01*
X3720Y1534D01*
X3720Y1538D01*
X3718Y1538D01*
X3718Y1542D01*
X3716Y1542D01*
X3716Y1552D01*
X3696Y1552D01*
G37*
D02*
G36*
X3696Y1452D02*
X3696Y1444D01*
X3694Y1444D01*
X3694Y1438D01*
X3692Y1438D01*
X3692Y1434D01*
X3690Y1434D01*
X3690Y1432D01*
X3688Y1432D01*
X3688Y1428D01*
X3686Y1428D01*
X3686Y1426D01*
X3684Y1426D01*
X3684Y1424D01*
X3680Y1424D01*
X3680Y1422D01*
X3678Y1422D01*
X3678Y1420D01*
X3674Y1420D01*
X3674Y1418D01*
X3670Y1418D01*
X3670Y1416D01*
X3662Y1416D01*
X3662Y1396D01*
X3668Y1396D01*
X3668Y1394D01*
X3674Y1394D01*
X3674Y1392D01*
X3676Y1392D01*
X3676Y1390D01*
X3680Y1390D01*
X3680Y1388D01*
X3682Y1388D01*
X3682Y1386D01*
X3684Y1386D01*
X3684Y1384D01*
X3686Y1384D01*
X3686Y1382D01*
X3688Y1382D01*
X3688Y1380D01*
X3690Y1380D01*
X3690Y1376D01*
X3692Y1376D01*
X3692Y1374D01*
X3694Y1374D01*
X3694Y1368D01*
X3696Y1368D01*
X3696Y1360D01*
X3716Y1360D01*
X3716Y1368D01*
X3718Y1368D01*
X3718Y1374D01*
X3720Y1374D01*
X3720Y1378D01*
X3722Y1378D01*
X3722Y1380D01*
X3724Y1380D01*
X3724Y1382D01*
X3726Y1382D01*
X3726Y1384D01*
X3728Y1384D01*
X3728Y1386D01*
X3730Y1386D01*
X3730Y1388D01*
X3732Y1388D01*
X3732Y1390D01*
X3736Y1390D01*
X3736Y1392D01*
X3738Y1392D01*
X3738Y1394D01*
X3744Y1394D01*
X3744Y1396D01*
X3750Y1396D01*
X3750Y1416D01*
X3742Y1416D01*
X3742Y1418D01*
X3738Y1418D01*
X3738Y1420D01*
X3734Y1420D01*
X3734Y1422D01*
X3732Y1422D01*
X3732Y1424D01*
X3728Y1424D01*
X3728Y1426D01*
X3726Y1426D01*
X3726Y1428D01*
X3724Y1428D01*
X3724Y1432D01*
X3722Y1432D01*
X3722Y1434D01*
X3720Y1434D01*
X3720Y1438D01*
X3718Y1438D01*
X3718Y1442D01*
X3716Y1442D01*
X3716Y1452D01*
X3696Y1452D01*
G37*
D02*
G36*
X3696Y1352D02*
X3696Y1344D01*
X3694Y1344D01*
X3694Y1338D01*
X3692Y1338D01*
X3692Y1334D01*
X3690Y1334D01*
X3690Y1332D01*
X3688Y1332D01*
X3688Y1328D01*
X3686Y1328D01*
X3686Y1326D01*
X3684Y1326D01*
X3684Y1324D01*
X3680Y1324D01*
X3680Y1322D01*
X3678Y1322D01*
X3678Y1320D01*
X3674Y1320D01*
X3674Y1318D01*
X3670Y1318D01*
X3670Y1316D01*
X3662Y1316D01*
X3662Y1296D01*
X3668Y1296D01*
X3668Y1294D01*
X3674Y1294D01*
X3674Y1292D01*
X3676Y1292D01*
X3676Y1290D01*
X3680Y1290D01*
X3680Y1288D01*
X3682Y1288D01*
X3682Y1286D01*
X3684Y1286D01*
X3684Y1284D01*
X3686Y1284D01*
X3686Y1282D01*
X3688Y1282D01*
X3688Y1280D01*
X3690Y1280D01*
X3690Y1276D01*
X3692Y1276D01*
X3692Y1274D01*
X3694Y1274D01*
X3694Y1268D01*
X3696Y1268D01*
X3696Y1260D01*
X3716Y1260D01*
X3716Y1268D01*
X3718Y1268D01*
X3718Y1274D01*
X3720Y1274D01*
X3720Y1278D01*
X3722Y1278D01*
X3722Y1280D01*
X3724Y1280D01*
X3724Y1282D01*
X3726Y1282D01*
X3726Y1284D01*
X3728Y1284D01*
X3728Y1286D01*
X3730Y1286D01*
X3730Y1288D01*
X3732Y1288D01*
X3732Y1290D01*
X3736Y1290D01*
X3736Y1292D01*
X3738Y1292D01*
X3738Y1294D01*
X3744Y1294D01*
X3744Y1296D01*
X3750Y1296D01*
X3750Y1316D01*
X3742Y1316D01*
X3742Y1318D01*
X3738Y1318D01*
X3738Y1320D01*
X3734Y1320D01*
X3734Y1322D01*
X3732Y1322D01*
X3732Y1324D01*
X3728Y1324D01*
X3728Y1326D01*
X3726Y1326D01*
X3726Y1328D01*
X3724Y1328D01*
X3724Y1332D01*
X3722Y1332D01*
X3722Y1334D01*
X3720Y1334D01*
X3720Y1338D01*
X3718Y1338D01*
X3718Y1342D01*
X3716Y1342D01*
X3716Y1352D01*
X3696Y1352D01*
G37*
D02*
G36*
X3696Y1252D02*
X3696Y1244D01*
X3694Y1244D01*
X3694Y1238D01*
X3692Y1238D01*
X3692Y1234D01*
X3690Y1234D01*
X3690Y1232D01*
X3688Y1232D01*
X3688Y1228D01*
X3686Y1228D01*
X3686Y1226D01*
X3684Y1226D01*
X3684Y1224D01*
X3680Y1224D01*
X3680Y1222D01*
X3678Y1222D01*
X3678Y1220D01*
X3674Y1220D01*
X3674Y1218D01*
X3670Y1218D01*
X3670Y1216D01*
X3662Y1216D01*
X3662Y1196D01*
X3668Y1196D01*
X3668Y1194D01*
X3674Y1194D01*
X3674Y1192D01*
X3676Y1192D01*
X3676Y1190D01*
X3680Y1190D01*
X3680Y1188D01*
X3682Y1188D01*
X3682Y1186D01*
X3684Y1186D01*
X3684Y1184D01*
X3686Y1184D01*
X3686Y1182D01*
X3688Y1182D01*
X3688Y1180D01*
X3690Y1180D01*
X3690Y1176D01*
X3692Y1176D01*
X3692Y1174D01*
X3694Y1174D01*
X3694Y1168D01*
X3696Y1168D01*
X3696Y1160D01*
X3716Y1160D01*
X3716Y1168D01*
X3718Y1168D01*
X3718Y1174D01*
X3720Y1174D01*
X3720Y1178D01*
X3722Y1178D01*
X3722Y1180D01*
X3724Y1180D01*
X3724Y1182D01*
X3726Y1182D01*
X3726Y1184D01*
X3728Y1184D01*
X3728Y1186D01*
X3730Y1186D01*
X3730Y1188D01*
X3732Y1188D01*
X3732Y1190D01*
X3736Y1190D01*
X3736Y1192D01*
X3738Y1192D01*
X3738Y1194D01*
X3744Y1194D01*
X3744Y1196D01*
X3750Y1196D01*
X3750Y1216D01*
X3742Y1216D01*
X3742Y1218D01*
X3738Y1218D01*
X3738Y1220D01*
X3734Y1220D01*
X3734Y1222D01*
X3732Y1222D01*
X3732Y1224D01*
X3728Y1224D01*
X3728Y1226D01*
X3726Y1226D01*
X3726Y1228D01*
X3724Y1228D01*
X3724Y1232D01*
X3722Y1232D01*
X3722Y1234D01*
X3720Y1234D01*
X3720Y1238D01*
X3718Y1238D01*
X3718Y1242D01*
X3716Y1242D01*
X3716Y1252D01*
X3696Y1252D01*
G37*
D02*
G36*
X3696Y1152D02*
X3696Y1144D01*
X3694Y1144D01*
X3694Y1138D01*
X3692Y1138D01*
X3692Y1134D01*
X3690Y1134D01*
X3690Y1132D01*
X3688Y1132D01*
X3688Y1128D01*
X3686Y1128D01*
X3686Y1126D01*
X3684Y1126D01*
X3684Y1124D01*
X3680Y1124D01*
X3680Y1122D01*
X3678Y1122D01*
X3678Y1120D01*
X3674Y1120D01*
X3674Y1118D01*
X3670Y1118D01*
X3670Y1116D01*
X3662Y1116D01*
X3662Y1096D01*
X3668Y1096D01*
X3668Y1094D01*
X3674Y1094D01*
X3674Y1092D01*
X3676Y1092D01*
X3676Y1090D01*
X3680Y1090D01*
X3680Y1088D01*
X3682Y1088D01*
X3682Y1086D01*
X3684Y1086D01*
X3684Y1084D01*
X3686Y1084D01*
X3686Y1082D01*
X3688Y1082D01*
X3688Y1080D01*
X3690Y1080D01*
X3690Y1076D01*
X3692Y1076D01*
X3692Y1074D01*
X3694Y1074D01*
X3694Y1068D01*
X3696Y1068D01*
X3696Y1060D01*
X3716Y1060D01*
X3716Y1068D01*
X3718Y1068D01*
X3718Y1074D01*
X3720Y1074D01*
X3720Y1078D01*
X3722Y1078D01*
X3722Y1080D01*
X3724Y1080D01*
X3724Y1082D01*
X3726Y1082D01*
X3726Y1084D01*
X3728Y1084D01*
X3728Y1086D01*
X3730Y1086D01*
X3730Y1088D01*
X3732Y1088D01*
X3732Y1090D01*
X3736Y1090D01*
X3736Y1092D01*
X3738Y1092D01*
X3738Y1094D01*
X3744Y1094D01*
X3744Y1096D01*
X3750Y1096D01*
X3750Y1116D01*
X3742Y1116D01*
X3742Y1118D01*
X3738Y1118D01*
X3738Y1120D01*
X3734Y1120D01*
X3734Y1122D01*
X3732Y1122D01*
X3732Y1124D01*
X3728Y1124D01*
X3728Y1126D01*
X3726Y1126D01*
X3726Y1128D01*
X3724Y1128D01*
X3724Y1132D01*
X3722Y1132D01*
X3722Y1134D01*
X3720Y1134D01*
X3720Y1138D01*
X3718Y1138D01*
X3718Y1142D01*
X3716Y1142D01*
X3716Y1152D01*
X3696Y1152D01*
G37*
D02*
G36*
X3696Y1052D02*
X3696Y1044D01*
X3694Y1044D01*
X3694Y1038D01*
X3692Y1038D01*
X3692Y1034D01*
X3690Y1034D01*
X3690Y1032D01*
X3688Y1032D01*
X3688Y1028D01*
X3686Y1028D01*
X3686Y1026D01*
X3684Y1026D01*
X3684Y1024D01*
X3680Y1024D01*
X3680Y1022D01*
X3678Y1022D01*
X3678Y1020D01*
X3674Y1020D01*
X3674Y1018D01*
X3670Y1018D01*
X3670Y1016D01*
X3662Y1016D01*
X3662Y996D01*
X3668Y996D01*
X3668Y994D01*
X3674Y994D01*
X3674Y992D01*
X3676Y992D01*
X3676Y990D01*
X3680Y990D01*
X3680Y988D01*
X3682Y988D01*
X3682Y986D01*
X3684Y986D01*
X3684Y984D01*
X3686Y984D01*
X3686Y982D01*
X3688Y982D01*
X3688Y980D01*
X3690Y980D01*
X3690Y976D01*
X3692Y976D01*
X3692Y974D01*
X3694Y974D01*
X3694Y968D01*
X3696Y968D01*
X3696Y960D01*
X3716Y960D01*
X3716Y968D01*
X3718Y968D01*
X3718Y974D01*
X3720Y974D01*
X3720Y978D01*
X3722Y978D01*
X3722Y980D01*
X3724Y980D01*
X3724Y982D01*
X3726Y982D01*
X3726Y984D01*
X3728Y984D01*
X3728Y986D01*
X3730Y986D01*
X3730Y988D01*
X3732Y988D01*
X3732Y990D01*
X3736Y990D01*
X3736Y992D01*
X3738Y992D01*
X3738Y994D01*
X3744Y994D01*
X3744Y996D01*
X3750Y996D01*
X3750Y1016D01*
X3742Y1016D01*
X3742Y1018D01*
X3738Y1018D01*
X3738Y1020D01*
X3734Y1020D01*
X3734Y1022D01*
X3732Y1022D01*
X3732Y1024D01*
X3728Y1024D01*
X3728Y1026D01*
X3726Y1026D01*
X3726Y1028D01*
X3724Y1028D01*
X3724Y1032D01*
X3722Y1032D01*
X3722Y1034D01*
X3720Y1034D01*
X3720Y1038D01*
X3718Y1038D01*
X3718Y1042D01*
X3716Y1042D01*
X3716Y1052D01*
X3696Y1052D01*
G37*
D02*
G36*
X3696Y952D02*
X3696Y944D01*
X3694Y944D01*
X3694Y938D01*
X3692Y938D01*
X3692Y934D01*
X3690Y934D01*
X3690Y932D01*
X3688Y932D01*
X3688Y928D01*
X3686Y928D01*
X3686Y926D01*
X3684Y926D01*
X3684Y924D01*
X3680Y924D01*
X3680Y922D01*
X3678Y922D01*
X3678Y920D01*
X3674Y920D01*
X3674Y918D01*
X3670Y918D01*
X3670Y916D01*
X3662Y916D01*
X3662Y896D01*
X3668Y896D01*
X3668Y894D01*
X3674Y894D01*
X3674Y892D01*
X3676Y892D01*
X3676Y890D01*
X3680Y890D01*
X3680Y888D01*
X3682Y888D01*
X3682Y886D01*
X3684Y886D01*
X3684Y884D01*
X3686Y884D01*
X3686Y882D01*
X3688Y882D01*
X3688Y880D01*
X3690Y880D01*
X3690Y876D01*
X3692Y876D01*
X3692Y874D01*
X3694Y874D01*
X3694Y868D01*
X3696Y868D01*
X3696Y860D01*
X3716Y860D01*
X3716Y868D01*
X3718Y868D01*
X3718Y874D01*
X3720Y874D01*
X3720Y878D01*
X3722Y878D01*
X3722Y880D01*
X3724Y880D01*
X3724Y882D01*
X3726Y882D01*
X3726Y884D01*
X3728Y884D01*
X3728Y886D01*
X3730Y886D01*
X3730Y888D01*
X3732Y888D01*
X3732Y890D01*
X3736Y890D01*
X3736Y892D01*
X3738Y892D01*
X3738Y894D01*
X3744Y894D01*
X3744Y896D01*
X3750Y896D01*
X3750Y916D01*
X3742Y916D01*
X3742Y918D01*
X3738Y918D01*
X3738Y920D01*
X3734Y920D01*
X3734Y922D01*
X3732Y922D01*
X3732Y924D01*
X3728Y924D01*
X3728Y926D01*
X3726Y926D01*
X3726Y928D01*
X3724Y928D01*
X3724Y932D01*
X3722Y932D01*
X3722Y934D01*
X3720Y934D01*
X3720Y938D01*
X3718Y938D01*
X3718Y942D01*
X3716Y942D01*
X3716Y952D01*
X3696Y952D01*
G37*
D02*
G36*
X3696Y852D02*
X3696Y844D01*
X3694Y844D01*
X3694Y838D01*
X3692Y838D01*
X3692Y834D01*
X3690Y834D01*
X3690Y832D01*
X3688Y832D01*
X3688Y828D01*
X3686Y828D01*
X3686Y826D01*
X3684Y826D01*
X3684Y824D01*
X3680Y824D01*
X3680Y822D01*
X3678Y822D01*
X3678Y820D01*
X3674Y820D01*
X3674Y818D01*
X3670Y818D01*
X3670Y816D01*
X3662Y816D01*
X3662Y796D01*
X3668Y796D01*
X3668Y794D01*
X3674Y794D01*
X3674Y792D01*
X3676Y792D01*
X3676Y790D01*
X3680Y790D01*
X3680Y788D01*
X3682Y788D01*
X3682Y786D01*
X3684Y786D01*
X3684Y784D01*
X3686Y784D01*
X3686Y782D01*
X3688Y782D01*
X3688Y780D01*
X3690Y780D01*
X3690Y776D01*
X3692Y776D01*
X3692Y774D01*
X3694Y774D01*
X3694Y768D01*
X3696Y768D01*
X3696Y760D01*
X3716Y760D01*
X3716Y768D01*
X3718Y768D01*
X3718Y774D01*
X3720Y774D01*
X3720Y778D01*
X3722Y778D01*
X3722Y780D01*
X3724Y780D01*
X3724Y782D01*
X3726Y782D01*
X3726Y784D01*
X3728Y784D01*
X3728Y786D01*
X3730Y786D01*
X3730Y788D01*
X3732Y788D01*
X3732Y790D01*
X3736Y790D01*
X3736Y792D01*
X3738Y792D01*
X3738Y794D01*
X3744Y794D01*
X3744Y796D01*
X3750Y796D01*
X3750Y816D01*
X3742Y816D01*
X3742Y818D01*
X3738Y818D01*
X3738Y820D01*
X3734Y820D01*
X3734Y822D01*
X3732Y822D01*
X3732Y824D01*
X3728Y824D01*
X3728Y826D01*
X3726Y826D01*
X3726Y828D01*
X3724Y828D01*
X3724Y832D01*
X3722Y832D01*
X3722Y834D01*
X3720Y834D01*
X3720Y838D01*
X3718Y838D01*
X3718Y842D01*
X3716Y842D01*
X3716Y852D01*
X3696Y852D01*
G37*
D02*
G36*
X3696Y752D02*
X3696Y744D01*
X3694Y744D01*
X3694Y738D01*
X3692Y738D01*
X3692Y734D01*
X3690Y734D01*
X3690Y732D01*
X3688Y732D01*
X3688Y728D01*
X3686Y728D01*
X3686Y726D01*
X3684Y726D01*
X3684Y724D01*
X3680Y724D01*
X3680Y722D01*
X3678Y722D01*
X3678Y720D01*
X3674Y720D01*
X3674Y718D01*
X3670Y718D01*
X3670Y716D01*
X3662Y716D01*
X3662Y696D01*
X3668Y696D01*
X3668Y694D01*
X3674Y694D01*
X3674Y692D01*
X3676Y692D01*
X3676Y690D01*
X3680Y690D01*
X3680Y688D01*
X3682Y688D01*
X3682Y686D01*
X3684Y686D01*
X3684Y684D01*
X3686Y684D01*
X3686Y682D01*
X3688Y682D01*
X3688Y680D01*
X3690Y680D01*
X3690Y676D01*
X3692Y676D01*
X3692Y674D01*
X3694Y674D01*
X3694Y668D01*
X3696Y668D01*
X3696Y660D01*
X3716Y660D01*
X3716Y668D01*
X3718Y668D01*
X3718Y674D01*
X3720Y674D01*
X3720Y678D01*
X3722Y678D01*
X3722Y680D01*
X3724Y680D01*
X3724Y682D01*
X3726Y682D01*
X3726Y684D01*
X3728Y684D01*
X3728Y686D01*
X3730Y686D01*
X3730Y688D01*
X3732Y688D01*
X3732Y690D01*
X3736Y690D01*
X3736Y692D01*
X3738Y692D01*
X3738Y694D01*
X3744Y694D01*
X3744Y696D01*
X3750Y696D01*
X3750Y716D01*
X3742Y716D01*
X3742Y718D01*
X3738Y718D01*
X3738Y720D01*
X3734Y720D01*
X3734Y722D01*
X3732Y722D01*
X3732Y724D01*
X3728Y724D01*
X3728Y726D01*
X3726Y726D01*
X3726Y728D01*
X3724Y728D01*
X3724Y732D01*
X3722Y732D01*
X3722Y734D01*
X3720Y734D01*
X3720Y738D01*
X3718Y738D01*
X3718Y742D01*
X3716Y742D01*
X3716Y752D01*
X3696Y752D01*
G37*
D02*
G36*
X3696Y652D02*
X3696Y644D01*
X3694Y644D01*
X3694Y638D01*
X3692Y638D01*
X3692Y634D01*
X3690Y634D01*
X3690Y632D01*
X3688Y632D01*
X3688Y628D01*
X3686Y628D01*
X3686Y626D01*
X3684Y626D01*
X3684Y624D01*
X3680Y624D01*
X3680Y622D01*
X3678Y622D01*
X3678Y620D01*
X3674Y620D01*
X3674Y618D01*
X3670Y618D01*
X3670Y616D01*
X3662Y616D01*
X3662Y596D01*
X3668Y596D01*
X3668Y594D01*
X3674Y594D01*
X3674Y592D01*
X3676Y592D01*
X3676Y590D01*
X3680Y590D01*
X3680Y588D01*
X3682Y588D01*
X3682Y586D01*
X3684Y586D01*
X3684Y584D01*
X3686Y584D01*
X3686Y582D01*
X3688Y582D01*
X3688Y580D01*
X3690Y580D01*
X3690Y576D01*
X3692Y576D01*
X3692Y574D01*
X3694Y574D01*
X3694Y568D01*
X3696Y568D01*
X3696Y560D01*
X3716Y560D01*
X3716Y568D01*
X3718Y568D01*
X3718Y574D01*
X3720Y574D01*
X3720Y578D01*
X3722Y578D01*
X3722Y580D01*
X3724Y580D01*
X3724Y582D01*
X3726Y582D01*
X3726Y584D01*
X3728Y584D01*
X3728Y586D01*
X3730Y586D01*
X3730Y588D01*
X3732Y588D01*
X3732Y590D01*
X3736Y590D01*
X3736Y592D01*
X3738Y592D01*
X3738Y594D01*
X3744Y594D01*
X3744Y596D01*
X3750Y596D01*
X3750Y616D01*
X3742Y616D01*
X3742Y618D01*
X3738Y618D01*
X3738Y620D01*
X3734Y620D01*
X3734Y622D01*
X3732Y622D01*
X3732Y624D01*
X3728Y624D01*
X3728Y626D01*
X3726Y626D01*
X3726Y628D01*
X3724Y628D01*
X3724Y632D01*
X3722Y632D01*
X3722Y634D01*
X3720Y634D01*
X3720Y638D01*
X3718Y638D01*
X3718Y642D01*
X3716Y642D01*
X3716Y652D01*
X3696Y652D01*
G37*
D02*
G36*
X3696Y552D02*
X3696Y544D01*
X3694Y544D01*
X3694Y538D01*
X3692Y538D01*
X3692Y534D01*
X3690Y534D01*
X3690Y532D01*
X3688Y532D01*
X3688Y528D01*
X3686Y528D01*
X3686Y526D01*
X3684Y526D01*
X3684Y524D01*
X3680Y524D01*
X3680Y522D01*
X3678Y522D01*
X3678Y520D01*
X3674Y520D01*
X3674Y518D01*
X3670Y518D01*
X3670Y516D01*
X3662Y516D01*
X3662Y496D01*
X3668Y496D01*
X3668Y494D01*
X3674Y494D01*
X3674Y492D01*
X3676Y492D01*
X3676Y490D01*
X3680Y490D01*
X3680Y488D01*
X3682Y488D01*
X3682Y486D01*
X3684Y486D01*
X3684Y484D01*
X3686Y484D01*
X3686Y482D01*
X3688Y482D01*
X3688Y480D01*
X3690Y480D01*
X3690Y476D01*
X3692Y476D01*
X3692Y474D01*
X3694Y474D01*
X3694Y468D01*
X3696Y468D01*
X3696Y460D01*
X3716Y460D01*
X3716Y468D01*
X3718Y468D01*
X3718Y474D01*
X3720Y474D01*
X3720Y478D01*
X3722Y478D01*
X3722Y480D01*
X3724Y480D01*
X3724Y482D01*
X3726Y482D01*
X3726Y484D01*
X3728Y484D01*
X3728Y486D01*
X3730Y486D01*
X3730Y488D01*
X3732Y488D01*
X3732Y490D01*
X3736Y490D01*
X3736Y492D01*
X3738Y492D01*
X3738Y494D01*
X3744Y494D01*
X3744Y496D01*
X3750Y496D01*
X3750Y516D01*
X3742Y516D01*
X3742Y518D01*
X3738Y518D01*
X3738Y520D01*
X3734Y520D01*
X3734Y522D01*
X3732Y522D01*
X3732Y524D01*
X3728Y524D01*
X3728Y526D01*
X3726Y526D01*
X3726Y528D01*
X3724Y528D01*
X3724Y532D01*
X3722Y532D01*
X3722Y534D01*
X3720Y534D01*
X3720Y538D01*
X3718Y538D01*
X3718Y542D01*
X3716Y542D01*
X3716Y552D01*
X3696Y552D01*
G37*
D02*
G36*
X3696Y452D02*
X3696Y444D01*
X3694Y444D01*
X3694Y438D01*
X3692Y438D01*
X3692Y434D01*
X3690Y434D01*
X3690Y432D01*
X3688Y432D01*
X3688Y428D01*
X3686Y428D01*
X3686Y426D01*
X3684Y426D01*
X3684Y424D01*
X3680Y424D01*
X3680Y422D01*
X3678Y422D01*
X3678Y420D01*
X3674Y420D01*
X3674Y418D01*
X3670Y418D01*
X3670Y416D01*
X3662Y416D01*
X3662Y396D01*
X3668Y396D01*
X3668Y394D01*
X3674Y394D01*
X3674Y392D01*
X3676Y392D01*
X3676Y390D01*
X3680Y390D01*
X3680Y388D01*
X3682Y388D01*
X3682Y386D01*
X3684Y386D01*
X3684Y384D01*
X3686Y384D01*
X3686Y382D01*
X3688Y382D01*
X3688Y380D01*
X3690Y380D01*
X3690Y376D01*
X3692Y376D01*
X3692Y374D01*
X3694Y374D01*
X3694Y368D01*
X3696Y368D01*
X3696Y360D01*
X3716Y360D01*
X3716Y368D01*
X3718Y368D01*
X3718Y374D01*
X3720Y374D01*
X3720Y378D01*
X3722Y378D01*
X3722Y380D01*
X3724Y380D01*
X3724Y382D01*
X3726Y382D01*
X3726Y384D01*
X3728Y384D01*
X3728Y386D01*
X3730Y386D01*
X3730Y388D01*
X3732Y388D01*
X3732Y390D01*
X3734Y390D01*
X3734Y422D01*
X3732Y422D01*
X3732Y424D01*
X3728Y424D01*
X3728Y426D01*
X3726Y426D01*
X3726Y428D01*
X3724Y428D01*
X3724Y432D01*
X3722Y432D01*
X3722Y434D01*
X3720Y434D01*
X3720Y438D01*
X3718Y438D01*
X3718Y442D01*
X3716Y442D01*
X3716Y452D01*
X3696Y452D01*
G37*
D02*
G36*
X3784Y76D02*
X3784Y72D01*
X3782Y72D01*
X3782Y70D01*
X3780Y70D01*
X3780Y68D01*
X3778Y68D01*
X3778Y66D01*
X3776Y66D01*
X3776Y64D01*
X3774Y64D01*
X3774Y62D01*
X3772Y62D01*
X3772Y60D01*
X3768Y60D01*
X3768Y40D01*
X3820Y40D01*
X3820Y60D01*
X3818Y60D01*
X3818Y62D01*
X3814Y62D01*
X3814Y64D01*
X3812Y64D01*
X3812Y66D01*
X3810Y66D01*
X3810Y68D01*
X3808Y68D01*
X3808Y72D01*
X3806Y72D01*
X3806Y74D01*
X3804Y74D01*
X3804Y76D01*
X3784Y76D01*
G37*
D02*
G36*
X3884Y76D02*
X3884Y72D01*
X3882Y72D01*
X3882Y70D01*
X3880Y70D01*
X3880Y68D01*
X3878Y68D01*
X3878Y66D01*
X3876Y66D01*
X3876Y64D01*
X3874Y64D01*
X3874Y62D01*
X3872Y62D01*
X3872Y60D01*
X3868Y60D01*
X3868Y40D01*
X3920Y40D01*
X3920Y60D01*
X3918Y60D01*
X3918Y62D01*
X3914Y62D01*
X3914Y64D01*
X3912Y64D01*
X3912Y66D01*
X3910Y66D01*
X3910Y68D01*
X3908Y68D01*
X3908Y72D01*
X3906Y72D01*
X3906Y74D01*
X3904Y74D01*
X3904Y76D01*
X3884Y76D01*
G37*
D02*
G36*
X3692Y3778D02*
X3735Y3778D01*
X3735Y3756D01*
X3692Y3756D01*
X3692Y3778D01*
G37*
D02*
G36*
X3632Y2302D02*
X3675Y2302D01*
X3675Y2278D01*
X3632Y2278D01*
X3632Y2302D01*
G37*
D02*
G36*
X3774Y1978D02*
X3798Y1978D01*
X3798Y1935D01*
X3774Y1935D01*
X3774Y1978D01*
G37*
D02*
G36*
X4289Y832D02*
X4334Y832D01*
X4334Y800D01*
X4289Y800D01*
X4289Y832D01*
G37*
D02*
G36*
X4330Y803D02*
X4364Y803D01*
X4364Y758D01*
X4330Y758D01*
X4330Y803D01*
G37*
D02*
G04 End of Copper1*
M02*