G04 MADE WITH FRITZING*
G04 WWW.FRITZING.ORG*
G04 DOUBLE SIDED*
G04 HOLES PLATED*
G04 CONTOUR ON CENTER OF CONTOUR VECTOR*
%ASAXBY*%
%FSLAX23Y23*%
%MOIN*%
%OFA0B0*%
%SFA1.0B1.0*%
%ADD10C,0.049370*%
%ADD11C,0.080000*%
%ADD12C,0.088000*%
%ADD13C,0.085000*%
%ADD14C,0.074000*%
%ADD15C,0.148425*%
%ADD16C,0.086000*%
%ADD17C,0.120236*%
%ADD18R,0.088000X0.088000*%
%ADD19R,0.001000X0.001000*%
%LNMASK1*%
G90*
G70*
G54D10*
X657Y3291D03*
X1227Y2651D03*
X839Y1960D03*
X2084Y2691D03*
X2472Y2291D03*
X2335Y1521D03*
G54D11*
X1537Y2272D03*
X1537Y2472D03*
X1537Y2172D03*
X1537Y2372D03*
X1537Y2072D03*
G54D12*
X1536Y2072D03*
X1536Y2172D03*
X1536Y2272D03*
X1536Y2372D03*
X1536Y2472D03*
G54D13*
X1307Y2297D03*
X907Y2297D03*
X1307Y2297D03*
X907Y2297D03*
G54D14*
X1721Y2487D03*
X1721Y2387D03*
X1721Y2287D03*
X1721Y2187D03*
X1721Y2087D03*
X2121Y2087D03*
X2121Y2187D03*
X2121Y2287D03*
X2121Y2387D03*
X2121Y2487D03*
X2121Y2587D03*
X1721Y2587D03*
X1721Y2487D03*
X1721Y2387D03*
X1721Y2287D03*
X1721Y2187D03*
X1721Y2087D03*
X2121Y2087D03*
X2121Y2187D03*
X2121Y2287D03*
X2121Y2387D03*
X2121Y2487D03*
X2121Y2587D03*
X1721Y2587D03*
G54D11*
X124Y1029D03*
X124Y929D03*
X124Y829D03*
X124Y729D03*
X124Y629D03*
G54D12*
X2439Y2477D03*
X2439Y2377D03*
X2438Y2185D03*
X2438Y2085D03*
X2439Y2769D03*
X2439Y2669D03*
X2439Y3156D03*
X2439Y3056D03*
X2439Y2956D03*
G54D15*
X1089Y111D03*
X2289Y111D03*
X1089Y111D03*
X2289Y111D03*
G54D11*
X746Y2763D03*
X746Y2663D03*
X746Y2563D03*
X746Y2463D03*
X746Y2363D03*
X746Y2263D03*
G54D16*
X146Y2663D03*
X146Y2563D03*
X146Y2463D03*
X146Y2363D03*
G54D11*
X746Y2763D03*
X746Y2663D03*
X746Y2563D03*
X746Y2463D03*
X746Y2363D03*
X746Y2263D03*
G54D16*
X146Y2663D03*
X146Y2563D03*
X146Y2463D03*
X146Y2363D03*
X717Y1820D03*
X717Y1720D03*
X717Y1620D03*
X717Y1520D03*
X717Y1420D03*
G54D11*
X1823Y721D03*
X1823Y621D03*
X1823Y521D03*
X1823Y421D03*
X1823Y321D03*
X1067Y721D03*
X1067Y621D03*
X1067Y521D03*
X1067Y421D03*
X1067Y321D03*
X267Y3402D03*
X267Y3302D03*
X267Y3202D03*
X267Y3102D03*
X267Y3002D03*
X267Y2902D03*
X1749Y3401D03*
X1749Y3301D03*
X1749Y3201D03*
X1749Y3101D03*
X1749Y3001D03*
X1749Y2901D03*
X1821Y1896D03*
X1821Y1797D03*
X1821Y1697D03*
X1821Y1597D03*
X1821Y1497D03*
X1821Y1397D03*
X1821Y1297D03*
X1821Y1197D03*
X1016Y3395D03*
X1016Y3295D03*
X1016Y3195D03*
X1016Y3095D03*
X1016Y2995D03*
X1016Y2895D03*
G54D17*
X2496Y86D03*
X2496Y3583D03*
X85Y86D03*
X86Y3583D03*
G54D12*
X605Y516D03*
X605Y416D03*
X605Y316D03*
X605Y216D03*
X605Y516D03*
X605Y416D03*
X605Y316D03*
X605Y216D03*
G54D10*
X1632Y1276D03*
X2008Y1527D03*
G54D18*
X2439Y3156D03*
X605Y516D03*
X605Y516D03*
G54D19*
X512Y3465D02*
X522Y3465D01*
X507Y3464D02*
X527Y3464D01*
X504Y3463D02*
X530Y3463D01*
X501Y3462D02*
X533Y3462D01*
X499Y3461D02*
X535Y3461D01*
X497Y3460D02*
X536Y3460D01*
X496Y3459D02*
X538Y3459D01*
X494Y3458D02*
X540Y3458D01*
X493Y3457D02*
X541Y3457D01*
X492Y3456D02*
X542Y3456D01*
X490Y3455D02*
X543Y3455D01*
X489Y3454D02*
X544Y3454D01*
X488Y3453D02*
X545Y3453D01*
X488Y3452D02*
X546Y3452D01*
X487Y3451D02*
X547Y3451D01*
X486Y3450D02*
X548Y3450D01*
X485Y3449D02*
X549Y3449D01*
X484Y3448D02*
X549Y3448D01*
X484Y3447D02*
X550Y3447D01*
X483Y3446D02*
X551Y3446D01*
X483Y3445D02*
X551Y3445D01*
X482Y3444D02*
X552Y3444D01*
X481Y3443D02*
X552Y3443D01*
X481Y3442D02*
X553Y3442D01*
X481Y3441D02*
X553Y3441D01*
X480Y3440D02*
X554Y3440D01*
X480Y3439D02*
X554Y3439D01*
X479Y3438D02*
X554Y3438D01*
X479Y3437D02*
X555Y3437D01*
X479Y3436D02*
X555Y3436D01*
X479Y3435D02*
X555Y3435D01*
X478Y3434D02*
X555Y3434D01*
X478Y3433D02*
X556Y3433D01*
X478Y3432D02*
X556Y3432D01*
X478Y3431D02*
X556Y3431D01*
X478Y3430D02*
X556Y3430D01*
X478Y3429D02*
X556Y3429D01*
X478Y3428D02*
X556Y3428D01*
X477Y3427D02*
X556Y3427D01*
X477Y3426D02*
X556Y3426D01*
X477Y3425D02*
X556Y3425D01*
X477Y3424D02*
X556Y3424D01*
X478Y3423D02*
X556Y3423D01*
X478Y3422D02*
X556Y3422D01*
X478Y3421D02*
X556Y3421D01*
X478Y3420D02*
X556Y3420D01*
X478Y3419D02*
X556Y3419D01*
X478Y3418D02*
X556Y3418D01*
X478Y3417D02*
X555Y3417D01*
X479Y3416D02*
X555Y3416D01*
X479Y3415D02*
X555Y3415D01*
X479Y3414D02*
X555Y3414D01*
X479Y3413D02*
X554Y3413D01*
X480Y3412D02*
X554Y3412D01*
X480Y3411D02*
X554Y3411D01*
X481Y3410D02*
X553Y3410D01*
X481Y3409D02*
X553Y3409D01*
X481Y3408D02*
X552Y3408D01*
X482Y3407D02*
X552Y3407D01*
X483Y3406D02*
X551Y3406D01*
X483Y3405D02*
X551Y3405D01*
X484Y3404D02*
X550Y3404D01*
X484Y3403D02*
X549Y3403D01*
X485Y3402D02*
X549Y3402D01*
X486Y3401D02*
X548Y3401D01*
X487Y3400D02*
X547Y3400D01*
X488Y3399D02*
X546Y3399D01*
X488Y3398D02*
X545Y3398D01*
X489Y3397D02*
X544Y3397D01*
X490Y3396D02*
X543Y3396D01*
X492Y3395D02*
X542Y3395D01*
X493Y3394D02*
X541Y3394D01*
X494Y3393D02*
X540Y3393D01*
X496Y3392D02*
X538Y3392D01*
X497Y3391D02*
X536Y3391D01*
X499Y3390D02*
X535Y3390D01*
X501Y3389D02*
X533Y3389D01*
X504Y3388D02*
X530Y3388D01*
X507Y3387D02*
X527Y3387D01*
X512Y3386D02*
X522Y3386D01*
X512Y3365D02*
X522Y3365D01*
X507Y3364D02*
X527Y3364D01*
X504Y3363D02*
X530Y3363D01*
X501Y3362D02*
X533Y3362D01*
X499Y3361D02*
X535Y3361D01*
X497Y3360D02*
X536Y3360D01*
X496Y3359D02*
X538Y3359D01*
X494Y3358D02*
X540Y3358D01*
X493Y3357D02*
X541Y3357D01*
X492Y3356D02*
X542Y3356D01*
X490Y3355D02*
X543Y3355D01*
X489Y3354D02*
X544Y3354D01*
X488Y3353D02*
X545Y3353D01*
X487Y3352D02*
X546Y3352D01*
X487Y3351D02*
X547Y3351D01*
X486Y3350D02*
X548Y3350D01*
X485Y3349D02*
X549Y3349D01*
X484Y3348D02*
X549Y3348D01*
X484Y3347D02*
X550Y3347D01*
X483Y3346D02*
X551Y3346D01*
X483Y3345D02*
X551Y3345D01*
X482Y3344D02*
X552Y3344D01*
X481Y3343D02*
X552Y3343D01*
X481Y3342D02*
X553Y3342D01*
X481Y3341D02*
X553Y3341D01*
X480Y3340D02*
X554Y3340D01*
X480Y3339D02*
X554Y3339D01*
X479Y3338D02*
X554Y3338D01*
X479Y3337D02*
X555Y3337D01*
X479Y3336D02*
X555Y3336D01*
X479Y3335D02*
X555Y3335D01*
X478Y3334D02*
X555Y3334D01*
X478Y3333D02*
X556Y3333D01*
X478Y3332D02*
X556Y3332D01*
X478Y3331D02*
X556Y3331D01*
X478Y3330D02*
X556Y3330D01*
X478Y3329D02*
X556Y3329D01*
X478Y3328D02*
X556Y3328D01*
X477Y3327D02*
X556Y3327D01*
X477Y3326D02*
X556Y3326D01*
X477Y3325D02*
X556Y3325D01*
X477Y3324D02*
X556Y3324D01*
X478Y3323D02*
X556Y3323D01*
X478Y3322D02*
X556Y3322D01*
X478Y3321D02*
X556Y3321D01*
X478Y3320D02*
X556Y3320D01*
X478Y3319D02*
X556Y3319D01*
X478Y3318D02*
X556Y3318D01*
X478Y3317D02*
X555Y3317D01*
X479Y3316D02*
X555Y3316D01*
X479Y3315D02*
X555Y3315D01*
X479Y3314D02*
X555Y3314D01*
X479Y3313D02*
X554Y3313D01*
X480Y3312D02*
X554Y3312D01*
X480Y3311D02*
X554Y3311D01*
X481Y3310D02*
X553Y3310D01*
X481Y3309D02*
X553Y3309D01*
X482Y3308D02*
X552Y3308D01*
X482Y3307D02*
X552Y3307D01*
X483Y3306D02*
X551Y3306D01*
X483Y3305D02*
X551Y3305D01*
X484Y3304D02*
X550Y3304D01*
X484Y3303D02*
X549Y3303D01*
X485Y3302D02*
X549Y3302D01*
X486Y3301D02*
X548Y3301D01*
X487Y3300D02*
X547Y3300D01*
X488Y3299D02*
X546Y3299D01*
X488Y3298D02*
X545Y3298D01*
X489Y3297D02*
X544Y3297D01*
X491Y3296D02*
X543Y3296D01*
X492Y3295D02*
X542Y3295D01*
X493Y3294D02*
X541Y3294D01*
X494Y3293D02*
X539Y3293D01*
X496Y3292D02*
X538Y3292D01*
X497Y3291D02*
X536Y3291D01*
X499Y3290D02*
X535Y3290D01*
X501Y3289D02*
X533Y3289D01*
X504Y3288D02*
X530Y3288D01*
X507Y3287D02*
X527Y3287D01*
X512Y3286D02*
X522Y3286D01*
X511Y3265D02*
X522Y3265D01*
X507Y3264D02*
X527Y3264D01*
X504Y3263D02*
X530Y3263D01*
X501Y3262D02*
X533Y3262D01*
X499Y3261D02*
X535Y3261D01*
X497Y3260D02*
X537Y3260D01*
X496Y3259D02*
X538Y3259D01*
X494Y3258D02*
X540Y3258D01*
X493Y3257D02*
X541Y3257D01*
X492Y3256D02*
X542Y3256D01*
X490Y3255D02*
X543Y3255D01*
X489Y3254D02*
X544Y3254D01*
X488Y3253D02*
X545Y3253D01*
X487Y3252D02*
X546Y3252D01*
X487Y3251D02*
X547Y3251D01*
X486Y3250D02*
X548Y3250D01*
X485Y3249D02*
X549Y3249D01*
X484Y3248D02*
X549Y3248D01*
X484Y3247D02*
X550Y3247D01*
X483Y3246D02*
X551Y3246D01*
X483Y3245D02*
X551Y3245D01*
X482Y3244D02*
X552Y3244D01*
X481Y3243D02*
X552Y3243D01*
X481Y3242D02*
X553Y3242D01*
X481Y3241D02*
X553Y3241D01*
X480Y3240D02*
X554Y3240D01*
X480Y3239D02*
X554Y3239D01*
X479Y3238D02*
X554Y3238D01*
X479Y3237D02*
X555Y3237D01*
X479Y3236D02*
X555Y3236D01*
X479Y3235D02*
X555Y3235D01*
X478Y3234D02*
X555Y3234D01*
X478Y3233D02*
X556Y3233D01*
X478Y3232D02*
X556Y3232D01*
X478Y3231D02*
X556Y3231D01*
X478Y3230D02*
X556Y3230D01*
X478Y3229D02*
X556Y3229D01*
X478Y3228D02*
X556Y3228D01*
X477Y3227D02*
X556Y3227D01*
X477Y3226D02*
X556Y3226D01*
X477Y3225D02*
X556Y3225D01*
X477Y3224D02*
X556Y3224D01*
X478Y3223D02*
X556Y3223D01*
X478Y3222D02*
X556Y3222D01*
X478Y3221D02*
X556Y3221D01*
X478Y3220D02*
X556Y3220D01*
X478Y3219D02*
X556Y3219D01*
X478Y3218D02*
X556Y3218D01*
X478Y3217D02*
X555Y3217D01*
X479Y3216D02*
X555Y3216D01*
X479Y3215D02*
X555Y3215D01*
X479Y3214D02*
X555Y3214D01*
X479Y3213D02*
X554Y3213D01*
X480Y3212D02*
X554Y3212D01*
X480Y3211D02*
X554Y3211D01*
X481Y3210D02*
X553Y3210D01*
X481Y3209D02*
X553Y3209D01*
X482Y3208D02*
X552Y3208D01*
X482Y3207D02*
X552Y3207D01*
X483Y3206D02*
X551Y3206D01*
X483Y3205D02*
X551Y3205D01*
X484Y3204D02*
X550Y3204D01*
X484Y3203D02*
X549Y3203D01*
X485Y3202D02*
X549Y3202D01*
X486Y3201D02*
X548Y3201D01*
X487Y3200D02*
X547Y3200D01*
X488Y3199D02*
X546Y3199D01*
X488Y3198D02*
X545Y3198D01*
X489Y3197D02*
X544Y3197D01*
X491Y3196D02*
X543Y3196D01*
X492Y3195D02*
X542Y3195D01*
X493Y3194D02*
X541Y3194D01*
X494Y3193D02*
X539Y3193D01*
X496Y3192D02*
X538Y3192D01*
X497Y3191D02*
X536Y3191D01*
X499Y3190D02*
X535Y3190D01*
X501Y3189D02*
X533Y3189D01*
X504Y3188D02*
X530Y3188D01*
X507Y3187D02*
X527Y3187D01*
X512Y3186D02*
X522Y3186D01*
X835Y1196D02*
X844Y1196D01*
X830Y1195D02*
X849Y1195D01*
X827Y1194D02*
X852Y1194D01*
X824Y1193D02*
X855Y1193D01*
X822Y1192D02*
X857Y1192D01*
X820Y1191D02*
X859Y1191D01*
X819Y1190D02*
X861Y1190D01*
X817Y1189D02*
X862Y1189D01*
X816Y1188D02*
X863Y1188D01*
X814Y1187D02*
X865Y1187D01*
X813Y1186D02*
X866Y1186D01*
X812Y1185D02*
X867Y1185D01*
X811Y1184D02*
X868Y1184D01*
X810Y1183D02*
X869Y1183D01*
X809Y1182D02*
X870Y1182D01*
X809Y1181D02*
X870Y1181D01*
X808Y1180D02*
X871Y1180D01*
X807Y1179D02*
X872Y1179D01*
X807Y1178D02*
X873Y1178D01*
X806Y1177D02*
X873Y1177D01*
X805Y1176D02*
X874Y1176D01*
X805Y1175D02*
X874Y1175D01*
X804Y1174D02*
X875Y1174D01*
X804Y1173D02*
X875Y1173D01*
X803Y1172D02*
X876Y1172D01*
X803Y1171D02*
X876Y1171D01*
X803Y1170D02*
X877Y1170D01*
X802Y1169D02*
X877Y1169D01*
X802Y1168D02*
X877Y1168D01*
X802Y1167D02*
X878Y1167D01*
X801Y1166D02*
X878Y1166D01*
X801Y1165D02*
X878Y1165D01*
X801Y1164D02*
X878Y1164D01*
X801Y1163D02*
X878Y1163D01*
X801Y1162D02*
X879Y1162D01*
X800Y1161D02*
X879Y1161D01*
X800Y1160D02*
X879Y1160D01*
X800Y1159D02*
X879Y1159D01*
X800Y1158D02*
X879Y1158D01*
X800Y1157D02*
X879Y1157D01*
X800Y1156D02*
X879Y1156D01*
X800Y1155D02*
X879Y1155D01*
X800Y1154D02*
X879Y1154D01*
X800Y1153D02*
X879Y1153D01*
X800Y1152D02*
X879Y1152D01*
X801Y1151D02*
X879Y1151D01*
X801Y1150D02*
X878Y1150D01*
X801Y1149D02*
X878Y1149D01*
X801Y1148D02*
X878Y1148D01*
X801Y1147D02*
X878Y1147D01*
X802Y1146D02*
X878Y1146D01*
X802Y1145D02*
X877Y1145D01*
X802Y1144D02*
X877Y1144D01*
X802Y1143D02*
X877Y1143D01*
X803Y1142D02*
X876Y1142D01*
X803Y1141D02*
X876Y1141D01*
X804Y1140D02*
X876Y1140D01*
X804Y1139D02*
X875Y1139D01*
X805Y1138D02*
X875Y1138D01*
X805Y1137D02*
X874Y1137D01*
X806Y1136D02*
X873Y1136D01*
X806Y1135D02*
X873Y1135D01*
X807Y1134D02*
X872Y1134D01*
X808Y1133D02*
X871Y1133D01*
X808Y1132D02*
X871Y1132D01*
X809Y1131D02*
X870Y1131D01*
X810Y1130D02*
X869Y1130D01*
X811Y1129D02*
X868Y1129D01*
X812Y1128D02*
X867Y1128D01*
X813Y1127D02*
X866Y1127D01*
X814Y1126D02*
X865Y1126D01*
X815Y1125D02*
X864Y1125D01*
X817Y1124D02*
X862Y1124D01*
X818Y1123D02*
X861Y1123D01*
X820Y1122D02*
X859Y1122D01*
X821Y1121D02*
X858Y1121D01*
X824Y1120D02*
X856Y1120D01*
X826Y1119D02*
X853Y1119D01*
X829Y1118D02*
X850Y1118D01*
X834Y1117D02*
X845Y1117D01*
X835Y1096D02*
X844Y1096D01*
X830Y1095D02*
X849Y1095D01*
X827Y1094D02*
X852Y1094D01*
X824Y1093D02*
X855Y1093D01*
X822Y1092D02*
X857Y1092D01*
X820Y1091D02*
X859Y1091D01*
X819Y1090D02*
X861Y1090D01*
X817Y1089D02*
X862Y1089D01*
X816Y1088D02*
X863Y1088D01*
X814Y1087D02*
X865Y1087D01*
X813Y1086D02*
X866Y1086D01*
X812Y1085D02*
X867Y1085D01*
X811Y1084D02*
X868Y1084D01*
X810Y1083D02*
X869Y1083D01*
X809Y1082D02*
X870Y1082D01*
X809Y1081D02*
X870Y1081D01*
X808Y1080D02*
X871Y1080D01*
X807Y1079D02*
X872Y1079D01*
X807Y1078D02*
X873Y1078D01*
X806Y1077D02*
X873Y1077D01*
X805Y1076D02*
X874Y1076D01*
X805Y1075D02*
X874Y1075D01*
X804Y1074D02*
X875Y1074D01*
X804Y1073D02*
X875Y1073D01*
X803Y1072D02*
X876Y1072D01*
X803Y1071D02*
X876Y1071D01*
X803Y1070D02*
X877Y1070D01*
X802Y1069D02*
X877Y1069D01*
X802Y1068D02*
X877Y1068D01*
X802Y1067D02*
X878Y1067D01*
X801Y1066D02*
X878Y1066D01*
X801Y1065D02*
X878Y1065D01*
X801Y1064D02*
X878Y1064D01*
X801Y1063D02*
X878Y1063D01*
X801Y1062D02*
X879Y1062D01*
X800Y1061D02*
X879Y1061D01*
X800Y1060D02*
X879Y1060D01*
X800Y1059D02*
X879Y1059D01*
X800Y1058D02*
X879Y1058D01*
X800Y1057D02*
X879Y1057D01*
X800Y1056D02*
X879Y1056D01*
X800Y1055D02*
X879Y1055D01*
X800Y1054D02*
X879Y1054D01*
X800Y1053D02*
X879Y1053D01*
X800Y1052D02*
X879Y1052D01*
X801Y1051D02*
X879Y1051D01*
X801Y1050D02*
X878Y1050D01*
X801Y1049D02*
X878Y1049D01*
X801Y1048D02*
X878Y1048D01*
X801Y1047D02*
X878Y1047D01*
X802Y1046D02*
X878Y1046D01*
X802Y1045D02*
X877Y1045D01*
X802Y1044D02*
X877Y1044D01*
X802Y1043D02*
X877Y1043D01*
X803Y1042D02*
X876Y1042D01*
X803Y1041D02*
X876Y1041D01*
X804Y1040D02*
X876Y1040D01*
X804Y1039D02*
X875Y1039D01*
X805Y1038D02*
X875Y1038D01*
X805Y1037D02*
X874Y1037D01*
X806Y1036D02*
X873Y1036D01*
X806Y1035D02*
X873Y1035D01*
X807Y1034D02*
X872Y1034D01*
X808Y1033D02*
X871Y1033D01*
X809Y1032D02*
X871Y1032D01*
X809Y1031D02*
X870Y1031D01*
X810Y1030D02*
X869Y1030D01*
X811Y1029D02*
X868Y1029D01*
X812Y1028D02*
X867Y1028D01*
X813Y1027D02*
X866Y1027D01*
X814Y1026D02*
X865Y1026D01*
X815Y1025D02*
X864Y1025D01*
X817Y1024D02*
X862Y1024D01*
X818Y1023D02*
X861Y1023D01*
X820Y1022D02*
X859Y1022D01*
X822Y1021D02*
X858Y1021D01*
X824Y1020D02*
X856Y1020D01*
X826Y1019D02*
X853Y1019D01*
X829Y1018D02*
X850Y1018D01*
X834Y1017D02*
X845Y1017D01*
X835Y996D02*
X844Y996D01*
X830Y995D02*
X849Y995D01*
X827Y994D02*
X853Y994D01*
X824Y993D02*
X855Y993D01*
X822Y992D02*
X857Y992D01*
X820Y991D02*
X859Y991D01*
X819Y990D02*
X861Y990D01*
X817Y989D02*
X862Y989D01*
X816Y988D02*
X863Y988D01*
X814Y987D02*
X865Y987D01*
X813Y986D02*
X866Y986D01*
X812Y985D02*
X867Y985D01*
X811Y984D02*
X868Y984D01*
X810Y983D02*
X869Y983D01*
X809Y982D02*
X870Y982D01*
X809Y981D02*
X871Y981D01*
X808Y980D02*
X871Y980D01*
X807Y979D02*
X872Y979D01*
X807Y978D02*
X873Y978D01*
X806Y977D02*
X873Y977D01*
X805Y976D02*
X874Y976D01*
X805Y975D02*
X874Y975D01*
X804Y974D02*
X875Y974D01*
X804Y973D02*
X875Y973D01*
X803Y972D02*
X876Y972D01*
X803Y971D02*
X876Y971D01*
X803Y970D02*
X877Y970D01*
X802Y969D02*
X877Y969D01*
X802Y968D02*
X877Y968D01*
X802Y967D02*
X878Y967D01*
X801Y966D02*
X878Y966D01*
X801Y965D02*
X878Y965D01*
X801Y964D02*
X878Y964D01*
X801Y963D02*
X878Y963D01*
X801Y962D02*
X879Y962D01*
X800Y961D02*
X879Y961D01*
X800Y960D02*
X879Y960D01*
X800Y959D02*
X879Y959D01*
X800Y958D02*
X879Y958D01*
X800Y957D02*
X879Y957D01*
X800Y956D02*
X879Y956D01*
X800Y955D02*
X879Y955D01*
X800Y954D02*
X879Y954D01*
X800Y953D02*
X879Y953D01*
X800Y952D02*
X879Y952D01*
X801Y951D02*
X879Y951D01*
X801Y950D02*
X878Y950D01*
X801Y949D02*
X878Y949D01*
X801Y948D02*
X878Y948D01*
X801Y947D02*
X878Y947D01*
X802Y946D02*
X878Y946D01*
X802Y945D02*
X877Y945D01*
X802Y944D02*
X877Y944D01*
X802Y943D02*
X877Y943D01*
X803Y942D02*
X876Y942D01*
X803Y941D02*
X876Y941D01*
X804Y940D02*
X876Y940D01*
X804Y939D02*
X875Y939D01*
X805Y938D02*
X875Y938D01*
X805Y937D02*
X874Y937D01*
X806Y936D02*
X873Y936D01*
X806Y935D02*
X873Y935D01*
X807Y934D02*
X872Y934D01*
X808Y933D02*
X871Y933D01*
X809Y932D02*
X871Y932D01*
X809Y931D02*
X870Y931D01*
X810Y930D02*
X869Y930D01*
X811Y929D02*
X868Y929D01*
X812Y928D02*
X867Y928D01*
X813Y927D02*
X866Y927D01*
X814Y926D02*
X865Y926D01*
X815Y925D02*
X864Y925D01*
X817Y924D02*
X862Y924D01*
X818Y923D02*
X861Y923D01*
X820Y922D02*
X859Y922D01*
X822Y921D02*
X858Y921D01*
X824Y920D02*
X855Y920D01*
X826Y919D02*
X853Y919D01*
X829Y918D02*
X850Y918D01*
X834Y917D02*
X845Y917D01*
D02*
G04 End of Mask1*
M02*