; NON-PLATED HOLES START AT T1
; THROUGH (PLATED) HOLES START AT T100
M48
INCH
T100C0.040000
T101C0.039370
T102C0.038000
T103C0.086614
T104C0.015748
T105C0.030000
T106C0.035000
T107C0.098425
%
T100
X017213Y024866
X017213Y023866
X021213Y020866
X021213Y024866
X021213Y023866
X021213Y025866
X017213Y020866
X021213Y021866
X017213Y022866
X017213Y025866
X017213Y021866
X021213Y022866
T101
X018231Y003208
X018211Y011965
X002665Y030019
X017493Y033007
X001236Y008290
X002665Y032019
X017493Y031007
X007174Y014197
X001236Y010290
X015369Y022720
X010672Y005208
X018211Y012965
X018211Y015965
X001236Y006290
X002665Y029019
X018231Y005208
X001460Y024634
X010672Y007208
X010672Y004208
X007174Y018197
X010164Y028952
X015369Y021720
X017493Y034006
X007460Y026634
X010164Y029952
X010164Y031952
X007460Y022634
X010672Y006208
X001236Y009290
X001460Y026634
X010672Y003208
X002665Y034019
X015369Y024720
X010164Y032952
X018211Y013965
X018211Y018964
X001236Y007290
X001460Y025634
X007460Y025634
X002665Y033019
X007174Y015197
X007460Y024634
X007174Y017197
X017493Y029007
X007460Y027634
X015369Y020720
X017493Y030007
X017493Y032007
X002665Y031019
X015369Y023720
X018211Y014965
X007174Y016197
X018231Y004208
X018211Y016965
X010164Y033952
X018211Y017965
X018231Y006208
X007460Y023634
X018231Y007208
X001460Y023634
X010164Y030952
T102
X024390Y027692
X006054Y004156
X024394Y023766
X024394Y029564
X015363Y022716
X024390Y026692
X024382Y020846
X006054Y002156
X024382Y021846
X006054Y005156
X006054Y003156
X024394Y024766
X024394Y031564
X024394Y030564
X015363Y021716
X015363Y023716
X015363Y024716
X015363Y020716
T103
X000853Y000855
X024964Y000856
X024964Y035825
X000855Y035826
T104
X008389Y019596
X020835Y026914
X024723Y022914
X020079Y015274
X023349Y015214
X012272Y026507
X016318Y012756
X006573Y032908
T105
X005175Y034249
X008404Y009551
X008404Y011551
X005175Y032249
X005175Y033249
X008404Y010551
T106
X013068Y022970
X009068Y022970
T107
X010893Y001106
X022893Y001106
T00
M30
